<svg version="1.1" id="Layer_1" xmlns="http://www.w3.org/2000/svg" xmlns:xlink="http://www.w3.org/1999/xlink" x="0px" y="0px"
	 width="100%" viewBox="0 0 359 351" enable-background="new 0 0 359 351" xml:space="preserve">
<path fill="#FFFFFF" opacity="1.000000" stroke="none" 
	d="
M199.000000,352.000000 
	C132.666672,352.000000 66.833359,352.000000 1.000026,352.000000 
	C1.000018,235.000031 1.000018,118.000069 1.000009,1.000074 
	C120.666618,1.000049 240.333237,1.000049 359.999878,1.000025 
	C359.999939,117.999931 359.999939,234.999863 359.999969,351.999878 
	C306.500000,352.000000 253.000000,352.000000 199.000000,352.000000 
M245.820404,170.215103 
	C245.820404,170.215103 245.794037,170.260712 245.881317,170.972076 
	C246.598740,172.959946 247.316162,174.947815 247.952560,177.780945 
	C245.708649,188.186203 245.732193,188.231812 254.805359,189.476166 
	C255.051758,189.509979 255.345169,189.201080 256.351776,188.648270 
	C255.962234,184.999115 255.538376,181.028625 255.114288,176.299393 
	C255.447876,175.226227 255.559875,174.008255 256.151154,173.103485 
	C259.886658,167.387390 259.915222,157.668610 256.100983,151.978806 
	C253.817291,148.572083 250.291153,148.763504 247.458420,151.789978 
	C243.967850,155.519241 244.909912,159.770279 244.948349,164.856705 
	C245.031784,166.250870 245.115219,167.645035 245.173859,169.533127 
	C245.257111,169.900909 245.484787,170.115570 245.820404,170.215103 
M277.532837,265.727173 
	C281.079956,261.670013 275.555145,262.684509 274.928802,260.091370 
	C274.841492,258.585938 274.754181,257.080536 274.787811,254.701340 
	C274.748840,223.136871 274.709839,191.572418 275.646484,159.929565 
	C279.655243,160.042419 283.663971,160.155289 287.745087,161.166824 
	C287.746368,192.469986 287.747650,223.773163 287.287506,255.644272 
	C286.468384,257.733917 285.433899,259.771606 284.912567,261.933075 
	C284.609436,263.189850 285.129730,264.645233 285.176147,266.721954 
	C285.204742,267.433990 285.233307,268.146057 285.100372,269.799408 
	C285.064606,271.622406 285.001709,273.445343 284.997528,275.268402 
	C284.972870,286.010254 284.977448,286.010284 295.606049,286.013092 
	C304.956635,286.015564 305.086884,286.012848 304.890289,276.501434 
	C304.830597,273.613922 303.834473,270.745758 303.206787,267.255035 
	C303.212738,266.843933 303.218689,266.432861 303.960205,266.008514 
	C307.043640,265.034485 306.643616,262.784241 304.491425,262.020660 
	C300.665741,260.663422 300.818268,258.071014 301.104431,254.143570 
	C301.075653,221.763763 301.046875,189.383972 301.178894,156.076920 
	C301.164276,147.392639 301.149628,138.708359 302.016541,129.853668 
	C311.449921,130.731735 319.415588,127.007034 327.606354,121.751900 
	C329.477814,120.324661 331.349274,118.897415 333.307190,117.404236 
	C330.819031,115.314621 328.875793,113.682663 327.038239,111.274925 
	C327.191010,110.802315 327.581482,110.250778 327.455322,109.870811 
	C326.916748,108.248886 326.225525,106.677628 325.590027,105.087898 
	C324.362640,105.989395 323.126648,106.879509 321.910065,107.795380 
	C320.517517,108.843712 319.290588,110.398933 317.729156,110.877480 
	C314.264984,111.939194 310.647217,112.520882 307.073303,113.199234 
	C299.717041,114.595482 296.893921,113.380409 293.094025,107.124939 
	C292.238190,105.716057 291.884186,103.981476 290.936798,102.655800 
	C290.204559,101.631180 289.016663,100.684868 287.834595,100.283951 
	C285.799164,99.593605 283.610565,99.354912 281.894836,98.386360 
	C282.938416,97.595146 283.981995,96.803932 285.709290,95.927666 
	C288.022583,94.282913 290.335907,92.638161 292.404297,91.167534 
	C289.804352,88.932190 287.648743,87.078865 285.963562,84.591408 
	C285.536743,82.568855 285.109894,80.546310 284.683075,78.523758 
	C283.560181,78.852562 282.062775,78.838997 281.387848,79.577316 
	C279.679962,81.445648 278.341522,83.651733 275.985474,85.814583 
	C272.535767,86.242828 269.063416,86.539200 265.641083,87.126785 
	C258.525146,88.348511 255.858627,87.284439 252.101074,81.211014 
	C251.142624,79.661827 250.607422,77.839561 249.578873,76.349014 
	C248.914612,75.386391 247.812561,74.436661 246.720596,74.117096 
	C244.265045,73.398491 241.693634,73.075775 239.762634,72.705635 
	C237.800598,73.919548 236.114120,75.852661 234.386780,75.889885 
	C221.412506,76.169487 208.429489,76.139412 195.451492,75.996490 
	C194.191544,75.982605 192.947235,74.548241 191.719803,73.072594 
	C191.461670,71.720917 191.203537,70.369240 190.982208,68.516464 
	C190.919983,68.360977 190.857758,68.205482 190.843872,67.295616 
	C189.796341,61.987484 187.525848,57.064262 182.403732,55.069633 
	C175.821869,52.506569 168.848083,50.903557 161.966339,49.196648 
	C160.617340,48.862057 157.896484,49.595940 157.612579,50.442257 
	C157.150024,51.821182 157.692902,54.072071 158.649734,55.303898 
	C164.043594,62.247902 169.687607,68.997604 174.631989,76.447578 
	C162.502808,76.615257 150.373001,76.903732 138.245010,76.840965 
	C136.021988,76.829460 133.806351,75.390350 131.587311,74.610222 
	C131.679260,74.079811 131.771194,73.549408 131.863129,73.018997 
	C130.935760,73.289246 129.974808,73.872963 129.086563,73.777847 
	C124.080452,73.241737 121.631020,75.389130 119.594193,80.101265 
	C118.145699,83.452293 115.982788,88.710083 110.931854,87.820107 
	C102.771271,86.382225 92.862717,88.429039 88.472458,78.096733 
	C84.511276,79.446785 84.855247,82.294281 85.021164,85.823326 
	C83.169731,87.542816 81.318298,89.262306 79.254715,91.178818 
	C80.557083,92.141495 81.860275,93.104790 83.477112,94.514809 
	C83.985779,94.705650 84.494438,94.896492 84.988091,95.013092 
	C84.988091,95.013092 84.915115,95.033409 85.241295,95.620758 
	C86.664093,96.721367 88.086891,97.821976 88.788383,99.174637 
	C87.781212,99.725616 86.492096,100.984138 85.812401,100.713287 
	C81.235634,98.889526 80.551109,102.100815 78.812859,105.083992 
	C76.142708,109.666489 73.602005,115.190277 66.529350,113.908997 
	C63.441746,113.349655 60.347641,112.784821 57.305752,112.025208 
	C53.702358,111.125374 49.585545,110.982109 48.319340,106.216682 
	C48.165100,105.636192 46.237309,105.006371 45.405075,105.268410 
	C44.516926,105.548058 43.468159,106.803337 43.361885,107.732475 
	C43.202164,109.128944 43.801861,110.612274 43.724728,112.637733 
	C41.868652,114.088142 40.012573,115.538544 37.549259,117.463463 
	C39.923111,119.071548 41.990265,120.471870 44.496674,122.083000 
	C44.496674,122.083000 44.983845,122.090431 44.991119,122.018478 
	C44.991119,122.018478 44.922176,122.040314 45.223812,122.670265 
	C52.513496,127.654648 60.518768,130.255035 69.280327,130.864883 
	C69.266296,170.600266 69.247932,210.335663 69.257362,250.071045 
	C69.257675,251.381683 69.540169,252.692261 69.378502,254.646790 
	C69.227470,255.096512 69.076439,255.546219 68.296013,256.170135 
	C61.823475,262.973511 55.350941,269.776917 48.878407,276.580292 
	C49.315502,277.075409 49.752598,277.570526 50.189693,278.065643 
	C55.796963,275.075256 61.404232,272.084869 66.974586,269.959686 
	C66.668274,274.061401 66.064392,278.175171 66.229980,282.257751 
	C66.282288,283.547363 68.297867,285.697388 69.579018,285.826599 
	C74.005127,286.272919 78.508621,286.114990 82.970680,285.917297 
	C83.982941,285.872437 85.803650,284.733978 85.798058,284.112000 
	C85.752762,279.071899 85.360718,274.034882 85.087364,268.250031 
	C85.106453,267.503113 85.125549,266.756195 85.840576,265.852692 
	C85.775085,264.395172 86.052238,261.801483 85.589302,261.661896 
	C82.216293,260.644653 83.188049,257.936066 82.967934,255.271606 
	C83.133804,254.998001 83.250778,254.704895 83.914047,254.084595 
	C87.601128,249.691467 91.288208,245.298340 95.010941,241.845200 
	C95.017433,246.214447 95.023926,250.583694 94.953033,255.473526 
	C94.959801,255.648727 94.966576,255.823929 94.993629,256.816010 
	C94.190605,258.332886 93.631516,260.064850 92.527847,261.316681 
	C90.836906,263.234619 89.767540,264.732635 92.984695,266.667023 
	C92.992134,267.111755 92.999565,267.556488 92.424225,268.597198 
	C92.291832,273.394073 91.986816,278.197296 92.163200,282.982788 
	C92.201477,284.021210 93.912643,285.792419 94.946320,285.862976 
	C99.577454,286.179016 104.246735,286.111542 108.891312,285.918884 
	C109.915749,285.876404 111.768227,284.747681 111.759499,284.140411 
	C111.682144,278.759949 111.271263,273.384277 110.991684,267.338196 
	C110.980438,266.892120 110.969193,266.446075 111.591652,265.690887 
	C111.651619,264.309814 112.192307,262.695221 111.660950,261.601410 
	C110.825554,259.881683 109.268036,258.512726 108.061241,256.472961 
	C108.098579,256.127563 108.135925,255.782181 108.521278,254.634644 
	C108.601219,248.497574 108.801170,242.359116 108.729652,236.223816 
	C108.646965,229.130493 108.325226,222.039932 108.244423,214.225403 
	C108.268700,213.491364 108.292976,212.757339 108.658859,211.716644 
	C108.860435,211.463440 108.945061,211.175827 109.081482,210.208252 
	C109.341843,209.135010 109.602203,208.061752 110.434479,206.541306 
	C112.064705,200.765625 113.694939,194.989944 115.767731,188.800766 
	C116.444000,187.791229 117.588081,186.834335 117.708778,185.762253 
	C118.069916,182.554382 118.030594,179.301407 118.795113,176.036011 
	C119.539993,176.478668 120.284866,176.921310 120.765533,177.206955 
	C121.766907,175.185471 122.618805,173.314621 123.599922,171.514191 
	C126.287163,166.582901 125.103050,155.360382 121.387161,150.962555 
	C121.333015,150.250671 121.278870,149.538788 121.572014,148.418411 
	C121.606766,148.068207 121.641518,147.718018 121.928886,147.247879 
	C121.928886,147.247879 122.147606,147.073654 123.066345,147.075714 
	C129.114685,147.070801 135.166458,146.957001 141.208649,147.147125 
	C142.515350,147.188232 143.787613,148.322754 144.730362,149.571762 
	C138.617783,154.409897 138.555679,156.303772 143.995956,162.111542 
	C145.198532,163.395340 145.948074,165.103516 146.447937,167.239578 
	C145.828888,170.436569 145.170685,173.627365 144.661804,176.841797 
	C144.619049,177.111862 145.856461,177.942108 146.024902,177.825714 
	C146.723389,177.343094 147.749527,176.586517 147.736588,175.949127 
	C147.673477,172.835693 147.315247,169.728241 147.501053,165.884583 
	C147.978516,164.670410 148.284958,163.350204 148.961258,162.259293 
	C153.275925,155.299484 153.302719,155.316101 148.083466,148.196655 
	C149.934067,147.815811 151.783066,147.112579 153.635513,147.103394 
	C175.092300,146.997040 196.549622,146.995605 218.843918,147.028091 
	C220.895630,147.382172 222.947327,147.736237 224.685272,148.680359 
	C216.259903,154.458725 221.355331,159.953674 225.102066,165.575516 
	C226.289688,164.249176 227.375992,162.851013 228.647980,161.649414 
	C232.790634,157.736023 232.905090,155.525223 229.415131,151.106354 
	C228.599091,150.073090 228.446518,148.515823 228.923477,147.124329 
	C235.279099,147.096466 241.634720,147.068604 248.572342,147.554184 
	C252.769821,147.401566 256.967285,147.248947 261.066467,148.016907 
	C261.056702,184.004196 261.046906,219.991470 260.496063,256.477081 
	C259.606110,258.270813 258.384918,259.987610 257.943878,261.885651 
	C257.654877,263.129486 258.494507,264.635620 258.867126,266.763367 
	C258.870087,267.503632 258.873016,268.243927 258.308777,269.597534 
	C258.194855,271.887299 257.991699,274.176697 257.982574,276.466888 
	C257.944794,285.942017 257.966339,285.939117 267.204010,285.945862 
	C269.838776,285.947784 272.517212,286.251801 275.087097,285.850525 
	C276.131439,285.687439 276.939789,284.012939 277.944733,282.097046 
	C277.611145,277.383331 277.277557,272.669647 276.959686,267.307495 
	C276.947601,266.874969 276.935486,266.442474 277.532837,265.727173 
M173.985321,167.298035 
	C174.408310,165.483841 174.230560,163.038071 175.358582,161.965103 
	C180.172226,157.386429 180.246964,154.291977 174.695297,149.407303 
	C174.084824,149.245560 173.474350,149.083817 172.268021,149.254120 
	C168.982803,151.517288 165.189896,153.713745 167.473282,158.599213 
	C168.955627,161.770828 171.123672,164.621933 172.275940,167.691254 
	C171.884354,170.351044 171.372375,173.002304 171.182693,175.676422 
	C171.132980,176.377380 172.083359,177.149292 172.574448,177.888611 
	C173.198715,177.084045 174.321640,176.298782 174.353683,175.471298 
	C174.449326,173.001022 174.117294,170.514206 173.985321,167.298035 
M200.853683,167.441666 
	C201.791122,165.068893 202.519135,162.583939 203.715530,160.349838 
	C205.470047,157.073471 205.835205,153.930801 203.073318,151.238266 
	C201.893494,150.088058 199.622299,148.759201 198.403534,149.168533 
	C192.688461,151.087997 191.666809,156.987503 196.195862,161.148193 
	C198.382721,163.157181 199.302856,165.200043 197.823120,168.750137 
	C197.730484,171.034378 197.462173,173.332336 197.639191,175.595490 
	C197.702316,176.402649 198.844559,177.125397 199.494247,177.886658 
	C199.956100,177.137939 200.775375,176.407028 200.813690,175.637222 
	C200.935455,173.191666 200.766068,170.731613 200.853683,167.441666 
M225.485092,177.942154 
	C227.396912,176.390945 228.586563,169.711990 226.968979,168.600189 
	C226.534241,168.301422 224.380402,169.324783 224.360580,169.797577 
	C224.252289,172.381714 224.563278,174.983444 225.485092,177.942154 
z"/>
<path fill="#94C2BF" opacity="1.000000" stroke="none" 
	d="
M83.163467,94.068077 
	C81.860275,93.104790 80.557083,92.141495 79.254715,91.178818 
	C81.318298,89.262306 83.169731,87.542816 85.497490,85.461143 
	C92.743202,86.596123 99.503410,88.136452 106.284195,89.580055 
	C115.771713,91.599892 118.555191,90.586609 123.866341,82.542732 
	C125.632378,79.868027 127.556679,78.873550 130.765976,78.914436 
	C144.737076,79.092392 158.711914,79.021591 172.684937,78.950615 
	C174.423599,78.941788 176.159546,78.392853 178.154343,78.088287 
	C178.583710,78.082771 178.755493,78.083138 179.124008,78.370926 
	C185.569000,83.171768 187.443939,83.233994 191.364685,79.026154 
	C200.898132,79.026657 209.956207,79.043312 219.010361,79.488251 
	C218.993973,82.180679 218.981537,84.444832 218.772797,86.832306 
	C218.291595,87.088394 218.057877,87.282692 217.452301,87.599838 
	C204.431747,89.604675 191.840500,91.590378 179.234787,93.479424 
	C167.463242,95.243454 155.676285,96.904823 143.436890,98.659950 
	C135.977600,98.827225 128.977524,98.945930 121.729843,98.812881 
	C115.590683,96.588326 110.264809,92.513084 103.076180,93.495087 
	C103.162613,95.164253 103.236374,96.588676 102.858032,98.018036 
	C96.575661,97.026443 90.745384,96.029922 84.915115,95.033409 
	C84.915115,95.033409 84.988091,95.013092 84.852142,94.805489 
	C84.198616,94.421280 83.681046,94.244682 83.163467,94.068077 
z"/>
<path fill="#C3777E" opacity="1.000000" stroke="none" 
	d="
M69.691132,254.002869 
	C69.540169,252.692261 69.257675,251.381683 69.257362,250.071045 
	C69.247932,210.335663 69.266296,170.600266 69.772675,130.398438 
	C74.478790,129.939728 78.692574,129.947479 82.943176,130.407318 
	C83.048820,133.552490 83.117653,136.245560 83.135399,139.390625 
	C83.145851,142.268204 83.207390,144.693787 83.183578,147.513092 
	C83.108353,149.250473 83.118462,150.594147 83.092239,152.387695 
	C83.079170,155.247528 83.102425,157.657455 83.087585,160.530334 
	C83.053963,185.664429 83.058441,210.335602 83.045052,235.348526 
	C83.004333,235.917297 82.981491,236.144318 82.684036,236.510849 
	C78.169991,242.434540 73.930557,248.218704 69.691132,254.002869 
z"/>
<path fill="#C07279" opacity="1.000000" stroke="none" 
	d="
M261.037140,255.978760 
	C261.046906,219.991470 261.056702,184.004196 261.371948,147.601028 
	C262.022736,147.227600 262.368011,147.270050 262.798584,147.647369 
	C264.358551,149.744339 266.376831,151.288773 267.188690,153.316269 
	C268.642914,156.947906 270.682739,159.437149 274.670837,160.007950 
	C274.709839,191.572418 274.748840,223.136871 274.288361,255.164062 
	C269.538330,255.744125 265.287720,255.861435 261.037140,255.978760 
z"/>
<path fill="#C27379" opacity="1.000000" stroke="none" 
	d="
M301.018066,157.004166 
	C301.046875,189.383972 301.075653,221.763763 300.613342,254.664734 
	C295.997833,255.149368 291.873383,255.112839 287.748932,255.076324 
	C287.747650,223.773163 287.746368,192.469986 287.798096,160.295456 
	C287.886749,158.281204 287.922394,157.138321 288.416748,155.996796 
	C292.922974,156.333496 296.970520,156.668839 301.018066,157.004166 
z"/>
<path fill="#96C3BF" opacity="1.000000" stroke="none" 
	d="
M326.932587,112.050697 
	C328.875793,113.682663 330.819031,115.314621 333.307190,117.404236 
	C331.349274,118.897415 329.477814,120.324661 327.036499,121.574036 
	C323.751648,121.939041 321.037018,122.483765 318.321625,123.024490 
	C297.838013,127.103470 277.101715,127.121407 256.271545,126.424759 
	C256.209076,118.670593 256.224243,111.370567 256.431763,104.044037 
	C256.624115,104.017525 257.004974,103.941711 257.451050,103.953598 
	C260.292053,104.010994 262.686920,104.056496 265.380219,104.382782 
	C268.486389,104.778793 271.349792,105.303917 274.091400,104.931717 
	C282.038055,103.852913 288.063263,105.877022 292.251770,113.339058 
	C293.358643,115.311012 297.091095,116.516815 299.730377,116.738968 
	C302.913849,117.006927 306.224365,115.892494 309.466858,115.304642 
	C315.293884,114.248207 321.111206,113.138275 326.932587,112.050697 
z"/>
<path fill="#95C3BF" opacity="1.000000" stroke="none" 
	d="
M44.057419,121.872192 
	C41.990265,120.471870 39.923111,119.071548 37.549259,117.463463 
	C40.012573,115.538544 41.868652,114.088142 44.312416,112.317795 
	C50.717358,113.199051 56.542408,114.363884 62.350288,115.608803 
	C75.496933,118.426781 75.572617,118.309807 83.375023,107.618423 
	C84.414894,106.193527 86.884422,105.331337 88.794861,105.114075 
	C94.150360,104.505020 99.559746,104.369888 105.217896,104.022583 
	C105.668655,103.992722 105.849396,103.988083 106.169403,104.050415 
	C106.308685,104.117401 106.606789,104.199547 106.676712,104.632492 
	C107.068382,112.340973 107.390121,119.616516 107.261948,126.915329 
	C92.830826,126.307388 78.834877,125.894058 64.874794,124.950333 
	C58.188904,124.498360 51.570919,123.041862 44.922176,122.040314 
	C44.922176,122.040314 44.991119,122.018478 44.927757,121.880592 
	C44.595402,121.785873 44.326412,121.829033 44.057419,121.872192 
z"/>
<path fill="#C0D6D4" opacity="1.000000" stroke="none" 
	d="
M145.075729,148.953644 
	C143.787613,148.322754 142.515350,147.188232 141.208649,147.147125 
	C135.166458,146.957001 129.114685,147.070801 122.559906,146.620392 
	C122.223442,143.747940 122.393410,141.330780 122.894585,138.826294 
	C127.447922,138.359589 131.671158,137.992065 135.891632,137.595047 
	C137.604691,137.433914 139.311722,137.208572 141.204773,137.284912 
	C143.223938,138.019531 145.059814,138.481705 147.194077,138.820816 
	C151.436447,138.209244 155.662628,136.627640 159.241898,137.551727 
	C162.560974,138.408630 165.105103,138.379089 168.167480,137.311432 
	C171.186340,139.812408 173.686569,139.237198 176.297638,136.947388 
	C177.733932,137.446381 178.855698,137.771790 180.377533,138.181305 
	C184.169250,138.390198 187.560898,138.515015 191.247742,138.599792 
	C192.364365,137.693665 193.185806,136.827545 194.358154,136.002075 
	C196.934814,137.810989 198.730957,142.837448 202.333099,136.996582 
	C204.775558,137.661072 206.844650,138.327805 209.366974,138.999634 
	C212.215683,139.003555 214.611160,139.002380 217.332687,138.969666 
	C219.776672,138.951355 221.894638,138.964615 224.073303,139.199585 
	C224.134018,139.421326 224.270126,139.860519 223.822037,139.900208 
	C221.769974,140.060898 220.166000,140.181915 218.006790,140.344818 
	C218.006790,142.763916 218.006790,144.865128 218.006790,146.966339 
	C196.549622,146.995605 175.092300,146.997040 153.635513,147.103394 
	C151.783066,147.112579 149.934067,147.815811 147.626617,148.585876 
	C146.471771,148.967941 145.773743,148.960800 145.075729,148.953644 
z"/>
<path fill="#4F4F4F" opacity="1.000000" stroke="none" 
	d="
M109.862549,206.988510 
	C109.602203,208.061752 109.341843,209.135010 108.727676,210.618439 
	C108.354988,211.360184 108.336113,211.691742 108.317245,212.023300 
	C108.292976,212.757339 108.268700,213.491364 107.880554,214.787903 
	C106.975525,216.558960 106.504608,217.805084 105.881607,218.969864 
	C102.295372,225.674896 98.673134,232.360657 95.041733,238.579803 
	C95.008774,236.118866 95.055779,234.128677 94.974617,232.143707 
	C94.727142,226.091171 94.430275,220.040680 94.184738,213.607422 
	C94.626862,211.197205 95.036880,209.168976 95.708931,206.905792 
	C102.020622,188.281235 104.303520,169.221008 106.137024,149.746124 
	C106.218941,148.988174 106.212540,148.549164 106.382118,148.057785 
	C106.558098,148.005432 106.895996,147.861649 107.235275,147.905762 
	C108.028839,147.981491 108.483109,148.013092 108.944122,148.510498 
	C108.955086,166.577927 108.934265,184.179657 109.002724,201.781067 
	C109.009476,203.517975 109.562881,205.252747 109.862549,206.988510 
z"/>
<path fill="#688682" opacity="1.000000" stroke="none" 
	d="
M178.927261,78.083511 
	C178.755493,78.083138 178.583710,78.082771 177.931122,77.897888 
	C176.715637,77.080086 175.981003,76.446808 175.246353,75.813538 
	C169.687607,68.997604 164.043594,62.247902 158.649734,55.303898 
	C157.692902,54.072071 157.150024,51.821182 157.612579,50.442257 
	C157.896484,49.595940 160.617340,48.862057 161.966339,49.196648 
	C168.848083,50.903557 175.821869,52.506569 182.403732,55.069633 
	C187.525848,57.064262 189.796341,61.987484 190.685791,67.781601 
	C190.666962,68.517578 190.806198,68.767563 190.945404,69.017555 
	C191.203537,70.369240 191.461670,71.720917 191.535156,73.435547 
	C191.350494,73.798500 191.005386,73.842041 190.962158,73.492706 
	C188.733719,71.876190 186.549835,70.606758 184.362656,69.343002 
	C183.584549,68.893417 182.798508,68.457619 182.391876,67.973038 
	C184.531662,67.469490 186.295670,67.008438 188.059677,66.547386 
	C187.893661,66.131554 187.727646,65.715721 187.561646,65.299896 
	C185.702530,66.194344 183.843430,67.088791 181.621704,68.040825 
	C177.581390,70.590340 179.326889,73.856003 179.759094,77.091980 
	C179.325424,77.505287 179.126343,77.794395 178.927261,78.083511 
z"/>
<path fill="#C07279" opacity="1.000000" stroke="none" 
	d="
M95.063095,239.052948 
	C98.673134,232.360657 102.295372,225.674896 105.881607,218.969864 
	C106.504608,217.805084 106.975525,216.558960 107.811981,215.149292 
	C108.325226,222.039932 108.646965,229.130493 108.729652,236.223816 
	C108.801170,242.359116 108.601219,248.497574 107.872208,254.966995 
	C103.158897,255.183884 99.094650,255.068405 95.030411,254.952942 
	C95.023926,250.583694 95.017433,246.214447 94.996727,241.066315 
	C95.009377,239.875931 95.036240,239.464432 95.063095,239.052948 
z"/>
<path fill="#C1D3D1" opacity="1.000000" stroke="none" 
	d="
M262.713287,147.312500 
	C262.368011,147.270050 262.022736,147.227600 261.421112,147.140732 
	C256.967285,147.248947 252.769821,147.401566 248.285324,146.847427 
	C248.844482,141.282455 247.055328,139.310089 241.947372,139.888992 
	C239.359879,140.182251 236.641251,139.318512 234.167175,138.651306 
	C239.423721,135.017090 244.169495,139.468460 249.565430,138.998688 
	C252.091812,139.038605 254.176773,139.024323 256.660095,139.003311 
	C258.401123,138.993896 259.743835,138.991226 261.543823,138.987335 
	C266.175751,138.962814 270.350403,138.939499 275.013702,138.957413 
	C279.488739,138.932983 283.475098,138.867310 287.587708,139.258881 
	C287.597809,142.229172 287.481659,144.742218 286.961731,147.196350 
	C282.670563,147.123260 278.783203,147.109039 274.439911,147.083084 
	C270.227081,147.151718 266.470184,147.232117 262.713287,147.312500 
z"/>
<path fill="#B8727F" opacity="1.000000" stroke="none" 
	d="
M287.365540,147.255249 
	C287.481659,144.742218 287.597809,142.229172 287.690430,138.834702 
	C287.723602,135.308914 287.780334,132.664581 288.311035,130.002213 
	C292.901703,129.997482 297.018341,130.010773 301.135010,130.024078 
	C301.149628,138.708359 301.164276,147.392639 301.098480,156.540543 
	C296.970520,156.668839 292.922974,156.333496 288.400024,155.570526 
	C287.824829,154.013931 287.725098,152.884979 287.677582,151.378906 
	C287.608398,149.752945 287.486969,148.504089 287.365540,147.255249 
z"/>
<path fill="#C1D9DB" opacity="1.000000" stroke="none" 
	d="
M191.005386,73.842041 
	C191.005386,73.842041 191.350494,73.798500 191.523071,73.785881 
	C192.947235,74.548241 194.191544,75.982605 195.451492,75.996490 
	C208.429489,76.139412 221.412506,76.169487 234.386780,75.889885 
	C236.114120,75.852661 237.800598,73.919548 239.762634,72.705635 
	C241.693634,73.075775 244.265045,73.398491 246.720596,74.117096 
	C247.812561,74.436661 248.914612,75.386391 249.578873,76.349014 
	C250.607422,77.839561 251.142624,79.661827 252.101074,81.211014 
	C255.858627,87.284439 258.525146,88.348511 265.641083,87.126785 
	C269.063416,86.539200 272.535767,86.242828 276.469879,86.074020 
	C276.969940,86.537323 276.985565,86.741180 276.786133,87.066818 
	C276.295837,87.389549 276.101501,87.650688 275.571716,87.978531 
	C268.454468,88.980087 261.753540,89.975098 254.777252,90.787094 
	C252.007172,88.396568 249.512421,86.189056 246.988632,83.602570 
	C246.173218,79.982643 244.188980,78.821472 240.815994,78.931725 
	C233.555130,79.169044 226.282257,79.039406 219.014297,79.059967 
	C209.956207,79.043312 200.898132,79.026657 191.320480,78.685059 
	C190.735825,77.908150 190.670715,77.456184 190.703064,76.618393 
	C190.868790,75.435722 190.937088,74.638878 191.005386,73.842041 
z"/>
<path fill="#C6DCDA" opacity="1.000000" stroke="none" 
	d="
M174.939178,76.130554 
	C175.981003,76.446808 176.715637,77.080086 177.673523,77.903770 
	C176.159546,78.392853 174.423599,78.941788 172.684937,78.950615 
	C158.711914,79.021591 144.737076,79.092392 130.765976,78.914436 
	C127.556679,78.873550 125.632378,79.868027 123.866341,82.542732 
	C118.555191,90.586609 115.771713,91.599892 106.284195,89.580055 
	C99.503410,88.136452 92.743202,86.596123 85.602333,85.127289 
	C84.855247,82.294281 84.511276,79.446785 88.472458,78.096733 
	C92.862717,88.429039 102.771271,86.382225 110.931854,87.820107 
	C115.982788,88.710083 118.145699,83.452293 119.594193,80.101265 
	C121.631020,75.389130 124.080452,73.241737 129.086563,73.777847 
	C129.974808,73.872963 130.935760,73.289246 131.863129,73.018997 
	C131.771194,73.549408 131.679260,74.079811 131.587311,74.610222 
	C133.806351,75.390350 136.021988,76.829460 138.245010,76.840965 
	C150.373001,76.903732 162.502808,76.615257 174.939178,76.130554 
z"/>
<path fill="#C67E7D" opacity="1.000000" stroke="none" 
	d="
M248.033569,176.935699 
	C247.316162,174.947815 246.598740,172.959946 246.254898,170.538544 
	C248.415863,170.024597 250.203247,169.944199 253.504547,169.795700 
	C249.964340,167.368332 247.527512,165.697510 245.090683,164.026703 
	C244.909912,159.770279 243.967850,155.519241 247.458420,151.789978 
	C250.291153,148.763504 253.817291,148.572083 256.100983,151.978806 
	C259.915222,157.668610 259.886658,167.387390 256.151154,173.103485 
	C255.559875,174.008255 255.447876,175.226227 254.854095,176.519882 
	C252.352264,174.963043 250.171143,175.218079 248.033569,176.935699 
z"/>
<path fill="#658280" opacity="1.000000" stroke="none" 
	d="
M95.041740,238.579803 
	C95.036240,239.464432 95.009377,239.875931 94.978897,240.596313 
	C91.288208,245.298340 87.601128,249.691467 83.527786,253.749054 
	C83.080574,247.732788 83.019623,242.052048 82.958664,236.371323 
	C82.981491,236.144318 83.004333,235.917297 83.354279,235.207520 
	C87.171799,227.812958 90.662224,220.901169 94.152634,213.989380 
	C94.430275,220.040680 94.727142,226.091171 94.974617,232.143707 
	C95.055779,234.128677 95.008774,236.118866 95.041740,238.579803 
z"/>
<path fill="#C6DCDA" opacity="1.000000" stroke="none" 
	d="
M326.985413,111.662811 
	C321.111206,113.138275 315.293884,114.248207 309.466858,115.304642 
	C306.224365,115.892494 302.913849,117.006927 299.730377,116.738968 
	C297.091095,116.516815 293.358643,115.311012 292.251770,113.339058 
	C288.063263,105.877022 282.038055,103.852913 274.091400,104.931717 
	C271.349792,105.303917 268.486389,104.778793 265.777374,104.345993 
	C271.079498,102.327827 276.282867,100.627243 281.486237,98.926666 
	C283.610565,99.354912 285.799164,99.593605 287.834595,100.283951 
	C289.016663,100.684868 290.204559,101.631180 290.936798,102.655800 
	C291.884186,103.981476 292.238190,105.716057 293.094025,107.124939 
	C296.893921,113.380409 299.717041,114.595482 307.073303,113.199234 
	C310.647217,112.520882 314.264984,111.939194 317.729156,110.877480 
	C319.290588,110.398933 320.517517,108.843712 321.910065,107.795380 
	C323.126648,106.879509 324.362640,105.989395 325.590027,105.087891 
	C326.225525,106.677628 326.916748,108.248886 327.455322,109.870811 
	C327.581482,110.250778 327.191010,110.802315 326.985413,111.662811 
z"/>
<path fill="#C6DCDA" opacity="1.000000" stroke="none" 
	d="
M104.947876,104.047791 
	C99.559746,104.369888 94.150360,104.505020 88.794861,105.114075 
	C86.884422,105.331337 84.414894,106.193527 83.375023,107.618423 
	C75.572617,118.309807 75.496933,118.426781 62.350288,115.608803 
	C56.542408,114.363884 50.717358,113.199051 44.489388,112.028275 
	C43.801861,110.612274 43.202164,109.128944 43.361885,107.732475 
	C43.468159,106.803337 44.516926,105.548058 45.405075,105.268410 
	C46.237309,105.006371 48.165100,105.636192 48.319340,106.216682 
	C49.585545,110.982109 53.702358,111.125374 57.305752,112.025208 
	C60.347641,112.784821 63.441746,113.349655 66.529350,113.908997 
	C73.602005,115.190277 76.142708,109.666489 78.812859,105.083992 
	C80.551109,102.100815 81.235634,98.889526 85.812401,100.713287 
	C86.492096,100.984138 87.781212,99.725616 89.486061,99.057648 
	C95.105118,100.643028 100.026497,102.345406 104.947876,104.047791 
z"/>
<path fill="#658280" opacity="1.000000" stroke="none" 
	d="
M110.148514,206.764908 
	C109.562881,205.252747 109.009476,203.517975 109.002724,201.781067 
	C108.934265,184.179657 108.955086,166.577927 109.218292,148.224060 
	C113.549240,147.437180 117.612755,147.402496 121.676270,147.367813 
	C121.641518,147.718018 121.606766,148.068207 121.028015,148.795746 
	C116.618103,149.891159 112.167213,150.456329 111.552246,155.180618 
	C110.722168,161.557404 109.092812,168.286163 113.985382,174.486938 
	C114.430763,179.705048 114.877968,184.459656 115.325172,189.214264 
	C113.694939,194.989944 112.064705,200.765625 110.148514,206.764908 
z"/>
<path fill="#879D9C" opacity="1.000000" stroke="none" 
	d="
M301.575775,129.938873 
	C297.018341,130.010773 292.901703,129.997482 287.947083,129.840698 
	C282.884918,129.835754 278.660736,129.974289 274.018311,130.062332 
	C269.413025,130.009415 265.225891,130.006973 260.767517,129.779785 
	C259.095551,129.449280 257.694855,129.343536 256.236481,128.844437 
	C256.235596,127.927025 256.292419,127.402962 256.349243,126.878906 
	C277.101715,127.121407 297.838013,127.103470 318.321625,123.024490 
	C321.037018,122.483765 323.751648,121.939041 326.704468,121.650887 
	C319.415588,127.007034 311.449921,130.731735 301.575775,129.938873 
z"/>
<path fill="#7F9E9B" opacity="1.000000" stroke="none" 
	d="
M281.690552,98.656509 
	C276.282867,100.627243 271.079498,102.327827 265.478973,104.065201 
	C262.686920,104.056496 260.292053,104.010994 257.340698,103.746521 
	C256.586792,103.268761 256.332336,103.092133 255.573364,102.985519 
	C253.033279,102.977547 250.940689,102.981712 248.494598,102.996391 
	C247.427261,103.010468 246.713394,103.014023 245.530975,103.010269 
	C236.707993,103.002266 228.353577,103.001595 219.574402,102.995407 
	C217.457886,102.991768 215.766144,102.993637 214.277863,102.747345 
	C215.319778,102.331596 216.158279,102.164009 217.400360,102.018234 
	C219.565994,101.739441 221.328049,101.438828 223.525146,101.102127 
	C229.306900,100.712578 234.653625,100.359108 240.377747,100.156822 
	C245.157089,100.203018 249.589218,100.386131 253.954208,99.928520 
	C261.325592,99.155716 268.654480,97.977211 276.379639,96.937302 
	C279.513885,96.607773 282.269714,96.310242 285.025543,96.012711 
	C283.981995,96.803932 282.938416,97.595146 281.690552,98.656509 
z"/>
<path fill="#7F9E9B" opacity="1.000000" stroke="none" 
	d="
M45.072994,122.355286 
	C51.570919,123.041862 58.188904,124.498360 64.874794,124.950333 
	C78.834877,125.894058 92.830826,126.307388 107.332275,127.273064 
	C107.845879,128.333359 107.839249,129.059204 107.388260,129.833328 
	C103.014069,129.927368 99.084236,129.973129 94.820724,129.770477 
	C90.626823,129.666458 86.766586,129.810837 82.906349,129.955215 
	C78.692574,129.947479 74.478790,129.939728 69.833893,129.929962 
	C60.518768,130.255035 52.513496,127.654648 45.072994,122.355286 
z"/>
<path fill="#B3D1D4" opacity="1.000000" stroke="none" 
	d="
M233.981918,138.977859 
	C236.641251,139.318512 239.359879,140.182251 241.947372,139.888992 
	C247.055328,139.310089 248.844482,141.282455 247.994324,146.590698 
	C241.634720,147.068604 235.279099,147.096466 228.138977,147.127350 
	C226.569321,147.450363 225.784180,147.770325 224.999039,148.090302 
	C222.947327,147.736237 220.895630,147.382172 218.425354,146.997223 
	C218.006790,144.865128 218.006790,142.763916 218.006790,140.344818 
	C220.166000,140.181915 221.769974,140.060898 224.147980,139.890167 
	C225.810898,139.838593 226.699799,139.836731 227.999786,139.885071 
	C229.615723,139.616180 230.820572,139.297104 232.351593,138.986404 
	C233.112473,138.989151 233.547195,138.983505 233.981918,138.977859 
z"/>
<path fill="#E1BAA0" opacity="1.000000" stroke="none" 
	d="
M287.625336,151.756012 
	C287.725098,152.884979 287.824829,154.013931 287.941345,155.569168 
	C287.922394,157.138321 287.886749,158.281204 287.761902,159.846115 
	C283.663971,160.155289 279.655243,160.042419 275.158661,159.968750 
	C270.682739,159.437149 268.642914,156.947906 267.188690,153.316269 
	C266.376831,151.288773 264.358551,149.744339 262.798584,147.647369 
	C266.470184,147.232117 270.227081,147.151718 274.439636,147.508545 
	C274.511932,150.848450 275.568817,152.346619 278.708984,152.117676 
	C281.674133,151.901474 284.652679,151.869186 287.625336,151.756012 
z"/>
<path fill="#4F4F4F" opacity="1.000000" stroke="none" 
	d="
M113.987213,174.023422 
	C109.092812,168.286163 110.722168,161.557404 111.552246,155.180618 
	C112.167213,150.456329 116.618103,149.891159 120.854370,149.000000 
	C121.278870,149.538788 121.333015,150.250671 121.318787,151.773621 
	C120.207649,159.751114 119.164879,166.917526 117.707550,174.063416 
	C116.191063,174.036423 115.089134,174.029922 113.987213,174.023422 
z"/>
<path fill="#E0D9DA" opacity="1.000000" stroke="none" 
	d="
M287.518219,255.360291 
	C291.873383,255.112839 295.997833,255.149368 300.590210,255.138702 
	C300.818268,258.071014 300.665741,260.663422 304.491425,262.020660 
	C306.643616,262.784241 307.043640,265.034485 303.100220,266.006653 
	C296.586639,266.006927 290.933075,266.009094 285.279480,266.011230 
	C285.129730,264.645233 284.609436,263.189850 284.912567,261.933075 
	C285.433899,259.771606 286.468384,257.733917 287.518219,255.360291 
z"/>
<path fill="#DEDEDE" opacity="1.000000" stroke="none" 
	d="
M110.958862,268.007172 
	C111.271263,273.384277 111.682144,278.759949 111.759499,284.140411 
	C111.768227,284.747681 109.915749,285.876404 108.891312,285.918884 
	C104.246735,286.111542 99.577454,286.179016 94.946320,285.862976 
	C93.912643,285.792419 92.201477,284.021210 92.163200,282.982788 
	C91.986816,278.197296 92.291832,273.394073 93.097260,268.465515 
	C99.499809,268.224945 105.229340,268.116058 110.958862,268.007172 
M96.534317,271.943726 
	C96.099571,275.072327 94.918991,278.368500 95.567154,281.253876 
	C95.859917,282.557098 99.768501,283.625244 102.080795,283.719818 
	C104.021759,283.799194 107.157249,282.834778 107.809341,281.427094 
	C110.753281,275.071960 107.727112,270.991730 100.692215,271.127441 
	C99.549461,271.149475 98.410492,271.367523 96.534317,271.943726 
z"/>
<path fill="#E0D9DA" opacity="1.000000" stroke="none" 
	d="
M303.267242,267.868713 
	C303.834473,270.745758 304.830597,273.613922 304.890289,276.501434 
	C305.086884,286.012848 304.956635,286.015564 295.606049,286.013092 
	C284.977448,286.010284 284.972870,286.010254 284.997528,275.268402 
	C285.001709,273.445343 285.064606,271.622406 285.619812,269.366211 
	C291.848602,268.578278 297.557922,268.223480 303.267242,267.868713 
M287.836212,273.450500 
	C285.989349,282.574615 288.166321,285.144257 297.034271,283.730591 
	C298.504730,283.496185 300.785492,281.510712 300.796936,280.316254 
	C300.824677,277.426544 300.327362,272.429810 298.975281,272.046722 
	C295.709686,271.121613 291.834229,272.349152 287.836212,273.450500 
z"/>
<path fill="#DEDEDE" opacity="1.000000" stroke="none" 
	d="
M85.074394,268.996948 
	C85.360718,274.034882 85.752762,279.071899 85.798058,284.112000 
	C85.803650,284.733978 83.982941,285.872437 82.970680,285.917297 
	C78.508621,286.114990 74.005127,286.272919 69.579018,285.826599 
	C68.297867,285.697388 66.282288,283.547363 66.229980,282.257751 
	C66.064392,278.175171 66.668274,274.061401 67.002586,269.307526 
	C67.030586,268.655365 67.082939,268.219238 67.402885,268.179993 
	C68.146797,268.070129 68.570763,267.999481 69.275055,268.239685 
	C74.728386,268.699341 79.901390,268.848145 85.074394,268.996948 
M71.348625,271.523163 
	C67.674728,274.283783 68.425995,278.457428 69.807510,281.362122 
	C70.605804,283.040558 74.754845,283.613007 77.438026,283.732086 
	C79.163780,283.808685 81.926315,282.598907 82.568214,281.203796 
	C85.356834,275.142883 82.364380,271.076813 75.609596,271.108521 
	C74.456154,271.113922 73.303047,271.190460 71.348625,271.523163 
z"/>
<path fill="#DEDEDE" opacity="1.000000" stroke="none" 
	d="
M92.999512,266.000000 
	C89.767540,264.732635 90.836906,263.234619 92.527847,261.316681 
	C93.631516,260.064850 94.190605,258.332886 95.366928,256.571411 
	C99.832245,256.549622 103.924263,256.772430 108.016281,256.995270 
	C109.268036,258.512726 110.825554,259.881683 111.660950,261.601410 
	C112.192307,262.695221 111.651619,264.309814 110.811234,265.847290 
	C104.353714,266.002441 98.676613,266.001221 92.999512,266.000000 
z"/>
<path fill="#4F4F4F" opacity="1.000000" stroke="none" 
	d="
M82.684044,236.510849 
	C83.019623,242.052048 83.080574,247.732788 83.230202,253.902893 
	C83.250778,254.704895 83.133804,254.998001 82.668137,255.538467 
	C82.368340,255.805328 81.902504,255.945053 81.447845,255.945541 
	C77.108727,255.928986 73.224281,255.911957 69.216934,255.841034 
	C69.094032,255.787170 68.925400,255.995941 68.925400,255.995941 
	C69.076439,255.546219 69.227470,255.096512 69.534813,254.324829 
	C73.930557,248.218704 78.169991,242.434540 82.684044,236.510849 
z"/>
<path fill="#F6EDC8" opacity="1.000000" stroke="none" 
	d="
M198.029251,167.988464 
	C199.302856,165.200043 198.382721,163.157181 196.195862,161.148193 
	C191.666809,156.987503 192.688461,151.087997 198.403534,149.168533 
	C199.622299,148.759201 201.893494,150.088058 203.073318,151.238266 
	C205.835205,153.930801 205.470047,157.073471 203.715530,160.349838 
	C202.519135,162.583939 201.791122,165.068893 200.453094,167.783173 
	C199.378082,168.079285 198.703659,168.033875 198.029251,167.988464 
z"/>
<path fill="#D8D6D7" opacity="1.000000" stroke="none" 
	d="
M260.766602,256.227905 
	C265.287720,255.861435 269.538330,255.744125 274.227905,255.600952 
	C274.754181,257.080536 274.841492,258.585938 274.565979,260.581024 
	C272.140778,262.700287 270.078400,264.329895 267.561951,265.971069 
	C264.348145,265.996521 261.588379,266.010376 258.828644,266.024261 
	C258.494507,264.635620 257.654877,263.129486 257.943878,261.885651 
	C258.384918,259.987610 259.606110,258.270813 260.766602,256.227905 
z"/>
<path fill="#F6EDC8" opacity="1.000000" stroke="none" 
	d="
M224.842163,148.385330 
	C225.784180,147.770325 226.569321,147.450363 227.671585,147.165024 
	C228.446518,148.515823 228.599091,150.073090 229.415131,151.106354 
	C232.905090,155.525223 232.790634,157.736023 228.647980,161.649414 
	C227.375992,162.851013 226.289688,164.249176 225.102066,165.575516 
	C221.355331,159.953674 216.259903,154.458725 224.842163,148.385330 
z"/>
<path fill="#728D8A" opacity="1.000000" stroke="none" 
	d="
M67.082939,268.219238 
	C67.082939,268.219238 67.030586,268.655365 67.021042,268.874939 
	C61.404232,272.084869 55.796963,275.075256 50.189693,278.065643 
	C49.752598,277.570526 49.315502,277.075409 48.878407,276.580292 
	C55.350941,269.776917 61.823475,262.973511 68.610703,256.083038 
	C68.925400,255.995941 69.094032,255.787170 69.102112,256.250916 
	C68.583771,258.122040 68.465500,260.226440 67.459801,260.815369 
	C63.264259,263.272095 64.868774,265.646393 67.082939,268.219238 
z"/>
<path fill="#F6EDC8" opacity="1.000000" stroke="none" 
	d="
M144.903046,149.262695 
	C145.773743,148.960800 146.471771,148.967941 147.516235,148.982544 
	C153.302719,155.316101 153.275925,155.299484 148.961258,162.259293 
	C148.284958,163.350204 147.978516,164.670410 147.275024,166.198059 
	C147.048996,166.511520 146.906219,166.616287 146.906219,166.616287 
	C145.948074,165.103516 145.198532,163.395340 143.995956,162.111542 
	C138.555679,156.303772 138.617783,154.409897 144.903046,149.262695 
z"/>
<path fill="#9BC1B4" opacity="1.000000" stroke="none" 
	d="
M285.367432,95.970184 
	C282.269714,96.310242 279.513885,96.607773 276.379639,96.490250 
	C275.996796,93.374123 275.992401,90.673065 275.988007,87.972000 
	C276.101501,87.650688 276.295837,87.389549 277.169556,87.071594 
	C280.343079,86.378242 282.918121,85.801888 285.493134,85.225540 
	C287.648743,87.078865 289.804352,88.932190 292.404297,91.167534 
	C290.335907,92.638161 288.022583,94.282913 285.367432,95.970184 
z"/>
<path fill="#F6EDC8" opacity="1.000000" stroke="none" 
	d="
M175.012131,149.966736 
	C180.246964,154.291977 180.172226,157.386429 175.358582,161.965103 
	C174.230560,163.038071 174.408310,165.483841 173.795929,167.621155 
	C173.371902,167.886841 173.164566,167.777618 172.984497,167.616653 
	C171.123672,164.621933 168.955627,161.770828 167.473282,158.599213 
	C165.189896,153.713745 168.982803,151.517288 172.752701,149.349243 
	C173.828964,149.618500 174.420547,149.792618 175.012131,149.966736 
z"/>
<path fill="#4C736F" opacity="1.000000" stroke="none" 
	d="
M121.802582,147.307846 
	C117.612755,147.402496 113.549240,147.437180 109.211555,147.758286 
	C108.483109,148.013092 108.028839,147.981491 107.193558,147.472534 
	C106.876083,144.347412 106.939613,141.699631 107.111351,138.827423 
	C107.412125,138.318756 107.668869,138.115601 108.345695,138.146103 
	C110.497269,138.527405 112.292923,138.756165 114.527588,138.992188 
	C117.316925,138.990295 119.667252,138.981155 122.153145,138.949127 
	C122.288712,138.926254 122.563377,138.913635 122.563377,138.913635 
	C122.393410,141.330780 122.223442,143.747940 122.100540,146.619370 
	C122.147606,147.073654 121.928886,147.247879 121.802582,147.307846 
z"/>
<path fill="#D8D6D7" opacity="1.000000" stroke="none" 
	d="
M277.855499,283.026154 
	C276.939789,284.012939 276.131439,285.687439 275.087097,285.850525 
	C272.517212,286.251801 269.838776,285.947784 267.204010,285.945862 
	C257.966339,285.939117 257.944794,285.942017 257.982574,276.466888 
	C257.991699,274.176697 258.194855,271.887299 259.053925,269.293365 
	C263.544556,268.708252 267.290009,268.427307 271.026550,268.504242 
	C271.011353,269.578003 271.005127,270.293884 270.557129,271.051178 
	C268.294830,271.107544 266.210449,270.573944 264.726135,271.287903 
	C263.163177,272.039703 261.219635,273.932129 261.139221,275.417999 
	C260.988098,278.210480 259.154114,282.644287 263.494934,283.412933 
	C266.908325,284.017426 270.689941,282.542450 274.618408,282.035095 
	C275.904358,282.394745 276.879913,282.710449 277.855499,283.026154 
z"/>
<path fill="#E0D9DA" opacity="1.000000" stroke="none" 
	d="
M247.993073,177.358322 
	C250.171143,175.218079 252.352264,174.963043 254.854218,176.899246 
	C255.538376,181.028625 255.962234,184.999115 256.351776,188.648270 
	C255.345169,189.201080 255.051758,189.509979 254.805359,189.476166 
	C245.732193,188.231812 245.708649,188.186203 247.993073,177.358322 
z"/>
<path fill="#C28287" opacity="1.000000" stroke="none" 
	d="
M118.122116,174.083939 
	C119.164879,166.917526 120.207649,159.751114 121.355194,152.128922 
	C125.103050,155.360382 126.287163,166.582901 123.599922,171.514191 
	C122.618805,173.314621 121.766907,175.185471 120.765533,177.206955 
	C120.284866,176.921310 119.539993,176.478668 118.442581,175.721893 
	C118.100739,174.966492 118.111427,174.525223 118.122116,174.083939 
z"/>
<path fill="#879D9C" opacity="1.000000" stroke="none" 
	d="
M105.217896,104.022575 
	C100.026497,102.345406 95.105118,100.643028 89.846710,98.931618 
	C88.086891,97.821976 86.664093,96.721367 85.078201,95.327087 
	C90.745384,96.029922 96.575661,97.026443 103.053764,98.194229 
	C104.094055,98.948936 104.486511,99.532372 104.936203,100.449921 
	C105.339012,101.850510 105.684570,102.916969 106.030128,103.983437 
	C105.849396,103.988083 105.668655,103.992722 105.217896,104.022575 
z"/>
<path fill="#DEDEDE" opacity="1.000000" stroke="none" 
	d="
M81.902512,255.945068 
	C81.902504,255.945053 82.368340,255.805328 82.608688,255.768539 
	C83.188049,257.936066 82.216293,260.644653 85.589302,261.661896 
	C86.052238,261.801483 85.775085,264.395172 85.017395,265.925842 
	C80.145256,265.712067 76.096298,265.425110 72.299347,264.913452 
	C75.668404,261.774170 78.785461,258.859619 81.902512,255.945068 
z"/>
<path fill="#DEDEDE" opacity="1.000000" stroke="none" 
	d="
M277.900116,282.561584 
	C276.879913,282.710449 275.904358,282.394745 274.571564,281.587830 
	C273.185455,277.720673 276.664978,272.907501 270.998871,271.009796 
	C271.005127,270.293884 271.011353,269.578003 271.447540,268.469238 
	C273.566315,268.036194 275.255157,267.996063 276.944000,267.955933 
	C277.277557,272.669647 277.611145,277.383331 277.900116,282.561584 
z"/>
<path fill="#5B725C" opacity="1.000000" stroke="none" 
	d="
M117.707550,174.063416 
	C118.111427,174.525223 118.100739,174.966492 118.118835,175.736908 
	C118.030594,179.301407 118.069916,182.554382 117.708778,185.762253 
	C117.588081,186.834335 116.444000,187.791229 115.546448,189.007507 
	C114.877968,184.459656 114.430763,179.705048 113.985382,174.486938 
	C115.089134,174.029922 116.191063,174.036423 117.707550,174.063416 
z"/>
<path fill="#C0C1C3" opacity="1.000000" stroke="none" 
	d="
M303.237000,267.561890 
	C297.557922,268.223480 291.848602,268.578278 285.700592,268.895569 
	C285.233307,268.146057 285.204742,267.433990 285.227844,266.366577 
	C290.933075,266.009094 296.586639,266.006927 302.732422,266.013245 
	C303.218689,266.432861 303.212738,266.843933 303.237000,267.561890 
z"/>
<path fill="#C6DCDA" opacity="1.000000" stroke="none" 
	d="
M285.728333,84.908478 
	C282.918121,85.801888 280.343079,86.378242 277.384644,86.949821 
	C276.985565,86.741180 276.969940,86.537323 276.904663,86.027985 
	C278.341522,83.651733 279.679962,81.445648 281.387848,79.577316 
	C282.062775,78.838997 283.560181,78.852562 284.683075,78.523758 
	C285.109894,80.546310 285.536743,82.568855 285.728333,84.908478 
z"/>
<path fill="#C0C1C3" opacity="1.000000" stroke="none" 
	d="
M92.992104,266.333496 
	C98.676613,266.001221 104.353714,266.002441 110.494385,266.001831 
	C110.969193,266.446075 110.980438,266.892120 110.975273,267.672668 
	C105.229340,268.116058 99.499809,268.224945 93.388641,268.167542 
	C92.999565,267.556488 92.992134,267.111755 92.992104,266.333496 
z"/>
<path fill="#C0C1C3" opacity="1.000000" stroke="none" 
	d="
M72.047348,265.138184 
	C76.096298,265.425110 80.145256,265.712067 84.669418,266.004150 
	C85.125549,266.756195 85.106453,267.503113 85.080879,268.623474 
	C79.901390,268.848145 74.728386,268.699341 69.408981,267.967621 
	C70.190834,266.635895 71.119087,265.887024 72.047348,265.138184 
z"/>
<path fill="#C0C1C3" opacity="1.000000" stroke="none" 
	d="
M276.951843,267.631714 
	C275.255157,267.996063 273.566315,268.036194 271.456482,268.111389 
	C267.290009,268.427307 263.544556,268.708252 259.337524,268.986694 
	C258.873016,268.243927 258.870087,267.503632 258.847900,266.393799 
	C261.588379,266.010376 264.348145,265.996521 268.008484,265.982819 
	C271.580505,265.991974 274.251923,266.000946 276.923370,266.009949 
	C276.935486,266.442474 276.947601,266.874969 276.951843,267.631714 
z"/>
<path fill="#C28287" opacity="1.000000" stroke="none" 
	d="
M146.677078,166.927933 
	C146.906219,166.616287 147.048996,166.511520 147.055206,166.565094 
	C147.315247,169.728241 147.673477,172.835693 147.736588,175.949127 
	C147.749527,176.586517 146.723389,177.343094 146.024902,177.825714 
	C145.856461,177.942108 144.619049,177.111862 144.661804,176.841797 
	C145.170685,173.627365 145.828888,170.436569 146.677078,166.927933 
z"/>
<path fill="#C28287" opacity="1.000000" stroke="none" 
	d="
M172.630219,167.653961 
	C173.164566,167.777618 173.371902,167.886841 173.779419,167.989075 
	C174.117294,170.514206 174.449326,173.001022 174.353683,175.471298 
	C174.321640,176.298782 173.198715,177.084045 172.574448,177.888611 
	C172.083359,177.149292 171.132980,176.377380 171.182693,175.676422 
	C171.372375,173.002304 171.884354,170.351044 172.630219,167.653961 
z"/>
<path fill="#C28287" opacity="1.000000" stroke="none" 
	d="
M225.107605,177.760635 
	C224.563278,174.983444 224.252289,172.381714 224.360580,169.797577 
	C224.380402,169.324783 226.534241,168.301422 226.968979,168.600189 
	C228.586563,169.711990 227.396912,176.390945 225.107605,177.760635 
z"/>
<path fill="#DEDEDE" opacity="1.000000" stroke="none" 
	d="
M277.228088,265.868561 
	C274.251923,266.000946 271.580505,265.991974 268.462524,265.971222 
	C270.078400,264.329895 272.140778,262.700287 274.542847,261.028534 
	C275.555145,262.684509 281.079956,261.670013 277.228088,265.868561 
z"/>
<path fill="#C28287" opacity="1.000000" stroke="none" 
	d="
M197.926178,168.369293 
	C198.703659,168.033875 199.378082,168.079285 200.380844,168.200928 
	C200.766068,170.731613 200.935455,173.191666 200.813690,175.637222 
	C200.775375,176.407028 199.956100,177.137939 199.494247,177.886658 
	C198.844559,177.125397 197.702316,176.402649 197.639191,175.595490 
	C197.462173,173.332336 197.730484,171.034378 197.926178,168.369293 
z"/>
<path fill="#B8727F" opacity="1.000000" stroke="none" 
	d="
M245.019516,164.441711 
	C247.527512,165.697510 249.964340,167.368332 253.504547,169.795700 
	C250.203247,169.944199 248.415863,170.024597 246.211258,170.182861 
	C245.794037,170.260712 245.820404,170.215103 245.814789,169.963379 
	C245.697189,169.404388 245.493683,169.180237 245.198669,169.039200 
	C245.115219,167.645035 245.031784,166.250870 245.019516,164.441711 
z"/>
<path fill="#E0D9DA" opacity="1.000000" stroke="none" 
	d="
M108.038757,256.734131 
	C103.924263,256.772430 99.832245,256.549622 95.356781,256.162964 
	C94.966576,255.823929 94.959801,255.648727 94.991722,255.213226 
	C99.094650,255.068405 103.158897,255.183884 107.698196,255.368073 
	C108.135925,255.782181 108.098579,256.127563 108.038757,256.734131 
z"/>
<path fill="#879D9C" opacity="1.000000" stroke="none" 
	d="
M83.320290,94.291443 
	C83.681046,94.244682 84.198616,94.421280 84.859650,94.842613 
	C84.494438,94.896492 83.985779,94.705650 83.320290,94.291443 
z"/>
<path fill="#C0D6D4" opacity="1.000000" stroke="none" 
	d="
M174.853714,149.687012 
	C174.420547,149.792618 173.828964,149.618500 173.050629,149.183228 
	C173.474350,149.083817 174.084824,149.245560 174.853714,149.687012 
z"/>
<path fill="#E0D9DA" opacity="1.000000" stroke="none" 
	d="
M108.488052,211.869965 
	C108.336113,211.691742 108.354988,211.360184 108.643311,210.941223 
	C108.945061,211.175827 108.860435,211.463440 108.488052,211.869965 
z"/>
<path fill="#C67E7D" opacity="1.000000" stroke="none" 
	d="
M245.186264,169.286163 
	C245.493683,169.180237 245.697189,169.404388 245.833038,169.944397 
	C245.484787,170.115570 245.257111,169.900909 245.186264,169.286163 
z"/>
<path fill="#7F9E9B" opacity="1.000000" stroke="none" 
	d="
M44.277046,121.977600 
	C44.326412,121.829033 44.595402,121.785873 44.924118,121.916565 
	C44.983845,122.090431 44.496674,122.083000 44.277046,121.977600 
z"/>
<path fill="#5B725C" opacity="1.000000" stroke="none" 
	d="
M190.963806,68.767014 
	C190.806198,68.767563 190.666962,68.517578 190.661621,68.158783 
	C190.857758,68.205482 190.919983,68.360977 190.963806,68.767014 
z"/>
<path fill="#396D68" opacity="1.000000" stroke="none" 
	d="
M223.090088,101.138214 
	C221.328049,101.438828 219.565994,101.739441 217.311768,101.622711 
	C215.485519,100.804329 214.138916,100.027382 212.819702,100.071388 
	C208.525436,100.214653 204.242752,100.914268 199.952759,100.940964 
	C182.467163,101.049805 164.980118,101.034920 147.495117,100.886848 
	C146.289124,100.876640 145.095490,99.403954 143.896118,98.611382 
	C155.676285,96.904823 167.463242,95.243454 179.234787,93.479424 
	C191.840500,91.590378 204.431747,89.604675 217.488510,88.089783 
	C218.245468,93.302155 216.818481,98.788712 223.090088,101.138214 
z"/>
<path fill="#386E6F" opacity="1.000000" stroke="none" 
	d="
M223.525146,101.102127 
	C216.818481,98.788712 218.245468,93.302155 217.911530,88.028458 
	C218.057877,87.282692 218.291595,87.088394 219.152740,86.859711 
	C228.653198,84.149323 237.583206,81.591560 247.017685,83.981552 
	C249.512421,86.189056 252.007172,88.396568 254.750793,91.169113 
	C253.167145,93.466286 251.591324,95.693489 249.439285,96.809479 
	C246.524353,98.321068 243.167572,98.980591 240.000336,100.005630 
	C234.653625,100.359108 229.306900,100.712578 223.525146,101.102127 
z"/>
<path fill="#305E5B" opacity="1.000000" stroke="none" 
	d="
M143.436890,98.659950 
	C145.095490,99.403954 146.289124,100.876640 147.495117,100.886848 
	C164.980118,101.034920 182.467163,101.049805 199.952759,100.940964 
	C204.242752,100.914268 208.525436,100.214653 212.819702,100.071388 
	C214.138916,100.027382 215.485519,100.804329 216.908173,101.600891 
	C216.158279,102.164009 215.319778,102.331596 213.825760,102.746239 
	C205.118042,103.681084 197.065842,104.368881 188.923828,104.653580 
	C187.012634,103.833641 185.192764,103.062019 183.369659,103.054314 
	C162.915726,102.967819 142.461273,102.998917 121.567291,102.996735 
	C119.068062,102.998489 117.008507,103.001900 114.526825,103.005165 
	C111.605408,103.403198 109.106094,103.801376 106.606789,104.199554 
	C106.606789,104.199547 106.308685,104.117401 106.169403,104.050415 
	C105.684570,102.916969 105.339012,101.850510 105.217896,100.143936 
	C107.659454,99.513374 109.878441,99.584900 112.093239,99.517906 
	C115.389534,99.418175 118.682861,99.220589 121.977455,99.064644 
	C128.977524,98.945930 135.977600,98.827225 143.436890,98.659950 
z"/>
<path fill="#89BBBC" opacity="1.000000" stroke="none" 
	d="
M246.988632,83.602570 
	C237.583206,81.591560 228.653198,84.149323 219.349030,86.736389 
	C218.981537,84.444832 218.993973,82.180679 219.010361,79.488243 
	C226.282257,79.039406 233.555130,79.169044 240.815994,78.931725 
	C244.188980,78.821472 246.173218,79.982643 246.988632,83.602570 
z"/>
<path fill="#3B6D68" opacity="1.000000" stroke="none" 
	d="
M121.729843,98.812881 
	C118.682861,99.220589 115.389534,99.418175 112.093239,99.517906 
	C109.878441,99.584900 107.659454,99.513374 105.160645,99.809814 
	C104.486511,99.532372 104.094055,98.948936 103.505867,98.189301 
	C103.236374,96.588676 103.162613,95.164253 103.076180,93.495087 
	C110.264809,92.513084 115.590683,96.588326 121.729843,98.812881 
z"/>
<path fill="#4C736F" opacity="1.000000" stroke="none" 
	d="
M190.605606,77.004211 
	C190.670715,77.456184 190.735825,77.908150 190.845123,78.701210 
	C187.443939,83.233994 185.569000,83.171768 179.124008,78.370926 
	C179.126343,77.794395 179.325424,77.505287 180.211792,77.099449 
	C184.134583,76.989883 187.370087,76.997047 190.605606,77.004211 
z"/>
<path fill="#FDFCFC" opacity="1.000000" stroke="none" 
	d="
M94.184738,213.607422 
	C90.662224,220.901169 87.171799,227.812958 83.372147,234.865753 
	C83.058441,210.335602 83.053963,185.664429 83.535965,160.474792 
	C87.707962,159.970078 91.393478,159.983841 95.080009,160.466461 
	C95.202988,176.337112 95.324951,191.738922 95.446907,207.140732 
	C95.036880,209.168976 94.626862,211.197205 94.184738,213.607422 
z"/>
<path fill="#EAC297" opacity="1.000000" stroke="none" 
	d="
M95.078987,159.997604 
	C91.393478,159.983841 87.707962,159.970078 83.574066,160.011841 
	C83.102425,157.657455 83.079170,155.247528 83.538589,152.441711 
	C86.169403,152.070450 88.331078,151.951035 90.462715,152.151306 
	C94.256721,152.507751 96.048538,150.881165 96.415710,147.089905 
	C99.979988,147.418365 103.093063,147.764252 106.206131,148.110138 
	C106.212540,148.549164 106.218941,148.988174 105.765396,149.776154 
	C104.538498,151.030273 103.285278,151.841202 103.088379,152.856903 
	C102.212563,157.374695 99.590660,159.682587 95.078987,159.997604 
z"/>
<path fill="#C1D3D1" opacity="1.000000" stroke="none" 
	d="
M106.382111,148.057785 
	C103.093063,147.764252 99.979988,147.418365 95.957993,147.070068 
	C91.122353,147.084915 87.195641,147.102142 83.268921,147.119385 
	C83.207390,144.693787 83.145851,142.268204 83.561905,139.423157 
	C87.737976,138.949921 91.436447,138.896133 95.582840,138.882996 
	C99.688225,138.966400 103.345688,139.009125 107.003143,139.051849 
	C106.939613,141.699631 106.876083,144.347412 106.854279,147.428421 
	C106.895996,147.861649 106.558098,148.005432 106.382111,148.057785 
z"/>
<path fill="#F8F8F8" opacity="1.000000" stroke="none" 
	d="
M95.134918,138.842346 
	C91.436447,138.896133 87.737976,138.949921 83.612991,138.971176 
	C83.117653,136.245560 83.048820,133.552490 82.943176,130.407318 
	C86.766586,129.810837 90.626823,129.666458 94.788391,130.215103 
	C95.104782,133.552872 95.119850,136.197617 95.134918,138.842346 
z"/>
<path fill="#F8F8F8" opacity="1.000000" stroke="none" 
	d="
M83.183578,147.513092 
	C87.195641,147.102142 91.122353,147.084915 95.506790,147.087524 
	C96.048538,150.881165 94.256721,152.507751 90.462715,152.151306 
	C88.331078,151.951035 86.169403,152.070450 83.574905,151.991821 
	C83.118462,150.594147 83.108353,149.250473 83.183578,147.513092 
z"/>
<path fill="#AA6B72" opacity="1.000000" stroke="none" 
	d="
M248.848099,102.985886 
	C250.940689,102.981712 253.033279,102.977547 255.597565,103.259926 
	C256.125946,103.721161 256.182678,103.895851 256.239441,104.070549 
	C256.224243,111.370567 256.209076,118.670593 256.271545,126.424759 
	C256.292419,127.402962 256.235596,127.927025 256.204956,129.282288 
	C256.241333,133.079010 256.251526,136.044540 256.261719,139.010056 
	C254.176773,139.024323 252.091812,139.038605 249.557129,138.536102 
	C249.019302,132.995743 248.931183,127.972122 248.863312,122.519775 
	C248.796402,120.089424 248.709259,118.087799 248.722092,115.704086 
	C248.755829,114.543861 248.689590,113.765717 248.711853,112.551460 
	C248.742310,109.747421 248.684280,107.379501 248.728317,104.683571 
	C248.836288,103.899002 248.842194,103.442444 248.848099,102.985886 
z"/>
<path fill="#879D9C" opacity="1.000000" stroke="none" 
	d="
M256.431763,104.044037 
	C256.182678,103.895851 256.125946,103.721161 256.045044,103.272072 
	C256.332336,103.092133 256.586792,103.268761 256.894592,103.734634 
	C257.004974,103.941711 256.624115,104.017525 256.431763,104.044037 
z"/>
<path fill="#3B6D68" opacity="1.000000" stroke="none" 
	d="
M106.676712,104.632492 
	C109.106094,103.801376 111.605408,103.403198 114.535004,103.432831 
	C114.649529,112.559380 114.333778,121.258125 113.627991,129.966919 
	C111.523079,130.306381 109.808182,130.635788 108.039062,130.667740 
	C107.934090,130.175201 107.883354,129.980133 107.832611,129.785049 
	C107.839249,129.059204 107.845879,128.333359 107.782181,127.249786 
	C107.390121,119.616516 107.068382,112.340973 106.676712,104.632492 
z"/>
<path fill="#CFB6B9" opacity="1.000000" stroke="none" 
	d="
M167.950241,137.029419 
	C165.105103,138.379089 162.560974,138.408630 159.241898,137.551727 
	C155.662628,136.627640 151.436447,138.209244 147.198486,138.409576 
	C147.290344,133.728714 147.676193,129.336029 148.430450,124.953674 
	C155.180267,124.958328 161.561676,124.952637 168.131760,125.230339 
	C168.477600,127.459114 168.634750,129.404495 168.873383,132.358490 
	C168.630310,133.588348 168.290283,135.308884 167.950241,137.029419 
M154.967041,129.219986 
	C153.513519,133.584381 154.736572,134.898041 159.623337,133.859665 
	C160.539795,133.664932 161.808914,132.355743 161.834457,131.527512 
	C161.859650,130.709946 160.660568,129.444366 159.734039,129.111328 
	C158.568878,128.692490 157.134933,129.021423 154.967041,129.219986 
z"/>
<path fill="#7C8AA7" opacity="1.000000" stroke="none" 
	d="
M190.952545,138.639816 
	C187.560898,138.515015 184.169250,138.390198 180.404205,137.871826 
	C180.352051,136.990021 180.673309,136.501801 181.254181,136.207916 
	C183.657181,136.160049 185.800568,135.917862 187.943939,135.675659 
	C187.927521,135.522644 187.911118,135.369629 187.894714,135.216614 
	C186.123184,135.016327 184.351669,134.816040 182.020615,134.552490 
	C182.020615,128.247498 182.020615,122.129883 182.233521,115.901306 
	C182.712357,115.593704 182.900101,115.339348 183.424713,115.022072 
	C185.223312,115.020355 186.606873,115.023834 188.084442,115.189758 
	C188.455536,115.241028 188.732620,115.129845 189.113464,114.736252 
	C186.135101,114.318336 183.052979,114.182838 179.733643,113.790359 
	C182.406097,113.022583 185.309357,112.470978 188.227188,112.012047 
	C191.389160,111.514717 192.306076,113.232224 192.019135,116.359818 
	C192.026627,117.119576 192.041245,117.553757 192.037048,118.406082 
	C192.018692,120.219330 192.019135,121.614441 191.966064,123.445206 
	C191.929459,125.925865 191.946365,127.970856 191.697113,130.248810 
	C190.420898,132.986618 191.310852,134.117920 193.973633,133.973206 
	C193.988556,133.968002 194.019943,133.973831 193.990967,134.227585 
	C193.938873,134.650040 193.915741,134.818741 193.531647,134.999985 
	C192.431320,136.221634 191.691940,137.430725 190.952545,138.639816 
z"/>
<path fill="#CFB6B9" opacity="1.000000" stroke="none" 
	d="
M224.012589,138.977875 
	C221.894638,138.964615 219.776672,138.951355 217.220581,138.664215 
	C215.928818,131.662933 211.383667,136.244156 208.217728,134.942688 
	C208.538528,136.810150 208.726135,137.902359 208.913757,138.994553 
	C206.844650,138.327805 204.775558,137.661072 202.191177,136.677780 
	C201.774109,132.557831 201.872314,128.754425 202.341217,124.929802 
	C205.280014,124.602066 207.842682,124.235161 210.417465,124.002769 
	C214.613037,123.624084 218.816513,123.333229 223.293839,123.024849 
	C223.752319,123.082382 223.933624,123.120392 224.089233,123.577538 
	C223.482849,126.512703 222.902145,129.028732 222.189209,132.117615 
	C222.642899,133.824554 223.327744,136.401215 224.012589,138.977875 
M216.716522,132.257156 
	C217.545059,127.192993 213.840714,127.867844 211.075256,128.221420 
	C209.949066,128.365402 208.208237,130.249084 208.191772,131.362595 
	C208.129059,135.601273 211.625641,133.579468 213.687088,133.910812 
	C214.497025,134.041000 215.443497,133.321747 216.716522,132.257156 
z"/>
<path fill="#CFB6B9" opacity="1.000000" stroke="none" 
	d="
M141.021484,137.012451 
	C139.311722,137.208572 137.604691,137.433914 135.891632,137.595047 
	C131.671158,137.992065 127.447922,138.359589 122.894585,138.826294 
	C122.563377,138.913635 122.288712,138.926254 122.197937,138.558090 
	C122.427124,133.159760 122.747086,128.129608 123.288666,123.098015 
	C123.510292,123.096588 123.944603,123.009979 124.169312,123.288437 
	C129.973282,123.742294 135.552551,123.917686 141.284195,124.405060 
	C143.114380,128.876831 143.762405,133.001846 141.021484,137.012451 
M136.937195,129.728470 
	C133.685120,127.246758 129.336578,127.335350 129.107529,129.974976 
	C128.998413,131.232391 130.354980,133.682983 131.199142,133.752472 
	C133.509262,133.942627 137.314331,135.599426 136.937195,129.728470 
z"/>
<path fill="#C3777E" opacity="1.000000" stroke="none" 
	d="
M168.167480,137.311432 
	C168.290283,135.308884 168.630310,133.588348 168.873383,132.358490 
	C168.634750,129.404495 168.477600,127.459114 168.350113,124.957520 
	C171.135376,122.388062 173.641968,122.877617 175.975830,125.521271 
	C175.980988,126.858955 175.980850,127.831848 175.730164,128.893768 
	C175.313339,129.044159 175.147049,129.105499 174.747192,129.170685 
	C174.177536,129.350250 174.074921,129.616119 174.136444,130.351379 
	C174.117905,131.496185 174.168671,132.261765 174.210541,133.253571 
	C174.370697,133.799408 174.628220,133.906601 175.224762,133.896042 
	C175.644684,134.047211 175.814087,134.103699 175.984482,134.488129 
	C175.984711,135.468674 175.983917,136.121262 175.983124,136.773834 
	C173.686569,139.237198 171.186340,139.812408 168.167480,137.311432 
z"/>
<path fill="#C28287" opacity="1.000000" stroke="none" 
	d="
M141.204773,137.284912 
	C143.762405,133.001846 143.114380,128.876831 141.638733,124.348923 
	C143.914627,124.301659 145.988327,124.622498 148.062042,124.943336 
	C147.676193,129.336029 147.290344,133.728714 146.900085,138.532654 
	C145.059814,138.481705 143.223938,138.019531 141.204773,137.284912 
z"/>
<path fill="#C28287" opacity="1.000000" stroke="none" 
	d="
M201.970520,124.951027 
	C201.872314,128.754425 201.774109,132.557831 201.817841,136.680023 
	C198.730957,142.837448 196.934814,137.810989 194.338287,135.757675 
	C193.967499,135.472610 193.892609,134.987427 193.892609,134.987427 
	C193.915741,134.818741 193.938873,134.650040 194.411743,134.230438 
	C195.580002,132.971573 196.786957,132.023682 196.919785,130.943680 
	C197.238968,128.348343 197.054382,125.691040 197.434189,123.048317 
	C199.187057,123.675606 200.578796,124.313316 201.970520,124.951027 
z"/>
<path fill="#8592A9" opacity="1.000000" stroke="none" 
	d="
M176.297638,136.947388 
	C175.983917,136.121262 175.984711,135.468674 176.367691,134.394012 
	C178.556168,131.942490 179.498245,130.041672 175.980698,128.804733 
	C175.980850,127.831848 175.980988,126.858955 176.314453,125.335831 
	C180.461212,123.084045 178.446411,119.621445 179.249542,116.935242 
	C179.480835,116.930054 179.943542,116.929710 180.249054,117.228325 
	C180.701218,123.689148 180.847885,129.851349 180.994568,136.013565 
	C180.673309,136.501801 180.352051,136.990021 180.004120,137.787720 
	C178.855698,137.771790 177.733932,137.446381 176.297638,136.947388 
z"/>
<path fill="#C28287" opacity="1.000000" stroke="none" 
	d="
M224.073303,139.199600 
	C223.327744,136.401215 222.642899,133.824554 222.189209,132.117615 
	C222.902145,129.028732 223.482849,126.512703 224.446777,123.532043 
	C225.553116,123.083229 226.276230,123.099060 227.020966,123.503891 
	C227.331894,128.604294 227.621201,133.315689 227.873352,138.331177 
	C227.753708,139.035126 227.671204,139.434998 227.588684,139.834869 
	C226.699799,139.836731 225.810898,139.838593 224.596069,139.850494 
	C224.270126,139.860519 224.134018,139.421326 224.073303,139.199600 
z"/>
<path fill="#DEDEDE" opacity="1.000000" stroke="none" 
	d="
M209.366974,138.999634 
	C208.726135,137.902359 208.538528,136.810150 208.217728,134.942688 
	C211.383667,136.244156 215.928818,131.662933 216.894547,138.695786 
	C214.611160,139.002380 212.215683,139.003555 209.366974,138.999634 
z"/>
<path fill="#8592A9" opacity="1.000000" stroke="none" 
	d="
M193.531647,134.999985 
	C193.892609,134.987427 193.967499,135.472610 193.987366,135.717010 
	C193.185806,136.827545 192.364365,137.693665 191.247742,138.599792 
	C191.691940,137.430725 192.431320,136.221634 193.531647,134.999985 
z"/>
<path fill="#BE767B" opacity="1.000000" stroke="none" 
	d="
M95.080009,160.466461 
	C99.590660,159.682587 102.212563,157.374695 103.088379,152.856903 
	C103.285278,151.841202 104.538498,151.030273 105.677071,150.095062 
	C104.303520,169.221008 102.020622,188.281235 95.708939,206.905792 
	C95.324951,191.738922 95.202988,176.337112 95.080009,160.466461 
z"/>
<path fill="#5B725C" opacity="1.000000" stroke="none" 
	d="
M190.703064,76.618385 
	C187.370087,76.997047 184.134583,76.989883 180.446381,76.975250 
	C179.326889,73.856003 177.581390,70.590340 181.629486,68.049110 
	C181.999863,67.999802 182.016083,68.015526 182.016083,68.015526 
	C182.798508,68.457619 183.584549,68.893417 184.362656,69.343002 
	C186.549835,70.606758 188.733719,71.876190 190.962158,73.492706 
	C190.937088,74.638878 190.868790,75.435722 190.703064,76.618385 
z"/>
<path fill="#5B725C" opacity="1.000000" stroke="none" 
	d="
M181.992096,67.991516 
	C183.843430,67.088791 185.702530,66.194344 187.561646,65.299896 
	C187.727646,65.715721 187.893661,66.131554 188.059677,66.547386 
	C186.295670,67.008438 184.531662,67.469490 182.391876,67.973038 
	C182.016083,68.015526 181.999863,67.999802 181.992096,67.991516 
z"/>
<path fill="#CFB6B9" opacity="1.000000" stroke="none" 
	d="
M227.910507,138.027100 
	C227.621201,133.315689 227.331894,128.604294 227.319122,123.603653 
	C232.003113,123.513977 236.411011,123.868759 240.817795,123.855347 
	C243.493790,123.847191 246.168045,123.270050 248.843079,122.948517 
	C248.931183,127.972122 249.019302,132.995743 249.115692,138.481934 
	C244.169495,139.468460 239.423721,135.017090 234.167175,138.651306 
	C233.547195,138.983505 233.112473,138.989151 232.188766,138.740067 
	C230.436691,138.332581 229.173599,138.179840 227.910507,138.027100 
M238.440933,133.987427 
	C243.340668,134.136887 242.190811,131.277100 241.131165,127.167206 
	C238.499054,128.289886 235.338211,128.654480 234.251236,130.349228 
	C232.874191,132.496201 234.667465,134.333969 238.440933,133.987427 
z"/>
<path fill="#FFFFFF" opacity="1.000000" stroke="none" 
	d="
M274.436523,130.112808 
	C278.660736,129.974289 282.884918,129.835754 287.473083,129.858734 
	C287.780334,132.664581 287.723602,135.308914 287.564178,138.377441 
	C283.475098,138.867310 279.488739,138.932983 275.058136,138.518768 
	C274.554779,135.396851 274.495667,132.754837 274.436523,130.112808 
z"/>
<path fill="#975D67" opacity="1.000000" stroke="none" 
	d="
M274.018311,130.062332 
	C274.495667,132.754837 274.554779,135.396851 274.569489,138.477539 
	C270.350403,138.939499 266.175751,138.962814 261.514923,138.539154 
	C261.032104,135.396301 261.035461,132.700424 261.038818,130.004547 
	C265.225891,130.006973 269.413025,130.009415 274.018311,130.062332 
z"/>
<path fill="#FDFCFC" opacity="1.000000" stroke="none" 
	d="
M287.677582,151.378906 
	C284.652679,151.869186 281.674133,151.901474 278.708984,152.117676 
	C275.568817,152.346619 274.511932,150.848450 274.895569,147.520294 
	C278.783203,147.109039 282.670563,147.123260 286.961731,147.196350 
	C287.486969,148.504089 287.608398,149.752945 287.677582,151.378906 
z"/>
<path fill="#F8F8F8" opacity="1.000000" stroke="none" 
	d="
M260.767517,129.779785 
	C261.035461,132.700424 261.032104,135.396301 261.057617,138.540375 
	C259.743835,138.991226 258.401123,138.993896 256.660095,139.003311 
	C256.251526,136.044540 256.241333,133.079010 256.262695,129.675644 
	C257.694855,129.343536 259.095551,129.449280 260.767517,129.779785 
z"/>
<path fill="#94C2BF" opacity="1.000000" stroke="none" 
	d="
M240.377747,100.156815 
	C243.167572,98.980591 246.524353,98.321068 249.439285,96.809479 
	C251.591324,95.693489 253.167145,93.466286 255.026154,91.352142 
	C261.753540,89.975098 268.454468,88.980087 275.571716,87.978531 
	C275.992401,90.673065 275.996796,93.374123 276.001221,96.522247 
	C268.654480,97.977211 261.325592,99.155716 253.954208,99.928520 
	C249.589218,100.386131 245.157089,100.203018 240.377747,100.156815 
z"/>
<path fill="#59A09C" opacity="1.000000" stroke="none" 
	d="
M179.943542,116.929710 
	C179.943542,116.929710 179.480835,116.930054 178.944092,116.653641 
	C160.375870,116.307739 142.344376,116.238251 124.250122,115.756393 
	C124.561378,113.089920 124.935387,110.835831 125.335236,108.425995 
	C126.535919,108.294724 127.501793,108.121353 128.471863,108.093285 
	C142.245636,107.694832 156.025742,107.453041 169.791595,106.871964 
	C176.213043,106.600914 182.607162,105.681969 189.013657,105.056686 
	C197.065842,104.368881 205.118042,103.681084 213.622314,102.994392 
	C215.766144,102.993637 217.457886,102.991768 219.526077,103.394333 
	C220.268936,107.849976 220.635330,111.901199 220.623718,115.979683 
	C219.490067,116.056984 218.734421,116.107025 217.513855,116.110939 
	C209.037994,116.088814 201.027084,116.112808 192.770737,116.091331 
	C192.525314,116.045868 192.026260,116.034256 192.026260,116.034256 
	C192.306076,113.232224 191.389160,111.514717 188.227188,112.012047 
	C185.309357,112.470978 182.406097,113.022583 179.734283,114.150574 
	C179.962601,115.488426 179.953064,116.209068 179.943542,116.929710 
z"/>
<path fill="#559E9D" opacity="1.000000" stroke="none" 
	d="
M221.001740,115.952408 
	C220.635330,111.901199 220.268936,107.849976 219.950867,103.399841 
	C228.353577,103.001595 236.707993,103.002266 245.575302,103.331818 
	C246.934235,104.110992 247.780243,104.561287 248.626266,105.011581 
	C248.684280,107.379501 248.742310,109.747421 248.388779,112.563072 
	C246.984848,113.991142 245.992477,114.971474 244.532013,115.976593 
	C236.376541,115.985062 228.689133,115.968735 221.001740,115.952408 
z"/>
<path fill="#59A09C" opacity="1.000000" stroke="none" 
	d="
M248.728317,104.683571 
	C247.780243,104.561287 246.934235,104.110992 246.043884,103.339142 
	C246.713394,103.014023 247.427261,103.010468 248.494598,102.996399 
	C248.842194,103.442444 248.836288,103.899002 248.728317,104.683571 
z"/>
<path fill="#975D67" opacity="1.000000" stroke="none" 
	d="
M107.388260,129.833328 
	C107.883354,129.980133 107.934090,130.175201 108.004433,131.107590 
	C108.012619,133.894455 108.001205,135.944016 107.989792,137.993576 
	C107.668869,138.115601 107.412125,138.318756 107.111351,138.827423 
	C103.345688,139.009125 99.688225,138.966400 95.582840,138.882996 
	C95.119850,136.197617 95.104782,133.552872 95.122055,130.463531 
	C99.084236,129.973129 103.014069,129.927368 107.388260,129.833328 
z"/>
<path fill="#C1D3D1" opacity="1.000000" stroke="none" 
	d="
M227.873352,138.331177 
	C229.173599,138.179840 230.436691,138.332581 231.862610,138.731674 
	C230.820572,139.297104 229.615723,139.616180 227.999786,139.885071 
	C227.671204,139.434998 227.753708,139.035126 227.873352,138.331177 
z"/>
<path fill="#A1917D" opacity="1.000000" stroke="none" 
	d="
M96.902039,271.719360 
	C98.410492,271.367523 99.549461,271.149475 100.692215,271.127441 
	C107.727112,270.991730 110.753281,275.071960 107.809341,281.427094 
	C107.157249,282.834778 104.021759,283.799194 102.080795,283.719818 
	C99.768501,283.625244 95.859917,282.557098 95.567154,281.253876 
	C94.918991,278.368500 96.099571,275.072327 96.902039,271.719360 
z"/>
<path fill="#A1917D" opacity="1.000000" stroke="none" 
	d="
M288.020447,273.079651 
	C291.834229,272.349152 295.709686,271.121613 298.975281,272.046722 
	C300.327362,272.429810 300.824677,277.426544 300.796936,280.316254 
	C300.785492,281.510712 298.504730,283.496185 297.034271,283.730591 
	C288.166321,285.144257 285.989349,282.574615 288.020447,273.079651 
z"/>
<path fill="#A3927F" opacity="1.000000" stroke="none" 
	d="
M71.749207,271.378632 
	C73.303047,271.190460 74.456154,271.113922 75.609596,271.108521 
	C82.364380,271.076813 85.356834,275.142883 82.568214,281.203796 
	C81.926315,282.598907 79.163780,283.808685 77.438026,283.732086 
	C74.754845,283.613007 70.605804,283.040558 69.807510,281.362122 
	C68.425995,278.457428 67.674728,274.283783 71.749207,271.378632 
z"/>
<path fill="#5C7979" opacity="1.000000" stroke="none" 
	d="
M72.299347,264.913452 
	C71.119087,265.887024 70.190834,266.635895 69.128647,267.656799 
	C68.570763,267.999481 68.146797,268.070129 67.402885,268.179993 
	C64.868774,265.646393 63.264259,263.272095 67.459801,260.815369 
	C68.465500,260.226440 68.583771,258.122040 69.225006,256.304779 
	C73.224281,255.911957 77.108727,255.928986 81.447845,255.945557 
	C78.785461,258.859619 75.668404,261.774170 72.299347,264.913452 
z"/>
<path fill="#414D4C" opacity="1.000000" stroke="none" 
	d="
M123.067047,123.099442 
	C122.747086,128.129608 122.427124,133.159760 122.062370,138.580963 
	C119.667252,138.981155 117.316925,138.990295 114.516373,138.543182 
	C114.050102,135.376892 114.034065,132.666870 114.018021,129.956863 
	C114.333778,121.258125 114.649529,112.559380 114.957115,103.432976 
	C117.008507,103.001900 119.068062,102.998489 121.566788,103.459930 
	C122.018822,107.944687 122.031700,111.964577 122.029907,116.408249 
	C122.365852,118.921165 122.716446,121.010300 123.067047,123.099442 
z"/>
<path fill="#658280" opacity="1.000000" stroke="none" 
	d="
M113.627991,129.966919 
	C114.034065,132.666870 114.050102,135.376892 114.077362,138.535919 
	C112.292923,138.756165 110.497269,138.527405 108.345703,138.146103 
	C108.001205,135.944016 108.012619,133.894455 108.058662,131.405045 
	C109.808182,130.635788 111.523079,130.306381 113.627991,129.966919 
z"/>
<path fill="#A1917D" opacity="1.000000" stroke="none" 
	d="
M270.557129,271.051178 
	C276.664978,272.907501 273.185455,277.720673 274.261169,281.543884 
	C270.689941,282.542450 266.908325,284.017426 263.494934,283.412933 
	C259.154114,282.644287 260.988098,278.210480 261.139221,275.417999 
	C261.219635,273.932129 263.163177,272.039703 264.726135,271.287903 
	C266.210449,270.573944 268.294830,271.107544 270.557129,271.051178 
z"/>
<path fill="#25615D" opacity="1.000000" stroke="none" 
	d="
M122.044571,115.984474 
	C122.031700,111.964577 122.018822,107.944687 122.006454,103.461586 
	C142.461273,102.998917 162.915726,102.967819 183.369659,103.054314 
	C185.192764,103.062019 187.012634,103.833641 188.923828,104.653580 
	C182.607162,105.681969 176.213043,106.600914 169.791595,106.871964 
	C156.025742,107.453041 142.245636,107.694832 128.471863,108.093285 
	C127.501793,108.121353 126.535919,108.294724 125.335236,108.425995 
	C124.935387,110.835831 124.561378,113.089920 124.171028,115.755569 
	C124.154686,116.167122 124.059013,116.041138 123.723038,116.026558 
	C122.939568,116.002808 122.492073,115.993645 122.044571,115.984474 
z"/>
<path fill="#96C3BF" opacity="1.000000" stroke="none" 
	d="
M220.623718,115.979675 
	C228.689133,115.968735 236.376541,115.985062 244.898621,116.002472 
	C246.696243,116.031097 247.659180,116.058632 248.622116,116.086174 
	C248.709259,118.087799 248.796402,120.089424 248.863312,122.519783 
	C246.168045,123.270050 243.493790,123.847191 240.817795,123.855347 
	C236.411011,123.868759 232.003113,123.513977 227.297516,123.214653 
	C226.276230,123.099060 225.553116,123.083229 224.472458,123.112900 
	C223.933624,123.120392 223.752319,123.082382 223.050537,122.747635 
	C218.562912,122.124672 217.470779,119.719429 217.978775,116.157059 
	C218.734421,116.107025 219.490067,116.056984 220.623718,115.979675 
z"/>
<path fill="#59A09C" opacity="1.000000" stroke="none" 
	d="
M248.722092,115.704086 
	C247.659180,116.058632 246.696243,116.031097 245.366699,115.977684 
	C245.992477,114.971474 246.984848,113.991142 248.300293,112.999191 
	C248.689590,113.765717 248.755829,114.543861 248.722092,115.704086 
z"/>
<path fill="#9EC7C2" opacity="1.000000" stroke="none" 
	d="
M124.233780,116.167946 
	C142.344376,116.238251 160.375870,116.307739 178.712799,116.658829 
	C178.446411,119.621445 180.461212,123.084045 176.309143,124.971031 
	C173.641968,122.877617 171.135376,122.388062 168.161438,124.674118 
	C161.561676,124.952637 155.180267,124.958328 148.430450,124.953674 
	C145.988327,124.622498 143.914627,124.301659 141.486359,124.036942 
	C135.552551,123.917686 129.973282,123.742294 124.155830,122.849632 
	C123.964767,120.101959 124.011894,118.071548 124.059013,116.041138 
	C124.059013,116.041138 124.154686,116.167122 124.233780,116.167946 
z"/>
<path fill="#FDFCFC" opacity="1.000000" stroke="none" 
	d="
M155.391998,129.123840 
	C157.134933,129.021423 158.568878,128.692490 159.734039,129.111328 
	C160.660568,129.444366 161.859650,130.709946 161.834457,131.527512 
	C161.808914,132.355743 160.539795,133.664932 159.623337,133.859665 
	C154.736572,134.898041 153.513519,133.584381 155.391998,129.123840 
z"/>
<path fill="#9EC7C2" opacity="1.000000" stroke="none" 
	d="
M217.513855,116.110939 
	C217.470779,119.719429 218.562912,122.124672 222.773376,122.728104 
	C218.816513,123.333229 214.613037,123.624084 210.417465,124.002769 
	C207.842682,124.235161 205.280014,124.602066 202.341217,124.929802 
	C200.578796,124.313316 199.187057,123.675606 197.012421,123.009781 
	C194.826202,122.990967 193.422882,123.000252 192.019577,123.009544 
	C192.019135,121.614441 192.018692,120.219330 192.263123,118.248245 
	C192.677399,117.160439 192.846786,116.648621 193.016159,116.136795 
	C201.027084,116.112808 209.037994,116.088814 217.513855,116.110939 
z"/>
<path fill="#DEDEDE" opacity="1.000000" stroke="none" 
	d="
M191.966064,123.445206 
	C193.422882,123.000252 194.826202,122.990967 196.651276,123.020203 
	C197.054382,125.691040 197.238968,128.348343 196.919785,130.943680 
	C196.786957,132.023682 195.580002,132.971573 194.440704,133.976685 
	C194.019943,133.973831 193.988556,133.968002 193.961426,133.627426 
	C193.277298,132.196518 192.620285,131.106186 191.963257,130.015854 
	C191.946365,127.970856 191.929459,125.925865 191.966064,123.445206 
z"/>
<path fill="#879D9C" opacity="1.000000" stroke="none" 
	d="
M180.249039,117.228325 
	C179.953064,116.209068 179.962601,115.488426 179.971497,114.407562 
	C183.052979,114.182838 186.135101,114.318336 188.858582,114.733612 
	C188.330078,115.018044 188.160248,115.022690 187.990417,115.027328 
	C186.606873,115.023834 185.223312,115.020355 183.202728,115.121262 
	C182.288849,115.421906 182.107147,115.684113 182.020615,116.012268 
	C182.020615,122.129883 182.020615,128.247498 182.020615,134.552490 
	C184.351669,134.816040 186.123184,135.016327 187.894714,135.216614 
	C187.911118,135.369629 187.927521,135.522644 187.943939,135.675659 
	C185.800568,135.917862 183.657181,136.160049 181.254181,136.207916 
	C180.847885,129.851349 180.701218,123.689148 180.249039,117.228325 
z"/>
<path fill="#8592A9" opacity="1.000000" stroke="none" 
	d="
M191.697113,130.248810 
	C192.620285,131.106186 193.277298,132.196518 193.946518,133.632629 
	C191.310852,134.117920 190.420898,132.986618 191.697113,130.248810 
z"/>
<path fill="#96C3BF" opacity="1.000000" stroke="none" 
	d="
M192.770737,116.091331 
	C192.846786,116.648621 192.677399,117.160439 192.281937,117.830109 
	C192.041245,117.553757 192.026627,117.119576 192.019135,116.359818 
	C192.026260,116.034256 192.525314,116.045868 192.770737,116.091331 
z"/>
<path fill="#8592A9" opacity="1.000000" stroke="none" 
	d="
M182.233521,115.901306 
	C182.107147,115.684113 182.288849,115.421906 182.787689,115.126465 
	C182.900101,115.339348 182.712357,115.593704 182.233521,115.901306 
z"/>
<path fill="#8592A9" opacity="1.000000" stroke="none" 
	d="
M188.084442,115.189766 
	C188.160248,115.022690 188.330078,115.018044 188.754791,115.016022 
	C188.732620,115.129845 188.455536,115.241028 188.084442,115.189766 
z"/>
<path fill="#F8F8F8" opacity="1.000000" stroke="none" 
	d="
M216.522156,132.623260 
	C215.443497,133.321747 214.497025,134.041000 213.687088,133.910812 
	C211.625641,133.579468 208.129059,135.601273 208.191772,131.362595 
	C208.208237,130.249084 209.949066,128.365402 211.075256,128.221420 
	C213.840714,127.867844 217.545059,127.192993 216.522156,132.623260 
z"/>
<path fill="#F8F8F8" opacity="1.000000" stroke="none" 
	d="
M136.969742,130.157440 
	C137.314331,135.599426 133.509262,133.942627 131.199142,133.752472 
	C130.354980,133.682983 128.998413,131.232391 129.107529,129.974976 
	C129.336578,127.335350 133.685120,127.246758 136.969742,130.157440 
z"/>
<path fill="#305E5B" opacity="1.000000" stroke="none" 
	d="
M123.723038,116.026558 
	C124.011894,118.071548 123.964767,120.101959 123.931122,122.571175 
	C123.944603,123.009979 123.510292,123.096588 123.288666,123.098015 
	C122.716446,121.010300 122.365852,118.921165 122.029907,116.408249 
	C122.492073,115.993645 122.939568,116.002808 123.723038,116.026558 
z"/>
<path fill="#FDFCFC" opacity="1.000000" stroke="none" 
	d="
M175.730164,128.893768 
	C179.498245,130.041672 178.556168,131.942490 176.366684,134.066055 
	C175.814087,134.103699 175.644684,134.047211 175.138184,133.732361 
	C174.650513,133.268738 174.456619,133.119858 174.219437,133.027359 
	C174.168671,132.261765 174.117905,131.496185 174.303284,130.257446 
	C174.745499,129.620636 174.892593,129.414810 174.980743,129.166840 
	C175.147049,129.105499 175.313339,129.044159 175.730164,128.893768 
z"/>
<path fill="#F8F8F8" opacity="1.000000" stroke="none" 
	d="
M174.747192,129.170685 
	C174.892593,129.414810 174.745499,129.620636 174.372604,129.878235 
	C174.074921,129.616119 174.177536,129.350250 174.747192,129.170685 
z"/>
<path fill="#F8F8F8" opacity="1.000000" stroke="none" 
	d="
M174.210541,133.253571 
	C174.456619,133.119858 174.650513,133.268738 174.887665,133.637665 
	C174.628220,133.906601 174.370697,133.799408 174.210541,133.253571 
z"/>
<path fill="#F8F8F8" opacity="1.000000" stroke="none" 
	d="
M238.004044,133.987732 
	C234.667465,134.333969 232.874191,132.496201 234.251236,130.349228 
	C235.338211,128.654480 238.499054,128.289886 241.131165,127.167206 
	C242.190811,131.277100 243.340668,134.136887 238.004044,133.987732 
z"/>
</svg>