<svg version="1.1" id="Layer_1" xmlns="http://www.w3.org/2000/svg" xmlns:xlink="http://www.w3.org/1999/xlink" x="0px" y="0px"
	 width="100%" viewBox="0 0 500 500" enable-background="new 0 0 500 500" xml:space="preserve">
<path fill="#FACDCF" opacity="1.000000" stroke="none" 
	d="
M266.000000,501.000000 
	C177.333359,501.000000 89.166710,501.000000 1.000047,501.000000 
	C1.000031,334.333405 1.000031,167.666794 1.000016,1.000137 
	C167.666565,1.000091 334.333130,1.000091 500.999756,1.000046 
	C500.999847,167.666519 500.999847,334.333038 500.999939,500.999786 
	C422.833344,501.000000 344.666656,501.000000 266.000000,501.000000 
M112.523285,247.499664 
	C112.523285,309.109528 112.523285,370.719391 112.523285,432.506714 
	C120.859924,432.506714 128.604507,432.506714 137.028778,432.506714 
	C137.028778,419.415466 137.028778,406.552917 137.028778,393.628571 
	C216.655563,393.628571 295.601288,393.628571 375.049438,393.628571 
	C375.049438,406.717346 375.049438,419.630920 375.049438,432.806671 
	C383.439331,432.806671 391.326538,432.806671 399.383301,432.806671 
	C399.383301,317.145142 399.383301,201.759018 399.383301,86.304512 
	C303.699646,86.304512 208.319107,86.304512 112.523338,86.304512 
	C112.523338,139.903625 112.523338,193.201645 112.523285,247.499664 
z"/>
<path fill="#030202" opacity="1.000000" stroke="none" 
	d="
M112.523315,246.999664 
	C112.523338,193.201645 112.523338,139.903625 112.523338,86.304512 
	C208.319107,86.304512 303.699646,86.304512 399.383301,86.304512 
	C399.383301,201.759018 399.383301,317.145142 399.383301,432.806671 
	C391.326538,432.806671 383.439331,432.806671 375.049438,432.806671 
	C375.049438,419.630920 375.049438,406.717346 375.049438,393.628571 
	C295.601288,393.628571 216.655563,393.628571 137.028778,393.628571 
	C137.028778,406.552917 137.028778,419.415466 137.028778,432.506714 
	C128.604507,432.506714 120.859924,432.506714 112.523285,432.506714 
	C112.523285,370.719391 112.523285,309.109528 112.523315,246.999664 
M158.490967,371.539398 
	C159.098373,371.502106 159.705795,371.464813 161.197739,371.577423 
	C170.640671,371.529053 180.083603,371.480682 190.456268,371.587006 
	C191.075043,371.547241 191.693802,371.507477 193.202484,371.578369 
	C202.793808,371.505859 212.385147,371.433380 222.686813,371.616852 
	C223.172836,371.523346 223.658859,371.429840 225.053894,371.539764 
	C233.331894,371.554138 241.609894,371.568542 250.504883,371.872864 
	C250.711945,371.779205 250.918991,371.685577 251.831238,371.614838 
	C252.767868,371.559540 253.704483,371.504242 255.546951,371.610901 
	C256.155823,371.555664 256.764709,371.500427 258.252350,371.579681 
	C265.800171,371.579742 273.348022,371.579834 281.502930,371.865021 
	C281.705017,371.769348 281.907104,371.673706 282.700775,371.598236 
	C283.095245,371.589569 283.489685,371.580902 284.506378,371.858276 
	C284.714203,371.763855 284.922028,371.669434 285.736969,371.607971 
	C286.338684,371.546082 286.940430,371.484192 288.480774,371.554474 
	C289.106537,371.525940 289.732330,371.497437 291.242706,371.572479 
	C299.792358,371.572144 308.342010,371.571808 317.486511,371.864258 
	C317.684296,371.765686 317.882111,371.667114 318.618622,371.578522 
	C318.974335,371.535492 319.330048,371.492493 320.608154,371.651093 
	C321.233704,371.578979 321.859253,371.506897 323.075134,371.556396 
	C323.676788,371.565857 324.278473,371.575317 325.503021,371.870026 
	C325.709595,371.772614 325.916138,371.675201 326.712524,371.601227 
	C327.105927,371.593628 327.499298,371.586029 328.500732,371.860199 
	C328.703278,371.765930 328.905792,371.671692 330.030853,371.601624 
	C337.248291,371.561584 344.465759,371.521576 352.534088,371.666595 
	C353.109802,371.592041 353.685516,371.517456 354.801025,371.533813 
	C355.164215,371.558868 355.527435,371.583893 356.506836,371.881287 
	C356.708801,371.783081 356.910767,371.684875 357.704681,371.604706 
	C358.099304,371.596039 358.493958,371.587372 359.496033,371.857666 
	C359.698547,371.764679 359.901031,371.671722 361.019409,371.605896 
	C365.622650,371.605896 370.225922,371.605896 374.913544,371.605896 
	C374.913544,359.827576 374.913544,348.580627 375.102905,336.370056 
	C375.039551,315.922089 374.976196,295.474152 375.083099,274.098328 
	C375.102997,236.958130 375.134705,199.817932 375.130829,162.677734 
	C375.130219,156.688110 374.971130,150.698502 375.087585,143.834015 
	C375.087585,132.116791 375.087585,120.399574 375.087585,108.544754 
	C373.939575,108.435349 373.301971,108.318443 372.665100,108.322342 
	C363.541718,108.378319 354.418488,108.450569 344.401886,108.446793 
	C343.803894,108.459267 343.205872,108.471733 341.731995,108.339973 
	C329.539093,108.357079 317.346222,108.374176 304.317627,108.154671 
	C303.452820,108.244072 302.588043,108.333473 300.826202,108.327774 
	C286.322876,108.394974 271.819550,108.462181 256.440582,108.482079 
	C255.857193,108.488403 255.273819,108.494728 253.985733,108.361595 
	C253.028320,108.350845 252.070892,108.340103 250.498627,108.076118 
	C250.293289,108.159584 250.087967,108.243042 248.960663,108.305351 
	C235.885361,108.461052 222.810074,108.616753 209.159241,108.528183 
	C208.757858,108.629890 208.356461,108.731606 207.240845,108.452843 
	C194.553497,108.473839 181.866135,108.494835 168.424759,108.323990 
	C167.912003,108.363365 167.399261,108.402748 165.955978,108.331970 
	C156.354996,108.331970 146.754013,108.331970 137.122650,108.331970 
	C137.122650,120.828346 137.122650,132.776443 136.934937,145.681091 
	C136.908157,168.483002 136.846527,191.284958 136.864914,214.086823 
	C136.881561,234.720551 136.985565,255.354202 136.903946,276.917053 
	C136.957504,296.965088 137.011047,317.013123 136.868912,337.972961 
	C136.868912,349.055756 136.868912,360.138580 136.868912,371.396301 
	C144.037933,371.396301 150.808105,371.396301 158.490967,371.539398 
z"/>
<path fill="#E4363D" opacity="1.000000" stroke="none" 
	d="
M224.144882,371.336334 
	C223.658859,371.429840 223.172836,371.523346 222.310013,371.231964 
	C222.035324,370.516418 222.137436,370.185730 222.363525,369.801270 
	C222.627045,369.446533 222.541336,369.242371 222.178940,368.660522 
	C222.118057,361.530060 222.056793,354.873657 222.117508,348.218323 
	C222.157471,343.836517 220.067429,341.796326 215.732651,341.823608 
	C209.908875,341.860260 204.062393,341.534180 198.272202,341.975006 
	C196.122604,342.138641 194.104507,344.029541 191.878540,345.167267 
	C191.488617,345.485168 191.523666,345.726990 191.853790,346.400024 
	C191.819138,354.588409 191.766464,362.303955 191.430725,370.001465 
	C190.771729,370.026428 190.395798,370.069489 189.960129,369.640015 
	C189.887527,362.013550 189.847092,354.859528 189.871902,347.705719 
	C189.887344,343.251892 187.940628,340.839447 183.286377,340.881439 
	C177.630188,340.932465 171.949844,340.590118 166.328232,341.032135 
	C164.173264,341.201569 162.151535,343.065552 159.928375,344.183319 
	C159.787674,344.209290 159.637131,344.575867 159.637131,344.575867 
	C159.637131,344.575867 159.890717,344.870392 159.900574,345.347046 
	C159.876389,353.601410 159.842331,361.379120 159.574585,369.260498 
	C158.892227,369.619141 158.443542,369.874115 157.939606,369.655060 
	C157.881195,360.917114 157.909149,352.653015 157.864304,344.389374 
	C157.832916,338.605957 156.319962,337.132843 150.451706,337.076294 
	C145.989700,337.033264 141.526993,337.063507 137.064590,337.061157 
	C137.011047,317.013123 136.957504,296.965088 137.283646,276.313507 
	C145.737183,270.482422 153.505310,264.680908 161.964035,260.176056 
	C172.001190,254.830582 182.632767,250.601257 193.390549,245.855957 
	C195.697510,245.304047 197.611099,244.745422 199.545319,244.270844 
	C215.423065,240.375061 231.531937,238.653503 247.167816,244.198868 
	C253.710114,246.519119 258.807861,246.428955 265.289581,244.324783 
	C277.376099,240.401108 290.136810,240.271210 302.785553,241.511414 
	C308.189301,242.041245 313.540649,243.105469 319.287109,244.014923 
	C333.576080,248.568832 347.082733,253.938721 358.970886,262.664551 
	C364.389862,266.642059 369.605164,270.897064 374.912842,275.026184 
	C374.976196,295.474152 375.039551,315.922089 374.544739,336.861206 
	C369.718292,337.373352 365.445129,337.528595 361.183197,337.374207 
	C357.589355,337.244049 355.168304,338.574524 353.650635,342.060455 
	C352.813171,342.514099 352.303436,342.912567 351.465057,343.107910 
	C349.166687,342.231171 347.224487,341.095001 345.221893,340.976074 
	C340.406738,340.690094 335.563232,340.871674 330.731232,340.881805 
	C323.567627,340.896790 322.195129,342.238708 322.150299,349.233429 
	C322.107635,355.896545 322.066284,362.559662 321.728516,369.182068 
	C321.037445,369.123901 320.642273,369.106476 320.199951,368.617126 
	C320.149536,360.734467 320.146240,353.323700 320.261108,345.828888 
	C320.468567,345.400787 320.337677,345.203827 319.774231,344.840149 
	C317.730835,343.628815 315.937378,342.063141 314.061737,341.957550 
	C308.131958,341.623718 302.149933,341.548553 296.234192,341.990417 
	C294.106842,342.149292 292.110443,344.061279 289.916138,345.196991 
	C289.778015,345.220795 289.641083,345.585175 289.641083,345.585175 
	C289.641083,345.585175 289.901215,345.864227 289.912567,346.341217 
	C289.871765,354.269379 289.819580,361.720551 289.528809,369.267639 
	C288.844940,369.633759 288.399719,369.903992 287.902039,369.697083 
	C287.841919,362.736115 287.893372,356.251556 287.808136,349.768768 
	C287.738312,344.458038 286.174225,342.871521 280.978912,342.799896 
	C275.327393,342.721924 269.672089,342.868988 264.022003,342.750000 
	C259.563843,342.656158 257.077362,344.508240 256.713745,348.950806 
	C256.008179,348.279999 255.529556,347.764099 254.912506,346.891663 
	C252.658768,345.284698 250.621048,343.149414 248.413025,342.955719 
	C242.631042,342.448608 236.773376,342.712524 230.948425,342.814880 
	C225.779922,342.905670 224.239349,344.524902 224.182236,349.861145 
	C224.105637,357.018860 224.151566,364.177887 224.144882,371.336334 
z"/>
<path fill="#AB3730" opacity="1.000000" stroke="none" 
	d="
M193.006744,245.888229 
	C182.632767,250.601257 172.001190,254.830582 161.964035,260.176056 
	C153.505310,264.680908 145.737183,270.482422 137.357208,275.848938 
	C136.985565,255.354202 136.881561,234.720551 136.864914,214.086823 
	C136.846527,191.284958 136.908157,168.483002 137.488983,145.155594 
	C145.519714,144.628799 152.996521,144.652008 160.473038,144.616516 
	C164.603165,144.596893 167.126053,142.763672 167.099716,138.335266 
	C167.040451,128.370804 166.958954,118.406494 166.886505,108.442123 
	C167.399261,108.402748 167.912003,108.363365 168.786774,108.849304 
	C169.125916,120.344803 169.069748,131.315079 169.094131,142.285156 
	C169.106430,147.819901 171.076920,149.866791 176.533539,149.925095 
	C184.511322,150.010361 192.491272,150.017090 200.469040,149.935394 
	C205.938049,149.879410 207.760040,147.921814 207.802277,142.236801 
	C207.884995,131.102539 207.907593,119.967842 207.955078,108.833321 
	C208.356461,108.731606 208.757858,108.629890 209.498779,109.135559 
	C209.856125,124.499290 209.873901,139.255646 209.761414,154.109161 
	C209.542419,154.589157 209.687363,154.821655 210.210144,155.225067 
	C212.964096,156.962616 215.516388,159.457748 218.194046,159.600418 
	C227.615707,160.102478 237.080963,159.739075 246.528564,159.824921 
	C250.409515,159.860184 253.181793,158.395340 255.025055,154.715149 
	C255.888702,154.413101 256.453674,154.177780 257.107971,154.214325 
	C257.312714,154.849792 257.428131,155.213379 257.509827,155.837036 
	C257.709869,156.336014 257.943665,156.574921 258.464539,157.031525 
	C260.659973,158.087952 262.552399,159.606583 264.479401,159.651825 
	C274.713043,159.892151 284.958466,159.908875 295.193268,159.693375 
	C299.610352,159.600388 302.067719,156.914703 302.288391,152.374283 
	C302.359833,150.903946 302.551514,149.439468 303.010559,147.967865 
	C303.977264,147.946228 304.621582,147.929062 305.613373,148.049957 
	C308.136932,148.775101 310.300018,149.803909 312.491516,149.868439 
	C319.780212,150.083038 327.079102,149.966095 334.374054,149.947769 
	C340.930389,149.931274 342.399841,148.567764 343.267578,141.774139 
	C343.961792,141.045807 344.465149,140.518494 345.085815,140.328308 
	C346.482666,144.076309 349.264038,144.655365 352.463989,144.645172 
	C359.937592,144.621338 367.411499,144.682281 374.885284,144.708893 
	C374.971130,150.698502 375.130219,156.688110 375.130829,162.677734 
	C375.134705,199.817932 375.102997,236.958130 374.997986,274.562256 
	C369.605164,270.897064 364.389862,266.642059 358.970886,262.664551 
	C347.082733,253.938721 333.576080,248.568832 319.339050,243.614517 
	C322.201447,227.492142 323.175385,211.888901 318.911438,196.245041 
	C314.352264,179.517960 301.024445,168.915909 284.632172,170.095856 
	C269.465515,171.187576 258.825409,181.260971 264.414093,197.933167 
	C265.522156,201.238800 266.848785,204.630280 267.044312,208.041229 
	C267.273956,212.047699 267.072784,216.351791 265.809875,220.106873 
	C263.916046,225.737762 258.777039,227.842834 253.369659,226.253448 
	C246.978226,224.374847 244.415451,220.397293 245.556320,213.851746 
	C246.525955,208.288727 247.692032,202.760239 248.698090,197.203232 
	C251.458099,181.958328 242.121399,170.478302 226.617371,170.007446 
	C209.311615,169.481873 195.691116,180.843979 191.918121,198.402588 
	C188.486786,214.371140 189.797485,230.125992 193.006744,245.888229 
z"/>
<path fill="#FEFDFD" opacity="1.000000" stroke="none" 
	d="
M302.688171,147.972305 
	C302.551514,149.439468 302.359833,150.903946 302.288391,152.374283 
	C302.067719,156.914703 299.610352,159.600388 295.193268,159.693375 
	C284.958466,159.908875 274.713043,159.892151 264.479401,159.651825 
	C262.552399,159.606583 260.659973,158.087952 258.455688,156.783691 
	C258.080414,155.966324 257.875000,155.719254 257.543549,155.576965 
	C257.428131,155.213379 257.312714,154.849792 257.197144,153.758667 
	C257.236755,138.197205 257.276489,123.363289 257.316223,108.529381 
	C271.819550,108.462181 286.322876,108.394974 301.315308,108.692337 
	C302.022400,109.421989 302.240387,109.787079 302.419861,110.610077 
	C302.483643,123.369431 302.585907,135.670868 302.688171,147.972305 
z"/>
<path fill="#FEFDFC" opacity="1.000000" stroke="none" 
	d="
M209.891693,154.011993 
	C209.873901,139.255646 209.856125,124.499290 209.786560,109.257698 
	C222.810074,108.616753 235.885361,108.461052 249.520966,108.504120 
	C250.425354,108.578384 250.769409,108.453873 251.113480,108.329361 
	C252.070892,108.340103 253.028320,108.350845 254.378143,108.866135 
	C254.755814,124.507744 254.741104,139.644821 254.726379,154.781891 
	C253.181793,158.395340 250.409515,159.860184 246.528564,159.824921 
	C237.080963,159.739075 227.615707,160.102478 218.194046,159.600418 
	C215.516388,159.457748 212.964096,156.962616 210.251434,154.985931 
	C210.148544,154.425568 209.891693,154.011993 209.891693,154.011993 
z"/>
<path fill="#FDFBFB" opacity="1.000000" stroke="none" 
	d="
M207.597961,108.643082 
	C207.907593,119.967842 207.884995,131.102539 207.802277,142.236801 
	C207.760040,147.921814 205.938049,149.879410 200.469040,149.935394 
	C192.491272,150.017090 184.511322,150.010361 176.533539,149.925095 
	C171.076920,149.866791 169.106430,147.819901 169.094131,142.285156 
	C169.069748,131.315079 169.125916,120.344803 169.163788,108.945221 
	C181.866135,108.494835 194.553497,108.473839 207.597961,108.643082 
z"/>
<path fill="#FDFCFB" opacity="1.000000" stroke="none" 
	d="
M343.076721,141.975159 
	C342.399841,148.567764 340.930389,149.931274 334.374054,149.947769 
	C327.079102,149.966095 319.780212,150.083038 312.491516,149.868439 
	C310.300018,149.803909 308.136932,148.775101 305.525513,147.723236 
	C304.899841,146.849503 304.709503,146.440552 304.590302,145.819092 
	C304.637787,145.278381 304.480988,145.036392 304.199036,144.419571 
	C304.130920,132.634277 304.054840,121.310028 304.185120,109.828903 
	C304.645386,109.245110 304.899353,108.818192 305.153320,108.391281 
	C317.346222,108.374176 329.539093,108.357079 342.222351,108.848892 
	C342.834045,120.230255 342.955383,131.102707 343.076721,141.975159 
z"/>
<path fill="#FDFBFB" opacity="1.000000" stroke="none" 
	d="
M166.421234,108.387047 
	C166.958954,118.406494 167.040451,128.370804 167.099716,138.335266 
	C167.126053,142.763672 164.603165,144.596893 160.473038,144.616516 
	C152.996521,144.652008 145.519714,144.628799 137.582840,144.677322 
	C137.122650,132.776443 137.122650,120.828346 137.122650,108.331970 
	C146.754013,108.331970 156.354996,108.331970 166.421234,108.387047 
z"/>
<path fill="#FDFBFB" opacity="1.000000" stroke="none" 
	d="
M374.986450,144.271454 
	C367.411499,144.682281 359.937592,144.621338 352.463989,144.645172 
	C349.264038,144.655365 346.482666,144.076309 345.175232,139.868652 
	C345.196655,128.887543 345.245941,118.703224 345.295197,108.518906 
	C354.418488,108.450569 363.541718,108.378319 372.665100,108.322342 
	C373.301971,108.318443 373.939575,108.435349 375.087585,108.544754 
	C375.087585,120.399574 375.087585,132.116791 374.986450,144.271454 
z"/>
<path fill="#FEFCFB" opacity="1.000000" stroke="none" 
	d="
M159.808273,369.156830 
	C159.842331,361.379120 159.876389,353.601410 160.014557,345.187134 
	C160.118668,344.550537 160.069092,344.157349 160.069092,344.157349 
	C162.151535,343.065552 164.173264,341.201569 166.328232,341.032135 
	C171.949844,340.590118 177.630188,340.932465 183.286377,340.881439 
	C187.940628,340.839447 189.887344,343.251892 189.871902,347.705719 
	C189.847092,354.859528 189.887527,362.013550 189.820770,369.839600 
	C189.487427,370.775940 189.415894,371.082825 189.526535,371.432312 
	C180.083603,371.480682 170.640671,371.529053 160.734924,371.207703 
	C160.117477,370.277588 159.962875,369.717194 159.808273,369.156830 
z"/>
<path fill="#FEFCFB" opacity="1.000000" stroke="none" 
	d="
M322.024353,369.222778 
	C322.066284,362.559662 322.107635,355.896545 322.150299,349.233429 
	C322.195129,342.238708 323.567627,340.896790 330.731232,340.881805 
	C335.563232,340.871674 340.406738,340.690094 345.221893,340.976074 
	C347.224487,341.095001 349.166687,342.231171 351.469971,343.330811 
	C351.803528,343.756836 352.004913,344.154663 351.980835,344.384460 
	C351.956757,344.614258 352.242859,344.977173 352.262604,345.446808 
	C352.334442,353.642090 352.386536,361.367767 352.292938,369.373352 
	C351.992554,370.262695 351.837891,370.872131 351.683228,371.481567 
	C344.465759,371.521576 337.248291,371.561584 329.470886,371.408752 
	C328.571503,371.336761 328.232086,371.457581 327.892700,371.578430 
	C327.499298,371.586029 327.105927,371.593628 326.314575,371.406189 
	C325.571106,371.335663 325.225616,371.460236 324.880127,371.584778 
	C324.278473,371.575317 323.676788,371.565857 322.785706,371.205261 
	C322.338959,370.310364 322.181641,369.766571 322.024353,369.222778 
z"/>
<path fill="#FEFDFC" opacity="1.000000" stroke="none" 
	d="
M320.142944,345.912964 
	C320.146240,353.323700 320.149536,360.734467 320.086060,368.896545 
	C319.908112,370.248383 319.796936,370.848938 319.685760,371.449463 
	C319.330048,371.492493 318.974335,371.535492 318.258728,371.391235 
	C317.563110,371.326477 317.227386,371.448975 316.891663,371.571472 
	C308.342010,371.571808 299.792358,371.572144 290.766144,371.220856 
	C290.115540,370.303406 289.941467,369.737549 289.767426,369.171722 
	C289.819580,361.720551 289.871765,354.269379 290.016113,346.183868 
	C290.108337,345.549530 290.054260,345.173187 290.054260,345.173187 
	C292.110443,344.061279 294.106842,342.149292 296.234192,341.990417 
	C302.149933,341.548553 308.131958,341.623718 314.061737,341.957550 
	C315.937378,342.063141 317.730835,343.628815 319.746460,345.042877 
	C319.931000,345.559448 320.142944,345.912964 320.142944,345.912964 
z"/>
<path fill="#FEFDFC" opacity="1.000000" stroke="none" 
	d="
M191.713791,370.019531 
	C191.766464,362.303955 191.819138,354.588409 191.968109,346.218018 
	C192.064423,345.563232 192.026443,345.132782 192.026443,345.132782 
	C194.104507,344.029541 196.122604,342.138641 198.272202,341.975006 
	C204.062393,341.534180 209.908875,341.860260 215.732651,341.823608 
	C220.067429,341.796326 222.157471,343.836517 222.117508,348.218323 
	C222.056793,354.873657 222.118057,361.530060 222.099594,368.840363 
	C222.071686,369.494720 222.239532,369.855072 222.239532,369.855072 
	C222.137436,370.185730 222.035324,370.516418 221.954834,371.103973 
	C212.385147,371.433380 202.793808,371.505859 192.738586,371.255005 
	C192.087708,370.627594 191.900742,370.323578 191.713791,370.019531 
z"/>
<path fill="#FEFCFB" opacity="1.000000" stroke="none" 
	d="
M224.599396,371.438049 
	C224.151566,364.177887 224.105637,357.018860 224.182236,349.861145 
	C224.239349,344.524902 225.779922,342.905670 230.948425,342.814880 
	C236.773376,342.712524 242.631042,342.448608 248.413025,342.955719 
	C250.621048,343.149414 252.658768,345.284698 254.839905,347.326538 
	C254.817505,355.894958 254.729309,363.671936 254.641113,371.448975 
	C253.704483,371.504242 252.767868,371.559540 251.377960,371.419250 
	C250.579102,371.343414 250.233505,371.463165 249.887894,371.582947 
	C241.609894,371.568542 233.331894,371.554138 224.599396,371.438049 
z"/>
<path fill="#FEFBFB" opacity="1.000000" stroke="none" 
	d="
M256.940704,349.105682 
	C257.077362,344.508240 259.563843,342.656158 264.022003,342.750000 
	C269.672089,342.868988 275.327393,342.721924 280.978912,342.799896 
	C286.174225,342.871521 287.738312,344.458038 287.808136,349.768768 
	C287.893372,356.251556 287.841919,362.736115 287.764069,369.882599 
	C287.431030,370.806000 287.385559,371.098358 287.542145,371.422333 
	C286.940430,371.484192 286.338684,371.546082 285.330048,371.408234 
	C284.576813,371.329742 284.230469,371.450989 283.884155,371.572235 
	C283.489685,371.580902 283.095245,371.589569 282.305969,371.407806 
	C281.572754,371.338226 281.234283,371.459045 280.895844,371.579895 
	C273.348022,371.579834 265.800171,371.579742 257.744202,371.083313 
	C257.137604,363.426544 257.039154,356.266113 256.940704,349.105682 
z"/>
<path fill="#FDFAF9" opacity="1.000000" stroke="none" 
	d="
M353.978394,342.005280 
	C355.168304,338.574524 357.589355,337.244049 361.183197,337.374207 
	C365.445129,337.528595 369.718292,337.373352 374.450073,337.342987 
	C374.913544,348.580627 374.913544,359.827576 374.913544,371.605896 
	C370.225922,371.605896 365.622650,371.605896 360.463104,371.412109 
	C359.567383,371.338440 359.227997,371.458588 358.888580,371.578705 
	C358.493958,371.587372 358.099304,371.596039 357.305725,371.415771 
	C356.568024,371.354248 356.229340,371.481598 355.890625,371.608948 
	C355.527435,371.583893 355.164215,371.558868 354.484314,371.481689 
	C354.167603,371.429565 354.076782,371.456787 354.099731,370.952942 
	C354.074585,360.967834 354.026489,351.486572 353.978394,342.005280 
z"/>
<path fill="#FDFBFA" opacity="1.000000" stroke="none" 
	d="
M136.966751,337.517059 
	C141.526993,337.063507 145.989700,337.033264 150.451706,337.076294 
	C156.319962,337.132843 157.832916,338.605957 157.864304,344.389374 
	C157.909149,352.653015 157.881195,360.917114 157.810333,369.847656 
	C157.499313,370.775116 157.446640,371.069122 157.578278,371.396301 
	C150.808105,371.396301 144.037933,371.396301 136.868912,371.396301 
	C136.868912,360.138580 136.868912,349.055756 136.966751,337.517059 
z"/>
<path fill="#B07572" opacity="1.000000" stroke="none" 
	d="
M255.025055,154.715149 
	C254.741104,139.644821 254.755814,124.507744 254.730484,108.935867 
	C255.273819,108.494728 255.857193,108.488403 256.878418,108.505730 
	C257.276489,123.363289 257.236755,138.197205 257.107849,153.486786 
	C256.453674,154.177780 255.888702,154.413101 255.025055,154.715149 
z"/>
<path fill="#A9716F" opacity="1.000000" stroke="none" 
	d="
M344.848541,108.482849 
	C345.245941,118.703224 345.196655,128.887543 345.057953,139.531525 
	C344.465149,140.518494 343.961792,141.045807 343.267578,141.774139 
	C342.955383,131.102707 342.834045,120.230255 342.660278,108.921005 
	C343.205872,108.471733 343.803894,108.459267 344.848541,108.482849 
z"/>
<path fill="#BA6F74" opacity="1.000000" stroke="none" 
	d="
M256.713745,348.950806 
	C257.039154,356.266113 257.137604,363.426544 257.304810,371.016083 
	C256.764709,371.500427 256.155823,371.555664 255.094040,371.529907 
	C254.729309,363.671936 254.817505,355.894958 254.978302,347.683044 
	C255.529556,347.764099 256.008179,348.279999 256.713745,348.950806 
z"/>
<path fill="#B07572" opacity="1.000000" stroke="none" 
	d="
M304.735474,108.272980 
	C304.899353,108.818192 304.645386,109.245110 303.931976,109.878105 
	C303.134460,110.106850 302.796387,110.129517 302.458344,110.152168 
	C302.240387,109.787079 302.022400,109.421989 301.763824,108.739883 
	C302.588043,108.333473 303.452820,108.244072 304.735474,108.272980 
z"/>
<path fill="#BA6F74" opacity="1.000000" stroke="none" 
	d="
M320.146973,371.550293 
	C319.796936,370.848938 319.908112,370.248383 320.133179,369.368439 
	C320.642273,369.106476 321.037445,369.123901 321.728485,369.182068 
	C322.181641,369.766571 322.338959,370.310364 322.490540,371.144470 
	C321.859253,371.506897 321.233704,371.578979 320.146973,371.550293 
z"/>
<path fill="#BA6F74" opacity="1.000000" stroke="none" 
	d="
M288.011475,371.488403 
	C287.385559,371.098358 287.431030,370.806000 287.816528,370.359741 
	C288.399719,369.903992 288.844940,369.633759 289.528809,369.267639 
	C289.941467,369.737549 290.115540,370.303406 290.323853,371.169067 
	C289.732330,371.497437 289.106537,371.525940 288.011475,371.488403 
z"/>
<path fill="#C16D70" opacity="1.000000" stroke="none" 
	d="
M158.034622,371.467834 
	C157.446640,371.069122 157.499313,370.775116 157.865601,370.321716 
	C158.443542,369.874115 158.892227,369.619141 159.574585,369.260498 
	C159.962875,369.717194 160.117477,370.277588 160.292648,371.132751 
	C159.705795,371.464813 159.098373,371.502106 158.034622,371.467834 
z"/>
<path fill="#C16D70" opacity="1.000000" stroke="none" 
	d="
M191.430725,370.001465 
	C191.900742,370.323578 192.087708,370.627594 192.293625,371.199677 
	C191.693802,371.507477 191.075043,371.547241 189.991394,371.509644 
	C189.415894,371.082825 189.487427,370.775940 189.880493,370.312134 
	C190.395798,370.069489 190.771729,370.026428 191.430725,370.001465 
z"/>
<path fill="#BA6F74" opacity="1.000000" stroke="none" 
	d="
M354.076782,371.456787 
	C354.076782,371.456787 354.167603,371.429565 354.214417,371.436218 
	C353.685516,371.517456 353.109802,371.592041 352.108643,371.574097 
	C351.837891,370.872131 351.992554,370.262695 352.495514,369.577148 
	C353.254791,370.152924 353.665802,370.804871 354.076782,371.456787 
z"/>
<path fill="#BA6F74" opacity="1.000000" stroke="none" 
	d="
M356.198730,371.745117 
	C356.229340,371.481598 356.568024,371.354248 357.009735,371.406769 
	C356.910767,371.684875 356.708801,371.783081 356.198730,371.745117 
z"/>
<path fill="#BA6F74" opacity="1.000000" stroke="none" 
	d="
M281.199402,371.722473 
	C281.234283,371.459045 281.572754,371.338226 282.010193,371.397705 
	C281.907104,371.673706 281.705017,371.769348 281.199402,371.722473 
z"/>
<path fill="#BA6F74" opacity="1.000000" stroke="none" 
	d="
M284.195251,371.715271 
	C284.230469,371.450989 284.576813,371.329742 285.026489,371.391754 
	C284.922028,371.669434 284.714203,371.763855 284.195251,371.715271 
z"/>
<path fill="#BA6F74" opacity="1.000000" stroke="none" 
	d="
M317.189087,371.717834 
	C317.227386,371.448975 317.563110,371.326477 317.989380,371.386261 
	C317.882111,371.667114 317.684296,371.765686 317.189087,371.717834 
z"/>
<path fill="#BA6F74" opacity="1.000000" stroke="none" 
	d="
M325.191589,371.727417 
	C325.225616,371.460236 325.571106,371.335663 326.019653,371.394470 
	C325.916138,371.675201 325.709595,371.772614 325.191589,371.727417 
z"/>
<path fill="#BA6F74" opacity="1.000000" stroke="none" 
	d="
M328.196716,371.719299 
	C328.232086,371.457581 328.571503,371.336761 329.009583,371.396667 
	C328.905792,371.671692 328.703278,371.765930 328.196716,371.719299 
z"/>
<path fill="#B07572" opacity="1.000000" stroke="none" 
	d="
M250.806061,108.202744 
	C250.769409,108.453873 250.425354,108.578384 249.981964,108.514694 
	C250.087967,108.243042 250.293289,108.159584 250.806061,108.202744 
z"/>
<path fill="#BA6F74" opacity="1.000000" stroke="none" 
	d="
M359.192322,371.718201 
	C359.227997,371.458588 359.567383,371.338440 360.005127,371.398499 
	C359.901031,371.671722 359.698547,371.764679 359.192322,371.718201 
z"/>
<path fill="#BA6F74" opacity="1.000000" stroke="none" 
	d="
M250.196381,371.727905 
	C250.233505,371.463165 250.579102,371.343414 251.025360,371.407806 
	C250.918991,371.685577 250.711945,371.779205 250.196381,371.727905 
z"/>
<path fill="#610915" opacity="1.000000" stroke="none" 
	d="
M193.390549,245.855957 
	C189.797485,230.125992 188.486786,214.371140 191.918121,198.402588 
	C195.691116,180.843979 209.311615,169.481873 226.617371,170.007446 
	C242.121399,170.478302 251.458099,181.958328 248.698090,197.203232 
	C247.692032,202.760239 246.525955,208.288727 245.556320,213.851746 
	C244.415451,220.397293 246.978226,224.374847 253.369659,226.253448 
	C258.777039,227.842834 263.916046,225.737762 265.809875,220.106873 
	C267.072784,216.351791 267.273956,212.047699 267.044312,208.041229 
	C266.848785,204.630280 265.522156,201.238800 264.414093,197.933167 
	C258.825409,181.260971 269.465515,171.187576 284.632172,170.095856 
	C301.024445,168.915909 314.352264,179.517960 318.911438,196.245041 
	C323.175385,211.888901 322.201447,227.492142 318.967743,243.526459 
	C313.540649,243.105469 308.189301,242.041245 302.785553,241.511414 
	C290.136810,240.271210 277.376099,240.401108 265.289581,244.324783 
	C258.807861,246.428955 253.710114,246.519119 247.167816,244.198868 
	C231.531937,238.653503 215.423065,240.375061 199.545319,244.270844 
	C197.611099,244.745422 195.697510,245.304047 193.390549,245.855957 
z"/>
<path fill="#E1202C" opacity="1.000000" stroke="none" 
	d="
M354.099731,370.952942 
	C353.665802,370.804871 353.254791,370.152924 352.641205,369.297211 
	C352.386536,361.367767 352.334442,353.642090 352.391174,345.347717 
	C352.561920,344.381104 352.396881,344.172974 352.004913,344.154663 
	C352.004913,344.154663 351.803528,343.756836 351.798645,343.533936 
	C352.303436,342.912567 352.813171,342.514099 353.650635,342.060455 
	C354.026489,351.486572 354.074585,360.967834 354.099731,370.952942 
z"/>
<path fill="#C16D70" opacity="1.000000" stroke="none" 
	d="
M222.363525,369.801270 
	C222.239532,369.855072 222.071686,369.494720 222.151031,369.314880 
	C222.541336,369.242371 222.627045,369.446533 222.363525,369.801270 
z"/>
<path fill="#BA6F74" opacity="1.000000" stroke="none" 
	d="
M320.261139,345.828888 
	C320.142944,345.912964 319.931000,345.559448 319.958801,345.356689 
	C320.337677,345.203827 320.468567,345.400787 320.261139,345.828888 
z"/>
<path fill="#BA6F74" opacity="1.000000" stroke="none" 
	d="
M289.916138,345.196991 
	C290.054260,345.173187 290.108337,345.549530 290.004761,345.706879 
	C289.901215,345.864227 289.641083,345.585175 289.641083,345.585175 
	C289.641083,345.585175 289.778015,345.220795 289.916138,345.196991 
z"/>
<path fill="#C16D70" opacity="1.000000" stroke="none" 
	d="
M191.878540,345.167267 
	C192.026443,345.132782 192.064423,345.563232 191.950104,345.745239 
	C191.523666,345.726990 191.488617,345.485168 191.878540,345.167267 
z"/>
<path fill="#C16D70" opacity="1.000000" stroke="none" 
	d="
M159.928375,344.183319 
	C160.069092,344.157349 160.118668,344.550537 160.004700,344.710449 
	C159.890717,344.870392 159.637131,344.575867 159.637131,344.575867 
	C159.637131,344.575867 159.787674,344.209290 159.928375,344.183319 
z"/>
<path fill="#A2241F" opacity="1.000000" stroke="none" 
	d="
M302.419861,110.610085 
	C302.796387,110.129517 303.134460,110.106850 303.725647,110.034988 
	C304.054840,121.310028 304.130920,132.634277 304.112854,144.635864 
	C304.010437,145.674667 304.177277,145.914124 304.519196,146.031586 
	C304.709503,146.440552 304.899841,146.849503 305.178040,147.585175 
	C304.621582,147.929062 303.977264,147.946228 303.010559,147.967865 
	C302.585907,135.670868 302.483643,123.369431 302.419861,110.610085 
z"/>
<path fill="#B07572" opacity="1.000000" stroke="none" 
	d="
M257.509827,155.837036 
	C257.875000,155.719254 258.080414,155.966324 258.168610,156.566010 
	C257.943665,156.574921 257.709869,156.336014 257.509827,155.837036 
z"/>
<path fill="#B07572" opacity="1.000000" stroke="none" 
	d="
M209.761429,154.109161 
	C209.891693,154.011993 210.148544,154.425568 210.107269,154.664703 
	C209.687363,154.821655 209.542419,154.589157 209.761429,154.109161 
z"/>
<path fill="#B07572" opacity="1.000000" stroke="none" 
	d="
M304.590302,145.819092 
	C304.177277,145.914124 304.010437,145.674667 304.104858,145.096924 
	C304.480988,145.036392 304.637787,145.278381 304.590302,145.819092 
z"/>
<path fill="#BA6F74" opacity="1.000000" stroke="none" 
	d="
M351.980835,344.384460 
	C352.396881,344.172974 352.561920,344.381104 352.371429,344.878113 
	C352.242859,344.977173 351.956757,344.614258 351.980835,344.384460 
z"/>
</svg>