<svg version="1.1" id="Layer_1" xmlns="http://www.w3.org/2000/svg" xmlns:xlink="http://www.w3.org/1999/xlink" x="0px" y="0px"
	 width="100%" viewBox="0 0 431 432" enable-background="new 0 0 431 432" xml:space="preserve">
<path fill="#F26964" opacity="1.000000" stroke="none" 
	d="
M1.000000,180.000000 
	C1.000000,120.354515 1.000000,60.709030 1.000000,1.031773 
	C144.594482,1.031773 288.188965,1.031773 431.891724,1.031773 
	C431.891724,144.876633 431.891724,288.753357 431.891724,433.000000 
	C369.979065,433.000000 307.957367,433.000000 245.587555,432.644165 
	C245.854279,432.053925 246.454819,431.767822 247.086136,431.592682 
	C264.765350,426.686951 274.720154,413.330597 274.194794,395.137695 
	C273.897797,384.854767 270.150665,375.645660 265.122223,366.888458 
	C257.591156,353.772797 247.827698,342.442474 236.812881,332.169403 
	C235.414368,330.865051 233.408020,330.212433 231.683258,329.257904 
	C232.181763,328.632629 232.680267,328.007385 233.178772,327.382111 
	C249.833633,322.252594 264.882141,314.389313 277.394073,302.075287 
	C278.135773,301.345306 280.184021,301.308167 281.341095,301.728363 
	C305.690247,310.570892 330.664215,316.932556 356.329041,320.401825 
	C372.050262,322.526978 387.856262,323.636383 403.528717,319.959290 
	C418.381531,316.474518 426.257477,305.977325 429.679138,291.992035 
	C433.095001,278.030212 427.563385,266.881256 416.874298,258.006836 
	C406.786774,249.631775 394.752289,245.738998 382.047699,244.133179 
	C355.297119,240.751953 328.491272,237.808533 301.711395,234.657761 
	C288.581604,233.112991 288.707489,233.069016 286.985687,219.873688 
	C286.492676,216.095245 287.626495,214.745255 291.286102,213.737213 
	C316.712860,206.733383 341.555817,198.075409 364.771393,185.381638 
	C381.132904,176.435501 396.538574,166.254105 404.888947,148.501694 
	C411.267029,134.942291 413.437836,121.250237 404.084869,108.239792 
	C394.061035,94.296196 379.495422,90.037720 363.117065,91.574181 
	C350.960052,92.714645 339.720306,97.505920 329.728699,104.162041 
	C311.878998,116.053047 294.516724,128.690857 277.191040,141.345520 
	C270.647552,146.124863 264.770508,151.816696 258.319336,157.323334 
	C250.965927,150.748276 243.840027,144.376633 236.569901,137.876038 
	C237.992615,136.321976 239.102295,135.304031 239.984055,134.116791 
	C249.394806,121.445778 259.558289,109.243378 267.928864,95.916039 
	C276.054565,82.978546 280.561768,68.403099 279.929962,52.711647 
	C278.995758,29.508636 260.821442,15.633211 238.173126,20.820911 
	C225.415756,23.743044 215.986145,31.187195 211.026154,43.086540 
	C200.720383,67.810760 190.917038,92.750885 181.363937,117.776627 
	C179.557205,122.509659 177.167480,124.310143 172.414062,125.123306 
	C146.199493,129.607742 121.237602,137.598831 99.700783,153.823593 
	C94.232666,157.943008 89.655746,159.448669 82.674347,157.091507 
	C70.427803,152.956665 61.428032,158.662842 58.061447,171.150253 
	C57.240479,174.195389 56.709320,177.318649 55.575188,180.370590 
	C37.070309,180.223465 19.035154,180.111740 1.000000,180.000000 
z"/>
<path fill="#FEFEFE" opacity="1.000000" stroke="none" 
	d="
M56.044910,180.405991 
	C56.709320,177.318649 57.240479,174.195389 58.061447,171.150253 
	C61.428032,158.662842 70.427803,152.956665 82.674347,157.091507 
	C89.655746,159.448669 94.232666,157.943008 99.700783,153.823593 
	C121.237602,137.598831 146.199493,129.607742 172.414062,125.123306 
	C177.167480,124.310143 179.557205,122.509659 181.363937,117.776627 
	C190.917038,92.750885 200.720383,67.810760 211.026154,43.086540 
	C215.986145,31.187195 225.415756,23.743044 238.173126,20.820911 
	C260.821442,15.633211 278.995758,29.508636 279.929962,52.711647 
	C280.561768,68.403099 276.054565,82.978546 267.928864,95.916039 
	C259.558289,109.243378 249.394806,121.445778 239.984055,134.116791 
	C239.102295,135.304031 237.992615,136.321976 236.569901,137.876038 
	C243.840027,144.376633 250.965927,150.748276 258.319336,157.323334 
	C264.770508,151.816696 270.647552,146.124863 277.191040,141.345520 
	C294.516724,128.690857 311.878998,116.053047 329.728699,104.162041 
	C339.720306,97.505920 350.960052,92.714645 363.117065,91.574181 
	C379.495422,90.037720 394.061035,94.296196 404.084869,108.239792 
	C413.437836,121.250237 411.267029,134.942291 404.888947,148.501694 
	C396.538574,166.254105 381.132904,176.435501 364.771393,185.381638 
	C341.555817,198.075409 316.712860,206.733383 291.286102,213.737213 
	C287.626495,214.745255 286.492676,216.095245 286.985687,219.873688 
	C288.707489,233.069016 288.581604,233.112991 301.711395,234.657761 
	C328.491272,237.808533 355.297119,240.751953 382.047699,244.133179 
	C394.752289,245.738998 406.786774,249.631775 416.874298,258.006836 
	C427.563385,266.881256 433.095001,278.030212 429.679138,291.992035 
	C426.257477,305.977325 418.381531,316.474518 403.528717,319.959290 
	C387.856262,323.636383 372.050262,322.526978 356.329041,320.401825 
	C330.664215,316.932556 305.690247,310.570892 281.341095,301.728363 
	C280.184021,301.308167 278.135773,301.345306 277.394073,302.075287 
	C264.882141,314.389313 249.833633,322.252594 233.178772,327.382111 
	C232.680267,328.007385 232.181763,328.632629 231.683258,329.257904 
	C233.408020,330.212433 235.414368,330.865051 236.812881,332.169403 
	C247.827698,342.442474 257.591156,353.772797 265.122223,366.888458 
	C270.150665,375.645660 273.897797,384.854767 274.194794,395.137695 
	C274.720154,413.330597 264.765350,426.686951 247.086136,431.592682 
	C246.454819,431.767822 245.854279,432.053925 245.119690,432.644165 
	C242.629440,433.000000 240.258896,433.000000 237.302429,432.643555 
	C235.145950,431.882751 233.506134,431.649658 232.015488,431.047363 
	C217.897232,425.342896 208.318512,414.749939 201.116104,401.786743 
	C193.904953,388.807800 184.526901,377.622742 173.317245,368.024384 
	C149.795181,347.883484 126.075516,327.973480 102.516983,307.874908 
	C100.356171,306.031433 98.889000,306.041870 96.451103,307.438507 
	C83.122818,315.074005 71.932030,311.911896 64.820396,298.193909 
	C62.014870,292.782166 60.378174,286.764496 58.220581,280.583008 
	C56.892097,259.146942 55.074200,238.166092 54.395382,217.148438 
	C54.000801,204.931458 55.434101,192.655441 56.044910,180.405991 
M148.510666,245.977249 
	C144.405090,245.977249 140.299515,245.977249 136.167023,245.977249 
	C136.167023,248.655258 136.167023,250.715714 136.167023,253.190201 
	C151.232483,253.190201 165.987396,253.190201 181.192535,253.190201 
	C181.192535,261.729645 181.202652,269.850830 181.189163,277.971954 
	C181.179245,283.949371 180.245926,284.985382 174.279678,284.841675 
	C170.238586,284.744324 166.207031,284.251923 161.603729,283.891846 
	C162.543961,287.066711 163.277847,289.544861 164.036652,292.107147 
	C168.240540,292.348877 172.051437,292.725250 175.865234,292.757263 
	C186.472885,292.846344 189.499695,289.769897 189.503265,279.168976 
	C189.506149,270.579498 189.503845,261.990021 189.503845,252.962753 
	C204.917450,252.962753 219.669830,252.962753 234.489441,252.962753 
	C234.489441,250.457764 234.489441,248.413971 234.489441,245.866241 
	C219.380569,245.866241 204.632324,245.866241 189.750183,245.866241 
	C189.750183,239.091248 189.750183,232.827774 189.750183,226.067139 
	C202.061661,226.067139 214.138565,226.067139 226.296722,226.067139 
	C226.296722,223.516617 226.296722,221.471802 226.296722,218.892456 
	C213.863708,218.892456 201.802094,218.892456 189.784912,218.892456 
	C189.784912,211.408203 189.784912,204.467392 189.784912,197.558548 
	C201.443542,195.528503 212.834869,193.545013 224.226181,191.561523 
	C224.410919,190.835663 224.595657,190.109802 224.780396,189.383942 
	C222.200409,187.993027 219.265152,184.983383 217.094971,185.459656 
	C193.360031,190.668777 169.306549,192.239807 145.124481,192.771347 
	C144.061081,192.794724 143.003983,193.105698 142.105667,193.255707 
	C142.112961,199.202026 145.203033,200.321304 150.197113,199.930420 
	C160.307602,199.139038 170.456985,198.844788 180.896515,198.330475 
	C180.896515,205.174515 180.896515,211.898026 180.896515,219.187225 
	C168.420090,219.187225 156.198059,219.187225 143.907104,219.187225 
	C143.907104,221.800171 143.907104,223.839355 143.907104,226.389786 
	C156.526184,226.389786 168.757812,226.389786 180.802979,226.389786 
	C180.802979,233.154587 180.802979,239.392822 180.802979,245.977249 
	C170.113358,245.977249 159.810776,245.977249 148.510666,245.977249 
z"/>
<path fill="#F26964" opacity="1.000000" stroke="none" 
	d="
M58.209259,281.022736 
	C60.378174,286.764496 62.014870,292.782166 64.820396,298.193909 
	C71.932030,311.911896 83.122818,315.074005 96.451103,307.438507 
	C98.889000,306.041870 100.356171,306.031433 102.516983,307.874908 
	C126.075516,327.973480 149.795181,347.883484 173.317245,368.024384 
	C184.526901,377.622742 193.904953,388.807800 201.116104,401.786743 
	C208.318512,414.749939 217.897232,425.342896 232.015488,431.047363 
	C233.506134,431.649658 235.145950,431.882751 236.858276,432.643555 
	C158.422119,433.000000 79.844223,433.000000 1.000000,433.000000 
	C1.000000,382.646088 1.000000,332.291687 1.466464,281.519104 
	C20.691704,281.074860 39.450481,281.048798 58.209259,281.022736 
z"/>
<path fill="#6ACAD9" opacity="1.000000" stroke="none" 
	d="
M58.220581,280.583008 
	C39.450481,281.048798 20.691704,281.074860 1.466464,281.050476 
	C1.000000,247.645767 1.000000,214.291550 1.000000,180.468658 
	C19.035154,180.111740 37.070309,180.223465 55.575184,180.370590 
	C55.434101,192.655441 54.000801,204.931458 54.395382,217.148438 
	C55.074200,238.166092 56.892097,259.146942 58.220581,280.583008 
z"/>
<path fill="#0E0E0E" opacity="1.000000" stroke="none" 
	d="
M149.009430,245.977249 
	C159.810776,245.977249 170.113358,245.977249 180.802979,245.977249 
	C180.802979,239.392822 180.802979,233.154587 180.802979,226.389786 
	C168.757812,226.389786 156.526184,226.389786 143.907104,226.389786 
	C143.907104,223.839355 143.907104,221.800171 143.907104,219.187225 
	C156.198059,219.187225 168.420090,219.187225 180.896515,219.187225 
	C180.896515,211.898026 180.896515,205.174515 180.896515,198.330475 
	C170.456985,198.844788 160.307602,199.139038 150.197113,199.930420 
	C145.203033,200.321304 142.112961,199.202026 142.105667,193.255707 
	C143.003983,193.105698 144.061081,192.794724 145.124481,192.771347 
	C169.306549,192.239807 193.360031,190.668777 217.094971,185.459656 
	C219.265152,184.983383 222.200409,187.993027 224.780396,189.383942 
	C224.595657,190.109802 224.410919,190.835663 224.226181,191.561523 
	C212.834869,193.545013 201.443542,195.528503 189.784912,197.558548 
	C189.784912,204.467392 189.784912,211.408203 189.784912,218.892456 
	C201.802094,218.892456 213.863708,218.892456 226.296722,218.892456 
	C226.296722,221.471802 226.296722,223.516617 226.296722,226.067139 
	C214.138565,226.067139 202.061661,226.067139 189.750183,226.067139 
	C189.750183,232.827774 189.750183,239.091248 189.750183,245.866241 
	C204.632324,245.866241 219.380569,245.866241 234.489441,245.866241 
	C234.489441,248.413971 234.489441,250.457764 234.489441,252.962753 
	C219.669830,252.962753 204.917450,252.962753 189.503845,252.962753 
	C189.503845,261.990021 189.506149,270.579498 189.503265,279.168976 
	C189.499695,289.769897 186.472885,292.846344 175.865234,292.757263 
	C172.051437,292.725250 168.240540,292.348877 164.036652,292.107147 
	C163.277847,289.544861 162.543961,287.066711 161.603729,283.891846 
	C166.207031,284.251923 170.238586,284.744324 174.279678,284.841675 
	C180.245926,284.985382 181.179245,283.949371 181.189163,277.971954 
	C181.202652,269.850830 181.192535,261.729645 181.192535,253.190201 
	C165.987396,253.190201 151.232483,253.190201 136.167023,253.190201 
	C136.167023,250.715714 136.167023,248.655258 136.167023,245.977249 
	C140.299515,245.977249 144.405090,245.977249 149.009430,245.977249 
z"/>
</svg>