<svg version="1.1" id="Layer_1" xmlns="http://www.w3.org/2000/svg" xmlns:xlink="http://www.w3.org/1999/xlink" x="0px" y="0px"
	 width="100%" viewBox="0 0 500 500" enable-background="new 0 0 500 500" xml:space="preserve">
<path fill="#B9BEC2" opacity="1.000000" stroke="none" 
	d="
M274.000000,501.000000 
	C182.666687,501.000000 91.833374,501.000000 1.000049,501.000000 
	C1.000032,334.333405 1.000032,167.666794 1.000016,1.000138 
	C167.666565,1.000092 334.333130,1.000092 500.999756,1.000046 
	C500.999847,167.666519 500.999847,334.333038 500.999939,500.999786 
	C425.500000,501.000000 350.000000,501.000000 274.000000,501.000000 
M310.186371,396.750793 
	C340.093567,383.348022 363.554565,362.564636 379.624146,334.073242 
	C395.547516,305.841095 402.647156,275.433838 398.423981,242.580887 
	C407.809509,252.412674 419.065674,254.167862 430.847687,250.724075 
	C446.631836,246.110489 458.759430,235.675537 467.149536,221.943924 
	C472.581360,213.053970 476.727264,202.897522 479.077057,192.758789 
	C480.925110,184.785019 480.312592,175.745605 478.741180,167.574158 
	C475.066498,148.465424 463.005890,134.406586 447.894379,123.109299 
	C434.748016,113.281136 421.309296,103.725464 407.297791,95.203629 
	C390.369781,84.908012 372.281250,76.750824 352.752045,72.566307 
	C343.662842,70.618767 334.932068,71.797913 329.341248,80.421982 
	C326.981323,84.062340 325.724365,88.417732 323.856781,92.698509 
	C307.602753,86.904030 291.149200,82.738083 274.040222,80.543930 
	C255.656998,78.186356 237.471237,78.631958 219.460938,81.884132 
	C206.609528,84.204750 194.112000,88.485764 181.457184,91.894241 
	C178.730942,92.628525 176.508972,93.360168 175.868378,89.019814 
	C174.276566,78.234680 166.724747,71.435059 155.924652,72.225945 
	C148.255707,72.787544 140.502426,74.739655 133.199829,77.265343 
	C114.446114,83.751572 97.044418,93.076454 81.313606,105.188164 
	C68.700401,114.899536 55.793064,124.431618 44.387405,135.461166 
	C27.223322,152.059235 20.898010,173.159332 25.601196,196.556992 
	C30.174789,219.309967 42.531300,237.050629 63.727585,247.777878 
	C74.655556,253.308395 85.696243,254.179245 96.552788,247.629257 
	C98.844879,246.246399 100.687233,244.118103 103.686440,241.506302 
	C103.686440,244.613968 104.122337,246.623978 103.614433,248.357452 
	C100.709114,258.273224 102.179649,268.349945 103.522842,278.078217 
	C106.883446,302.418030 115.331062,324.996674 129.722519,345.205444 
	C140.159607,359.861420 152.770767,372.272491 167.422516,382.570801 
	C183.543686,393.901917 201.551407,401.119385 220.659088,405.620331 
	C235.022705,409.003754 249.641830,409.994171 264.288910,408.560181 
	C279.887604,407.032990 294.990967,403.155365 310.186371,396.750793 
z"/>
<path fill="#9EA4AF" opacity="1.000000" stroke="none" 
	d="
M309.821075,396.871490 
	C294.990967,403.155365 279.887604,407.032990 264.288910,408.560181 
	C249.641830,409.994171 235.022705,409.003754 220.659088,405.620331 
	C201.551407,401.119385 183.543686,393.901917 167.422516,382.570801 
	C152.770767,372.272491 140.159607,359.861420 129.722519,345.205444 
	C115.331062,324.996674 106.883446,302.418030 103.522842,278.078217 
	C102.179649,268.349945 100.709114,258.273224 103.614433,248.357452 
	C104.122337,246.623978 103.686440,244.613968 103.686440,241.506302 
	C100.687233,244.118103 98.844879,246.246399 96.552788,247.629257 
	C85.696243,254.179245 74.655556,253.308395 63.727585,247.777878 
	C42.531300,237.050629 30.174789,219.309967 25.601196,196.556992 
	C20.898010,173.159332 27.223322,152.059235 44.387405,135.461166 
	C55.793064,124.431618 68.700401,114.899536 81.313606,105.188164 
	C97.044418,93.076454 114.446114,83.751572 133.199829,77.265343 
	C140.502426,74.739655 148.255707,72.787544 155.924652,72.225945 
	C166.724747,71.435059 174.276566,78.234680 175.868378,89.019814 
	C176.508972,93.360168 178.730942,92.628525 181.457184,91.894241 
	C194.112000,88.485764 206.609528,84.204750 219.460938,81.884132 
	C237.471237,78.631958 255.656998,78.186356 274.040222,80.543930 
	C291.149200,82.738083 307.602753,86.904030 323.856781,92.698509 
	C325.724365,88.417732 326.981323,84.062340 329.341248,80.421982 
	C334.932068,71.797913 343.662842,70.618767 352.752045,72.566307 
	C372.281250,76.750824 390.369781,84.908012 407.297791,95.203629 
	C421.309296,103.725464 434.748016,113.281136 447.894379,123.109299 
	C463.005890,134.406586 475.066498,148.465424 478.741180,167.574158 
	C480.312592,175.745605 480.925110,184.785019 479.077057,192.758789 
	C476.727264,202.897522 472.581360,213.053970 467.149536,221.943924 
	C458.759430,235.675537 446.631836,246.110489 430.847687,250.724075 
	C419.065674,254.167862 407.809509,252.412674 398.423981,242.580887 
	C402.647156,275.433838 395.547516,305.841095 379.624146,334.073242 
	C363.554565,362.564636 340.093567,383.348022 309.821075,396.871490 
M206.925751,309.610504 
	C206.969208,317.258972 206.748291,324.920044 207.112747,332.553162 
	C207.809692,347.149628 215.828278,357.938660 229.384125,363.839050 
	C241.691422,369.195953 254.405167,369.374878 267.384949,365.940094 
	C282.925476,361.827606 294.911682,346.243622 294.919464,330.398804 
	C294.922974,323.249176 294.977051,316.099579 295.643799,309.179626 
	C306.171631,319.082581 317.293701,328.170776 330.327759,335.121246 
	C332.758820,331.403534 334.893860,328.138580 337.031830,324.869080 
	C293.764526,298.068237 267.890533,260.159882 258.443817,209.767471 
	C285.332672,209.767471 311.051208,209.767471 336.587067,209.767471 
	C336.587067,205.397125 336.587067,201.653381 336.587067,197.475372 
	C310.308746,197.475372 284.378479,197.475372 257.834595,197.475372 
	C257.834595,179.466690 257.834595,161.902283 257.834595,144.134460 
	C252.845520,144.134460 248.480453,144.134460 243.686432,144.134460 
	C243.686432,161.980591 243.686432,179.420349 243.686432,197.517029 
	C218.370483,197.517029 193.479187,197.517029 168.411453,197.517029 
	C168.411453,201.928391 168.411453,205.672989 168.411453,210.157333 
	C193.190094,210.157333 217.687637,210.157333 243.114426,210.157333 
	C233.447723,260.613464 206.890411,298.170776 163.975922,324.646027 
	C166.629379,328.404419 168.988892,331.746460 171.400192,335.161835 
	C184.759430,327.909790 195.923935,318.486237 206.925751,309.610504 
M306.111420,186.601532 
	C309.007690,183.909805 311.903931,181.218079 315.586304,177.795746 
	C305.183990,167.474594 295.100769,157.470062 285.004272,147.452362 
	C281.626770,150.520584 278.746063,153.137482 275.923340,155.701736 
	C278.202454,158.071823 279.932373,159.844009 281.632996,161.643890 
	C289.588348,170.063538 297.535645,178.490814 306.111420,186.601532 
M104.499321,240.463287 
	C104.499321,240.463287 104.520744,240.517090 104.499321,240.463287 
z"/>
<path fill="#E8AEAF" opacity="1.000000" stroke="none" 
	d="
M295.008179,308.949951 
	C294.977051,316.099579 294.922974,323.249176 294.919464,330.398804 
	C294.911682,346.243622 282.925476,361.827606 267.384949,365.940094 
	C254.405167,369.374878 241.691422,369.195953 229.384125,363.839050 
	C215.828278,357.938660 207.809692,347.149628 207.112747,332.553162 
	C206.748291,324.920044 206.969208,317.258972 207.004761,308.838623 
	C224.707764,290.146118 238.124695,269.498138 247.559921,246.208160 
	C248.136673,246.714508 248.662338,247.086014 248.673279,247.472061 
	C249.175888,265.236450 249.593689,283.003326 250.129837,300.766632 
	C250.237823,304.344482 250.774780,307.909363 251.113953,311.480255 
	C252.399353,292.185669 253.148743,272.946960 253.979919,253.711807 
	C254.062607,251.798538 254.643784,249.906799 255.169769,248.316681 
	C259.658630,257.213318 263.131134,266.368408 268.479553,274.250641 
	C276.641479,286.279144 286.100128,297.427734 295.008179,308.949951 
z"/>
<path fill="#060506" opacity="1.000000" stroke="none" 
	d="
M247.268707,246.080093 
	C238.124695,269.498138 224.707764,290.146118 206.927673,308.352600 
	C195.923935,318.486237 184.759430,327.909790 171.400192,335.161835 
	C168.988892,331.746460 166.629379,328.404419 163.975922,324.646027 
	C206.890411,298.170776 233.447723,260.613464 243.114426,210.157333 
	C217.687637,210.157333 193.190094,210.157333 168.411453,210.157333 
	C168.411453,205.672989 168.411453,201.928391 168.411453,197.517029 
	C193.479187,197.517029 218.370483,197.517029 243.686432,197.517029 
	C243.686432,179.420349 243.686432,161.980591 243.686432,144.134460 
	C248.480453,144.134460 252.845520,144.134460 257.834595,144.134460 
	C257.834595,161.902283 257.834595,179.466690 257.834595,197.475372 
	C284.378479,197.475372 310.308746,197.475372 336.587067,197.475372 
	C336.587067,201.653381 336.587067,205.397125 336.587067,209.767471 
	C311.051208,209.767471 285.332672,209.767471 258.443817,209.767471 
	C267.890533,260.159882 293.764526,298.068237 337.031830,324.869080 
	C334.893860,328.138580 332.758820,331.403534 330.327759,335.121246 
	C317.293701,328.170776 306.171631,319.082581 295.325989,309.064789 
	C286.100128,297.427734 276.641479,286.279144 268.479553,274.250641 
	C263.131134,266.368408 259.658630,257.213318 255.174026,247.944061 
	C253.665833,243.851395 252.329575,240.442932 250.644363,236.144409 
	C249.277664,240.167053 248.273193,243.123566 247.268707,246.080093 
z"/>
<path fill="#07080A" opacity="1.000000" stroke="none" 
	d="
M305.798615,186.758453 
	C297.535645,178.490814 289.588348,170.063538 281.632996,161.643890 
	C279.932373,159.844009 278.202454,158.071823 275.923340,155.701736 
	C278.746063,153.137482 281.626770,150.520584 285.004272,147.452362 
	C295.100769,157.470062 305.183990,167.474594 315.586304,177.795746 
	C311.903931,181.218079 309.007690,183.909805 305.798615,186.758453 
z"/>
<path fill="#B9BEC2" opacity="1.000000" stroke="none" 
	d="
M104.510033,240.490189 
	C104.520744,240.517090 104.499321,240.463287 104.510033,240.490189 
z"/>
<path fill="#B78B8E" opacity="1.000000" stroke="none" 
	d="
M247.559921,246.208160 
	C248.273193,243.123566 249.277664,240.167053 250.644363,236.144409 
	C252.329575,240.442932 253.665833,243.851395 254.997833,247.632462 
	C254.643784,249.906799 254.062607,251.798538 253.979919,253.711807 
	C253.148743,272.946960 252.399353,292.185669 251.113953,311.480255 
	C250.774780,307.909363 250.237823,304.344482 250.129837,300.766632 
	C249.593689,283.003326 249.175888,265.236450 248.673279,247.472061 
	C248.662338,247.086014 248.136673,246.714508 247.559921,246.208160 
z"/>
</svg>