<svg version="1.1" id="Layer_1" xmlns="http://www.w3.org/2000/svg" xmlns:xlink="http://www.w3.org/1999/xlink" x="0px" y="0px"
	 width="100%" viewBox="0 0 500 500" enable-background="new 0 0 500 500" xml:space="preserve">
<path fill="#E2CC9F" opacity="1.000000" stroke="none" 
	d="
M95.000000,501.000000 
	C63.676052,501.000000 32.352108,501.000000 1.021120,501.000000 
	C1.014080,334.392639 1.014080,167.785294 1.014080,1.088973 
	C167.557388,1.088973 334.114838,1.088973 501.000000,1.088973 
	C501.000000,117.022438 501.000000,233.045181 500.533264,349.580841 
	C491.431122,349.754028 482.792725,349.476593 474.160919,349.062439 
	C451.745850,347.987091 429.318970,347.086212 406.924225,345.679138 
	C380.558929,344.022614 354.222534,341.906525 327.926575,339.616516 
	C328.555511,337.691101 329.063904,336.109863 329.717651,334.591187 
	C338.147369,315.007874 346.853577,295.538879 354.976471,275.829437 
	C364.543610,252.615723 367.414398,228.588989 361.801605,203.886154 
	C360.698029,199.029205 358.551361,194.403580 357.524231,189.536530 
	C356.538300,184.864838 355.566010,179.760895 360.165314,176.144440 
	C364.856018,172.456161 369.641693,174.031525 374.179352,176.581879 
	C377.222534,178.292267 380.030151,180.415955 383.012909,182.240723 
	C402.752869,194.317108 422.772247,194.567001 442.595093,182.805817 
	C458.942505,173.106644 470.173370,158.435303 479.659668,142.328156 
	C489.213043,126.107094 488.175018,122.259727 471.449158,113.265015 
	C450.541901,102.021645 429.459412,103.125710 408.600616,113.302956 
	C389.486023,122.629219 370.153870,131.014908 348.030945,131.563812 
	C345.970398,131.320953 344.311157,131.156021 342.651825,131.155014 
	C316.486084,131.139084 290.319122,131.014145 264.155762,131.263000 
	C259.377197,131.308441 258.336609,129.835663 258.410461,125.340645 
	C258.673279,109.345497 258.516266,93.343452 258.518127,77.344025 
	C258.518341,75.552307 258.518158,73.760582 258.518158,71.877159 
	C252.544296,71.877159 247.156479,71.877159 241.392059,71.877159 
	C241.392059,74.105873 241.391907,75.916260 241.392090,77.726639 
	C241.393692,93.726074 241.227417,109.728409 241.504105,125.723083 
	C241.582382,130.247833 240.152695,131.325531 235.828247,131.244522 
	C221.833694,130.982346 207.831070,131.161575 193.831604,131.138351 
	C192.110657,131.135498 190.390060,130.936356 188.435715,130.813477 
	C193.976013,112.253220 199.318054,94.357201 204.660080,76.461189 
	C204.173096,75.958275 203.686111,75.455368 203.199127,74.952461 
	C196.842590,77.902870 190.486053,80.853279 183.746155,83.785667 
	C179.035416,86.807777 174.069916,89.246155 170.515549,93.015274 
	C163.456284,100.501068 157.121689,108.676720 150.583481,116.645950 
	C140.038528,129.498886 132.844330,131.811905 117.393013,125.962364 
	C107.755974,122.313988 98.441818,117.797615 89.044685,113.534294 
	C75.948166,107.592606 62.532307,103.746979 47.909931,105.900299 
	C34.121769,107.930779 22.075428,113.274025 12.388361,123.518318 
	C10.160492,125.874336 9.478687,128.128952 11.538370,131.004486 
	C18.693304,140.993500 25.118414,151.583984 32.998142,160.956100 
	C43.962231,173.996719 57.330753,184.539948 74.088013,188.998535 
	C96.261604,194.898239 118.454674,196.664352 139.510345,183.778015 
	C143.695389,186.915588 147.594009,189.869186 151.429550,193.237366 
	C150.292603,197.137115 149.289642,200.645981 148.133438,204.103607 
	C140.226532,227.749329 137.732925,251.502869 146.464035,275.543335 
	C155.327576,299.948334 164.139313,324.372192 172.971283,348.788666 
	C173.785461,351.039490 174.581924,353.296692 175.695801,356.417023 
	C186.867813,341.501923 201.759232,334.813080 218.604324,331.741058 
	C221.574875,331.199341 222.239212,329.581512 222.257462,326.876038 
	C222.486526,292.913971 222.789398,258.952423 223.520477,224.854401 
	C229.573242,224.718079 235.178879,224.718079 241.368668,224.718079 
	C241.368668,259.924438 241.368668,294.646759 241.368668,329.649750 
	C247.334183,329.649750 252.703903,329.649750 258.523956,329.649750 
	C258.523956,320.690735 258.525818,312.055237 258.523590,303.419739 
	C258.517181,278.760834 258.497192,254.101913 258.522675,229.443039 
	C258.524902,227.281952 257.651001,224.435196 261.556610,224.564728 
	C266.705505,224.735474 271.857147,224.822266 276.985657,225.416870 
	C276.568726,257.778900 276.114990,289.668640 275.819611,321.559875 
	C275.744476,329.675171 273.888123,330.639587 284.504669,331.155365 
	C285.984406,331.227234 287.448761,331.647278 288.916748,331.924652 
	C302.437195,334.479218 313.736969,340.996002 323.100006,351.410187 
	C323.536987,352.492371 323.932068,353.221375 324.298706,353.964386 
	C338.341095,382.421692 328.812073,411.395477 300.581329,423.582031 
	C285.653137,430.026215 270.833588,426.853882 256.789734,419.782776 
	C253.169327,417.959900 250.262939,418.183350 246.470398,419.521454 
	C238.073074,422.484314 229.489166,425.330597 220.742035,426.793274 
	C207.642624,428.983734 195.802872,424.812531 185.154419,416.525269 
	C181.998856,412.262238 178.609039,408.536560 176.059875,404.304565 
	C173.900925,400.720428 171.911682,400.515717 168.404541,402.239410 
	C147.746033,412.392700 130.211319,426.321136 116.672577,444.990875 
	C104.545776,461.713501 97.063042,480.333374 95.000000,501.000000 
M223.309662,391.832550 
	C224.339127,390.541229 225.540375,389.350891 226.368988,387.941467 
	C230.410934,381.066559 229.664261,372.798431 224.597992,367.091461 
	C219.223450,361.037231 210.901489,359.113251 203.754089,362.272491 
	C196.420914,365.513855 192.240219,372.719025 193.235321,380.876495 
	C195.065659,395.881042 212.623169,401.389313 223.309662,391.832550 
M303.923889,369.830505 
	C303.143799,368.757690 302.433563,367.624847 301.572021,366.622040 
	C296.821564,361.092865 287.291199,359.273499 280.529144,362.563354 
	C273.574921,365.946686 269.408844,373.666687 270.624847,380.996582 
	C271.875305,388.534302 275.917938,393.784485 283.376465,395.995422 
	C290.661743,398.155029 296.883728,396.029449 301.824677,390.509979 
	C307.195160,384.510651 307.255981,377.651031 303.923889,369.830505 
z"/>
<path fill="#8DBE4B" opacity="1.000000" stroke="none" 
	d="
M327.873596,339.989746 
	C354.222534,341.906525 380.558929,344.022614 406.924225,345.679138 
	C429.318970,347.086212 451.745850,347.987091 474.160919,349.062439 
	C482.792725,349.476593 491.431122,349.754028 500.533264,350.046875 
	C501.000000,400.287720 501.000000,450.575439 501.000000,501.000000 
	C390.645813,501.000000 280.291565,501.000000 169.558868,500.601624 
	C170.099731,493.980347 170.752609,487.704071 171.986526,481.544220 
	C176.311111,459.955536 180.835861,438.406921 185.284607,416.843109 
	C195.802872,424.812531 207.642624,428.983734 220.742035,426.793274 
	C229.489166,425.330597 238.073074,422.484314 246.470398,419.521454 
	C250.262939,418.183350 253.169327,417.959900 256.789734,419.782776 
	C270.833588,426.853882 285.653137,430.026215 300.581329,423.582031 
	C328.812073,411.395477 338.341095,382.421692 324.298706,353.964386 
	C323.932068,353.221375 323.536987,352.492371 323.301514,351.118347 
	C324.923126,346.983124 326.398346,343.486450 327.873596,339.989746 
z"/>
<path fill="#A66C2A" opacity="1.000000" stroke="none" 
	d="
M185.154419,416.525269 
	C180.835861,438.406921 176.311111,459.955536 171.986526,481.544220 
	C170.752609,487.704071 170.099731,493.980347 169.090210,500.601624 
	C144.645767,501.000000 120.291542,501.000000 95.468658,501.000000 
	C97.063042,480.333374 104.545776,461.713501 116.672577,444.990875 
	C130.211319,426.321136 147.746033,412.392700 168.404541,402.239410 
	C171.911682,400.515717 173.900925,400.720428 176.059875,404.304565 
	C178.609039,408.536560 181.998856,412.262238 185.154419,416.525269 
z"/>
<path fill="#A56B2A" opacity="1.000000" stroke="none" 
	d="
M327.926575,339.616516 
	C326.398346,343.486450 324.923126,346.983124 323.246399,350.771667 
	C313.736969,340.996002 302.437195,334.479218 288.916748,331.924652 
	C287.448761,331.647278 285.984406,331.227234 284.504669,331.155365 
	C273.888123,330.639587 275.744476,329.675171 275.819611,321.559875 
	C276.114990,289.668640 276.568726,257.778900 277.444855,225.310120 
	C295.374512,224.715729 312.823853,224.800568 330.271240,224.650467 
	C343.133575,224.539810 341.084320,226.867859 341.489349,213.191818 
	C341.606232,209.245117 340.277924,208.006790 336.361572,208.048538 
	C320.078033,208.222107 303.791565,208.144333 287.506317,208.098572 
	C285.206329,208.092117 282.907227,207.752914 280.709381,207.246002 
	C293.209808,195.914780 305.620636,184.918808 318.003448,173.891418 
	C327.658539,165.293198 337.278778,156.655899 347.148987,147.738007 
	C347.733063,142.199356 348.082642,136.958664 348.432190,131.717987 
	C370.153870,131.014908 389.486023,122.629219 408.600616,113.302956 
	C429.459412,103.125710 450.541901,102.021645 471.449158,113.265015 
	C488.175018,122.259727 489.213043,126.107094 479.659668,142.328156 
	C470.173370,158.435303 458.942505,173.106644 442.595093,182.805817 
	C422.772247,194.567001 402.752869,194.317108 383.012909,182.240723 
	C380.030151,180.415955 377.222534,178.292267 374.179352,176.581879 
	C369.641693,174.031525 364.856018,172.456161 360.165314,176.144440 
	C355.566010,179.760895 356.538300,184.864838 357.524231,189.536530 
	C358.551361,194.403580 360.698029,199.029205 361.801605,203.886154 
	C367.414398,228.588989 364.543610,252.615723 354.976471,275.829437 
	C346.853577,295.538879 338.147369,315.007874 329.717651,334.591187 
	C329.063904,336.109863 328.555511,337.691101 327.926575,339.616516 
z"/>
<path fill="#070604" opacity="1.000000" stroke="none" 
	d="
M280.607727,207.567719 
	C282.907227,207.752914 285.206329,208.092117 287.506317,208.098572 
	C303.791565,208.144333 320.078033,208.222107 336.361572,208.048538 
	C340.277924,208.006790 341.606232,209.245117 341.489349,213.191818 
	C341.084320,226.867859 343.133575,224.539810 330.271240,224.650467 
	C312.823853,224.800568 295.374512,224.715729 277.466797,224.838409 
	C271.857147,224.822266 266.705505,224.735474 261.556610,224.564728 
	C257.651001,224.435196 258.524902,227.281952 258.522675,229.443039 
	C258.497192,254.101913 258.517181,278.760834 258.523590,303.419739 
	C258.525818,312.055237 258.523956,320.690735 258.523956,329.649750 
	C252.703903,329.649750 247.334183,329.649750 241.368668,329.649750 
	C241.368668,294.646759 241.368668,259.924438 241.368668,224.718079 
	C235.178879,224.718079 229.573242,224.718079 223.059326,224.724121 
	C206.013580,224.715179 189.875137,224.802460 173.738892,224.653458 
	C160.360977,224.529938 162.537613,226.936890 162.184296,213.048935 
	C162.091904,209.417221 163.279175,208.004745 167.033157,208.075974 
	C176.678864,208.258926 186.331085,208.177170 195.979843,208.097183 
	C204.114304,208.029755 212.247559,207.816147 220.801270,207.804306 
	C226.697083,208.023849 232.176804,208.010544 237.647263,208.228897 
	C240.424728,208.339752 241.466644,207.374649 241.452850,204.532867 
	C241.366516,186.759277 241.379440,168.984940 241.440491,151.211136 
	C241.449265,148.656555 240.527313,147.686691 237.941528,147.704865 
	C219.175842,147.836853 200.409500,147.874527 181.292938,147.934952 
	C180.168961,149.167282 179.384613,150.400116 178.623474,151.647110 
	C171.025040,164.095779 163.481903,176.578842 155.770462,188.957077 
	C154.793472,190.525330 152.940018,191.547577 151.492630,192.822784 
	C147.594009,189.869186 143.695389,186.915588 139.585968,183.464218 
	C139.489471,182.490829 139.461899,181.901825 139.738388,181.555786 
	C156.278503,160.854843 166.468811,136.840561 175.509460,112.299133 
	C178.933777,103.003616 181.287689,93.313782 184.129517,83.803688 
	C190.486053,80.853279 196.842590,77.902870 203.199127,74.952461 
	C203.686111,75.455368 204.173096,75.958275 204.660080,76.461189 
	C199.318054,94.357201 193.976013,112.253220 188.435715,130.813477 
	C190.390060,130.936356 192.110657,131.135498 193.831604,131.138351 
	C207.831070,131.161575 221.833694,130.982346 235.828247,131.244522 
	C240.152695,131.325531 241.582382,130.247833 241.504105,125.723083 
	C241.227417,109.728409 241.393692,93.726074 241.392090,77.726639 
	C241.391907,75.916260 241.392059,74.105873 241.392059,71.877159 
	C247.156479,71.877159 252.544296,71.877159 258.518158,71.877159 
	C258.518158,73.760582 258.518341,75.552307 258.518127,77.344025 
	C258.516266,93.343452 258.673279,109.345497 258.410461,125.340645 
	C258.336609,129.835663 259.377197,131.308441 264.155762,131.263000 
	C290.319122,131.014145 316.486084,131.139084 342.651825,131.155014 
	C344.311157,131.156021 345.970398,131.320953 348.030945,131.563812 
	C348.082642,136.958664 347.733063,142.199356 346.695831,147.642609 
	C318.213135,147.811325 290.418091,147.790771 262.623138,147.719986 
	C260.224182,147.713867 258.421570,147.828995 258.437317,151.033905 
	C258.525513,169.009293 258.444214,186.985718 258.614258,204.959961 
	C258.624512,206.047516 260.291718,208.040939 261.204285,208.050507 
	C267.669678,208.118256 274.139404,207.777939 280.607727,207.567719 
z"/>
<path fill="#A56B2A" opacity="1.000000" stroke="none" 
	d="
M151.429550,193.237366 
	C152.940018,191.547577 154.793472,190.525330 155.770462,188.957077 
	C163.481903,176.578842 171.025040,164.095779 178.623474,151.647110 
	C179.384613,150.400116 180.168961,149.167282 181.379608,148.299667 
	C182.664719,150.266937 183.380325,151.951279 184.382050,153.443588 
	C191.313507,163.769730 198.362885,174.016983 205.257187,184.367661 
	C210.389786,192.073441 215.346375,199.896454 220.381348,207.667252 
	C212.247559,207.816147 204.114304,208.029755 195.979843,208.097183 
	C186.331085,208.177170 176.678864,208.258926 167.033157,208.075974 
	C163.279175,208.004745 162.091904,209.417221 162.184296,213.048935 
	C162.537613,226.936890 160.360977,224.529938 173.738892,224.653458 
	C189.875137,224.802460 206.013580,224.715179 222.612213,224.860443 
	C222.789398,258.952423 222.486526,292.913971 222.257462,326.876038 
	C222.239212,329.581512 221.574875,331.199341 218.604324,331.741058 
	C201.759232,334.813080 186.867813,341.501923 175.695801,356.417023 
	C174.581924,353.296692 173.785461,351.039490 172.971283,348.788666 
	C164.139313,324.372192 155.327576,299.948334 146.464035,275.543335 
	C137.732925,251.502869 140.226532,227.749329 148.133438,204.103607 
	C149.289642,200.645981 150.292603,197.137115 151.429550,193.237366 
z"/>
<path fill="#A66C2A" opacity="1.000000" stroke="none" 
	d="
M183.746155,83.785667 
	C181.287689,93.313782 178.933777,103.003616 175.509460,112.299133 
	C166.468811,136.840561 156.278503,160.854843 139.738388,181.555786 
	C139.461899,181.901825 139.489471,182.490829 139.299530,183.280243 
	C118.454674,196.664352 96.261604,194.898239 74.088013,188.998535 
	C57.330753,184.539948 43.962231,173.996719 32.998142,160.956100 
	C25.118414,151.583984 18.693304,140.993500 11.538370,131.004486 
	C9.478687,128.128952 10.160492,125.874336 12.388361,123.518318 
	C22.075428,113.274025 34.121769,107.930779 47.909931,105.900299 
	C62.532307,103.746979 75.948166,107.592606 89.044685,113.534294 
	C98.441818,117.797615 107.755974,122.313988 117.393013,125.962364 
	C132.844330,131.811905 140.038528,129.498886 150.583481,116.645950 
	C157.121689,108.676720 163.456284,100.501068 170.515549,93.015274 
	C174.069916,89.246155 179.035416,86.807777 183.746155,83.785667 
z"/>
<path fill="#A76E2C" opacity="1.000000" stroke="none" 
	d="
M223.040070,392.079041 
	C212.623169,401.389313 195.065659,395.881042 193.235321,380.876495 
	C192.240219,372.719025 196.420914,365.513855 203.754089,362.272491 
	C210.901489,359.113251 219.223450,361.037231 224.597992,367.091461 
	C229.664261,372.798431 230.410934,381.066559 226.368988,387.941467 
	C225.540375,389.350891 224.339127,390.541229 223.040070,392.079041 
z"/>
<path fill="#A76E2C" opacity="1.000000" stroke="none" 
	d="
M304.087006,370.177521 
	C307.255981,377.651031 307.195160,384.510651 301.824677,390.509979 
	C296.883728,396.029449 290.661743,398.155029 283.376465,395.995422 
	C275.917938,393.784485 271.875305,388.534302 270.624847,380.996582 
	C269.408844,373.666687 273.574921,365.946686 280.529144,362.563354 
	C287.291199,359.273499 296.821564,361.092865 301.572021,366.622040 
	C302.433563,367.624847 303.143799,368.757690 304.087006,370.177521 
z"/>
<path fill="#DFC99C" opacity="1.000000" stroke="none" 
	d="
M280.709381,207.246002 
	C274.139404,207.777939 267.669678,208.118256 261.204285,208.050507 
	C260.291718,208.040939 258.624512,206.047516 258.614258,204.959961 
	C258.444214,186.985718 258.525513,169.009293 258.437317,151.033905 
	C258.421570,147.828995 260.224182,147.713867 262.623138,147.719986 
	C290.418091,147.790771 318.213135,147.811325 346.461334,147.940582 
	C337.278778,156.655899 327.658539,165.293198 318.003448,173.891418 
	C305.620636,184.918808 293.209808,195.914780 280.709381,207.246002 
z"/>
<path fill="#E1CA9D" opacity="1.000000" stroke="none" 
	d="
M220.801270,207.804306 
	C215.346375,199.896454 210.389786,192.073441 205.257187,184.367661 
	C198.362885,174.016983 191.313507,163.769730 184.382050,153.443588 
	C183.380325,151.951279 182.664719,150.266937 181.730026,148.306747 
	C200.409500,147.874527 219.175842,147.836853 237.941528,147.704865 
	C240.527313,147.686691 241.449265,148.656555 241.440491,151.211136 
	C241.379440,168.984940 241.366516,186.759277 241.452850,204.532867 
	C241.466644,207.374649 240.424728,208.339752 237.647263,208.228897 
	C232.176804,208.010544 226.697083,208.023849 220.801270,207.804306 
z"/>
</svg>