<svg version="1.1" id="Layer_1" xmlns="http://www.w3.org/2000/svg" xmlns:xlink="http://www.w3.org/1999/xlink" x="0px" y="0px"
	 width="100%" viewBox="0 0 241 476" enable-background="new 0 0 241 476" xml:space="preserve">
<path fill="#EA1D25" opacity="1.000000" stroke="none" 
	d="
M51.000008,477.000000 
	C34.338902,477.000000 17.677801,477.000000 1.012526,477.000000 
	C1.008351,318.391907 1.008351,159.783798 1.008351,1.087848 
	C81.247849,1.087848 161.495834,1.087848 241.871902,1.087848 
	C241.871902,159.666595 241.871902,318.333282 241.871902,477.000000 
	C220.589340,477.000000 199.263336,477.000000 177.598083,476.665436 
	C192.542526,470.988617 200.667999,459.971710 202.291763,444.122894 
	C204.830688,419.341553 207.691498,394.574219 209.382721,369.730621 
	C210.894058,347.529388 211.007446,325.233032 211.802582,302.513916 
	C211.923477,301.386627 212.028458,300.724030 212.028458,300.061432 
	C212.029144,256.424530 212.346848,212.784363 211.910904,169.151733 
	C211.564774,134.509476 205.983154,100.796539 190.036224,69.521225 
	C177.940292,45.798546 161.118515,26.477882 136.932053,14.341677 
	C134.500107,13.121382 131.861862,12.312242 128.931061,11.159575 
	C128.931061,17.863976 128.931061,23.809284 128.754913,30.140644 
	C128.511230,32.020805 128.384613,33.514915 128.384598,35.009026 
	C128.383331,124.218651 128.392517,213.428284 127.915070,302.732239 
	C101.691055,302.826599 75.952682,302.826599 49.994419,302.826599 
	C49.994419,309.344543 49.994419,315.071808 49.994419,321.150177 
	C51.943958,321.238556 53.570290,321.374786 55.196762,321.376434 
	C73.506607,321.394958 91.816879,321.456268 110.125992,321.340973 
	C113.646820,321.318817 115.434082,322.106354 114.938103,326.078857 
	C112.776108,343.395233 111.975243,360.984802 108.420006,378.002991 
	C100.366241,416.554626 79.498199,445.855652 42.754555,462.465332 
	C41.788876,462.901886 40.988850,463.704865 39.975140,464.435272 
	C43.818211,468.815094 47.409111,472.907532 51.000008,477.000000 
z"/>
<path fill="#050101" opacity="1.000000" stroke="none" 
	d="
M51.449986,477.000000 
	C47.409111,472.907532 43.818211,468.815094 39.975140,464.435272 
	C40.988850,463.704865 41.788876,462.901886 42.754555,462.465332 
	C79.498199,445.855652 100.366241,416.554626 108.420006,378.002991 
	C111.975243,360.984802 112.776108,343.395233 114.938103,326.078857 
	C115.434082,322.106354 113.646820,321.318817 110.125992,321.340973 
	C91.816879,321.456268 73.506607,321.394958 55.196762,321.376434 
	C53.570290,321.374786 51.943958,321.238556 49.994419,321.150177 
	C49.994419,315.071808 49.994419,309.344543 49.994419,302.826599 
	C75.952682,302.826599 101.691055,302.826599 128.344727,302.824951 
	C136.921661,302.847443 144.583588,302.927246 152.244812,302.883667 
	C166.222153,302.804108 180.199081,302.651459 194.614014,302.669250 
	C200.613800,302.865692 206.175735,302.922150 211.737671,302.978638 
	C211.007446,325.233032 210.894058,347.529388 209.382721,369.730621 
	C207.691498,394.574219 204.830688,419.341553 202.291763,444.122894 
	C200.667999,459.971710 192.542526,470.988617 177.129425,476.665436 
	C164.979111,477.000000 152.958206,477.000000 140.391678,476.661957 
	C134.249329,468.870270 128.652634,461.416595 123.055923,453.962952 
	C123.459854,453.513062 123.863785,453.063171 124.267715,452.613281 
	C125.943451,453.060303 127.622589,453.495026 129.294373,453.956451 
	C140.954071,457.174469 152.669678,459.377716 164.774048,456.428986 
	C174.197525,454.133331 180.505539,448.743591 182.572266,438.988831 
	C183.365646,435.244232 184.576797,431.525024 184.841507,427.741364 
	C187.258453,393.193451 189.512543,358.634094 191.781708,324.075989 
	C191.831253,323.321381 191.496246,322.541504 191.311020,321.627319 
	C189.737869,321.517395 188.434189,321.348663 187.130310,321.347015 
	C171.802002,321.327881 156.471298,321.481995 141.146835,321.237885 
	C136.850906,321.169464 135.672699,322.464111 135.193954,326.761444 
	C133.039505,346.101044 131.670029,365.659973 127.624718,384.629578 
	C119.159447,424.325775 98.180573,455.659912 61.694607,475.366302 
	C61.029617,475.725494 60.560505,476.447357 59.999996,477.000000 
	C57.299988,477.000000 54.599972,477.000000 51.449986,477.000000 
z"/>
<path fill="#E71D25" opacity="1.000000" stroke="none" 
	d="
M60.468655,477.000000 
	C60.560505,476.447357 61.029617,475.725494 61.694607,475.366302 
	C98.180573,455.659912 119.159447,424.325775 127.624718,384.629578 
	C131.670029,365.659973 133.039505,346.101044 135.193954,326.761444 
	C135.672699,322.464111 136.850906,321.169464 141.146835,321.237885 
	C156.471298,321.481995 171.802002,321.327881 187.130310,321.347015 
	C188.434189,321.348663 189.737869,321.517395 191.311020,321.627319 
	C191.496246,322.541504 191.831253,323.321381 191.781708,324.075989 
	C189.512543,358.634094 187.258453,393.193451 184.841507,427.741364 
	C184.576797,431.525024 183.365646,435.244232 182.572266,438.988831 
	C180.505539,448.743591 174.197525,454.133331 164.774048,456.428986 
	C152.669678,459.377716 140.954071,457.174469 129.294373,453.956451 
	C127.622589,453.495026 125.943451,453.060303 124.267715,452.613281 
	C123.863785,453.063171 123.459854,453.513062 123.055923,453.962952 
	C128.652634,461.416595 134.249329,468.870270 139.923019,476.661957 
	C113.645775,477.000000 87.291542,477.000000 60.468655,477.000000 
M158.898315,417.865540 
	C161.182999,416.892517 164.084015,416.484406 165.611771,414.817596 
	C168.064926,412.141083 166.807434,407.671875 163.796738,405.729919 
	C160.691910,403.727325 156.090546,404.858032 154.265671,408.072052 
	C152.243805,411.632996 153.642609,415.101471 158.898315,417.865540 
M156.012817,348.414703 
	C155.144608,351.837128 155.729279,355.082336 159.129562,356.398163 
	C161.141159,357.176575 164.462311,357.194733 165.952515,356.002411 
	C167.643295,354.649536 168.789001,351.485260 168.583939,349.254425 
	C168.422821,347.501831 166.140106,345.275269 164.281189,344.495117 
	C160.998322,343.117401 158.175079,344.715668 156.012817,348.414703 
z"/>
<path fill="#ADACA5" opacity="1.000000" stroke="none" 
	d="
M194.176178,302.529297 
	C180.199081,302.651459 166.222153,302.804108 152.244812,302.883667 
	C144.583588,302.927246 136.921661,302.847443 128.830383,302.730591 
	C128.392517,213.428284 128.383331,124.218651 128.384598,35.009026 
	C128.384613,33.514915 128.511230,32.020805 129.124741,30.201832 
	C148.580765,39.261616 161.847336,54.320992 171.885849,72.432961 
	C187.439178,100.495071 193.281906,131.159210 193.946594,162.741623 
	C194.716934,199.344254 194.235977,235.973419 194.274704,272.591095 
	C194.285263,282.570465 194.211334,292.549896 194.176178,302.529297 
z"/>
<path fill="#FDFAFA" opacity="1.000000" stroke="none" 
	d="
M194.614014,302.669250 
	C194.211334,292.549896 194.285263,282.570465 194.274704,272.591095 
	C194.235977,235.973419 194.716934,199.344254 193.946594,162.741623 
	C193.281906,131.159210 187.439178,100.495071 171.885849,72.432961 
	C161.847336,54.320992 148.580765,39.261616 129.300873,29.815777 
	C128.931061,23.809284 128.931061,17.863976 128.931061,11.159575 
	C131.861862,12.312242 134.500107,13.121382 136.932053,14.341677 
	C161.118515,26.477882 177.940292,45.798546 190.036224,69.521225 
	C205.983154,100.796539 211.564774,134.509476 211.910904,169.151733 
	C212.346848,212.784363 212.029144,256.424530 212.028458,300.061432 
	C212.028458,300.724030 211.923477,301.386627 211.802582,302.513916 
	C206.175735,302.922150 200.613800,302.865692 194.614014,302.669250 
z"/>
<path fill="#B0A49E" opacity="1.000000" stroke="none" 
	d="
M158.520828,417.776306 
	C153.642609,415.101471 152.243805,411.632996 154.265671,408.072052 
	C156.090546,404.858032 160.691910,403.727325 163.796738,405.729919 
	C166.807434,407.671875 168.064926,412.141083 165.611771,414.817596 
	C164.084015,416.484406 161.182999,416.892517 158.520828,417.776306 
z"/>
<path fill="#B0A59E" opacity="1.000000" stroke="none" 
	d="
M156.145386,348.072784 
	C158.175079,344.715668 160.998322,343.117401 164.281189,344.495117 
	C166.140106,345.275269 168.422821,347.501831 168.583939,349.254425 
	C168.789001,351.485260 167.643295,354.649536 165.952515,356.002411 
	C164.462311,357.194733 161.141159,357.176575 159.129562,356.398163 
	C155.729279,355.082336 155.144608,351.837128 156.145386,348.072784 
z"/>
</svg>