<svg version="1.1" id="Layer_1" xmlns="http://www.w3.org/2000/svg" xmlns:xlink="http://www.w3.org/1999/xlink" x="0px" y="0px"
	 width="100%" viewBox="0 0 704 464" enable-background="new 0 0 704 464" xml:space="preserve">
<path fill="#000000" opacity="1.000000" stroke="none" 
	d="
M161.922226,422.755615 
	C156.059387,430.275970 146.812714,432.778870 138.993088,429.233276 
	C130.694260,425.470398 125.599388,416.149384 127.240540,407.031555 
	C128.748505,398.653748 131.987045,390.748901 134.538666,382.659607 
	C140.991180,362.203674 147.730820,341.834534 153.886368,321.290070 
	C157.800140,308.227661 166.443390,298.777130 175.899185,289.751068 
	C185.296570,280.780762 194.710648,271.827942 204.138351,262.889526 
	C205.642487,261.463501 206.731674,260.192383 206.094162,257.739563 
	C201.577805,240.362823 197.226059,222.943314 192.818634,205.538254 
	C192.617508,204.744064 192.547104,203.863922 191.578812,203.458206 
	C190.095322,203.793777 189.614120,205.135025 189.084854,206.290756 
	C182.967468,219.649078 172.383789,226.350754 157.974854,228.120880 
	C141.959015,230.088409 126.016113,232.647202 110.037430,234.920319 
	C100.485924,236.279114 91.966301,230.370056 90.842041,221.661209 
	C89.523674,211.448700 95.651802,204.109406 106.030792,202.719284 
	C120.339043,200.802902 134.747360,199.580627 148.926575,196.729385 
	C153.981903,195.712845 157.656067,192.887527 160.277435,188.505035 
	C167.576538,176.302216 172.560669,163.031265 177.603806,149.849503 
	C186.517029,126.552200 202.315781,116.857262 227.092316,115.877899 
	C227.756760,115.851631 228.426941,115.878899 229.090378,115.932060 
	C242.903091,117.039017 244.142136,118.648598 246.438583,132.200439 
	C251.680801,163.135849 257.288849,194.008652 265.164856,224.419250 
	C267.164795,232.141327 268.686737,239.986145 270.540833,247.747681 
	C271.125549,250.195541 270.802124,252.357605 269.454712,254.417099 
	C264.073181,262.642731 258.726746,270.898712 252.205276,278.294037 
	C250.893677,279.781403 249.406952,281.207214 247.756821,282.289001 
	C227.430450,295.614471 213.062119,315.301514 195.297577,331.358582 
	C190.974716,335.265930 190.426147,341.125702 188.659286,346.239166 
	C180.467575,369.947021 172.564270,393.754425 164.504730,417.508240 
	C163.922775,419.223419 162.918060,420.795197 161.922226,422.755615 
z"/>
<path fill="#000000" opacity="1.000000" stroke="none" 
	d="
M573.530212,349.215515 
	C572.037476,355.894806 569.474182,361.656006 565.528748,366.717529 
	C560.190674,373.565521 553.409790,374.349701 547.721375,367.896667 
	C538.478821,357.411743 529.872498,346.364502 521.048828,335.513000 
	C519.589355,333.718109 519.087158,331.583588 520.457642,329.486877 
	C521.920898,327.248199 524.152100,327.520691 526.304199,328.130249 
	C532.067749,329.762756 537.292419,332.923096 543.262573,334.020294 
	C548.744629,335.027802 551.334778,333.518402 552.797424,328.096497 
	C553.100586,326.972870 553.460938,325.826935 553.512146,324.678650 
	C554.670715,298.720825 555.022644,272.751984 554.643738,245.831055 
	C551.619141,248.267487 549.132629,250.270554 546.646057,252.273376 
	C539.228577,258.247681 531.280212,263.402954 522.797058,267.733154 
	C522.352051,267.960297 521.914368,268.334717 521.450867,268.373413 
	C509.584198,269.364288 500.252350,277.358124 489.007599,280.099945 
	C485.076752,281.058380 481.165833,281.489136 477.148804,281.338318 
	C470.929260,281.104828 466.761780,277.013580 466.681274,270.999725 
	C466.594666,264.530884 470.620087,259.431122 476.819946,259.868561 
	C484.689545,260.423859 491.116364,257.789154 497.300934,253.536240 
	C500.631348,251.246048 504.400055,250.205444 508.404388,249.391647 
	C519.529297,247.130737 528.475952,240.566208 536.795654,233.335541 
	C547.652100,223.900101 557.411011,213.356644 564.557068,200.760437 
	C570.857544,189.654770 575.505615,178.004044 574.144104,164.752396 
	C573.682922,160.263916 576.911377,156.416641 581.408630,155.347107 
	C586.284912,154.187424 590.116394,155.933884 591.855774,160.642136 
	C594.811035,168.641571 593.405273,176.804611 591.724609,184.758743 
	C589.049255,197.420410 584.318359,209.302673 576.253113,219.610825 
	C574.331970,222.066254 573.931824,224.076874 576.194336,226.606369 
	C578.304749,228.965897 578.597229,232.035797 578.139282,235.115845 
	C575.731873,251.307022 575.460938,267.625092 575.335571,283.941895 
	C575.213928,299.771362 575.279968,315.602448 575.310852,331.432739 
	C575.322327,337.285980 574.697815,343.064575 573.530212,349.215515 
z"/>
<path fill="#000000" opacity="1.000000" stroke="none" 
	d="
M317.843994,414.179718 
	C298.560516,395.297211 279.588806,376.603241 260.487640,358.042480 
	C253.442032,351.196259 251.334183,341.963776 248.014832,333.341797 
	C243.892853,322.635040 240.204987,311.761047 236.334564,300.957550 
	C235.833786,299.559784 235.227203,298.172424 235.702484,296.372009 
	C253.468414,290.774658 261.672394,274.853424 272.744293,260.019623 
	C274.812469,267.320251 276.493195,273.289185 278.194702,279.252197 
	C281.653107,291.372284 285.133362,303.486145 288.579956,315.609589 
	C289.396423,318.481506 290.214539,321.359222 290.859467,324.272400 
	C292.416199,331.303955 297.063354,336.177612 301.976715,341.013550 
	C317.869995,356.656342 333.729614,372.335907 349.406281,388.194946 
	C355.868439,394.732300 359.428131,402.475525 355.352997,411.730865 
	C349.973053,423.949768 337.272583,427.777740 325.864685,420.668549 
	C323.066742,418.924957 320.680084,416.521301 317.843994,414.179718 
z"/>
<path fill="#000000" opacity="1.000000" stroke="none" 
	d="
M156.338577,77.552841 
	C155.035126,58.269623 167.351562,42.153393 185.632812,36.412014 
	C206.615570,29.822199 230.446838,45.466572 235.882187,65.733955 
	C240.919876,84.518631 226.803955,109.422562 207.387970,114.124405 
	C184.173630,119.746063 161.529221,105.803986 156.995468,83.440590 
	C156.633743,81.656265 156.599121,79.805626 156.338577,77.552841 
z"/>
<path fill="#000000" opacity="1.000000" stroke="none" 
	d="
M530.143066,123.327072 
	C533.082031,129.974075 530.175842,135.037567 526.730591,139.896118 
	C521.035706,147.927078 514.521545,155.297867 507.824097,162.486008 
	C490.542908,181.033340 472.812408,199.097855 451.327667,212.947067 
	C444.997467,217.027542 438.214783,220.212692 431.175232,222.821945 
	C428.858765,223.680542 426.354218,224.100189 423.899841,224.500854 
	C420.841034,225.000183 418.097839,224.220047 416.868652,221.121735 
	C415.562775,217.830078 417.023834,215.253540 419.833618,213.450195 
	C425.861023,209.581833 432.083374,206.000534 437.967194,201.927933 
	C463.014862,184.590591 485.068542,164.351288 500.024109,137.287552 
	C503.292358,131.373322 505.039520,124.989647 506.667694,118.522545 
	C508.989899,109.298996 514.445740,107.332611 522.057922,112.856796 
	C525.673523,115.480606 528.172180,118.939697 530.143066,123.327072 
z"/>
<path fill="#000000" opacity="1.000000" stroke="none" 
	d="
M168.093170,430.126404 
	C171.934448,429.909607 175.242737,430.478241 178.273239,431.928009 
	C183.337265,434.350586 188.561417,434.342957 193.910202,433.524078 
	C212.976730,430.605011 232.010300,427.913208 251.448730,428.816742 
	C265.327271,429.461823 278.180634,433.784485 291.192108,437.764923 
	C293.870331,438.584229 294.245087,439.326599 296.182495,442.220337 
	C295.121826,444.467926 292.823669,444.001648 291.001190,444.454315 
	C277.085358,447.910461 262.881561,447.038544 248.741058,447.246796 
	C218.585464,447.690857 188.523270,445.350403 158.413788,444.497986 
	C150.587738,444.276428 146.809860,440.282562 143.500473,433.682617 
	C151.468185,430.681213 159.695084,431.227509 168.093170,430.126404 
z"/>
<path fill="#000000" opacity="1.000000" stroke="none" 
	d="
M345.179352,443.167816 
	C338.870972,443.776611 332.988770,445.111023 326.502716,442.698181 
	C329.983704,439.230896 329.452332,436.242401 325.926544,433.465240 
	C330.233734,431.080261 334.440765,431.913208 338.458984,431.921234 
	C347.806061,431.939880 356.893799,434.360443 366.152039,435.300323 
	C367.794067,435.467010 370.248199,435.714935 370.189056,438.159637 
	C370.139252,440.219849 367.932068,440.369537 366.409241,440.799713 
	C359.621216,442.717407 352.557953,442.312256 345.179352,443.167816 
z"/>
</svg>