<svg version="1.1" id="Layer_1" xmlns="http://www.w3.org/2000/svg" xmlns:xlink="http://www.w3.org/1999/xlink" x="0px" y="0px"
	 width="100%" viewBox="0 0 400 496" enable-background="new 0 0 400 496" xml:space="preserve">
<path fill="#000000" opacity="1.000000" stroke="none" 
	d="
M401.000000,467.750000 
	C395.779114,471.635345 389.527588,472.033508 383.611755,473.435150 
	C382.130920,473.786011 380.625061,472.827911 379.561768,471.776550 
	C376.943726,469.187836 373.748657,467.922455 370.217773,467.463135 
	C366.617554,466.994781 364.739227,465.096619 365.042053,461.469910 
	C365.644287,454.258301 361.845184,449.575043 356.396301,445.699158 
	C351.800262,442.429901 346.775360,439.647003 343.556122,434.747864 
	C343.294495,434.349701 342.855774,433.856476 342.444733,433.799133 
	C334.153687,432.643097 331.761505,426.946838 331.374115,419.623260 
	C331.343811,419.050842 330.812134,418.504944 329.886566,416.774872 
	C328.290161,421.771240 328.702179,425.946075 328.360199,429.939331 
	C328.126221,432.671539 328.466919,435.277832 325.125854,436.414398 
	C323.263000,437.048126 323.043182,438.926697 322.894714,440.576843 
	C322.328552,446.869934 321.639099,453.163452 321.407074,459.471924 
	C321.174683,465.790955 325.779236,469.322449 330.304871,472.365662 
	C333.425476,474.464020 337.184204,475.640717 340.714966,477.089783 
	C342.378082,477.772308 343.825134,478.598114 343.841675,480.525543 
	C343.858734,482.516388 342.324127,483.487793 340.634735,483.840698 
	C335.494690,484.914459 330.435516,486.770630 325.108002,484.040558 
	C321.525055,482.204498 317.381134,482.144287 313.403717,481.756805 
	C309.947693,481.420105 308.078552,479.576202 308.759247,476.116852 
	C310.991302,464.772980 308.362122,454.030823 305.284210,443.252197 
	C304.529449,440.609039 304.807129,437.635101 304.836456,434.815552 
	C304.859528,432.595642 304.626801,430.594604 303.345428,428.656250 
	C300.974884,425.070160 301.149384,421.391083 303.715240,417.944885 
	C308.424561,411.619720 309.925964,404.610046 309.112274,396.795197 
	C308.756683,393.380066 307.661163,391.830811 304.267120,392.317505 
	C301.058563,392.777618 298.012360,392.436218 295.003632,391.171509 
	C290.053406,389.090729 288.945740,384.519836 293.120575,381.259857 
	C297.345673,377.960571 297.258392,373.277557 297.488708,369.022034 
	C298.029968,359.020935 300.180756,349.617157 305.156372,340.894562 
	C306.387146,338.736877 305.341644,336.673004 305.169434,334.473267 
	C304.375488,324.329926 295.812256,319.034943 291.253204,311.362915 
	C288.827118,307.280273 283.389465,303.966064 278.034180,302.404999 
	C269.374115,299.880524 261.765106,288.532318 262.885529,279.742645 
	C263.327698,276.273773 265.849396,274.800537 268.395050,273.143585 
	C273.853607,269.590607 280.012024,267.587158 286.041962,265.449860 
	C289.800201,264.117737 290.962097,262.088593 290.723297,258.449036 
	C290.560425,255.966797 290.713135,253.453629 290.867004,250.963074 
	C291.149292,246.394699 296.202637,241.501587 300.714844,241.373428 
	C304.591125,241.263336 308.234955,240.362366 311.667664,238.522324 
	C315.293152,236.578888 320.731812,238.351334 322.458252,242.072540 
	C323.270630,243.823517 324.674072,244.960129 326.040405,246.164230 
	C332.241516,251.629150 333.671753,256.764771 330.757111,264.453552 
	C329.652069,267.368622 329.018707,269.889282 330.585724,272.987946 
	C332.139496,276.060425 329.307434,279.890350 325.242340,280.929413 
	C322.415070,281.652100 318.618103,281.342621 317.967377,285.004211 
	C317.290009,288.815735 321.463623,289.083405 323.647461,290.297974 
	C329.189209,293.380157 334.487183,296.427185 338.330353,301.797119 
	C341.332947,305.992554 346.792542,306.940948 351.157104,309.093811 
	C360.069275,313.489807 360.149353,319.300903 357.931091,325.922302 
	C356.001617,331.681580 347.754425,333.780426 340.820068,330.991547 
	C340.399841,330.822571 339.880066,330.901093 339.140472,330.843872 
	C337.771820,334.975189 336.739716,338.930206 337.872986,343.404541 
	C338.803894,347.080139 339.005890,350.966980 339.274689,354.778259 
	C339.889130,363.489929 341.984619,371.407593 349.209595,377.265778 
	C352.863556,380.228455 352.887360,383.739960 348.972748,386.234039 
	C345.601471,388.381958 345.812714,390.465637 347.503937,393.132355 
	C351.422577,399.311371 351.978485,407.507294 359.237976,411.771027 
	C361.314484,412.990662 360.371094,416.115814 359.902802,418.369934 
	C359.453979,420.530273 359.112518,422.471436 360.283813,424.617310 
	C366.954590,436.838501 375.679901,447.438934 385.508453,457.207794 
	C388.227112,459.909882 391.898010,460.717285 395.174011,462.287506 
	C397.322083,463.317078 399.380371,464.284729 400.789612,466.732025 
	C401.000000,467.000000 401.000000,467.500000 401.000000,467.750000 
M346.145905,378.818146 
	C340.226440,375.833252 334.240112,373.246063 327.317963,374.425873 
	C324.572784,374.893738 322.296143,376.089966 320.293243,377.929565 
	C319.357544,378.789001 317.757599,379.503876 318.722412,381.110626 
	C319.772705,382.859650 321.363190,382.167023 322.662354,381.365051 
	C325.121918,379.846680 327.695068,379.602753 330.198975,380.871948 
	C331.658386,381.611755 332.818604,381.127380 333.998871,380.665802 
	C337.154846,379.431610 339.847809,379.312012 342.775665,381.752625 
	C344.690704,383.348938 347.562103,383.803314 346.145905,378.818146 
z"/>
<path fill="#000000" opacity="1.000000" stroke="none" 
	d="
M247.593170,64.170700 
	C248.265686,59.318466 246.190582,56.517284 242.773651,53.605839 
	C233.894028,46.039852 236.657440,30.737206 245.343658,25.466406 
	C247.140884,24.375860 247.821411,23.336634 247.318954,21.052023 
	C246.047394,15.270555 250.757721,10.674567 256.527496,12.106956 
	C260.455780,13.082186 263.990814,15.467443 265.812164,18.988935 
	C267.145630,21.567095 268.805573,22.266300 271.180176,22.530777 
	C275.807922,23.046206 280.474701,23.314831 285.060150,24.077719 
	C289.910431,24.884676 290.840607,26.622959 288.457306,30.778645 
	C286.806335,33.657375 288.208496,34.571960 290.327820,35.735004 
	C293.804840,37.643154 297.926727,37.343399 301.516998,38.611267 
	C301.247345,41.166222 299.476105,42.020424 298.063873,42.335594 
	C292.407471,43.597935 292.240143,47.518372 292.760559,52.050076 
	C293.079498,54.826973 294.745758,56.576572 297.220154,56.613747 
	C304.225464,56.718998 310.456787,59.624920 316.751190,61.927212 
	C328.598083,66.260429 339.837250,71.976181 349.437866,80.360748 
	C356.693268,86.697136 361.052094,94.761475 364.187927,103.923409 
	C369.293213,118.839325 371.705231,134.281616 373.641754,149.723282 
	C374.878845,159.587921 376.081390,169.139587 381.084503,177.859467 
	C381.826813,179.153244 382.551422,180.524841 383.576569,181.574997 
	C385.952179,184.008469 386.158508,186.194702 384.000885,189.022995 
	C381.499969,192.301270 382.387177,193.989517 386.474487,194.617142 
	C387.622223,194.793381 388.920563,194.576965 389.915558,195.041962 
	C392.241211,196.128891 394.240509,197.715698 394.162354,200.646317 
	C394.082947,203.625031 391.797882,204.559860 389.442932,204.920135 
	C387.162659,205.268982 384.747498,205.451691 382.487854,205.095947 
	C372.751740,203.563217 363.277618,205.520432 353.858459,207.296829 
	C347.373627,208.519852 340.940643,208.296173 334.461365,208.265717 
	C333.643677,208.261856 332.808594,208.042038 331.970093,205.755615 
	C351.290649,204.150665 369.950256,199.912949 389.510132,200.689957 
	C384.673035,197.555756 377.855377,198.126984 377.221649,190.511749 
	C372.695282,192.047348 368.777008,193.258133 364.948090,194.705322 
	C360.059906,196.552872 355.101990,196.270432 350.211670,195.162247 
	C347.899200,194.638199 345.643982,194.320145 343.317596,194.391006 
	C334.316101,194.665222 325.430267,193.308182 316.512543,192.462204 
	C314.192688,192.242126 312.192047,192.692413 310.364990,193.933762 
	C306.612244,196.483490 306.855988,200.738297 311.023987,202.520798 
	C315.353546,204.372330 320.111664,204.298553 324.724731,204.828918 
	C326.692719,205.055206 329.112427,204.289856 330.312561,206.870697 
	C325.377472,209.583099 310.681091,208.544174 306.878479,205.328812 
	C303.210938,202.227661 302.393433,195.564758 306.758423,192.510345 
	C314.710114,186.946121 313.916473,178.807648 314.499847,171.235229 
	C315.662140,156.148727 316.026367,141.000717 316.718964,125.878044 
	C316.741821,125.378967 316.823669,124.868729 316.753754,124.381523 
	C316.336182,121.471436 317.170410,117.737694 314.590790,116.005882 
	C311.827057,114.150429 310.090363,117.889450 307.864502,119.019669 
	C302.041046,121.976585 296.349060,125.139206 289.462799,124.211220 
	C285.716614,123.706390 283.678894,125.557564 282.153534,128.831268 
	C279.697388,134.102509 278.852081,134.224060 273.991272,131.150818 
	C270.242279,128.780533 268.881897,129.353195 267.974976,133.869965 
	C267.484406,136.313004 267.309509,138.817902 266.868011,141.272552 
	C265.253845,150.247070 259.250427,153.397385 250.893494,149.598343 
	C249.111008,148.788025 247.399017,148.820557 245.546799,149.019836 
	C238.476852,149.780457 231.874908,145.348663 230.209930,138.384674 
	C229.091904,133.708450 228.220474,128.923859 229.453217,124.053741 
	C229.775070,122.782173 229.860855,121.402992 229.790451,120.087410 
	C229.106354,107.304260 232.286179,95.366409 237.520203,83.844276 
	C239.745193,78.946228 245.973343,75.965324 251.128525,77.672974 
	C255.120651,78.995346 258.834320,81.544456 263.373444,79.141182 
	C264.233490,78.685822 265.975281,79.482033 267.128143,80.062431 
	C273.376617,83.208183 279.774750,82.286018 286.170319,80.856422 
	C288.458557,80.344940 290.895966,79.583786 290.762177,76.502739 
	C290.637360,73.628448 288.197083,73.198318 286.117584,72.847038 
	C280.299500,71.864204 274.481445,72.373055 269.024536,74.481995 
	C260.973114,77.593681 257.719208,76.670250 253.150146,69.286530 
	C251.853241,67.190704 248.502151,67.294235 247.593170,64.170700 
M341.919495,87.818146 
	C343.276947,87.445129 344.716766,86.338898 346.118988,88.697250 
	C343.434479,94.137482 335.156982,91.629715 332.262299,97.240074 
	C335.585205,98.730011 341.228882,98.322998 346.530426,96.455452 
	C353.727264,93.920242 354.342010,91.958282 349.634491,86.191414 
	C348.595123,84.918129 347.409210,83.722122 346.125732,82.697243 
	C336.864502,75.302116 326.755707,69.431740 315.415009,65.799294 
	C312.402710,64.834450 310.350800,64.788109 310.070953,68.957085 
	C309.792938,73.099075 309.090088,77.805237 306.130524,80.566933 
	C297.710266,88.424232 287.545349,92.349556 275.991730,89.325447 
	C271.342712,88.108582 267.999786,87.932709 265.472565,92.433258 
	C265.318085,92.708366 264.604736,92.669647 263.943237,92.826233 
	C262.424988,90.312347 262.596436,86.109985 258.160828,86.486618 
	C255.468811,86.715195 247.629562,94.440598 247.059753,97.239212 
	C245.651520,104.155838 245.926483,111.170517 246.033569,118.147118 
	C246.188416,128.235153 251.587585,136.031113 257.942566,143.198441 
	C260.400970,145.971161 262.498047,144.692902 263.190857,141.477661 
	C263.817291,138.570404 263.818726,135.533524 264.346771,132.598984 
	C265.513855,126.113129 267.171082,125.016243 273.539001,126.217316 
	C275.292053,126.547966 277.292694,127.634392 278.555023,125.614494 
	C281.774384,120.462967 286.915771,120.161972 292.126953,119.873825 
	C294.602722,119.736931 297.028931,119.719879 299.459503,118.752754 
	C313.236633,113.270927 321.441101,102.962418 325.909363,89.152954 
	C326.999023,85.785255 328.715729,82.583191 331.237701,80.172424 
	C333.734833,80.915504 332.458679,83.932739 335.292450,84.662567 
	C337.114136,85.306343 339.159119,81.095215 341.694275,83.576683 
	C342.457855,86.086021 339.247162,86.291985 339.450684,88.599380 
	C340.171844,88.398407 340.759735,88.234573 341.919495,87.818146 
M334.554352,126.937355 
	C333.716675,127.609489 333.279785,128.523834 333.324921,129.555801 
	C333.644623,136.861908 333.965698,144.168564 334.387329,151.469208 
	C334.495789,153.346771 335.896667,154.253891 337.571106,154.914124 
	C339.996429,155.870438 340.335907,157.126068 338.616730,159.445175 
	C336.100494,162.839523 338.735962,175.009033 342.169403,177.327774 
	C342.567291,177.596497 343.091156,177.838684 343.551971,177.830521 
	C352.615204,177.669739 361.866913,179.632507 370.518799,174.992645 
	C373.295441,173.503571 374.331177,172.273743 372.386536,169.272018 
	C370.836487,166.879440 370.821442,163.875061 370.711914,161.049606 
	C370.094452,145.122192 365.511475,129.793564 363.599579,114.056793 
	C363.230042,111.015045 361.603882,107.744888 357.544708,110.018166 
	C353.581085,112.237923 349.497833,113.961586 345.126740,115.062988 
	C343.039856,115.588837 342.117950,116.740334 342.203522,118.988983 
	C342.465210,125.864502 342.405426,125.866776 334.554352,126.937355 
M294.876495,70.029350 
	C297.103485,70.537743 298.923309,70.132339 299.551483,67.639412 
	C300.148865,65.268684 299.365143,63.370209 297.215302,62.121864 
	C289.499878,57.641796 283.425385,51.840775 281.076202,42.819946 
	C280.728577,41.484978 279.507080,40.292717 278.475006,39.246387 
	C277.569916,38.328777 276.421356,37.352791 274.944702,38.056431 
	C273.496490,38.746494 273.438293,39.982430 273.699799,41.455170 
	C274.136871,43.916500 273.592346,46.455166 271.230835,47.428692 
	C268.473053,48.565590 266.637970,46.398048 265.028320,44.399723 
	C261.898376,40.513985 258.806152,36.596146 255.594894,32.778576 
	C254.418411,31.379936 252.944550,29.971216 250.900314,30.476498 
	C247.671814,31.274492 244.124207,32.006496 242.936996,35.693432 
	C241.636246,39.733009 241.051788,43.891273 243.695572,48.269058 
	C244.964111,46.740723 245.759827,45.704025 246.639343,44.744125 
	C247.541428,43.759579 248.541473,42.630669 250.038208,43.440296 
	C251.558212,44.262512 251.024719,45.680603 250.754608,46.991978 
	C250.520996,48.126122 250.282608,49.280418 250.251205,50.431393 
	C250.119110,55.274429 252.159714,56.876755 256.679565,55.368881 
	C258.044617,54.913475 259.400787,53.410751 260.399353,55.554787 
	C261.179169,57.229221 259.665009,58.279911 258.757568,59.418907 
	C257.346069,61.190525 254.266327,60.354416 252.910095,62.947422 
	C255.005676,64.264999 257.266449,64.266556 259.182953,64.946358 
	C263.465973,66.465591 267.676483,69.261665 272.641083,67.759674 
	C280.098755,65.503426 287.059113,68.328896 294.876495,70.029350 
M336.673096,186.950790 
	C330.703888,186.538956 324.740601,184.382202 318.067657,186.171768 
	C324.721130,193.060867 367.242310,193.510529 373.859711,187.284668 
	C371.107819,185.760468 368.375000,186.346161 365.640686,186.827286 
	C356.292389,188.472183 346.929199,189.063492 336.673096,186.950790 
M346.544922,100.356468 
	C345.577209,102.574783 347.520142,103.784622 348.009033,105.445869 
	C353.909637,104.492317 355.105164,103.213371 355.091248,97.539902 
	C352.338928,98.402443 349.724701,99.221710 346.544922,100.356468 
M261.394318,21.980442 
	C260.752838,18.081352 257.307648,17.539829 254.477951,16.443283 
	C253.487396,16.059433 252.127319,16.778805 251.619888,17.940767 
	C251.008362,19.341089 251.634720,20.655760 252.798874,21.388849 
	C255.320618,22.976849 257.968140,24.387613 261.394318,21.980442 
z"/>
<path fill="#000000" opacity="1.000000" stroke="none" 
	d="
M40.976364,419.178101 
	C37.340878,419.931396 33.383377,423.712677 30.998800,420.556458 
	C28.329559,417.023438 33.545059,414.810791 35.379936,412.254242 
	C38.453583,407.971649 42.849079,404.769318 46.624165,401.059570 
	C55.824982,392.018066 62.751369,381.152252 71.219261,371.536774 
	C73.775291,368.634369 74.566299,364.028534 80.348785,364.761536 
	C77.082199,363.186615 78.318642,361.435211 79.570679,359.772278 
	C89.303886,346.844818 94.096054,331.054016 103.968651,318.115265 
	C107.465408,313.532501 109.765076,307.621918 110.838188,301.652679 
	C111.552406,297.679871 113.933212,294.656250 116.135895,291.577759 
	C118.305412,288.545654 121.224960,289.549683 123.611511,291.362885 
	C128.762405,295.276428 133.254929,300.047272 139.139343,303.009888 
	C140.821838,303.856934 141.020386,305.366455 139.671188,306.715027 
	C133.271072,313.112152 131.689529,322.413666 126.129227,329.243011 
	C121.423859,335.022339 118.172920,341.679962 113.988747,347.745758 
	C108.967590,355.024994 108.675728,356.743042 114.656731,364.420807 
	C119.304504,370.387115 124.782410,375.400330 132.672150,376.947388 
	C136.404572,377.679230 139.051666,380.419708 141.770767,382.878052 
	C143.375046,384.328461 144.672562,386.464813 146.541595,387.220703 
	C161.001266,393.068878 173.872681,402.565765 189.183594,406.322235 
	C199.015839,408.734497 208.702698,411.466217 218.149750,415.069824 
	C219.702637,415.662170 221.215332,416.374695 222.703201,417.118500 
	C224.214050,417.873840 225.799286,418.779785 225.790604,420.696381 
	C225.781067,422.793396 223.810516,423.270630 222.334610,423.812347 
	C214.073410,426.844513 205.879776,429.883575 196.726166,429.154999 
	C190.105164,428.628021 183.405396,428.917480 176.746689,429.082306 
	C168.867523,429.277283 162.140823,427.004700 156.535477,421.233185 
	C148.894348,413.365601 140.855865,405.941223 131.282257,400.359558 
	C129.771408,399.478729 128.692566,397.809998 127.506821,396.425964 
	C119.224457,386.758850 107.840080,380.650970 99.031853,371.579956 
	C96.925583,369.410889 94.861015,370.696564 93.559212,372.583649 
	C82.798401,388.182220 67.275917,398.794250 53.402229,411.130066 
	C49.772308,414.357605 45.739906,416.992889 40.976364,419.178101 
z"/>
<path fill="#000000" opacity="1.000000" stroke="none" 
	d="
M146.298141,103.306946 
	C140.267120,109.778717 134.912399,116.198860 131.245270,124.066666 
	C128.780487,129.354858 128.768127,134.838593 128.603165,140.170532 
	C128.234802,152.078461 125.011955,163.831741 126.236511,175.734192 
	C127.000031,183.155457 122.529526,189.042191 121.763443,195.971695 
	C121.456245,198.750397 117.925385,199.159821 115.153267,199.361115 
	C112.369972,199.563217 110.248627,198.746750 108.978027,196.155777 
	C107.819725,193.793793 107.247467,190.950745 108.490555,188.911942 
	C110.808342,185.110504 110.149803,181.218292 110.018295,177.306747 
	C109.398819,158.880630 112.315842,141.014175 117.258774,123.274750 
	C119.439453,115.448593 124.336014,109.989265 129.264465,104.274971 
	C133.269043,99.631859 137.549957,95.317902 140.183258,89.555496 
	C142.028061,85.518555 141.802032,82.127174 140.286957,78.120392 
	C138.127533,72.409630 133.542297,68.769806 129.772034,64.449570 
	C127.909431,62.315277 125.816185,63.552605 124.254646,65.399200 
	C116.816544,74.195122 108.211128,81.765091 99.583328,89.345718 
	C96.869179,91.730453 94.005882,93.437996 90.714096,94.658592 
	C88.641106,95.427254 86.784592,95.249756 85.234879,93.557999 
	C83.560822,91.730492 83.408096,89.586113 84.514473,87.531853 
	C87.948730,81.155342 92.235878,75.606674 98.590744,71.678719 
	C104.350967,68.118301 110.363266,64.732986 114.105690,58.639725 
	C117.040749,53.860981 116.718262,51.465595 112.049095,48.200459 
	C107.667900,45.136707 103.187561,42.156055 100.672356,37.234081 
	C99.562561,35.062325 98.267052,32.594208 100.409172,30.276834 
	C102.432678,28.087761 104.888054,28.619843 107.352707,29.508547 
	C115.877144,32.582302 122.757767,38.244156 128.875000,44.531815 
	C136.935699,52.817081 146.132431,59.944962 153.060318,69.431282 
	C159.882904,78.773430 159.594589,90.366531 151.269363,98.592224 
	C149.728851,100.114311 148.119705,101.566940 146.298141,103.306946 
z"/>
<path fill="#000000" opacity="1.000000" stroke="none" 
	d="
M147.634766,457.405609 
	C151.364532,461.264832 156.092743,462.976562 160.620377,465.317444 
	C156.393402,468.774200 151.956711,468.437775 149.145996,464.862244 
	C143.953018,458.256226 139.831696,457.775055 133.542618,463.063995 
	C132.273254,464.131470 130.928589,465.742523 129.257812,464.356049 
	C127.399467,462.813873 129.054352,461.376221 130.104172,460.150177 
	C133.024124,456.740143 135.939102,453.322327 138.974594,450.016449 
	C140.248322,448.629272 141.893585,447.679565 143.879654,448.732758 
	C145.779266,449.740082 145.653442,451.157684 144.849548,452.947449 
	C143.773285,455.343536 146.185608,455.962128 147.634766,457.405609 
z"/>
<path fill="#000000" opacity="1.000000" stroke="none" 
	d="
M157.594543,194.310822 
	C151.433121,189.004059 147.667938,195.889252 143.040329,197.178207 
	C141.207855,194.102417 143.383636,192.626877 144.596039,191.130051 
	C146.882111,188.307663 149.332153,185.574310 152.009033,183.126556 
	C154.024551,181.283569 156.951187,181.859070 156.815018,184.511078 
	C156.472565,191.181168 162.044708,192.143570 165.705551,194.928970 
	C166.947296,195.873764 168.930145,195.789032 169.702072,197.549332 
	C165.768600,201.168701 162.486313,200.323669 157.594543,194.310822 
z"/>
</svg>