<svg version="1.1" id="Layer_1" xmlns="http://www.w3.org/2000/svg" xmlns:xlink="http://www.w3.org/1999/xlink" x="0px" y="0px"
	 width="100%" viewBox="0 0 208 288" enable-background="new 0 0 208 288" xml:space="preserve">
<path fill="#000000" opacity="1.000000" stroke="none" 
	d="
M141.026794,272.971008 
	C128.759827,277.083313 121.353096,270.950989 120.670250,256.117035 
	C120.211670,246.155121 120.383789,245.748718 129.498795,235.271332 
	C140.355637,243.411026 147.111237,241.463577 151.247055,234.747864 
	C153.002762,234.152618 154.271088,236.031784 156.366272,235.647476 
	C157.330002,233.602539 156.835510,231.467178 156.309845,229.385742 
	C154.623383,228.840271 152.877563,229.271530 152.412552,230.245468 
	C150.145706,234.993317 144.336044,232.710358 141.441132,236.041412 
	C141.194656,236.325012 140.368637,236.439880 140.020599,236.250183 
	C134.617645,233.305283 127.417519,233.401321 124.172981,226.780258 
	C122.428604,223.220520 122.615356,219.868744 125.406158,217.122375 
	C128.805084,213.777573 131.756729,216.240509 134.670029,218.369537 
	C133.916153,220.608658 130.441254,220.690262 130.603683,224.006866 
	C137.172180,221.858017 143.530273,223.942902 149.951691,224.175598 
	C148.223145,220.117172 144.144104,219.093201 140.163849,217.315964 
	C145.399673,218.862122 150.165161,217.377579 155.256485,215.351669 
	C157.671616,204.774323 157.958542,193.677673 157.423828,182.551941 
	C157.048569,174.743652 156.554199,166.923477 155.649796,159.162613 
	C154.507004,149.355988 157.573242,139.805008 156.810440,129.994873 
	C156.127823,121.216026 157.089890,112.332497 155.792145,103.557137 
	C154.292328,93.415131 157.006088,83.409416 156.648743,73.312309 
	C156.580139,71.373840 157.079330,69.344330 155.555969,66.671814 
	C147.261017,83.817230 139.960907,101.290169 121.173576,109.263336 
	C119.743111,106.987076 120.188232,105.399406 121.156075,103.969780 
	C133.875641,85.181335 139.589676,63.479355 146.846649,42.413628 
	C148.309387,38.167568 150.065826,34.022667 151.688187,29.831640 
	C152.722839,27.158876 154.772339,25.548288 157.335098,24.507536 
	C161.994675,22.615250 163.819092,23.658810 164.129776,28.649406 
	C164.277039,31.015062 164.978897,32.765606 167.105148,33.993332 
	C180.108826,41.501869 193.728714,44.056095 208.650452,39.145706 
	C209.000000,41.370556 209.000000,43.741116 209.000000,46.555840 
	C203.708939,49.424171 198.372894,51.755554 193.137100,54.293713 
	C184.784286,58.342899 177.026184,56.144478 169.355301,52.331726 
	C167.776459,51.546978 166.542450,49.898174 164.340439,50.293045 
	C162.600037,52.682255 163.451859,55.391964 163.596802,57.962818 
	C164.729660,78.058289 165.623657,98.116829 165.694214,118.293411 
	C165.795914,147.389114 164.758469,176.609085 167.803085,205.594070 
	C168.463806,211.884369 168.299545,217.950439 168.347626,224.125275 
	C168.455139,237.930099 167.611145,251.789597 171.165817,265.372681 
	C171.616821,267.096039 171.253082,269.023071 171.349289,270.851379 
	C171.455872,272.876556 170.650787,274.181335 168.543686,274.073639 
	C164.945663,273.889740 161.230804,275.190735 157.751373,273.249329 
	C157.215103,272.950134 156.226898,272.617584 155.923370,272.870758 
	C151.231064,276.784332 146.485870,273.894012 141.608429,272.806610 
	C143.081390,267.203857 147.977921,264.426056 152.283356,260.345886 
	C150.507568,259.786102 149.925186,259.538635 149.317673,259.420898 
	C143.396957,258.273499 142.941498,257.355225 145.263046,251.796204 
	C146.177750,249.605896 147.774490,247.477921 146.662689,244.469940 
	C143.297180,244.707153 140.079330,244.933960 136.741928,245.169189 
	C140.847763,253.994598 140.257645,255.556046 131.950928,258.297729 
	C132.531723,263.648254 138.555557,266.622650 138.280563,272.402832 
	C138.273636,272.548340 140.070938,272.779694 141.026794,272.971008 
z"/>
<path fill="#000000" opacity="1.000000" stroke="none" 
	d="
M54.825165,58.465118 
	C55.557690,70.376511 57.093929,81.855331 56.825607,93.291809 
	C56.079559,125.089844 57.581955,156.856979 57.561527,188.641678 
	C57.556957,195.750961 56.994503,203.284439 60.628120,210.098923 
	C61.819881,212.333954 59.101627,214.131866 59.205967,216.602951 
	C59.842712,231.682831 57.780910,246.907761 62.014393,261.790222 
	C62.924747,264.990509 62.675423,268.375000 62.077118,271.818604 
	C58.430145,272.940460 54.764954,272.301636 51.155918,272.299683 
	C48.603386,272.298279 47.727486,270.651917 47.997688,268.258820 
	C50.012508,250.414459 48.164280,232.709793 45.696995,215.078308 
	C45.111221,210.892334 47.660614,207.860352 47.952133,204.071701 
	C48.745960,193.754822 48.686562,183.492233 48.004276,173.156631 
	C47.312050,162.670364 45.854473,152.370850 47.178188,141.548325 
	C49.006001,126.604362 47.498634,111.284073 46.293484,96.191612 
	C45.624092,87.808609 47.880020,79.643517 47.037769,71.329178 
	C46.858162,69.556160 47.011593,67.749405 47.011593,64.425568 
	C37.779034,81.798241 31.327921,99.609421 12.550765,107.151901 
	C10.489770,105.097984 11.199748,103.312332 12.227151,101.804268 
	C23.366108,85.454048 28.898891,66.731293 35.057796,48.262814 
	C37.163219,41.949371 39.435032,35.689075 41.753925,29.450256 
	C42.753944,26.759766 44.280994,24.423750 47.136272,23.201683 
	C53.003654,20.690432 54.757523,21.653170 55.310650,27.950186 
	C55.520859,30.343267 56.702477,31.690016 58.833740,32.885632 
	C71.506233,39.994774 84.787544,41.482521 98.819984,38.021820 
	C101.199753,37.434921 104.885902,36.200867 105.966515,39.041973 
	C107.258652,42.439194 103.126099,42.864681 101.028381,44.117599 
	C95.310173,47.532963 89.331253,50.382832 83.113129,52.867691 
	C75.340317,55.973835 68.269829,54.603260 61.202393,51.109493 
	C59.458382,50.247349 57.968250,48.755371 55.816452,48.766109 
	C53.531857,51.743980 54.648235,54.931408 54.825165,58.465118 
z"/>
</svg>