<svg version="1.1" id="Layer_1" xmlns="http://www.w3.org/2000/svg" xmlns:xlink="http://www.w3.org/1999/xlink" x="0px" y="0px"
	 width="100%" viewBox="0 0 500 500" enable-background="new 0 0 500 500" xml:space="preserve">
<path fill="#9BD8ED" opacity="1.000000" stroke="none" 
	d="
M1.000000,244.000000 
	C1.000000,163.035797 1.000000,82.071609 1.000000,1.053706 
	C167.557175,1.053706 334.114380,1.053706 501.000000,1.053706 
	C501.000000,82.021141 501.000000,163.042725 500.593628,244.546478 
	C493.122040,244.538467 486.063019,243.823441 478.989685,243.629227 
	C473.326447,243.473755 467.646332,244.089005 461.972748,244.110794 
	C455.623291,244.135193 449.272888,243.779526 442.922516,243.765152 
	C434.907867,243.747025 426.889465,243.792267 418.878906,244.024567 
	C412.016602,244.223557 405.163086,244.724625 398.213440,244.652878 
	C396.464966,243.490540 394.810486,242.140640 393.152191,242.135956 
	C351.672607,242.019135 310.192627,242.044083 268.712738,242.044006 
	C266.976013,242.044006 265.239288,242.044022 263.032166,242.044022 
	C263.032166,199.358673 263.032166,157.472397 263.032166,115.502777 
	C254.806168,115.502777 247.066849,115.502777 238.895996,115.502777 
	C238.895996,157.720612 238.895996,199.624802 238.895996,242.043137 
	C236.687744,242.043137 234.908905,242.043167 233.130081,242.043152 
	C192.649704,242.042694 152.169296,242.027527 111.688995,242.088730 
	C109.821358,242.091553 107.954750,242.779526 105.677132,243.145401 
	C99.070129,243.635040 92.867996,244.595169 86.678398,244.520248 
	C74.824051,244.376801 62.980385,243.442841 51.125298,243.234283 
	C44.169525,243.111923 37.197441,243.702896 30.238287,244.076965 
	C26.700657,244.267105 23.170727,244.990692 19.645563,244.936523 
	C13.427047,244.840942 7.214846,244.334457 1.000000,244.000000 
M216.537659,86.976257 
	C207.547577,82.662392 198.304565,79.258575 187.558731,78.520363 
	C189.793182,89.925232 192.877884,100.105927 201.046524,108.039993 
	C206.573853,113.408615 212.891235,117.207764 220.731918,117.869774 
	C225.702927,118.289482 230.136917,117.006409 232.742371,112.412514 
	C235.412979,107.703766 234.950150,102.668999 231.301941,98.952705 
	C227.056503,94.628021 221.927765,91.170456 216.537659,86.976257 
z"/>
<path fill="#AA7B57" opacity="1.000000" stroke="none" 
	d="
M501.000000,344.000000 
	C501.000000,388.020905 501.000000,432.041779 500.579468,476.566956 
	C496.641174,477.797607 491.586884,473.235657 490.521973,478.594299 
	C484.391510,478.594299 478.939728,478.594299 471.916443,478.594299 
	C469.598480,477.369843 466.122467,476.735809 461.413300,478.628326 
	C458.849762,479.658539 454.562195,483.083374 450.450073,478.505096 
	C448.927643,476.810089 443.935730,478.231293 440.526154,478.231293 
	C438.918732,478.589874 437.211670,477.654205 435.643188,477.846832 
	C432.368683,478.248962 429.167358,479.246948 425.825317,479.541443 
	C425.714691,473.164215 425.714691,467.245697 425.714691,460.957916 
	C422.810883,460.957916 420.832794,460.957947 418.854675,460.957947 
	C368.920258,460.957977 318.985687,460.905365 269.051666,461.048340 
	C264.607056,461.061066 263.025757,460.067444 263.111145,455.304047 
	C263.409485,438.664581 263.195587,422.016449 263.235077,405.371735 
	C263.282074,385.571228 263.389740,365.770905 263.772736,345.890625 
	C270.798187,345.022247 277.523926,344.249237 284.244843,343.436615 
	C286.569641,343.155518 289.699768,341.657867 291.051331,342.645844 
	C295.541992,345.928253 299.673798,343.804291 304.052307,343.238373 
	C305.033447,343.111603 306.257385,344.863586 306.840485,345.328674 
	C310.651733,345.328674 313.952942,345.328674 317.836792,345.328674 
	C317.816498,345.364258 318.341949,344.442352 318.247559,344.607941 
	C322.240540,344.814514 326.209778,346.250519 328.442780,344.872742 
	C332.753845,342.212677 335.976318,342.605011 339.274994,345.602539 
	C343.770844,342.459351 345.127441,342.509125 349.652405,343.987152 
	C351.659393,344.642670 354.049652,344.161469 356.264893,344.127686 
	C357.457001,344.109497 358.647034,343.861664 359.837708,343.864044 
	C363.927429,343.872223 368.017517,343.918945 372.106506,343.998932 
	C379.971924,344.152740 387.836090,344.383514 395.702026,344.487366 
	C398.290131,344.521545 400.899933,344.408508 403.467316,344.096039 
	C406.014465,343.786011 408.452881,342.416962 410.711456,345.263336 
	C411.341095,346.056854 414.419708,346.143311 415.206635,345.368164 
	C419.250366,341.385223 422.938568,342.751556 426.856995,344.790039 
	C430.400024,344.390991 433.859192,344.857391 437.333984,345.096741 
	C439.799408,345.266510 442.285980,345.129639 444.763092,345.129639 
	C444.795410,344.641968 444.827698,344.154266 444.860016,343.666595 
	C446.156647,344.331116 447.493958,345.628967 448.742706,345.548737 
	C453.704071,345.229767 458.627441,344.354218 463.586426,343.948090 
	C465.811829,343.765839 468.088074,344.204041 470.341248,344.360687 
	C473.657501,344.522186 477.179413,343.302277 480.372131,343.885254 
	C487.313629,345.152679 494.104431,346.080231 501.000000,344.000000 
z"/>
<path fill="#AB7B57" opacity="1.000000" stroke="none" 
	d="
M0.999999,477.000000 
	C1.000000,433.312439 1.000000,389.624878 1.232044,345.273071 
	C4.181891,344.632996 6.899658,344.663330 9.617508,344.679352 
	C11.479402,344.690308 13.341412,344.681427 15.774153,344.681427 
	C21.243181,347.248383 26.824541,345.663696 32.121746,342.345245 
	C33.309299,343.330261 34.213486,344.657440 35.371639,344.938629 
	C39.848301,346.025604 44.345360,347.092346 48.970287,345.132263 
	C50.808125,344.353363 52.981987,344.014954 54.988045,344.065399 
	C58.243923,344.147278 61.482754,344.958221 64.737495,345.022919 
	C70.354080,345.134521 75.977356,344.909668 81.597816,344.826019 
	C82.873466,344.246399 84.175835,345.249298 85.570786,345.400970 
	C87.410309,345.601044 89.342026,345.247833 91.199951,344.931732 
	C98.024124,343.770660 105.191856,348.034088 111.923714,343.343048 
	C113.241806,342.424530 116.206024,343.160950 118.093330,343.921936 
	C121.446960,345.274139 124.524231,346.095062 127.907997,344.088501 
	C128.989166,343.447327 130.606659,342.921875 131.713974,343.246582 
	C137.241135,344.867249 142.828583,345.599396 148.442200,344.299347 
	C158.199570,342.039642 168.124954,347.101349 177.837280,343.457214 
	C178.636871,343.157227 179.765640,343.790771 180.750732,343.919586 
	C185.669785,344.562592 190.700790,349.326447 195.495087,343.523163 
	C195.732376,343.235931 196.754959,343.699890 197.388046,343.621582 
	C204.483551,342.743469 211.566803,346.132019 218.669693,343.688416 
	C218.916901,343.603333 219.427261,343.718842 219.546844,343.909241 
	C223.025620,349.448029 226.064148,346.005981 229.139374,343.252441 
	C229.223007,343.794434 229.306641,344.336456 229.390274,344.878479 
	C232.449066,344.564636 235.507874,344.250793 238.690247,344.395508 
	C238.813828,383.416321 238.813828,421.978577 238.813828,461.054077 
	C185.050842,461.054077 131.995560,461.054077 78.130371,461.054077 
	C78.130371,466.669189 78.130371,471.778076 77.756638,476.906036 
	C76.011536,477.757935 74.733116,478.916626 73.245255,479.340942 
	C71.392815,479.869324 68.346359,480.676514 67.600792,479.816193 
	C64.947075,476.753876 62.062256,478.279877 59.094574,477.935486 
	C55.630585,477.533508 52.616486,476.206940 50.647285,479.336517 
	C47.572651,478.184998 44.981186,476.383331 42.477596,476.498108 
	C39.674595,476.626648 36.951187,478.490967 33.600391,479.838379 
	C33.257465,479.527740 32.192425,478.563019 31.011221,477.493073 
	C30.235767,478.606812 29.591259,479.532501 29.009859,480.367523 
	C27.534969,478.820984 26.335775,477.563507 24.788370,475.940948 
	C24.080976,476.915375 23.805706,477.624146 23.288872,477.951477 
	C20.521505,479.703918 17.526533,483.988342 15.230802,477.354706 
	C15.094230,476.960052 12.613961,476.878967 11.627326,477.406219 
	C10.482191,478.018127 9.782412,479.463440 9.776444,479.470673 
	C6.138402,478.446533 3.569199,477.723267 0.999999,477.000000 
z"/>
<path fill="#CAA384" opacity="1.000000" stroke="none" 
	d="
M238.566666,343.936951 
	C235.507874,344.250793 232.449066,344.564636 229.390274,344.878479 
	C229.306641,344.336456 229.223007,343.794434 229.139374,343.252441 
	C226.064148,346.005981 223.025620,349.448029 219.546844,343.909241 
	C219.427261,343.718842 218.916901,343.603333 218.669693,343.688416 
	C211.566803,346.132019 204.483551,342.743469 197.388046,343.621582 
	C196.754959,343.699890 195.732376,343.235931 195.495087,343.523163 
	C190.700790,349.326447 185.669785,344.562592 180.750732,343.919586 
	C179.765640,343.790771 178.636871,343.157227 177.837280,343.457214 
	C168.124954,347.101349 158.199570,342.039642 148.442200,344.299347 
	C142.828583,345.599396 137.241135,344.867249 131.713974,343.246582 
	C130.606659,342.921875 128.989166,343.447327 127.907997,344.088501 
	C124.524231,346.095062 121.446960,345.274139 118.093330,343.921936 
	C116.206024,343.160950 113.241806,342.424530 111.923714,343.343048 
	C105.191856,348.034088 98.024124,343.770660 91.199951,344.931732 
	C89.342026,345.247833 87.410309,345.601044 85.570786,345.400970 
	C84.175835,345.249298 82.873466,344.246399 81.597816,344.826019 
	C75.977356,344.909668 70.354080,345.134521 64.737495,345.022919 
	C61.482754,344.958221 58.243923,344.147278 54.988045,344.065399 
	C52.981987,344.014954 50.808125,344.353363 48.970287,345.132263 
	C44.345360,347.092346 39.848301,346.025604 35.371639,344.938629 
	C34.213486,344.657440 33.309299,343.330261 32.121746,342.345245 
	C26.824541,345.663696 21.243181,347.248383 15.774153,344.681427 
	C13.341412,344.681427 11.479402,344.690308 9.617508,344.679352 
	C6.899658,344.663330 4.181891,344.632996 1.232044,344.804382 
	C1.000000,326.312439 1.000000,307.624878 1.351203,288.531281 
	C3.323204,288.502502 4.959546,289.238281 6.560967,289.168823 
	C8.699006,289.076141 10.801044,288.067047 12.935348,288.001892 
	C14.609860,287.950745 16.636633,289.541260 17.943443,289.011780 
	C24.486317,286.360718 30.918724,287.985535 37.438107,288.712311 
	C40.934982,289.102142 44.494099,288.930298 48.024918,289.020111 
	C51.336876,289.104340 54.650509,289.306763 57.959602,289.246948 
	C59.791977,289.213806 62.399284,289.414948 63.298931,288.356201 
	C66.076263,285.087708 68.633560,287.014893 71.308388,287.937256 
	C72.345932,288.295074 73.303909,289.360779 74.279709,289.337341 
	C78.360352,289.239258 82.436516,288.880463 86.507973,288.540955 
	C87.284271,288.476227 88.178032,288.250977 88.767593,287.784088 
	C91.519234,285.604919 93.587143,285.806213 95.094215,288.617859 
	C97.341522,288.286621 99.404938,288.736725 101.492393,288.940491 
	C102.656395,289.054108 103.869820,288.818512 105.044571,288.635223 
	C108.480255,288.099213 112.768204,285.932190 115.173943,287.243927 
	C121.877419,290.898895 128.447021,287.267853 135.006607,288.175079 
	C137.066223,288.459900 138.972672,287.993103 141.214844,289.173218 
	C144.025970,290.652863 147.846695,292.846497 149.573044,287.626862 
	C154.237411,288.290741 158.657883,288.930023 163.085403,289.516174 
	C163.279236,289.541840 163.505936,288.925537 163.770859,288.871704 
	C165.568130,288.506500 167.370224,288.055206 169.189850,287.943970 
	C170.679077,287.852966 172.191849,288.274231 173.699234,288.329071 
	C177.850021,288.480011 182.105774,289.168915 185.712326,286.152618 
	C185.973663,285.934082 186.792953,286.057465 187.137665,286.312561 
	C192.284500,290.121307 197.936691,288.936096 203.657562,288.321350 
	C207.670197,287.890198 211.766541,288.238129 216.823227,288.238129 
	C216.685532,288.484863 217.274597,287.429321 217.268570,287.440155 
	C222.078629,288.167816 226.168320,289.468353 230.135483,289.165192 
	C233.162903,288.933868 235.948151,288.003571 238.774918,290.407532 
	C238.772614,308.559174 238.669647,326.248077 238.566666,343.936951 
z"/>
<path fill="#CAA384" opacity="1.000000" stroke="none" 
	d="
M501.000000,343.531342 
	C494.104431,346.080231 487.313629,345.152679 480.372131,343.885254 
	C477.179413,343.302277 473.657501,344.522186 470.341248,344.360687 
	C468.088074,344.204041 465.811829,343.765839 463.586426,343.948090 
	C458.627441,344.354218 453.704071,345.229767 448.742706,345.548737 
	C447.493958,345.628967 446.156647,344.331116 444.860016,343.666595 
	C444.827698,344.154266 444.795410,344.641968 444.763092,345.129639 
	C442.285980,345.129639 439.799408,345.266510 437.333984,345.096741 
	C433.859192,344.857391 430.400024,344.390991 426.856995,344.790039 
	C422.938568,342.751556 419.250366,341.385223 415.206635,345.368164 
	C414.419708,346.143311 411.341095,346.056854 410.711456,345.263336 
	C408.452881,342.416962 406.014465,343.786011 403.467316,344.096039 
	C400.899933,344.408508 398.290131,344.521545 395.702026,344.487366 
	C387.836090,344.383514 379.971924,344.152740 372.106506,343.998932 
	C368.017517,343.918945 363.927429,343.872223 359.837708,343.864044 
	C358.647034,343.861664 357.457001,344.109497 356.264893,344.127686 
	C354.049652,344.161469 351.659393,344.642670 349.652405,343.987152 
	C345.127441,342.509125 343.770844,342.459351 339.274994,345.602539 
	C335.976318,342.605011 332.753845,342.212677 328.442780,344.872742 
	C326.209778,346.250519 322.240540,344.814514 318.247559,344.607941 
	C318.341949,344.442352 317.816498,345.364258 317.836792,345.328674 
	C313.952942,345.328674 310.651733,345.328674 306.840485,345.328674 
	C306.257385,344.863586 305.033447,343.111603 304.052307,343.238373 
	C299.673798,343.804291 295.541992,345.928253 291.051331,342.645844 
	C289.699768,341.657867 286.569641,343.155518 284.244843,343.436615 
	C277.523926,344.249237 270.798187,345.022247 263.683929,345.430054 
	C263.369446,326.687927 263.445374,308.326599 263.866028,289.930847 
	C267.607239,289.067474 270.997650,287.609467 274.401917,287.576477 
	C278.238190,287.539307 282.070892,289.226257 285.934021,289.366211 
	C291.224884,289.557953 296.542694,288.992889 301.849457,288.764008 
	C304.442719,288.652191 307.041809,288.420197 309.630066,288.501831 
	C314.345428,288.650543 319.053192,289.132050 323.767273,289.182526 
	C325.556122,289.201691 327.353577,288.414185 329.147125,287.994385 
	C329.243134,288.343567 329.339172,288.692780 329.435181,289.041962 
	C330.223114,288.100159 331.011047,287.158356 331.799011,286.216553 
	C331.901672,286.644958 332.004303,287.073395 332.106964,287.501831 
	C334.302765,287.501831 336.498566,287.501831 340.093628,287.501831 
	C342.510010,289.264435 351.886414,289.385742 354.037628,286.679413 
	C358.208618,290.252045 360.992218,290.213989 364.393127,287.732513 
	C369.124756,288.472046 373.478058,290.525543 375.347351,289.165344 
	C379.535767,286.117676 382.518372,286.902893 385.976318,289.844513 
	C388.888214,286.126038 391.709015,284.492218 393.484924,288.724701 
	C403.411713,287.281128 412.527008,287.565552 422.527344,289.174316 
	C424.250763,287.091064 426.654846,283.851196 430.122467,289.104797 
	C430.676971,289.944855 433.464844,289.561279 435.169281,289.343872 
	C439.855927,288.746094 444.511444,287.907166 449.190918,287.246277 
	C449.777008,287.163513 450.422150,287.645447 451.058899,287.747986 
	C453.210022,288.094513 455.369690,288.387970 457.526093,288.701721 
	C457.610382,288.210052 457.694672,287.718384 457.778931,287.226715 
	C461.541748,288.901672 465.239258,291.270935 469.313446,287.924408 
	C469.801697,287.523376 470.848572,287.765656 471.636108,287.771271 
	C481.424133,287.840912 491.212036,287.921936 501.000000,288.000000 
	C501.000000,306.354218 501.000000,324.708466 501.000000,343.531342 
z"/>
<path fill="#C6A88E" opacity="1.000000" stroke="none" 
	d="
M0.999999,477.468689 
	C3.569199,477.723267 6.138402,478.446533 9.776444,479.470673 
	C9.782412,479.463440 10.482191,478.018127 11.627326,477.406219 
	C12.613961,476.878967 15.094230,476.960052 15.230802,477.354706 
	C17.526533,483.988342 20.521505,479.703918 23.288872,477.951477 
	C23.805706,477.624146 24.080976,476.915375 24.788370,475.940948 
	C26.335775,477.563507 27.534969,478.820984 29.009859,480.367523 
	C29.591259,479.532501 30.235767,478.606812 31.011221,477.493073 
	C32.192425,478.563019 33.257465,479.527740 33.600391,479.838379 
	C36.951187,478.490967 39.674595,476.626648 42.477596,476.498108 
	C44.981186,476.383331 47.572651,478.184998 50.647285,479.336517 
	C52.616486,476.206940 55.630585,477.533508 59.094574,477.935486 
	C62.062256,478.279877 64.947075,476.753876 67.600792,479.816193 
	C68.346359,480.676514 71.392815,479.869324 73.245255,479.340942 
	C74.733116,478.916626 76.011536,477.757935 77.834801,477.319885 
	C77.766563,481.141418 79.447273,481.837830 82.592850,481.835907 
	C195.472366,481.766876 308.351929,481.784729 421.231415,481.703339 
	C422.800018,481.702209 424.367828,480.592468 425.935974,480.000153 
	C429.167358,479.246948 432.368683,478.248962 435.643188,477.846832 
	C437.211670,477.654205 438.918732,478.589874 440.526154,478.231293 
	C443.935730,478.231293 448.927643,476.810089 450.450073,478.505096 
	C454.562195,483.083374 458.849762,479.658539 461.413300,478.628326 
	C466.122467,476.735809 469.598480,477.369843 471.916443,478.594299 
	C478.939728,478.594299 484.391510,478.594299 490.521973,478.594299 
	C491.586884,473.235657 496.641174,477.797607 500.579468,477.035583 
	C501.000000,484.993622 501.000000,492.987213 501.000000,500.959442 
	C334.333344,500.959442 167.666656,500.959442 1.000000,500.959442 
	C1.000000,493.258392 1.000000,485.597870 0.999999,477.468689 
z"/>
<path fill="#E5CBB0" opacity="1.000000" stroke="none" 
	d="
M238.674255,289.944733 
	C235.948151,288.003571 233.162903,288.933868 230.135483,289.165192 
	C226.168320,289.468353 222.078629,288.167816 217.268570,287.440155 
	C217.274597,287.429321 216.685532,288.484863 216.823227,288.238129 
	C211.766541,288.238129 207.670197,287.890198 203.657562,288.321350 
	C197.936691,288.936096 192.284500,290.121307 187.137665,286.312561 
	C186.792953,286.057465 185.973663,285.934082 185.712326,286.152618 
	C182.105774,289.168915 177.850021,288.480011 173.699234,288.329071 
	C172.191849,288.274231 170.679077,287.852966 169.189850,287.943970 
	C167.370224,288.055206 165.568130,288.506500 163.770859,288.871704 
	C163.505936,288.925537 163.279236,289.541840 163.085403,289.516174 
	C158.657883,288.930023 154.237411,288.290741 149.573044,287.626862 
	C147.846695,292.846497 144.025970,290.652863 141.214844,289.173218 
	C138.972672,287.993103 137.066223,288.459900 135.006607,288.175079 
	C128.447021,287.267853 121.877419,290.898895 115.173943,287.243927 
	C112.768204,285.932190 108.480255,288.099213 105.044571,288.635223 
	C103.869820,288.818512 102.656395,289.054108 101.492393,288.940491 
	C99.404938,288.736725 97.341522,288.286621 95.094215,288.617859 
	C93.587143,285.806213 91.519234,285.604919 88.767593,287.784088 
	C88.178032,288.250977 87.284271,288.476227 86.507973,288.540955 
	C82.436516,288.880463 78.360352,289.239258 74.279709,289.337341 
	C73.303909,289.360779 72.345932,288.295074 71.308388,287.937256 
	C68.633560,287.014893 66.076263,285.087708 63.298931,288.356201 
	C62.399284,289.414948 59.791977,289.213806 57.959602,289.246948 
	C54.650509,289.306763 51.336876,289.104340 48.024918,289.020111 
	C44.494099,288.930298 40.934982,289.102142 37.438107,288.712311 
	C30.918724,287.985535 24.486317,286.360718 17.943443,289.011780 
	C16.636633,289.541260 14.609860,287.950745 12.935348,288.001892 
	C10.801044,288.067047 8.699006,289.076141 6.560967,289.168823 
	C4.959546,289.238281 3.323204,288.502502 1.351203,288.062622 
	C1.000000,273.645782 1.000000,259.291534 1.000000,244.468658 
	C7.214846,244.334457 13.427047,244.840942 19.645563,244.936523 
	C23.170727,244.990692 26.700657,244.267105 30.238287,244.076965 
	C37.197441,243.702896 44.169525,243.111923 51.125298,243.234283 
	C62.980385,243.442841 74.824051,244.376801 86.678398,244.520248 
	C92.867996,244.595169 99.070129,243.635040 105.784302,243.587738 
	C106.302002,249.981781 106.302002,255.930481 106.302002,262.422089 
	C108.503403,262.422089 110.120659,262.422150 111.737923,262.422058 
	C151.137726,262.420227 190.537537,262.412384 229.937332,262.428986 
	C232.752853,262.430176 235.568298,262.610168 238.369431,262.960144 
	C238.536697,263.494659 238.718323,263.776093 238.906067,264.522522 
	C238.832870,273.306580 238.753555,281.625671 238.674255,289.944733 
z"/>
<path fill="#E4CBB0" opacity="1.000000" stroke="none" 
	d="
M501.000000,287.531372 
	C491.212036,287.921936 481.424133,287.840912 471.636108,287.771271 
	C470.848572,287.765656 469.801697,287.523376 469.313446,287.924408 
	C465.239258,291.270935 461.541748,288.901672 457.778931,287.226715 
	C457.694672,287.718384 457.610382,288.210052 457.526093,288.701721 
	C455.369690,288.387970 453.210022,288.094513 451.058899,287.747986 
	C450.422150,287.645447 449.777008,287.163513 449.190918,287.246277 
	C444.511444,287.907166 439.855927,288.746094 435.169281,289.343872 
	C433.464844,289.561279 430.676971,289.944855 430.122467,289.104797 
	C426.654846,283.851196 424.250763,287.091064 422.527344,289.174316 
	C412.527008,287.565552 403.411713,287.281128 393.484924,288.724701 
	C391.709015,284.492218 388.888214,286.126038 385.976318,289.844513 
	C382.518372,286.902893 379.535767,286.117676 375.347351,289.165344 
	C373.478058,290.525543 369.124756,288.472046 364.393127,287.732513 
	C360.992218,290.213989 358.208618,290.252045 354.037628,286.679413 
	C351.886414,289.385742 342.510010,289.264435 340.093628,287.501831 
	C336.498566,287.501831 334.302765,287.501831 332.106964,287.501831 
	C332.004303,287.073395 331.901672,286.644958 331.799011,286.216553 
	C331.011047,287.158356 330.223114,288.100159 329.435181,289.041962 
	C329.339172,288.692780 329.243134,288.343567 329.147125,287.994385 
	C327.353577,288.414185 325.556122,289.201691 323.767273,289.182526 
	C319.053192,289.132050 314.345428,288.650543 309.630066,288.501831 
	C307.041809,288.420197 304.442719,288.652191 301.849457,288.764008 
	C296.542694,288.992889 291.224884,289.557953 285.934021,289.366211 
	C282.070892,289.226257 278.238190,287.539307 274.401917,287.576477 
	C270.997650,287.609467 267.607239,289.067474 263.804688,289.467865 
	C263.398651,280.299469 263.398651,271.559662 263.398651,262.372284 
	C308.523407,262.372284 353.047516,262.372284 398.305664,262.372284 
	C398.305664,256.309845 398.305664,250.700958 398.305664,245.092087 
	C405.163086,244.724625 412.016602,244.223557 418.878906,244.024567 
	C426.889465,243.792267 434.907867,243.747025 442.922516,243.765152 
	C449.272888,243.779526 455.623291,244.135193 461.972748,244.110794 
	C467.646332,244.089005 473.326447,243.473755 478.989685,243.629227 
	C486.063019,243.823441 493.122040,244.538467 500.593628,245.014313 
	C501.000000,259.020905 501.000000,273.041779 501.000000,287.531372 
z"/>
<path fill="#030202" opacity="1.000000" stroke="none" 
	d="
M398.213440,244.652878 
	C398.305664,250.700958 398.305664,256.309845 398.305664,262.372284 
	C353.047516,262.372284 308.523407,262.372284 263.398651,262.372284 
	C263.398651,271.559662 263.398651,280.299469 263.459991,289.502258 
	C263.445374,308.326599 263.369446,326.687927 263.382324,345.509888 
	C263.389740,365.770905 263.282074,385.571228 263.235077,405.371735 
	C263.195587,422.016449 263.409485,438.664581 263.111145,455.304047 
	C263.025757,460.067444 264.607056,461.061066 269.051666,461.048340 
	C318.985687,460.905365 368.920258,460.957977 418.854675,460.957947 
	C420.832794,460.957947 422.810883,460.957916 425.714691,460.957916 
	C425.714691,467.245697 425.714691,473.164215 425.825317,479.541443 
	C424.367828,480.592468 422.800018,481.702209 421.231415,481.703339 
	C308.351929,481.784729 195.472366,481.766876 82.592850,481.835907 
	C79.447273,481.837830 77.766563,481.141418 78.208542,477.300842 
	C78.130371,471.778076 78.130371,466.669189 78.130371,461.054077 
	C131.995560,461.054077 185.050842,461.054077 238.813828,461.054077 
	C238.813828,421.978577 238.813828,383.416321 238.690247,344.395508 
	C238.669647,326.248077 238.772614,308.559174 238.774933,290.407532 
	C238.753555,281.625671 238.832870,273.306580 239.018707,264.250275 
	C238.878098,263.244354 238.630951,262.975677 238.383789,262.707031 
	C235.568298,262.610168 232.752853,262.430176 229.937332,262.428986 
	C190.537537,262.412384 151.137726,262.420227 111.737923,262.422058 
	C110.120659,262.422150 108.503403,262.422089 106.302002,262.422089 
	C106.302002,255.930481 106.302002,249.981781 106.194832,243.590759 
	C107.954750,242.779526 109.821358,242.091553 111.688995,242.088730 
	C152.169296,242.027527 192.649704,242.042694 233.130081,242.043152 
	C234.908905,242.043167 236.687744,242.043137 238.895996,242.043137 
	C238.895996,199.624802 238.895996,157.720612 238.895996,115.502777 
	C247.066849,115.502777 254.806168,115.502777 263.032166,115.502777 
	C263.032166,157.472397 263.032166,199.358673 263.032166,242.044022 
	C265.239288,242.044022 266.976013,242.044006 268.712738,242.044006 
	C310.192627,242.044083 351.672607,242.019135 393.152191,242.135956 
	C394.810486,242.140640 396.464966,243.490540 398.213440,244.652878 
z"/>
<path fill="#1C8650" opacity="1.000000" stroke="none" 
	d="
M216.860016,87.156418 
	C221.927765,91.170456 227.056503,94.628021 231.301941,98.952705 
	C234.950150,102.668999 235.412979,107.703766 232.742371,112.412514 
	C230.136917,117.006409 225.702927,118.289482 220.731918,117.869774 
	C212.891235,117.207764 206.573853,113.408615 201.046524,108.039993 
	C192.877884,100.105927 189.793182,89.925232 187.558731,78.520363 
	C198.304565,79.258575 207.547577,82.662392 216.860016,87.156418 
z"/>
<path fill="#827366" opacity="1.000000" stroke="none" 
	d="
M238.369446,262.960144 
	C238.630951,262.975677 238.878098,263.244354 239.012604,263.785278 
	C238.718323,263.776093 238.536697,263.494659 238.369446,262.960144 
z"/>
</svg>