<svg version="1.1" id="Layer_1" xmlns="http://www.w3.org/2000/svg" xmlns:xlink="http://www.w3.org/1999/xlink" x="0px" y="0px"
	 width="100%" viewBox="0 0 204 247" enable-background="new 0 0 204 247" xml:space="preserve">
<path fill="#36A3D9" opacity="1.000000" stroke="none" 
	d="
M117.000000,248.000000 
	C78.000000,248.000000 39.500004,248.000000 1.000005,248.000000 
	C1.000003,165.666672 1.000003,83.333351 1.000002,1.000016 
	C68.999992,1.000011 136.999985,1.000011 204.999969,1.000005 
	C204.999985,83.333321 204.999985,165.666641 205.000000,247.999969 
	C175.833328,248.000000 146.666672,248.000000 117.000000,248.000000 
M46.672318,61.745499 
	C46.109131,61.860870 45.545940,61.976238 44.218426,62.329067 
	C38.144104,63.678417 42.126965,67.847672 41.222580,71.162369 
	C53.779461,71.162369 65.726997,71.162369 78.472481,71.162369 
	C71.701408,98.161003 57.254318,119.656723 36.781086,137.944168 
	C39.348312,140.206451 41.687912,142.268158 43.879219,145.023895 
	C36.213856,164.656860 35.919659,184.391174 45.965549,203.009140 
	C59.207027,227.549438 88.812683,239.695557 117.070755,233.542740 
	C147.351685,226.949432 168.510422,201.299957 167.675980,170.427185 
	C167.417465,160.862473 163.715012,151.390854 161.787735,141.171707 
	C163.471848,138.734344 165.155960,136.296967 167.005417,133.620300 
	C150.187820,123.162239 136.123962,110.316727 125.828300,93.312309 
	C138.812531,82.587013 149.678238,70.411545 159.425858,56.910164 
	C156.707565,54.741688 154.443649,52.935677 152.675842,51.525436 
	C142.250549,62.951618 132.238464,73.924927 121.894608,85.261848 
	C109.516815,64.718521 103.276451,44.125111 106.861687,21.063389 
	C103.043144,21.063389 100.142029,21.063389 97.373543,21.063389 
	C96.854752,25.600851 96.372505,29.818747 95.461090,34.668251 
	C94.667305,39.447460 93.873520,44.226669 92.956474,49.798058 
	C92.282112,53.472050 91.607750,57.146046 90.605667,61.128468 
	C90.404060,61.359818 90.280952,61.627266 90.111588,62.621166 
	C90.072433,63.087044 90.033272,63.552921 89.640854,64.393967 
	C89.542236,64.878220 89.443611,65.362465 89.095482,66.452881 
	C88.997116,66.647987 88.898758,66.843102 88.191917,66.797989 
	C84.786003,63.288273 80.728500,61.927868 75.804596,62.433636 
	C72.921478,62.729786 69.957993,62.243423 66.368401,61.609661 
	C61.905163,61.770901 57.441925,61.932140 52.148228,62.315556 
	C50.438786,62.243492 48.729340,62.171425 46.672318,61.745499 
z"/>
<path fill="#93CED9" opacity="1.000000" stroke="none" 
	d="
M88.800392,67.038216 
	C88.898758,66.843102 88.997116,66.647987 89.357101,65.950256 
	C89.743843,64.971359 89.868973,64.495079 89.994110,64.018799 
	C90.033272,63.552921 90.072433,63.087044 90.326569,62.118324 
	C90.728951,61.378326 90.859558,61.113178 90.933395,60.820038 
	C91.607750,57.146046 92.282112,53.472050 93.365204,49.400612 
	C94.470230,49.004490 95.166519,49.005821 95.935318,49.311478 
	C96.022858,50.032654 96.037895,50.449509 96.138138,51.080162 
	C96.379799,51.562023 96.577202,51.795456 96.892395,52.457691 
	C96.913849,84.284340 96.858482,115.647552 96.620895,147.258362 
	C96.281380,148.301514 96.124100,149.097046 95.805206,150.257584 
	C88.049606,150.622574 80.455620,150.622574 72.504951,150.622574 
	C73.349571,153.526901 73.918983,156.136856 74.910461,158.575211 
	C75.310410,159.558807 76.614037,160.814072 77.540405,160.842621 
	C84.476654,161.056396 91.439827,161.311996 98.357315,160.911316 
	C103.320633,160.623810 105.912750,157.163132 106.491615,152.294342 
	C106.687523,150.646561 106.813904,148.979568 106.815292,147.321228 
	C106.833633,125.523781 106.819489,103.726311 106.831917,81.928848 
	C106.832680,80.591324 106.987831,79.253883 107.001823,79.029243 
	C113.531448,89.491150 119.786842,100.831139 127.320816,111.246239 
	C136.428940,123.837440 147.698700,134.429047 161.589310,141.876602 
	C163.715012,151.390854 167.417465,160.862473 167.675980,170.427185 
	C168.510422,201.299957 147.351685,226.949432 117.070755,233.542740 
	C88.812683,239.695557 59.207027,227.549438 45.965549,203.009140 
	C35.919659,184.391174 36.213856,164.656860 44.271790,144.533844 
	C51.342094,136.658981 58.513134,129.655884 64.588371,121.804840 
	C75.169495,108.130844 81.714790,92.290581 87.308228,75.710777 
	C87.519257,75.013786 87.570007,74.593040 87.598679,73.815941 
	C87.984528,71.319130 88.392456,69.178673 88.800392,67.038216 
M70.463654,217.884979 
	C71.493393,218.368683 72.523132,218.852386 73.053520,219.101532 
	C70.952820,211.346848 68.938583,203.713211 66.779480,196.120773 
	C66.383347,194.727783 65.712288,192.874802 64.620811,192.329346 
	C62.323689,191.181366 58.896576,189.453506 57.343697,190.365463 
	C55.333656,191.545868 54.173977,194.969376 53.666512,197.621948 
	C53.350578,199.273392 54.468719,201.695709 55.719334,203.061340 
	C60.270573,208.031235 65.148674,212.701797 70.463654,217.884979 
z"/>
<path fill="#050808" opacity="1.000000" stroke="none" 
	d="
M96.803116,147.010773 
	C96.858482,115.647552 96.913849,84.284340 96.939346,52.192791 
	C96.623970,51.265095 96.338448,51.065727 96.052933,50.866360 
	C96.037895,50.449509 96.022858,50.032654 96.018188,48.851540 
	C95.982460,43.403728 95.936356,38.720184 95.890259,34.036640 
	C96.372505,29.818747 96.854752,25.600851 97.373543,21.063389 
	C100.142029,21.063389 103.043144,21.063389 106.861687,21.063389 
	C103.276451,44.125111 109.516815,64.718521 121.894608,85.261848 
	C132.238464,73.924927 142.250549,62.951618 152.675842,51.525436 
	C154.443649,52.935677 156.707565,54.741688 159.425858,56.910164 
	C149.678238,70.411545 138.812531,82.587013 125.828300,93.312309 
	C136.123962,110.316727 150.187820,123.162239 167.005417,133.620300 
	C165.155960,136.296967 163.471848,138.734344 161.688522,141.524155 
	C147.698700,134.429047 136.428940,123.837440 127.320816,111.246239 
	C119.786842,100.831139 113.531448,89.491150 107.001823,79.029243 
	C106.987831,79.253883 106.832680,80.591324 106.831917,81.928848 
	C106.819489,103.726311 106.833633,125.523781 106.815292,147.321228 
	C106.813904,148.979568 106.687523,150.646561 106.491615,152.294342 
	C105.912750,157.163132 103.320633,160.623810 98.357315,160.911316 
	C91.439827,161.311996 84.476654,161.056396 77.540405,160.842621 
	C76.614037,160.814072 75.310410,159.558807 74.910461,158.575211 
	C73.918983,156.136856 73.349571,153.526901 72.504951,150.622574 
	C80.455620,150.622574 88.049606,150.622574 96.082001,150.081482 
	C96.614639,148.697189 96.708878,147.853973 96.803116,147.010773 
z"/>
<path fill="#05080A" opacity="1.000000" stroke="none" 
	d="
M87.147934,75.987022 
	C81.714790,92.290581 75.169495,108.130844 64.588371,121.804840 
	C58.513134,129.655884 51.342094,136.658981 44.345936,144.186829 
	C41.687912,142.268158 39.348312,140.206451 36.781086,137.944168 
	C57.254318,119.656723 71.701408,98.161003 78.472481,71.162369 
	C65.726997,71.162369 53.779461,71.162369 41.222580,71.162369 
	C42.126965,67.847672 38.144104,63.678417 44.935787,62.301105 
	C46.108730,62.215218 46.564316,62.157288 47.019897,62.099361 
	C48.729340,62.171425 50.438786,62.243492 53.021484,62.297615 
	C58.273380,62.222805 62.652020,62.165939 67.030655,62.109070 
	C69.957993,62.243423 72.921478,62.729786 75.804596,62.433636 
	C80.728500,61.927868 84.786003,63.288273 88.496155,66.918106 
	C88.392456,69.178673 87.984528,71.319130 87.387527,74.072952 
	C87.181618,75.119888 87.164780,75.553452 87.147934,75.987022 
z"/>
<path fill="#8AC5D1" opacity="1.000000" stroke="none" 
	d="
M95.675674,34.352448 
	C95.936356,38.720184 95.982460,43.403728 95.945694,48.547211 
	C95.166519,49.005821 94.470230,49.004490 93.426834,49.004520 
	C93.873520,44.226669 94.667305,39.447460 95.675674,34.352448 
z"/>
<path fill="#31ADE8" opacity="1.000000" stroke="none" 
	d="
M66.699524,61.859367 
	C62.652020,62.165939 58.273380,62.222805 53.436714,62.186527 
	C57.441925,61.932140 61.905163,61.770901 66.699524,61.859367 
z"/>
<path fill="#31ADE8" opacity="1.000000" stroke="none" 
	d="
M46.846107,61.922432 
	C46.564316,62.157288 46.108730,62.215218 45.317951,62.182373 
	C45.545940,61.976238 46.109131,61.860870 46.846107,61.922432 
z"/>
<path fill="#8AC5D1" opacity="1.000000" stroke="none" 
	d="
M89.817482,64.206383 
	C89.868973,64.495079 89.743843,64.971359 89.481850,65.647179 
	C89.443611,65.362465 89.542236,64.878220 89.817482,64.206383 
z"/>
<path fill="#8AC5D1" opacity="1.000000" stroke="none" 
	d="
M90.769531,60.974251 
	C90.859558,61.113178 90.728951,61.378326 90.388947,61.773148 
	C90.280952,61.627266 90.404060,61.359818 90.769531,60.974251 
z"/>
<path fill="#FAFDFD" opacity="1.000000" stroke="none" 
	d="
M70.183594,217.685089 
	C65.148674,212.701797 60.270573,208.031235 55.719334,203.061340 
	C54.468719,201.695709 53.350578,199.273392 53.666512,197.621948 
	C54.173977,194.969376 55.333656,191.545868 57.343697,190.365463 
	C58.896576,189.453506 62.323689,191.181366 64.620811,192.329346 
	C65.712288,192.874802 66.383347,194.727783 66.779480,196.120773 
	C68.938583,203.713211 70.952820,211.346848 73.053520,219.101532 
	C72.523132,218.852386 71.493393,218.368683 70.183594,217.685089 
z"/>
<path fill="#8AC5D1" opacity="1.000000" stroke="none" 
	d="
M96.620895,147.258362 
	C96.708878,147.853973 96.614639,148.697189 96.243607,149.716492 
	C96.124100,149.097046 96.281380,148.301514 96.620895,147.258362 
z"/>
<path fill="#8AC5D1" opacity="1.000000" stroke="none" 
	d="
M96.138138,51.080162 
	C96.338448,51.065727 96.623970,51.265095 96.862526,51.729359 
	C96.577202,51.795456 96.379799,51.562023 96.138138,51.080162 
z"/>
<path fill="#8AC5D1" opacity="1.000000" stroke="none" 
	d="
M87.308228,75.710777 
	C87.164780,75.553452 87.181618,75.119888 87.409607,74.429306 
	C87.570007,74.593040 87.519257,75.013786 87.308228,75.710777 
z"/>
</svg>