<svg version="1.1" id="Layer_1" xmlns="http://www.w3.org/2000/svg" xmlns:xlink="http://www.w3.org/1999/xlink" x="0px" y="0px"
	 width="100%" viewBox="0 0 264 489" enable-background="new 0 0 264 489" xml:space="preserve">
<path fill="#FFFFFF" opacity="1.000000" stroke="none" 
	d="
M265.000000,152.000000 
	C265.000000,264.999969 265.000000,377.499969 265.000000,489.999939 
	C177.000031,489.999969 89.000069,489.999969 1.000081,490.000000 
	C1.000054,327.000061 1.000054,164.000137 1.000027,1.000146 
	C88.999916,1.000098 176.999832,1.000098 264.999878,1.000049 
	C265.000000,51.166668 265.000000,101.333336 265.000000,152.000000 
M124.757057,60.386169 
	C124.757057,60.386169 124.723015,60.387100 124.105728,60.653400 
	C123.437248,60.684975 122.768776,60.716549 121.854935,60.468067 
	C121.536362,60.551376 121.217789,60.634689 120.098145,60.751591 
	C118.763428,60.728775 117.428719,60.705956 115.740433,60.318729 
	C115.126823,60.419590 114.513214,60.520447 113.071548,60.657238 
	C111.412750,60.672672 109.753952,60.688107 107.717094,60.365639 
	C107.118484,60.506706 106.519882,60.647774 105.071938,60.847061 
	C100.196205,61.086884 95.155006,62.220463 90.483780,61.355659 
	C83.591797,60.079723 76.963150,57.381390 69.498344,55.168133 
	C67.640244,53.449753 65.782143,51.731373 63.689556,49.796143 
	C63.416592,51.642017 63.227585,52.920143 62.386608,53.814522 
	C60.247578,53.443382 58.108547,53.072239 55.969517,52.701096 
	C55.997826,54.446507 56.026138,56.191917 56.465981,58.519878 
	C59.935696,59.351700 63.405415,60.183517 66.878273,61.656509 
	C67.090347,62.457767 67.124733,63.848217 67.540642,63.973656 
	C76.669380,66.726830 85.740913,69.800751 95.040367,71.808197 
	C100.710037,73.032097 106.743156,72.572319 112.518127,72.863991 
	C112.804138,75.028702 112.997520,76.492371 113.045883,78.890137 
	C113.372131,89.680008 113.653946,100.471634 114.081413,111.257492 
	C114.134262,112.591080 114.962608,113.893929 115.365334,116.095695 
	C114.563263,130.057968 113.761200,144.020248 112.693687,158.747864 
	C111.802147,172.814362 110.910606,186.880875 109.604332,201.627304 
	C106.958946,202.161804 104.333229,202.846710 101.663605,203.195969 
	C97.538132,203.735733 96.924553,204.442261 97.538559,209.153946 
	C102.090569,209.153946 106.693871,209.156113 111.297173,209.153458 
	C119.578491,209.148697 119.578491,209.147491 119.341560,200.449661 
	C120.726753,188.641815 122.111946,176.833954 123.820045,164.216339 
	C124.943375,153.331116 126.005920,142.438828 127.266960,131.569580 
	C127.424614,130.210678 128.631744,128.973526 129.352615,127.679977 
	C130.085342,128.955505 131.281586,130.163879 131.477676,131.517166 
	C133.092728,142.663223 134.522125,153.836151 135.930267,165.889938 
	C137.375641,177.598877 138.821014,189.307800 140.074310,201.840424 
	C140.074310,204.114807 140.074310,206.389191 140.074310,208.918335 
	C147.504105,208.918335 155.062897,208.918335 162.691513,208.918335 
	C162.838882,204.617249 160.829391,203.384888 156.920212,203.283829 
	C154.390778,203.218445 151.897827,201.743027 149.493469,200.097168 
	C148.603470,188.403824 147.713470,176.710464 146.935043,164.119949 
	C145.695374,147.685989 144.455688,131.252029 143.866547,114.132591 
	C143.844162,106.744606 143.821793,99.356628 143.949173,91.489868 
	C143.879837,91.337700 143.810516,91.185524 143.873367,90.115952 
	C143.657562,84.514534 143.441742,78.913116 144.053848,72.909630 
	C149.830948,72.657860 155.606567,72.363190 161.385468,72.163734 
	C171.705902,71.807533 180.712067,67.370743 190.028717,62.358021 
	C191.299316,61.923512 192.605179,61.570137 193.832687,61.036514 
	C195.958862,60.112236 198.036469,59.076271 200.089188,58.032391 
	C200.089188,58.032391 200.025894,58.064651 200.590103,57.859184 
	C200.774231,57.511631 200.958359,57.164078 201.525375,56.282173 
	C201.563904,52.600338 200.138672,51.189377 196.512283,52.950481 
	C195.372467,53.504017 194.117111,53.819603 192.858322,53.514042 
	C192.835678,53.027672 192.813019,52.541298 192.879028,51.561855 
	C192.764511,51.276093 192.649994,50.990330 192.535477,50.704567 
	C192.320633,51.111553 192.105789,51.518539 191.296066,52.168365 
	C189.878830,53.427860 188.461578,54.687359 186.562531,55.503399 
	C173.989716,60.658646 160.994232,62.770954 147.447235,60.962135 
	C146.970139,60.898438 146.465347,61.042149 145.061478,60.927448 
	C140.755402,60.917027 136.449341,60.906605 131.891144,60.385521 
	C131.753860,60.032150 131.616562,59.678776 131.965332,58.731640 
	C133.076401,57.516582 134.736893,56.476608 135.190826,55.052143 
	C136.342819,51.437096 141.586868,48.783981 138.315811,43.261326 
	C138.462173,38.270813 141.378799,32.410603 133.691147,29.169191 
	C126.973274,24.919962 120.726341,29.567093 114.266777,30.197437 
	C114.343124,30.498997 114.419472,30.800554 114.708122,31.922386 
	C115.208771,35.616985 115.709419,39.311584 115.550980,43.203617 
	C115.376862,44.487762 114.580551,46.228069 115.132027,46.980251 
	C118.164825,51.116898 121.527313,55.011833 124.764206,59.683945 
	C124.750999,59.915012 124.737785,60.146076 124.757057,60.386169 
M131.006531,381.664459 
	C133.030151,387.454620 134.523438,393.500854 137.172989,398.988800 
	C146.568375,418.449341 161.194092,432.642883 181.477936,440.468933 
	C185.711151,442.102234 190.499985,442.473663 195.082214,442.969543 
	C198.964737,443.389618 201.158295,441.028625 200.871597,437.245819 
	C200.580399,433.403625 197.915634,432.000671 194.192230,432.392761 
	C192.926712,432.526001 191.400818,432.925140 190.400818,432.411133 
	C181.895355,428.039154 172.543213,424.636322 165.275116,418.701538 
	C155.542511,410.754456 148.296753,400.559998 144.240891,387.933563 
	C140.303864,375.677032 134.852478,363.758789 128.749420,352.399414 
	C124.811485,345.069885 124.964554,337.922485 125.125687,329.407928 
	C133.802490,328.938568 142.372925,328.279755 150.954773,328.052551 
	C167.372498,327.617889 183.796860,327.436829 200.218109,327.131104 
	C203.561935,327.068878 205.686234,325.260559 205.818100,321.999512 
	C205.947983,318.787537 204.121338,316.643829 200.738800,316.358795 
	C198.920486,316.205536 197.074844,316.297211 195.245163,316.369965 
	C171.889282,317.298340 148.534073,318.243317 125.021820,319.190399 
	C125.021820,309.349121 125.083290,299.365204 124.986816,289.382812 
	C124.955170,286.108215 126.327667,281.860718 121.133583,281.060944 
	C117.548332,280.508850 115.585060,283.298828 115.092911,289.131226 
	C114.994911,290.292511 114.940483,291.461029 114.938957,292.626312 
	C114.926765,301.929840 114.932144,311.233398 114.932144,320.409088 
	C113.714172,320.726868 113.246513,320.949310 112.775246,320.957275 
	C97.797226,321.210480 82.818855,321.443207 67.840530,321.678314 
	C61.177967,321.782898 54.515251,321.878143 47.852871,321.993042 
	C44.764732,322.046295 42.136673,322.785095 41.991158,326.563446 
	C41.845715,330.339813 44.385868,331.296539 47.482838,331.587982 
	C48.476173,331.681488 49.469856,331.842590 50.463867,331.846436 
	C59.126564,331.879822 67.789375,331.891571 76.452156,331.896057 
	C89.072334,331.902557 101.692520,331.897705 114.549873,331.897705 
	C114.501579,350.646423 113.362320,369.717926 106.132301,387.797058 
	C103.398354,394.633514 101.159988,401.858215 94.844421,406.826172 
	C90.970543,409.873383 87.835304,413.856476 84.348175,417.399414 
	C80.972740,420.828918 77.913429,424.688477 74.105736,427.547272 
	C67.473091,432.527039 60.341984,436.838898 53.480694,441.519958 
	C50.300739,443.689484 47.383110,446.364716 50.001019,450.552826 
	C52.703827,454.876801 56.308563,453.245758 59.466675,450.985870 
	C66.749306,445.774628 74.243797,440.787292 81.043663,434.994629 
	C87.356537,429.616852 92.702492,423.121368 98.794044,417.462280 
	C107.275879,409.582611 113.634537,400.440125 116.867302,389.279694 
	C119.060928,381.706665 121.046539,374.073395 123.192474,366.220856 
	C125.706230,371.095795 128.242859,376.015137 131.006531,381.664459 
z"/>
<path fill="#060606" opacity="1.000000" stroke="none" 
	d="
M130.893005,381.299469 
	C128.242859,376.015137 125.706230,371.095795 123.192474,366.220856 
	C121.046539,374.073395 119.060928,381.706665 116.867302,389.279694 
	C113.634537,400.440125 107.275879,409.582611 98.794044,417.462280 
	C92.702492,423.121368 87.356537,429.616852 81.043663,434.994629 
	C74.243797,440.787292 66.749306,445.774628 59.466675,450.985870 
	C56.308563,453.245758 52.703827,454.876801 50.001019,450.552826 
	C47.383110,446.364716 50.300739,443.689484 53.480694,441.519958 
	C60.341984,436.838898 67.473091,432.527039 74.105736,427.547272 
	C77.913429,424.688477 80.972740,420.828918 84.348175,417.399414 
	C87.835304,413.856476 90.970543,409.873383 94.844421,406.826172 
	C101.159988,401.858215 103.398354,394.633514 106.132301,387.797058 
	C113.362320,369.717926 114.501579,350.646423 114.549873,331.897705 
	C101.692520,331.897705 89.072334,331.902557 76.452156,331.896057 
	C67.789375,331.891571 59.126564,331.879822 50.463867,331.846436 
	C49.469856,331.842590 48.476173,331.681488 47.482838,331.587982 
	C44.385868,331.296539 41.845715,330.339813 41.991158,326.563446 
	C42.136673,322.785095 44.764732,322.046295 47.852871,321.993042 
	C54.515251,321.878143 61.177967,321.782898 67.840530,321.678314 
	C82.818855,321.443207 97.797226,321.210480 112.775246,320.957275 
	C113.246513,320.949310 113.714172,320.726868 114.932144,320.409088 
	C114.932144,311.233398 114.926765,301.929840 114.938957,292.626312 
	C114.940483,291.461029 114.994911,290.292511 115.092911,289.131226 
	C115.585060,283.298828 117.548332,280.508850 121.133583,281.060944 
	C126.327667,281.860718 124.955170,286.108215 124.986816,289.382812 
	C125.083290,299.365204 125.021820,309.349121 125.021820,319.190399 
	C148.534073,318.243317 171.889282,317.298340 195.245163,316.369965 
	C197.074844,316.297211 198.920486,316.205536 200.738800,316.358795 
	C204.121338,316.643829 205.947983,318.787537 205.818100,321.999512 
	C205.686234,325.260559 203.561935,327.068878 200.218109,327.131104 
	C183.796860,327.436829 167.372498,327.617889 150.954773,328.052551 
	C142.372925,328.279755 133.802490,328.938568 125.125687,329.407928 
	C124.964554,337.922485 124.811485,345.069885 128.749420,352.399414 
	C134.852478,363.758789 140.303864,375.677032 144.240891,387.933563 
	C148.296753,400.559998 155.542511,410.754456 165.275116,418.701538 
	C172.543213,424.636322 181.895355,428.039154 190.400818,432.411133 
	C191.400818,432.925140 192.926712,432.526001 194.192230,432.392761 
	C197.915634,432.000671 200.580399,433.403625 200.871597,437.245819 
	C201.158295,441.028625 198.964737,443.389618 195.082214,442.969543 
	C190.499985,442.473663 185.711151,442.102234 181.477936,440.468933 
	C161.194092,432.642883 146.568375,418.449341 137.172989,398.988800 
	C134.523438,393.500854 133.030151,387.454620 130.893005,381.299469 
z"/>
<path fill="#F86E28" opacity="1.000000" stroke="none" 
	d="
M113.190910,77.956039 
	C112.997520,76.492371 112.804138,75.028702 112.518127,72.863991 
	C106.743156,72.572319 100.710037,73.032097 95.040367,71.808197 
	C85.740913,69.800751 76.669380,66.726830 67.540642,63.973656 
	C67.124733,63.848217 67.090347,62.457767 67.152725,61.146793 
	C68.358902,58.854324 69.290627,57.071571 70.222351,55.288818 
	C76.963150,57.381390 83.591797,60.079723 90.483780,61.355659 
	C95.155006,62.220463 100.196205,61.086884 105.858536,60.909630 
	C107.128479,60.882648 107.611816,60.793095 108.095154,60.703545 
	C109.753952,60.688107 111.412750,60.672672 113.841522,60.765564 
	C115.105667,60.810303 115.599838,60.746719 116.094002,60.683140 
	C117.428719,60.705956 118.763428,60.728775 120.797104,60.814514 
	C121.697472,60.834335 121.898888,60.791229 122.100296,60.748123 
	C122.768776,60.716549 123.437248,60.684975 124.712616,60.723808 
	C125.551727,60.853977 125.783936,60.913738 126.098648,61.198387 
	C126.536354,61.410805 126.891556,61.398342 127.246765,61.385872 
	C126.818794,61.268997 126.390831,61.152119 125.976288,60.769032 
	C126.001762,60.325535 126.013817,60.148243 126.015945,59.982407 
	C126.006027,59.993862 125.988083,60.018475 126.347031,59.974747 
	C128.297073,59.729145 129.888184,59.527275 131.479279,59.325409 
	C131.616562,59.678776 131.753860,60.032150 131.719177,60.811691 
	C129.251663,62.965252 130.639221,63.814781 132.335571,64.636703 
	C137.884155,67.325134 141.625519,66.359047 145.973465,61.089188 
	C146.465347,61.042149 146.970139,60.898438 147.447235,60.962135 
	C160.994232,62.770954 173.989716,60.658646 186.883087,56.072304 
	C188.063950,58.801140 188.924240,60.961075 189.784546,63.121010 
	C180.712067,67.370743 171.705902,71.807533 161.385468,72.163734 
	C155.606567,72.363190 149.830948,72.657860 143.416992,72.910675 
	C142.616562,72.931198 142.317673,72.925232 142.308563,72.973732 
	C140.785538,81.074150 137.442917,84.760384 130.549911,85.912781 
	C123.836983,87.035072 118.724075,84.186905 114.872711,77.270599 
	C114.837135,77.206718 113.774200,77.714920 113.190910,77.956039 
z"/>
<path fill="#2D2D2D" opacity="1.000000" stroke="none" 
	d="
M143.216019,114.818069 
	C144.455688,131.252029 145.695374,147.685989 146.484604,164.570221 
	C142.692047,165.013962 139.349915,165.007446 136.007797,165.000946 
	C134.522125,153.836151 133.092728,142.663223 131.477676,131.517166 
	C131.281586,130.163879 130.085342,128.955505 129.352615,127.679977 
	C128.631744,128.973526 127.424614,130.210678 127.266960,131.569580 
	C126.005920,142.438828 124.943375,153.331116 123.248215,164.613983 
	C116.874847,166.210999 113.823448,163.608490 112.959137,157.982513 
	C113.761200,144.020248 114.563263,130.057968 115.633606,115.930038 
	C118.632469,116.138763 121.392021,116.968163 124.087845,116.796539 
	C130.479980,116.389610 136.841888,115.507889 143.216019,114.818069 
z"/>
<path fill="#EF581E" opacity="1.000000" stroke="none" 
	d="
M143.541290,114.475327 
	C136.841888,115.507889 130.479980,116.389610 124.087845,116.796539 
	C121.392021,116.968163 118.632469,116.138763 115.666748,115.487709 
	C114.962608,113.893929 114.134262,112.591080 114.081413,111.257492 
	C113.653946,100.471634 113.372131,89.680008 113.118393,78.423088 
	C113.774200,77.714920 114.837135,77.206718 114.872711,77.270599 
	C118.724075,84.186905 123.836983,87.035072 130.549911,85.912781 
	C137.442917,84.760384 140.785538,81.074150 142.308563,72.973732 
	C142.317673,72.925232 142.616562,72.931198 143.003021,73.111710 
	C143.441742,78.913116 143.657562,84.514534 143.672485,90.667358 
	C143.314713,91.566444 143.423981,91.816406 143.799408,91.968643 
	C143.821793,99.356628 143.844162,106.744606 143.541290,114.475327 
z"/>
<path fill="#F9C7A0" opacity="1.000000" stroke="none" 
	d="
M131.722305,59.028526 
	C129.888184,59.527275 128.297073,59.729145 126.245270,59.710991 
	C125.448593,59.323887 125.112625,59.156803 124.776657,58.989719 
	C121.527313,55.011833 118.164825,51.116898 115.132027,46.980251 
	C114.580551,46.228069 115.376862,44.487762 116.122253,43.275490 
	C116.900826,43.596703 117.092255,43.862720 117.325523,44.084782 
	C117.391891,44.147953 117.580017,44.083210 117.712311,44.077126 
	C116.675262,35.326439 123.567719,36.211876 128.737473,35.008362 
	C130.166290,34.675732 131.599854,34.363533 133.270294,34.075859 
	C133.509323,34.109756 133.991165,34.078392 134.312607,34.270569 
	C135.069778,36.125919 135.400101,37.826378 135.971390,39.441597 
	C136.523636,41.002956 137.324142,42.476494 138.015610,43.988605 
	C141.586868,48.783981 136.342819,51.437096 135.190826,55.052143 
	C134.736893,56.476608 133.076401,57.516582 131.722305,59.028526 
z"/>
<path fill="#1D1C1C" opacity="1.000000" stroke="none" 
	d="
M112.826408,158.365189 
	C113.823448,163.608490 116.874847,166.210999 123.086761,165.018860 
	C122.111946,176.833954 120.726753,188.641815 118.725769,200.755981 
	C115.413010,201.023987 112.716042,200.985672 110.019073,200.947372 
	C110.910606,186.880875 111.802147,172.814362 112.826408,158.365189 
z"/>
<path fill="#1B1A1A" opacity="1.000000" stroke="none" 
	d="
M135.969025,165.445435 
	C139.349915,165.007446 142.692047,165.013962 146.428818,165.018799 
	C147.713470,176.710464 148.603470,188.403824 149.035919,200.533356 
	C145.807724,200.985291 143.037048,201.001007 140.266388,201.016739 
	C138.821014,189.307800 137.375641,177.598877 135.969025,165.445435 
z"/>
<path fill="#E66B2C" opacity="1.000000" stroke="none" 
	d="
M140.170349,201.428589 
	C143.037048,201.001007 145.807724,200.985291 148.983459,200.934509 
	C151.897827,201.743027 154.390778,203.218445 156.920212,203.283829 
	C160.829391,203.384888 162.838882,204.617249 162.691513,208.918335 
	C155.062897,208.918335 147.504105,208.918335 140.074310,208.918335 
	C140.074310,206.389191 140.074310,204.114807 140.170349,201.428589 
z"/>
<path fill="#E96826" opacity="1.000000" stroke="none" 
	d="
M109.811699,201.287338 
	C112.716042,200.985672 115.413010,201.023987 118.558884,201.078613 
	C119.578491,209.147491 119.578491,209.148697 111.297173,209.153458 
	C106.693871,209.156113 102.090569,209.153946 97.538559,209.153946 
	C96.924553,204.442261 97.538132,203.735733 101.663605,203.195969 
	C104.333229,202.846710 106.958946,202.161804 109.811699,201.287338 
z"/>
<path fill="#D78355" opacity="1.000000" stroke="none" 
	d="
M133.991165,34.078392 
	C133.991165,34.078392 133.509323,34.109756 133.020401,33.778343 
	C126.519592,32.665329 120.507706,31.883720 114.495819,31.102112 
	C114.419472,30.800554 114.343124,30.498997 114.266777,30.197437 
	C120.726341,29.567093 126.973274,24.919962 133.859314,29.895123 
	C134.015366,31.773499 134.003265,32.925945 133.991165,34.078392 
z"/>
<path fill="#CC7446" opacity="1.000000" stroke="none" 
	d="
M114.601974,31.512249 
	C120.507706,31.883720 126.519592,32.665329 132.781372,33.744446 
	C131.599854,34.363533 130.166290,34.675732 128.737473,35.008362 
	C123.567719,36.211876 116.675262,35.326439 117.712311,44.077126 
	C117.580017,44.083210 117.391891,44.147953 117.325523,44.084782 
	C117.092255,43.862720 116.900826,43.596703 116.451797,43.176773 
	C115.709419,39.311584 115.208771,35.616985 114.601974,31.512249 
z"/>
<path fill="#FBBD96" opacity="1.000000" stroke="none" 
	d="
M69.860352,55.228477 
	C69.290627,57.071571 68.358902,58.854324 67.151154,60.826206 
	C63.405415,60.183517 59.935696,59.351700 56.478397,57.984367 
	C59.206966,57.440105 63.012711,59.626148 63.038574,54.198269 
	C63.227585,52.920143 63.416592,51.642017 63.689556,49.796143 
	C65.782143,51.731373 67.640244,53.449753 69.860352,55.228477 
z"/>
<path fill="#F05818" opacity="1.000000" stroke="none" 
	d="
M145.517471,61.008316 
	C141.625519,66.359047 137.884155,67.325134 132.335571,64.636703 
	C130.639221,63.814781 129.251663,62.965252 131.845230,61.067024 
	C136.449341,60.906605 140.755402,60.917027 145.517471,61.008316 
z"/>
<path fill="#FBBD95" opacity="1.000000" stroke="none" 
	d="
M189.906631,62.739517 
	C188.924240,60.961075 188.063950,58.801140 187.123993,56.294029 
	C188.461578,54.687359 189.878830,53.427860 191.817413,52.090096 
	C192.338745,52.011822 192.790375,52.054928 192.790375,52.054928 
	C192.813019,52.541298 192.835678,53.027672 192.965576,54.230263 
	C194.065079,59.054909 197.466675,57.746044 200.134430,58.087147 
	C198.036469,59.076271 195.958862,60.112236 193.832687,61.036514 
	C192.605179,61.570137 191.299316,61.923512 189.906631,62.739517 
z"/>
<path fill="#CD7B4F" opacity="1.000000" stroke="none" 
	d="
M134.312607,34.270569 
	C134.003265,32.925945 134.015366,31.773499 134.052094,30.189751 
	C141.378799,32.410603 138.462173,38.270813 138.165710,43.624966 
	C137.324142,42.476494 136.523636,41.002956 135.971390,39.441597 
	C135.400101,37.826378 135.069778,36.125919 134.312607,34.270569 
z"/>
<path fill="#FECFA6" opacity="1.000000" stroke="none" 
	d="
M62.712593,54.006393 
	C63.012711,59.626148 59.206966,57.440105 56.272629,57.693092 
	C56.026138,56.191917 55.997826,54.446507 55.969517,52.701096 
	C58.108547,53.072239 60.247578,53.443382 62.712593,54.006393 
z"/>
<path fill="#FED1AA" opacity="1.000000" stroke="none" 
	d="
M200.111816,58.059769 
	C197.466675,57.746044 194.065079,59.054909 192.993744,54.595291 
	C194.117111,53.819603 195.372467,53.504017 196.512283,52.950481 
	C200.138672,51.189377 201.563904,52.600338 201.091217,56.707626 
	C200.446671,57.443607 200.236282,57.754128 200.025894,58.064651 
	C200.025894,58.064651 200.089188,58.032391 200.111816,58.059769 
z"/>
<path fill="#F9C7A0" opacity="1.000000" stroke="none" 
	d="
M107.906128,60.534592 
	C107.611816,60.793095 107.128479,60.882648 106.283203,60.880524 
	C106.519882,60.647774 107.118484,60.506706 107.906128,60.534592 
z"/>
<path fill="#F9C7A0" opacity="1.000000" stroke="none" 
	d="
M115.917221,60.500935 
	C115.599838,60.746719 115.105667,60.810303 114.255554,60.747597 
	C114.513214,60.520447 115.126823,60.419590 115.917221,60.500935 
z"/>
<path fill="#FED1AA" opacity="1.000000" stroke="none" 
	d="
M192.834702,51.808392 
	C192.790375,52.054928 192.338745,52.011822 192.114838,51.968674 
	C192.105789,51.518539 192.320633,51.111553 192.535477,50.704567 
	C192.649994,50.990330 192.764511,51.276093 192.834702,51.808392 
z"/>
<path fill="#F86E28" opacity="1.000000" stroke="none" 
	d="
M124.770432,59.336830 
	C125.112625,59.156803 125.448593,59.323887 125.886322,59.754723 
	C125.988083,60.018475 126.006027,59.993862 125.682205,60.057144 
	C125.147118,60.206001 124.935844,60.291573 124.724571,60.377144 
	C124.737785,60.146076 124.750999,59.915012 124.770432,59.336830 
z"/>
<path fill="#F9C7A0" opacity="1.000000" stroke="none" 
	d="
M121.977615,60.608097 
	C121.898888,60.791229 121.697472,60.834335 121.197639,60.797722 
	C121.217789,60.634689 121.536362,60.551376 121.977615,60.608097 
z"/>
<path fill="#F9C7A0" opacity="1.000000" stroke="none" 
	d="
M124.740814,60.381657 
	C124.935844,60.291573 125.147118,60.206001 125.692131,60.045692 
	C126.013817,60.148243 126.001762,60.325535 125.990875,60.754562 
	C125.992027,61.006298 126.016151,60.973503 126.016151,60.973503 
	C125.783936,60.913738 125.551727,60.853977 125.021263,60.590656 
	C124.723015,60.387100 124.757057,60.386169 124.740814,60.381657 
z"/>
<path fill="#FBBD95" opacity="1.000000" stroke="none" 
	d="
M200.307999,57.961914 
	C200.236282,57.754128 200.446671,57.443607 200.899780,56.974800 
	C200.958359,57.164078 200.774231,57.511631 200.307999,57.961914 
z"/>
<path fill="#F86E28" opacity="1.000000" stroke="none" 
	d="
M143.874298,91.729256 
	C143.423981,91.816406 143.314713,91.566444 143.606400,91.126053 
	C143.810516,91.185524 143.879837,91.337700 143.874298,91.729256 
z"/>
<path fill="#F9C7A0" opacity="1.000000" stroke="none" 
	d="
M125.977448,61.020767 
	C126.390831,61.152119 126.818794,61.268997 127.246765,61.385872 
	C126.891556,61.398342 126.536354,61.410805 126.098648,61.198387 
	C126.016151,60.973503 125.992027,61.006298 125.977448,61.020767 
z"/>
</svg>