<svg version="1.1" id="Layer_1" xmlns="http://www.w3.org/2000/svg" xmlns:xlink="http://www.w3.org/1999/xlink" x="0px" y="0px"
	 width="100%" viewBox="0 0 338 253" enable-background="new 0 0 338 253" xml:space="preserve">
<path fill="none" opacity="1.000000" stroke="#000000" stroke-linecap="round" stroke-linejoin="round" stroke-width="5.000000"
	d="
M285.500000,94.500000 
	C283.585999,92.905106 281.241272,92.642197 279.010193,93.055054 
	C272.035187,94.345787 265.011322,93.887299 258.000153,94.008827 
	C252.774307,94.099403 251.092331,95.474106 250.527527,100.503090 
	C249.592896,108.825050 247.723602,117.258369 248.401825,125.466797 
	C248.832489,130.678680 246.885330,135.122971 246.956772,140.000626 
	C247.027527,144.832443 247.427475,149.693588 246.495056,154.499039 
	C246.364334,155.172684 246.166656,155.833328 245.999985,156.500000 
"/>
<path fill="none" opacity="1.000000" stroke="#000000" stroke-linecap="round" stroke-linejoin="round" stroke-width="3.000000"
	d="
M177.500000,45.500000 
	C171.656784,45.679462 165.785812,43.779324 160.019699,45.086891 
	C152.903625,46.700581 145.645935,46.502708 138.503586,47.525009 
	C134.654312,48.075970 131.270157,46.131153 127.512718,45.837349 
	C113.314415,44.727139 99.165504,44.834476 85.002869,46.033859 
	C84.147438,46.106304 83.333336,46.666668 82.500000,47.000004 
"/>
<path fill="none" opacity="1.000000" stroke="#000000" stroke-linecap="round" stroke-linejoin="round" stroke-width="6.000000"
	d="
M308.500000,131.500000 
	C306.429352,131.564011 306.618805,132.985947 306.450348,134.494461 
	C305.918243,139.259476 305.181000,144.002075 304.494263,148.749176 
	C304.121002,151.329544 302.992462,152.906021 300.002869,153.056793 
	C293.826691,153.368271 287.664337,153.973404 281.500824,154.509415 
	C277.447052,154.861969 276.069427,152.254013 275.556335,148.991135 
	C275.249420,147.039413 275.500000,145.000000 275.500000,143.000000 
"/>
<path fill="none" opacity="1.000000" stroke="#000000" stroke-linecap="round" stroke-linejoin="round" stroke-width="5.000000"
	d="
M300.000000,93.000000 
	C297.333344,92.833336 294.639648,92.355942 292.007355,92.584648 
	C289.198730,92.828667 286.588409,92.960609 285.216766,96.901413 
	C284.118713,100.056053 280.559814,102.392570 277.988495,104.988594 
	C271.022064,112.021873 263.998505,118.998528 257.000946,126.000954 
	C255.030045,127.973206 253.141037,130.080154 250.000000,130.000000 
"/>
<path fill="none" opacity="1.000000" stroke="#000000" stroke-linecap="round" stroke-linejoin="round" stroke-width="14.000000"
	d="
M97.500000,61.000000 
	C93.500000,64.296417 89.340691,63.698895 85.553040,60.927513 
	C82.783340,58.900944 81.979515,55.071087 79.066933,52.909798 
	C78.071892,52.171425 77.630913,50.853249 75.998505,50.980923 
	C64.348595,51.892101 52.627537,52.084183 41.465965,56.412228 
	C37.225693,58.056450 35.111443,60.270142 35.386745,65.006584 
	C35.529884,67.469200 34.856945,70.145630 33.911152,72.463745 
	C32.683075,75.473747 33.908905,77.746773 36.060123,78.886528 
	C41.165504,81.591476 45.987541,85.674446 52.500000,84.000000 
"/>
<path fill="none" opacity="1.000000" stroke="#000000" stroke-linecap="round" stroke-linejoin="round" stroke-width="3.000000"
	d="
M48.000000,132.500000 
	C44.338493,137.395508 42.614502,142.743423 42.880844,149.005066 
	C43.107742,154.339462 43.800900,154.799545 35.000000,156.000000 
"/>
<path fill="none" opacity="1.000000" stroke="#000000" stroke-linecap="round" stroke-linejoin="round" stroke-width="3.000000"
	d="
M66.000000,108.000000 
	C66.166664,108.500000 66.237122,109.062218 66.514259,109.490776 
	C71.677055,117.474342 69.849808,123.959747 61.566372,128.618027 
	C59.745724,129.641891 58.165543,129.490067 56.501446,129.445724 
	C51.451698,129.311157 44.876816,124.373093 45.103565,120.506073 
	C45.407066,115.330147 43.158573,111.959694 38.992916,109.512054 
	C34.700516,106.989952 32.729580,102.067276 28.299866,99.235947 
	C24.578346,102.494858 23.704584,106.417336 25.000000,111.000000 
"/>
<path fill="none" opacity="1.000000" stroke="#000000" stroke-linecap="round" stroke-linejoin="round" stroke-width="6.000000"
	d="
M304.500000,140.000000 
	C295.666656,140.500000 286.836731,141.097183 277.996735,141.406311 
	C276.486603,141.459122 276.114319,143.586807 274.500000,142.750000 
"/>
<path fill="none" opacity="1.000000" stroke="#000000" stroke-linecap="round" stroke-linejoin="round" stroke-width="8.000000"
	d="
M90.000000,92.000000 
	C88.350189,92.804977 86.522804,93.542419 86.030647,95.507675 
	C84.903946,100.006767 80.955666,101.765106 77.467064,102.274429 
	C71.302200,103.174492 66.244278,107.113632 60.010525,107.627647 
	C57.991184,107.794159 55.968861,109.307892 54.514622,111.012474 
	C52.001411,113.958321 48.713821,115.155106 45.000000,115.500000 
"/>
<path fill="none" opacity="1.000000" stroke="#000000" stroke-linecap="round" stroke-linejoin="round" stroke-width="8.000000"
	d="
M120.500000,174.000000 
	C124.612083,179.439606 130.576065,177.107697 135.472275,176.681488 
	C139.604813,176.321732 143.712524,175.111069 148.003418,175.457703 
	C149.314713,175.563660 150.833466,175.502487 151.969376,174.938339 
	C155.687256,173.091888 159.469391,172.487579 163.500000,173.500000 
"/>
<path fill="none" opacity="1.000000" stroke="#000000" stroke-linecap="round" stroke-linejoin="round" stroke-width="2.000000"
	d="
M115.500000,144.000000 
	C124.501205,143.517120 133.165268,146.030838 142.009491,146.903870 
	C144.380890,147.137939 144.958084,149.066422 146.504272,149.992874 
	C150.035950,152.109100 153.847855,153.771408 157.000000,156.500000 
"/>
<path fill="none" opacity="1.000000" stroke="#000000" stroke-linecap="round" stroke-linejoin="round" stroke-width="4.000000"
	d="
M25.500000,164.500000 
	C25.232342,167.707626 26.595795,170.552780 27.506819,173.524673 
	C24.298502,178.534897 22.031881,183.748428 22.402458,190.005783 
	C22.667046,194.473404 22.968811,199.029709 22.000000,203.500000 
"/>
<path fill="none" opacity="1.000000" stroke="#000000" stroke-linecap="round" stroke-linejoin="round" stroke-width="4.000000"
	d="
M36.000000,66.500000 
	C42.411018,69.352165 49.798649,68.948952 56.000000,72.500000 
"/>
<path fill="none" opacity="1.000000" stroke="#000000" stroke-linecap="round" stroke-linejoin="round" stroke-width="3.000000"
	d="
M192.500000,97.500000 
	C191.855408,109.197128 191.643127,120.931313 189.500000,132.500000 
"/>
<path fill="none" opacity="1.000000" stroke="#000000" stroke-linecap="round" stroke-linejoin="round" stroke-width="5.000000"
	d="
M192.000000,113.500000 
	C197.834000,113.643410 203.687347,113.109627 209.500000,114.000000 
"/>
<path fill="none" opacity="1.000000" stroke="#000000" stroke-linecap="round" stroke-linejoin="round" stroke-width="3.000000"
	d="
M23.000000,127.500000 
	C21.667702,128.583588 22.011637,130.099487 22.008747,131.500015 
	C21.991203,139.999985 22.010227,148.500015 21.992729,156.999985 
	C21.988415,159.095154 22.403627,161.004745 24.000000,162.500000 
"/>
<path fill="none" opacity="1.000000" stroke="#000000" stroke-linecap="round" stroke-linejoin="round" stroke-width="3.000000"
	d="
M107.500000,81.500000 
	C103.049721,85.251328 98.380981,88.677513 92.993660,90.985199 
	C91.403046,91.666550 89.771072,92.089722 89.500000,89.500000 
"/>
<path fill="none" opacity="1.000000" stroke="#000000" stroke-linecap="round" stroke-linejoin="round" stroke-width="13.000000"
	d="
M89.500000,171.500000 
	C90.183159,171.399307 90.835342,171.638550 91.525932,171.029404 
	C96.477432,166.661728 101.594307,167.697968 106.470810,171.042557 
	C110.531334,173.827530 115.185226,172.570175 119.500000,173.500000 
"/>
<path fill="none" opacity="1.000000" stroke="#000000" stroke-linecap="round" stroke-linejoin="round" stroke-width="8.000000"
	d="
M54.000000,55.000000 
	C55.421722,58.830444 56.216572,62.675625 59.833973,65.698669 
	C62.982616,68.329971 65.983131,66.909233 69.000000,67.500000 
"/>
<path fill="none" opacity="1.000000" stroke="#000000" stroke-linecap="round" stroke-linejoin="round" stroke-width="5.000000"
	d="
M35.500000,79.500000 
	C35.872166,84.460701 33.303463,88.791260 32.503498,93.500595 
	C32.475983,93.662582 32.500000,93.833336 32.500000,94.000000 
	C32.833332,93.916664 33.166668,93.833328 33.500000,93.750000 
"/>
<path fill="none" opacity="1.000000" stroke="#000000" stroke-linecap="round" stroke-linejoin="round" stroke-width="5.000000"
	d="
M82.500000,81.500000 
	C78.699326,85.148232 76.689064,90.965874 70.002449,91.112106 
	C67.882477,91.158470 67.988243,93.992165 67.000000,95.500000 
"/>
<path fill="none" opacity="1.000000" stroke="#000000" stroke-linecap="round" stroke-linejoin="round" stroke-width="3.000000"
	d="
M152.500000,47.500000 
	C152.813034,50.463428 150.349792,51.962463 148.950119,53.965137 
	C147.331131,56.281612 144.472168,58.073357 143.719589,60.566284 
	C142.794098,63.631969 141.039810,65.556587 138.482208,65.838860 
	C134.975372,66.225891 131.050781,67.025040 128.000000,64.000000 
"/>
<path fill="none" opacity="1.000000" stroke="#000000" stroke-linecap="round" stroke-linejoin="round" stroke-width="3.000000"
	d="
M26.000000,163.500000 
	C28.620722,161.636032 27.471189,157.302612 30.985880,155.962952 
	C32.000977,155.576035 32.872215,154.899948 34.546906,155.726852 
	C37.101341,160.478958 36.590092,166.063309 36.362282,171.494217 
	C36.301437,172.944687 34.778854,174.492401 32.490002,174.051971 
	C31.043562,173.773621 29.500000,174.000000 28.000000,174.000000 
"/>
<path fill="none" opacity="1.000000" stroke="#000000" stroke-linecap="round" stroke-linejoin="round" stroke-width="10.000000"
	d="
M113.500000,154.500000 
	C108.614433,151.529922 104.595673,156.092850 100.003304,156.178101 
	C98.437340,156.207169 98.453957,158.802628 98.489120,160.500229 
	C98.533997,162.665970 98.500000,164.833328 98.500000,167.000000 
"/>
<path fill="none" opacity="1.000000" stroke="#000000" stroke-linecap="round" stroke-linejoin="round" stroke-width="13.000000"
	d="
M139.500000,57.500000 
	C133.301346,57.235073 127.588966,59.043308 121.978622,61.450161 
	C120.792145,61.959164 119.043060,62.407837 118.047974,61.905056 
	C112.367744,59.035072 106.749146,59.778297 100.980553,61.432171 
	C99.742828,61.787037 97.754539,62.034859 98.000000,59.500000 
"/>
<path fill="none" opacity="1.000000" stroke="#000000" stroke-linecap="round" stroke-linejoin="round" stroke-width="4.000000"
	d="
M156.000000,161.500000 
	C155.159256,165.377136 155.371246,169.208496 156.500000,173.000000 
"/>
<path fill="none" opacity="1.000000" stroke="#000000" stroke-linecap="round" stroke-linejoin="round" stroke-width="4.000000"
	d="
M42.500000,127.000000 
	C39.424500,129.988953 37.032963,133.832870 32.500000,135.000000 
"/>
<path fill="none" opacity="1.000000" stroke="#000000" stroke-linecap="round" stroke-linejoin="round" stroke-width="5.000000"
	d="
M157.500000,157.500000 
	C157.122925,159.456253 156.797607,161.440659 153.999298,161.004517 
	C149.162796,160.250717 145.306290,162.150116 142.000000,165.500000 
"/>
<path fill="none" opacity="1.000000" stroke="#000000" stroke-linecap="round" stroke-linejoin="round" stroke-width="3.000000"
	d="
M94.500000,49.000000 
	C90.779533,49.614445 87.245987,50.584045 85.000000,54.000000 
"/>
<path fill="none" opacity="1.000000" stroke="#000000" stroke-linecap="round" stroke-linejoin="round" stroke-width="7.000000"
	d="
M26.500000,110.750000 
	C23.926340,111.417374 23.750635,113.467636 24.039232,115.494415 
	C24.569523,119.218597 24.550682,122.873512 23.500000,126.500000 
"/>
<path fill="none" opacity="1.000000" stroke="#000000" stroke-linecap="round" stroke-linejoin="round" stroke-width="3.000000"
	d="
M84.000000,61.500000 
	C80.174294,65.935097 75.267838,67.758392 69.364670,67.373184 
	C68.502304,69.389275 69.611832,71.629745 68.102722,73.864563 
	C64.410652,72.506615 62.314972,77.209442 58.500000,77.000000 
"/>
<path fill="none" opacity="1.000000" stroke="#000000" stroke-linecap="round" stroke-linejoin="round" stroke-width="4.000000"
	d="
M90.500000,64.000000 
	C89.441635,71.353310 84.083969,75.289207 78.472740,78.958313 
	C77.436966,79.635590 76.430290,80.077560 76.500000,81.500000 
"/>
<path fill="none" opacity="1.000000" stroke="#000000" stroke-linecap="round" stroke-linejoin="round" stroke-width="3.000000"
	d="
M29.500000,53.000000 
	C26.682806,51.021408 23.489874,52.424477 20.500000,52.000000 
"/>
<path fill="none" opacity="1.000000" stroke="#000000" stroke-linecap="round" stroke-linejoin="round" stroke-width="2.000000"
	d="
M106.500000,148.500000 
	C103.678284,149.778168 100.634766,150.885712 101.500000,155.000000 
"/>
<path fill="none" opacity="1.000000" stroke="#000000" stroke-linecap="round" stroke-linejoin="round" stroke-width="2.000000"
	d="
M116.000008,69.000008 
	C114.000008,71.666672 112.000008,74.333336 110.000008,77.000008 
"/>
<path fill="none" opacity="1.000000" stroke="#000000" stroke-linecap="round" stroke-linejoin="round" stroke-width="3.000000"
	d="
M44.500000,122.000000 
	C42.166668,122.000000 39.833332,122.000000 37.500000,122.000000 
"/>
<path fill="none" opacity="1.000000" stroke="#000000" stroke-linecap="round" stroke-linejoin="round" stroke-width="7.000000"
	d="
M143.000000,174.500000 
	C143.000000,173.166672 142.955734,171.831558 143.008774,170.500351 
	C143.137985,167.257172 141.809982,164.992828 138.491226,164.568619 
	C136.787842,164.350891 135.878693,163.075943 134.500000,162.500000 
"/>
<path fill="none" opacity="1.000000" stroke="#000000" stroke-linecap="round" stroke-linejoin="round" stroke-width="3.000000"
	d="
M150.500000,167.500000 
	C148.348831,169.108536 145.870972,168.430084 143.500000,168.500000 
"/>
<path fill="none" opacity="1.000000" stroke="#000000" stroke-linecap="round" stroke-linejoin="round" stroke-width="3.000000"
	d="
M23.000000,88.500000 
	C21.041643,91.453125 22.047939,94.035675 24.000000,96.500000 
"/>
<path fill="none" opacity="1.000000" stroke="#000000" stroke-linecap="round" stroke-linejoin="round" stroke-width="3.000000"
	d="
M110.000000,61.500000 
	C109.846420,63.859013 108.473000,66.043762 109.000000,68.500000 
"/>
<path fill="none" opacity="1.000000" stroke="#000000" stroke-linecap="round" stroke-linejoin="round" stroke-width="2.000000"
	d="
M61.500000,101.500000 
	C59.447613,103.038094 59.459373,105.264236 59.500000,107.500000 
"/>
<path fill="none" opacity="1.000000" stroke="#000000" stroke-linecap="round" stroke-linejoin="round" stroke-width="3.000000"
	d="
M130.000000,51.500000 
	C130.909439,53.666668 130.518524,55.833332 130.000000,58.000000 
"/>
<path fill="none" opacity="1.000000" stroke="#000000" stroke-linecap="round" stroke-linejoin="round" stroke-width="2.000000"
	d="
M143.000000,61.000000 
	C141.182114,60.290848 138.999741,60.584068 137.500000,59.000000 
"/>
<path fill="none" opacity="1.000000" stroke="#000000" stroke-linecap="round" stroke-linejoin="round" stroke-width="2.000000"
	d="
M27.500000,138.500000 
	C30.391211,138.395493 29.359173,140.489075 29.523355,141.997452 
	C29.740850,143.995651 27.880793,146.162704 30.000000,148.000000 
"/>
<path fill="none" opacity="1.000000" stroke="#000000" stroke-linecap="round" stroke-linejoin="round" stroke-width="2.000000"
	d="
M25.500000,128.000000 
	C27.153917,129.593231 27.379623,131.446136 26.500000,133.500000 
"/>
<path fill="none" opacity="1.000000" stroke="#000000" stroke-linecap="round" stroke-linejoin="round" stroke-width="2.000000"
	d="
M51.500000,104.500000 
	C49.696640,105.249100 48.117397,106.614510 46.000000,106.500000 
"/>
<path fill="none" opacity="1.000000" stroke="#000000" stroke-linecap="round" stroke-linejoin="round" stroke-width="2.000000"
	d="
M101.500000,52.500000 
	C100.486176,54.076424 98.847092,55.340214 99.000000,57.500000 
"/>
<path fill="none" opacity="1.000000" stroke="#000000" stroke-linecap="round" stroke-linejoin="round" stroke-width="3.000000"
	d="
M68.000000,92.000000 
	C65.809586,90.369377 64.351929,92.768944 62.500000,93.000000 
"/>
<path fill="none" opacity="1.000000" stroke="#000000" stroke-linecap="round" stroke-linejoin="round" stroke-width="3.000000"
	d="
M33.000000,125.000000 
	C31.149624,125.560867 30.879837,126.909798 32.000000,130.000000 
"/>
<path fill="none" opacity="1.000000" stroke="#000000" stroke-linecap="round" stroke-linejoin="round" stroke-width="2.000000"
	d="
M59.500000,124.500000 
	C57.517872,125.799667 54.811016,123.958839 53.000000,126.000000 
"/>
<path fill="none" opacity="1.000000" stroke="#000000" stroke-linecap="round" stroke-linejoin="round" stroke-width="2.000000"
	d="
M134.000000,49.000004 
	C133.333344,50.166668 132.666672,51.333336 132.000000,52.500004 
"/>
<path fill="none" opacity="1.000000" stroke="#000000" stroke-linecap="round" stroke-linejoin="round" stroke-width="2.000000"
	d="
M98.000000,79.500000 
	C95.459862,78.222961 94.813034,82.152512 92.500000,81.500000 
"/>
</svg>