<svg version="1.1" id="Layer_1" xmlns="http://www.w3.org/2000/svg" xmlns:xlink="http://www.w3.org/1999/xlink" x="0px" y="0px"
	 width="100%" viewBox="0 0 180 185" enable-background="new 0 0 180 185" xml:space="preserve">
<path fill="#EFF0EF" opacity="1.000000" stroke="none" 
	d="
M148.000000,186.000000 
	C105.312439,186.000000 62.624878,186.000000 19.427715,185.653992 
	C14.281379,180.045059 9.717257,174.714554 4.941781,169.580673 
	C4.069518,168.642944 2.335969,168.506378 1.000001,168.000000 
	C1.000000,156.645767 1.000000,145.291550 1.468149,133.468506 
	C9.950193,133.603683 17.955893,134.444565 25.981077,134.722198 
	C30.743700,134.886932 31.348270,137.502319 30.965477,141.457977 
	C31.244381,142.481949 31.632179,143.253983 32.230267,144.273621 
	C33.622303,144.385818 34.804050,144.250397 36.392944,144.039337 
	C40.909111,142.796997 45.018127,141.630295 49.491241,140.425079 
	C50.578449,140.284546 51.301559,140.182541 52.206520,140.287415 
	C52.922218,139.995651 53.456059,139.496994 54.162514,138.759033 
	C54.886658,138.339218 55.438187,138.158691 56.220909,138.264343 
	C60.757599,138.575378 65.068428,138.702377 69.360924,138.478119 
	C69.825783,138.453842 70.769455,136.212265 70.487083,135.315186 
	C69.476906,132.105881 71.630951,131.859848 73.688484,130.973206 
	C75.891182,130.024017 79.290054,128.797211 79.591377,127.204361 
	C80.044182,124.810829 78.254723,121.993111 77.418625,119.355751 
	C77.219223,119.453667 77.019814,119.551575 76.820412,119.649490 
	C76.820412,117.411171 76.820412,115.172852 76.810776,112.520752 
	C76.996010,110.748543 77.190880,109.390129 77.675705,107.944962 
	C77.927780,106.888588 77.889893,105.918945 77.839600,104.584297 
	C77.978539,103.507439 78.129890,102.795601 78.584969,101.983467 
	C78.954155,100.592583 79.019615,99.301979 79.114815,97.630615 
	C79.928925,94.537407 80.713303,91.824966 81.800201,88.968323 
	C82.318802,87.762566 82.534874,86.700989 82.796272,85.368317 
	C82.984932,84.760979 83.128273,84.424751 83.566620,84.011559 
	C84.279137,82.628716 84.696640,81.322845 85.151772,79.698135 
	C85.587212,78.626823 85.985016,77.874344 86.646942,77.092575 
	C87.259155,76.990852 87.607254,76.918419 88.278488,76.937096 
	C88.810486,79.390739 89.141235,81.749847 89.207756,84.116379 
	C89.549393,96.271210 89.761330,108.430000 90.166481,120.582474 
	C90.260956,123.416039 90.931190,126.230408 91.304283,129.420135 
	C91.151077,130.511536 91.030090,131.236420 90.567047,132.048157 
	C90.167686,133.774796 90.110390,135.414566 90.053650,137.479645 
	C89.958412,139.602783 89.862625,141.300644 89.526581,143.258194 
	C87.752274,147.911758 85.575020,152.244247 88.021484,157.392487 
	C88.444183,158.731796 88.843849,159.694351 89.243515,160.656891 
	C90.326767,159.767990 92.073219,159.054581 92.363960,157.955933 
	C93.115822,155.114853 93.225449,152.103821 93.789314,149.056427 
	C93.988007,148.301346 93.988914,147.650497 94.041519,146.598785 
	C94.128235,144.863892 94.163254,143.529861 94.266632,141.991180 
	C94.334999,141.786530 94.359337,141.355667 94.649673,141.147003 
	C94.978539,138.622360 95.017067,136.306396 95.105179,133.602875 
	C95.172562,132.437408 95.190376,131.659500 95.248886,130.705627 
	C95.289581,130.529678 95.255898,130.170044 95.424408,129.928772 
	C95.626076,129.106812 95.659241,128.526123 95.944427,127.787796 
	C96.098747,126.757690 96.001060,125.885223 95.958130,124.545975 
	C95.997536,116.389969 95.982178,108.700752 96.050598,100.575844 
	C96.025063,98.083267 95.915749,96.026367 95.859650,93.574631 
	C95.766098,92.134712 95.619308,91.089645 95.596146,89.686935 
	C95.531303,87.562218 95.342850,85.795143 95.376640,83.695450 
	C95.635963,81.559937 95.385803,79.687927 95.797783,77.975197 
	C96.150040,76.510757 97.261856,75.229019 98.240295,74.011826 
	C98.726295,74.356003 98.919441,74.620705 99.022125,75.330048 
	C99.915710,77.381622 100.496429,79.364182 101.774956,80.656250 
	C103.808533,82.711349 106.392258,84.208786 108.585571,86.122826 
	C110.761482,88.021667 112.742424,90.143913 114.874039,92.529243 
	C117.935112,98.370148 120.869278,103.885605 123.989143,109.293930 
	C124.494743,110.170410 125.824348,110.571548 126.847687,111.547081 
	C128.109467,115.053459 128.643967,118.793495 133.416656,118.975273 
	C133.855865,119.224854 134.035721,119.441589 134.117599,120.101761 
	C135.075211,124.902405 138.155197,125.625244 142.297241,125.002396 
	C143.082947,125.293106 143.580841,125.562347 144.106873,126.186249 
	C145.090012,127.027275 146.044998,127.513634 146.999969,128.431244 
	C146.788589,131.784592 146.268005,134.724106 146.431412,137.625107 
	C146.753922,143.351227 147.787308,149.047897 147.927628,154.771408 
	C148.182663,165.175293 148.000000,175.589874 148.000000,186.000000 
z"/>
<path fill="#EEEDEC" opacity="1.000000" stroke="none" 
	d="
M1.000000,107.000000 
	C1.000000,71.740417 1.000000,36.480835 1.000000,1.000000 
	C35.353912,1.000000 69.708298,1.000000 104.544495,1.388355 
	C105.005547,3.907086 105.369652,5.372760 108.153984,4.449665 
	C111.583893,3.312542 113.729980,5.020318 114.724693,8.303585 
	C110.723358,9.926463 107.131859,11.875065 103.299583,12.686309 
	C94.556458,14.537118 88.442383,19.551075 83.692825,26.972519 
	C81.985466,25.389465 80.617241,23.867695 78.895218,21.952421 
	C78.403435,23.506557 78.168663,24.248503 77.710785,24.963234 
	C77.487686,24.936018 77.056961,25.064611 76.793861,25.027950 
	C76.357277,25.026867 76.183800,25.062447 75.733856,25.016907 
	C75.269348,24.974888 75.081299,25.013992 74.580734,24.989201 
	C73.848640,24.983044 73.429085,25.040779 72.742554,25.051615 
	C72.299416,25.044857 72.123230,25.085001 71.635788,25.074032 
	C70.909134,25.081638 70.493729,25.140362 69.742905,25.089397 
	C68.943245,25.022497 68.479004,25.065287 67.679352,25.107346 
	C67.134209,25.184179 66.924477,25.261745 66.355438,25.282036 
	C65.022346,25.239536 64.048553,25.254314 62.712830,25.134113 
	C61.587387,25.053415 60.823883,25.107697 59.764000,25.171328 
	C58.902016,25.698393 58.336414,26.216106 57.467506,26.746958 
	C56.778652,26.876196 56.393105,26.992296 55.669868,27.201036 
	C53.224632,29.347988 51.117092,31.402302 48.685966,33.416695 
	C46.454006,34.059967 45.060219,34.918602 47.189919,37.353321 
	C47.255779,38.530853 47.271931,39.316624 47.006439,40.381073 
	C46.754711,42.301956 46.784626,43.944160 46.814545,45.586369 
	C48.547474,45.096294 50.280407,44.606220 52.333679,44.085724 
	C53.426888,44.343937 54.199760,44.632576 55.248093,45.112480 
	C56.715111,45.418381 58.073902,45.963604 59.070580,45.576500 
	C64.761200,43.366268 70.365608,40.934052 76.327560,38.529461 
	C77.095192,38.484772 77.534561,38.487869 78.079681,38.771339 
	C79.311707,39.266232 80.437973,39.480743 81.892593,39.868690 
	C83.456123,41.622753 84.691299,43.203377 85.907257,45.218018 
	C85.897255,47.097969 85.906471,48.543903 85.545532,50.078209 
	C80.894554,50.779663 76.595642,51.289120 72.337555,52.032452 
	C67.183090,52.932259 61.217613,52.372822 58.522293,58.918865 
	C55.399082,61.938774 52.635048,64.909492 49.471794,67.922363 
	C45.745491,68.601280 42.418404,69.238045 39.043182,69.884018 
	C38.292557,68.581772 37.625362,67.424278 36.212608,64.973328 
	C35.188862,67.808556 34.582184,69.488739 33.596119,71.210754 
	C31.819958,71.495422 30.423183,71.738258 28.670055,72.050446 
	C24.686016,73.936852 21.026535,75.400269 21.601465,80.874313 
	C21.755173,82.337807 19.018875,84.830963 17.097532,85.648384 
	C11.615047,87.980858 10.141826,92.991852 7.976644,97.643188 
	C6.301910,101.240929 7.099652,106.697502 1.000000,107.000000 
M44.654762,63.095058 
	C44.953930,63.665195 45.253101,64.235336 45.552269,64.805473 
	C45.971848,64.384674 46.391426,63.963875 46.811005,63.543076 
	C46.241837,63.243393 45.672665,62.943714 44.654762,63.095058 
z"/>
<path fill="#EEEEEE" opacity="1.000000" stroke="none" 
	d="
M127.000000,1.000000 
	C129.041672,1.000000 131.083328,1.000000 133.561798,1.435374 
	C134.937012,6.215936 135.940460,10.548303 136.800369,14.908979 
	C138.589859,23.983765 140.235519,33.087364 142.083069,42.150017 
	C142.775772,45.547867 143.864975,50.526272 147.826187,49.496708 
	C153.869446,47.925987 160.880020,45.844128 163.316315,39.010620 
	C166.464050,30.181604 173.406204,25.892252 181.000000,22.000000 
	C181.000000,39.020893 181.000000,56.041790 180.588074,73.531128 
	C178.872131,73.858200 177.503189,73.924591 176.274948,73.540741 
	C169.754990,71.503075 168.698303,71.854370 165.176010,77.699898 
	C164.665237,78.547562 164.432419,79.647102 163.748444,80.283318 
	C163.001831,80.977798 161.733475,81.801430 160.962006,81.589195 
	C160.156387,81.367569 159.457809,80.055557 159.109940,79.078682 
	C158.794922,78.193985 158.940918,77.113144 159.012680,76.128189 
	C159.338089,71.660393 157.270645,69.929649 152.836685,69.925255 
	C147.891006,69.920349 142.945908,69.336540 138.143097,68.746017 
	C139.008133,67.829567 139.730621,67.171822 140.737274,66.381172 
	C141.858627,65.329346 142.695831,64.410423 143.809906,63.316452 
	C145.271851,61.387486 146.456924,59.633560 148.459793,56.669266 
	C145.897324,57.294701 144.909332,57.535847 143.501007,57.752068 
	C140.840103,57.721264 138.599533,57.715378 136.190430,57.495560 
	C135.678482,57.193016 135.335083,57.104408 134.630142,56.932842 
	C125.803795,53.898430 117.413651,50.544998 107.771553,51.996338 
	C104.241608,52.905376 101.071388,53.812626 97.678352,54.786385 
	C97.455528,54.852898 97.042160,55.066006 96.720306,55.076740 
	C95.904648,55.504562 95.410858,55.921650 94.881699,56.057556 
	C91.129272,53.241413 89.633949,49.449169 88.916534,44.840641 
	C88.064552,42.165581 87.354507,39.796181 86.249359,37.628197 
	C84.616188,34.424400 85.376282,32.937572 89.001305,33.387657 
	C89.685837,34.769402 90.368767,35.768066 91.051697,36.766731 
	C91.366882,35.177067 91.682068,33.587406 92.001511,31.686588 
	C92.009224,30.960772 92.012688,30.546110 92.224251,30.026535 
	C92.432350,29.921623 92.897728,29.947622 93.311783,29.979275 
	C95.193314,29.554157 96.660789,29.097385 98.430923,28.651260 
	C99.130638,28.728464 99.527672,28.795019 100.143806,29.139969 
	C102.909027,28.611652 105.455162,27.804939 108.271729,26.797569 
	C111.748756,23.090315 114.955345,19.583719 118.508591,15.979677 
	C120.580009,11.642724 124.292770,7.348964 118.359756,3.345071 
	C117.914909,3.044858 118.105049,1.803729 118.000000,1.000000 
	C120.041664,1.000000 122.083336,1.000000 124.609550,1.287047 
	C125.410919,1.880554 125.727737,2.187013 126.044556,2.493472 
	C126.363037,1.995647 126.681519,1.497823 127.000000,1.000000 
z"/>
<path fill="#F2F2F2" opacity="1.000000" stroke="none" 
	d="
M148.468658,186.000000 
	C148.000000,175.589874 148.182663,165.175293 147.927628,154.771408 
	C147.787308,149.047897 146.753922,143.351227 146.431412,137.625107 
	C146.268005,134.724106 146.788589,131.784592 147.371460,128.432968 
	C148.485641,128.005051 149.228302,128.006653 150.348267,128.051483 
	C151.482376,128.057724 152.239166,128.020752 153.326538,128.087021 
	C154.118271,128.192612 154.579437,128.194946 155.039795,128.558685 
	C156.405670,131.893845 158.452408,132.708817 161.208603,130.712296 
	C164.577454,128.272018 161.991974,125.851189 160.783310,123.820717 
	C159.005310,120.833801 157.272964,122.672035 155.470901,124.342690 
	C154.533737,124.062080 153.909851,123.882812 153.240860,123.716682 
	C153.195755,123.729820 153.239471,123.812996 153.166122,123.543434 
	C152.766754,123.118874 152.440720,122.963875 152.139648,122.845215 
	C152.164581,122.881554 152.211594,122.806984 152.154984,122.453903 
	C151.246017,119.878616 150.393661,117.656418 149.965057,115.324951 
	C162.814621,113.032166 163.751297,110.704391 156.231750,100.691399 
	C156.132309,100.558990 155.996094,100.452644 155.905670,100.315277 
	C154.495255,98.172569 155.703018,91.210037 158.010590,89.811684 
	C161.540695,87.672501 162.701218,90.694092 164.616501,92.816513 
	C165.668549,93.982338 168.113037,93.891609 169.929703,94.367447 
	C170.443344,92.314560 171.371536,90.250229 171.315247,88.213089 
	C171.281448,86.990158 169.052933,85.850403 168.975662,84.601219 
	C168.837097,82.361031 168.964691,79.592377 170.204224,77.991905 
	C170.837311,77.174484 174.239532,78.094788 176.174026,78.812317 
	C177.934586,79.465340 179.402878,80.906342 181.000000,82.000000 
	C181.000000,116.555603 181.000000,151.111206 181.000000,186.000000 
	C170.314743,186.000000 159.626038,186.000000 148.468658,186.000000 
z"/>
<path fill="#EBECEA" opacity="1.000000" stroke="none" 
	d="
M1.000000,107.468651 
	C7.099652,106.697502 6.301910,101.240929 7.976644,97.643188 
	C10.141826,92.991852 11.615047,87.980858 17.097532,85.648384 
	C19.018875,84.830963 21.755173,82.337807 21.601465,80.874313 
	C21.026535,75.400269 24.686016,73.936852 28.943953,72.175079 
	C29.803389,72.774910 30.032574,73.319473 29.988319,74.053299 
	C30.979233,80.356941 32.450966,80.935822 39.450256,77.923996 
	C44.911755,78.301361 49.958733,78.663490 55.086586,79.178619 
	C55.438347,79.263763 55.709244,79.195908 56.338753,79.092140 
	C57.417137,79.017593 58.136906,78.978958 59.246941,78.963806 
	C63.102196,79.298141 64.299095,81.893639 63.766266,84.560814 
	C62.942558,88.684044 62.015553,93.167740 59.711132,96.522232 
	C56.480301,101.225288 56.073231,106.087326 56.096371,111.642464 
	C52.841927,116.810570 49.643391,121.650513 46.158073,126.653107 
	C40.938988,131.612534 36.006680,136.409286 31.074371,141.206039 
	C31.348270,137.502319 30.743700,134.886932 25.981077,134.722198 
	C17.955893,134.444565 9.950193,133.603683 1.468149,132.999847 
	C1.000000,124.645767 1.000000,116.291534 1.000000,107.468651 
z"/>
<path fill="#F5F5F5" opacity="1.000000" stroke="none" 
	d="
M181.000000,21.531088 
	C173.406204,25.892252 166.464050,30.181604 163.316315,39.010620 
	C160.880020,45.844128 153.869446,47.925987 147.826187,49.496708 
	C143.864975,50.526272 142.775772,45.547867 142.083069,42.150017 
	C140.235519,33.087364 138.589859,23.983765 136.800369,14.908979 
	C135.940460,10.548303 134.937012,6.215936 133.999298,1.435374 
	C149.565048,1.000000 165.130096,1.000000 181.000000,1.000000 
	C181.000000,7.684304 181.000000,14.373240 181.000000,21.531088 
z"/>
<path fill="#F1F1F1" opacity="1.000000" stroke="none" 
	d="
M181.000000,81.555840 
	C179.402878,80.906342 177.934586,79.465340 176.174026,78.812317 
	C174.239532,78.094788 170.837311,77.174484 170.204224,77.991905 
	C168.964691,79.592377 168.837097,82.361031 168.975662,84.601219 
	C169.052933,85.850403 171.281448,86.990158 171.315247,88.213089 
	C171.371536,90.250229 170.443344,92.314560 169.929703,94.367447 
	C168.113037,93.891609 165.668549,93.982338 164.616501,92.816513 
	C162.701218,90.694092 161.540695,87.672501 158.010590,89.811684 
	C155.703018,91.210037 154.495255,98.172569 155.905670,100.315277 
	C155.996094,100.452644 156.132309,100.558990 156.231750,100.691399 
	C163.751297,110.704391 162.814621,113.032166 149.990631,115.262039 
	C149.592484,115.308395 149.696274,115.228607 149.793396,114.805611 
	C150.368912,112.550270 150.271027,110.057335 151.450378,109.028458 
	C153.642136,107.116348 154.120132,105.265030 152.814865,103.018639 
	C150.944809,99.800240 151.460983,94.155334 146.185822,94.213364 
	C140.864624,94.271896 139.392380,91.159721 138.194412,87.200417 
	C136.069275,80.176865 132.497101,74.710587 124.404106,73.781143 
	C123.876434,73.720535 123.467621,72.624962 123.424118,71.996941 
	C126.271988,71.551300 128.699265,71.119530 131.339706,70.575233 
	C131.552872,70.462708 131.973953,70.227974 132.363647,70.278275 
	C134.502411,69.887283 136.251480,69.445992 138.000549,69.004700 
	C142.945908,69.336540 147.891006,69.920349 152.836685,69.925255 
	C157.270645,69.929649 159.338089,71.660393 159.012680,76.128189 
	C158.940918,77.113144 158.794922,78.193985 159.109940,79.078682 
	C159.457809,80.055557 160.156387,81.367569 160.962006,81.589195 
	C161.733475,81.801430 163.001831,80.977798 163.748444,80.283318 
	C164.432419,79.647102 164.665237,78.547562 165.176010,77.699898 
	C168.698303,71.854370 169.754990,71.503075 176.274948,73.540741 
	C177.503189,73.924591 178.872131,73.858200 180.588074,73.999786 
	C181.000000,76.370560 181.000000,78.741112 181.000000,81.555840 
z"/>
<path fill="#EBEBEB" opacity="1.000000" stroke="none" 
	d="
M1.000001,168.469711 
	C2.335969,168.506378 4.069518,168.642944 4.941781,169.580673 
	C9.717257,174.714554 14.281379,180.045059 18.959057,185.653992 
	C13.074268,186.000000 7.148537,186.000000 1.000000,186.000000 
	C1.000000,180.315063 1.000000,174.627243 1.000001,168.469711 
z"/>
<path fill="#D5D6D0" opacity="1.000000" stroke="none" 
	d="
M117.536819,1.000000 
	C118.105049,1.803729 117.914909,3.044858 118.359756,3.345071 
	C124.292770,7.348964 120.580009,11.642724 118.431152,15.585674 
	C118.605042,12.678304 119.203018,10.067491 119.860687,7.196060 
	C117.882690,7.571083 116.453941,7.841970 115.025192,8.112858 
	C113.729980,5.020318 111.583893,3.312542 108.153984,4.449665 
	C105.369652,5.372760 105.005547,3.907086 105.013153,1.388355 
	C109.024544,1.000000 113.049088,1.000000 117.536819,1.000000 
z"/>
<path fill="#D5D6D0" opacity="1.000000" stroke="none" 
	d="
M126.666672,1.000000 
	C126.681519,1.497823 126.363037,1.995647 126.044556,2.493472 
	C125.727737,2.187013 125.410919,1.880554 125.047050,1.287047 
	C125.444443,1.000000 125.888893,1.000000 126.666672,1.000000 
z"/>
<path fill="#8BA057" opacity="1.000000" stroke="none" 
	d="
M78.281250,102.083755 
	C78.129890,102.795601 77.978539,103.507439 77.638092,104.841621 
	C77.427910,106.319878 77.406830,107.175789 77.385750,108.031708 
	C77.190880,109.390129 76.996010,110.748543 76.576736,112.775024 
	C73.005089,124.476669 65.781693,132.293289 55.989716,137.978149 
	C55.438187,138.158691 54.886658,138.339218 53.866566,138.787292 
	C52.940224,139.396744 52.482445,139.738632 52.024666,140.080536 
	C51.301559,140.182541 50.578449,140.284546 49.456635,140.056183 
	C49.039845,139.480377 49.021751,139.234924 49.347130,138.917694 
	C51.576542,137.830429 53.464050,136.817841 55.348137,135.798904 
	C65.062347,130.545410 70.937767,122.166504 73.886070,111.830353 
	C75.719543,105.402611 76.468948,98.672272 77.894737,92.119049 
	C78.717049,88.339569 79.917175,84.642296 81.017258,80.555649 
	C81.401970,78.801231 81.716675,77.399185 82.012695,75.997261 
	C81.994019,75.997375 82.010315,76.030998 82.206100,75.952423 
	C82.269241,75.570648 82.136604,75.267456 81.799339,74.732086 
	C79.145439,75.675575 76.696175,76.851250 74.284309,77.698135 
	C77.489761,73.180885 81.669067,70.663010 86.941010,70.182693 
	C87.102150,70.837776 87.165962,71.099541 87.287216,71.550766 
	C87.344666,71.740211 87.550285,72.078568 87.471970,72.423508 
	C87.412819,73.238022 87.431976,73.707603 87.107300,74.286697 
	C86.636589,75.304764 86.509705,76.213310 86.382828,77.121864 
	C85.985016,77.874344 85.587212,78.626823 84.884995,79.894989 
	C84.144264,81.636627 83.707932,82.862572 83.271606,84.088524 
	C83.128273,84.424751 82.984932,84.760979 82.497917,85.537598 
	C81.935379,87.022835 81.716522,88.067680 81.497681,89.112518 
	C80.713303,91.824966 79.928925,94.537407 78.862015,97.883514 
	C78.480072,99.706047 78.380661,100.894897 78.281250,102.083755 
z"/>
<path fill="#E4E8E0" opacity="1.000000" stroke="none" 
	d="
M56.220909,138.264343 
	C65.781693,132.293289 73.005089,124.476669 76.586380,113.188805 
	C76.820412,115.172852 76.820412,117.411171 76.820412,119.649490 
	C77.019814,119.551575 77.219223,119.453667 77.418625,119.355751 
	C78.254723,121.993111 80.044182,124.810829 79.591377,127.204361 
	C79.290054,128.797211 75.891182,130.024017 73.688484,130.973206 
	C71.630951,131.859848 69.476906,132.105881 70.487083,135.315186 
	C70.769455,136.212265 69.825783,138.453842 69.360924,138.478119 
	C65.068428,138.702377 60.757599,138.575378 56.220909,138.264343 
z"/>
<path fill="#E3E8CE" opacity="1.000000" stroke="none" 
	d="
M87.451134,74.177185 
	C87.431976,73.707603 87.412819,73.238022 87.535706,72.423126 
	C87.677750,72.077820 87.808411,72.082741 88.154800,72.054855 
	C89.380150,72.661903 90.259109,73.296852 91.136131,74.316711 
	C91.480347,77.790634 91.826508,80.879639 92.100357,84.405243 
	C92.240089,86.577026 92.452141,88.312210 92.534714,90.428169 
	C92.530785,91.856895 92.656326,92.904846 92.626221,94.314819 
	C92.733727,96.797821 92.996880,98.918785 93.185516,101.500015 
	C92.519501,110.991386 91.928009,120.022491 91.336510,129.053604 
	C90.931190,126.230408 90.260956,123.416039 90.166481,120.582474 
	C89.761330,108.430000 89.549393,96.271210 89.207756,84.116379 
	C89.141235,81.749847 88.810486,79.390739 88.288208,76.656204 
	C87.800247,75.581863 87.625694,74.879524 87.451134,74.177185 
z"/>
<path fill="#889160" opacity="1.000000" stroke="none" 
	d="
M91.304283,129.420135 
	C91.928009,120.022491 92.519501,110.991386 93.521423,101.492081 
	C94.610176,101.019768 95.288506,101.015648 95.966827,101.011528 
	C95.982178,108.700752 95.997536,116.389969 95.735672,124.726151 
	C95.536430,126.230545 95.614418,127.087990 95.692413,127.945435 
	C95.659241,128.526123 95.626076,129.106812 95.198990,129.926849 
	C94.701996,130.271347 94.598923,130.376495 94.495850,130.481644 
	C94.733292,130.614944 94.970741,130.748260 95.208183,130.881577 
	C95.190376,131.659500 95.172562,132.437408 94.811653,133.885529 
	C94.432144,136.822388 94.395737,139.089020 94.359329,141.355667 
	C94.359337,141.355667 94.334999,141.786530 93.942337,141.803833 
	C92.680336,140.205124 91.811005,138.589127 90.949249,136.555725 
	C90.940918,134.745987 90.925011,133.353638 90.909103,131.961304 
	C91.030090,131.236420 91.151077,130.511536 91.304283,129.420135 
z"/>
<path fill="#90A44A" opacity="1.000000" stroke="none" 
	d="
M49.003654,138.989456 
	C49.021751,139.234924 49.039845,139.480377 49.092537,140.094711 
	C45.018127,141.630295 40.909111,142.796997 36.001999,143.958252 
	C34.142593,143.977234 33.081284,144.001617 32.019978,144.026001 
	C31.632179,143.253983 31.244381,142.481949 30.965477,141.457977 
	C36.006680,136.409286 40.938988,131.612534 46.297844,126.785568 
	C46.724392,126.755371 47.010426,127.008018 46.948402,127.347328 
	C43.674816,131.789383 40.463253,135.892136 36.431431,141.042755 
	C39.360722,140.744324 41.205265,140.656357 43.011513,140.345749 
	C45.027035,139.999146 47.007774,139.450272 49.003654,138.989456 
z"/>
<path fill="#E3EAD4" opacity="1.000000" stroke="none" 
	d="
M114.808868,92.168182 
	C112.742424,90.143913 110.761482,88.021667 108.585571,86.122826 
	C106.392258,84.208786 103.808533,82.711349 101.774956,80.656250 
	C100.496429,79.364182 99.915710,77.381622 99.358582,75.391113 
	C102.308205,77.148613 104.921188,79.223824 107.555023,81.298141 
	C107.575890,81.297241 107.615936,81.308846 107.620445,81.610336 
	C108.047447,82.320946 108.469940,82.730064 108.932037,83.082794 
	C108.971657,83.026405 108.860786,83.108292 108.990860,83.381317 
	C109.633789,83.904221 110.146645,84.154099 110.681213,84.324478 
	C110.702927,84.244987 110.584435,84.359543 110.593796,84.656509 
	C111.027496,85.353317 111.451836,85.753166 111.887596,86.093758 
	C111.899017,86.034500 111.819565,86.125359 111.897949,86.420914 
	C112.558083,87.239029 113.139847,87.761597 113.781418,88.261139 
	C113.841240,88.238113 113.780991,88.124969 113.840584,88.449005 
	C114.229446,89.050400 114.558716,89.327759 114.808243,89.697723 
	C114.728500,89.790337 114.868340,89.990791 114.902039,90.302734 
	C115.022003,91.022652 115.108261,91.430634 115.098312,91.921242 
	C115.002106,92.003876 114.808868,92.168182 114.808868,92.168182 
z"/>
<path fill="#E3EAD4" opacity="1.000000" stroke="none" 
	d="
M126.773071,111.192406 
	C125.824348,110.571548 124.494743,110.170410 123.989143,109.293930 
	C120.869278,103.885605 117.935112,98.370148 114.874039,92.529243 
	C114.808868,92.168182 115.002106,92.003876 115.335922,92.058014 
	C116.095886,92.454018 116.522034,92.795876 117.084579,93.444550 
	C120.513748,99.474571 123.806503,105.197792 127.018333,110.989594 
	C126.937401,111.058174 126.773071,111.192406 126.773071,111.192406 
z"/>
<path fill="#A8B182" opacity="1.000000" stroke="none" 
	d="
M90.941673,136.973114 
	C91.811005,138.589127 92.680336,140.205124 93.873970,142.008484 
	C94.163254,143.529861 94.128235,144.863892 93.731636,146.644241 
	C92.926064,147.704010 92.482063,148.317459 91.878311,149.276718 
	C90.776871,151.414780 89.835175,153.207016 88.880905,154.565414 
	C89.167839,150.420547 89.467339,146.709518 89.766830,142.998489 
	C89.862625,141.300644 89.958412,139.602783 90.276047,137.462830 
	C90.497894,137.020737 90.941673,136.973114 90.941673,136.973114 
z"/>
<path fill="#87A439" opacity="1.000000" stroke="none" 
	d="
M107.534164,81.299042 
	C104.921188,79.223824 102.308205,77.148613 99.358765,75.012337 
	C98.919441,74.620705 98.726295,74.356003 98.162033,73.774712 
	C97.650940,72.954094 97.420685,72.515938 97.502991,72.041550 
	C98.531273,71.659645 99.246986,71.313965 100.311127,71.006699 
	C101.782440,71.327263 102.905327,71.609428 104.130760,72.121742 
	C104.487427,72.565506 104.741531,72.779114 104.974426,73.285263 
	C105.296982,74.390190 105.640755,75.202591 106.030739,76.370667 
	C106.562691,78.250580 107.048424,79.774811 107.534164,81.299042 
z"/>
<path fill="#99A184" opacity="1.000000" stroke="none" 
	d="
M88.893463,154.999252 
	C89.835175,153.207016 90.776871,151.414780 92.266220,149.336090 
	C93.073097,149.086624 93.332314,149.123627 93.591537,149.160645 
	C93.225449,152.103821 93.115822,155.114853 92.363960,157.955933 
	C92.073219,159.054581 90.326767,159.767990 89.243515,160.656891 
	C88.843849,159.694351 88.444183,158.731796 88.155426,157.150055 
	C88.475380,156.020309 88.684418,155.509781 88.893463,154.999252 
z"/>
<path fill="#90A44A" opacity="1.000000" stroke="none" 
	d="
M152.995972,127.983772 
	C152.239166,128.020752 151.482376,128.057724 150.145676,127.763000 
	C147.736771,126.898071 145.907761,126.364830 144.078751,125.831589 
	C143.580841,125.562347 143.082947,125.293106 142.171570,124.780197 
	C141.404556,124.174019 141.051041,123.811501 141.083954,123.338943 
	C144.278793,122.244339 147.231949,127.098747 150.339569,123.003784 
	C151.214218,122.928452 151.712906,122.867714 152.211594,122.806976 
	C152.211594,122.806984 152.164581,122.881554 152.228180,123.106987 
	C152.607666,123.492615 152.923569,123.652802 153.239471,123.812996 
	C153.239471,123.812996 153.195755,123.729820 153.146179,124.142960 
	C153.063049,125.698662 153.029510,126.841217 152.995972,127.983772 
z"/>
<path fill="#A9B193" opacity="1.000000" stroke="none" 
	d="
M97.190422,72.077782 
	C97.420685,72.515938 97.650940,72.954094 97.959457,73.629364 
	C97.261856,75.229019 96.150040,76.510757 95.797783,77.975197 
	C95.385803,79.687927 95.635963,81.559937 95.109612,83.685532 
	C94.442719,83.998642 94.265106,83.989067 94.073944,83.517883 
	C94.013901,80.095459 93.681694,77.097221 94.062172,74.192329 
	C94.213425,73.037514 95.943375,72.089478 97.004509,71.306992 
	C97.099754,71.737053 97.145088,71.907417 97.190422,72.077782 
z"/>
<path fill="#E3E8CE" opacity="1.000000" stroke="none" 
	d="
M88.880905,154.565414 
	C88.684418,155.509781 88.475380,156.020309 88.132393,156.773270 
	C85.575020,152.244247 87.752274,147.911758 89.526581,143.258194 
	C89.467339,146.709518 89.167839,150.420547 88.880905,154.565414 
z"/>
<path fill="#909A74" opacity="1.000000" stroke="none" 
	d="
M96.050598,100.575844 
	C95.288506,101.015648 94.610176,101.019768 93.595947,101.031815 
	C92.996880,98.918785 92.733727,96.797821 92.920555,94.324326 
	C94.182503,93.971031 94.994461,93.970253 95.806427,93.969475 
	C95.915749,96.026367 96.025063,98.083267 96.050598,100.575844 
z"/>
<path fill="#E3EAD4" opacity="1.000000" stroke="none" 
	d="
M140.697510,123.448990 
	C141.051041,123.811501 141.404556,124.174019 141.883759,124.758728 
	C138.155197,125.625244 135.075211,124.902405 134.417786,120.234055 
	C135.712112,120.463676 136.672089,120.951477 137.650970,121.438751 
	C137.669891,121.438225 137.707382,121.448784 137.814758,121.672920 
	C138.174896,122.149605 138.479218,122.259880 138.920929,122.123848 
	C139.006729,122.019806 138.824203,122.217445 138.972961,122.464897 
	C139.641724,122.934814 140.161697,123.157288 140.691910,123.395248 
	C140.702133,123.410736 140.697510,123.448990 140.697510,123.448990 
z"/>
<path fill="#909A74" opacity="1.000000" stroke="none" 
	d="
M94.087494,83.979500 
	C94.265106,83.989067 94.442719,83.998642 94.887367,84.018143 
	C95.342850,85.795143 95.531303,87.562218 95.314377,89.682800 
	C94.160728,90.039993 93.412460,90.043694 92.664192,90.047386 
	C92.452141,88.312210 92.240089,86.577026 92.418259,84.410530 
	C93.234825,83.979309 93.661156,83.979408 94.087494,83.979500 
z"/>
<path fill="#E3EAD4" opacity="1.000000" stroke="none" 
	d="
M133.221085,118.889473 
	C128.643967,118.793495 128.109467,115.053459 126.847687,111.547081 
	C126.773071,111.192406 126.937401,111.058174 127.295776,111.152054 
	C129.006500,112.876884 130.358826,114.507843 131.801376,116.441803 
	C132.334763,117.459694 132.777924,118.174583 133.221085,118.889473 
z"/>
<path fill="#889160" opacity="1.000000" stroke="none" 
	d="
M92.534714,90.428169 
	C93.412460,90.043694 94.160728,90.039993 95.190765,90.040436 
	C95.619308,91.089645 95.766098,92.134712 95.859650,93.574631 
	C94.994461,93.970253 94.182503,93.971031 93.076202,93.962296 
	C92.656326,92.904846 92.530785,91.856895 92.534714,90.428169 
z"/>
<path fill="#A9B193" opacity="1.000000" stroke="none" 
	d="
M94.649673,141.147003 
	C94.395737,139.089020 94.432144,136.822388 94.762077,134.273071 
	C95.017067,136.306396 94.978539,138.622360 94.649673,141.147003 
z"/>
<path fill="#90A44A" opacity="1.000000" stroke="none" 
	d="
M133.416656,118.975273 
	C132.777924,118.174583 132.334763,117.459694 132.104736,116.404686 
	C132.520828,116.051369 132.723801,116.038177 133.217957,116.188553 
	C134.883469,118.047836 136.257767,119.743561 137.632065,121.439285 
	C136.672089,120.951477 135.712112,120.463676 134.451950,119.843582 
	C134.035721,119.441589 133.855865,119.224854 133.416656,118.975273 
z"/>
<path fill="#E3E8CE" opacity="1.000000" stroke="none" 
	d="
M90.949249,136.555725 
	C90.941673,136.973114 90.497894,137.020737 90.275497,137.037537 
	C90.110390,135.414566 90.167686,133.774796 90.567047,132.048157 
	C90.925011,133.353638 90.940918,134.745987 90.949249,136.555725 
z"/>
<path fill="#E3EAD4" opacity="1.000000" stroke="none" 
	d="
M144.106873,126.186249 
	C145.907761,126.364830 147.736771,126.898071 149.768372,127.719788 
	C149.228302,128.006653 148.485641,128.005051 147.371490,128.001724 
	C146.044998,127.513634 145.090012,127.027275 144.106873,126.186249 
z"/>
<path fill="#D1DBCD" opacity="1.000000" stroke="none" 
	d="
M83.566620,84.011559 
	C83.707932,82.862572 84.144264,81.636627 84.847366,80.213821 
	C84.696640,81.322845 84.279137,82.628716 83.566620,84.011559 
z"/>
<path fill="#D1DBCD" opacity="1.000000" stroke="none" 
	d="
M78.584976,101.983467 
	C78.380661,100.894897 78.480072,99.706047 78.832275,98.264282 
	C79.019615,99.301979 78.954155,100.592583 78.584976,101.983467 
z"/>
<path fill="#E4E8E0" opacity="1.000000" stroke="none" 
	d="
M77.675705,107.944962 
	C77.406830,107.175789 77.427910,106.319878 77.650497,105.206635 
	C77.889893,105.918945 77.927780,106.888588 77.675705,107.944962 
z"/>
<path fill="#D1DBCD" opacity="1.000000" stroke="none" 
	d="
M81.800201,88.968323 
	C81.716522,88.067680 81.935379,87.022835 82.452591,85.808708 
	C82.534874,86.700989 82.318802,87.762566 81.800201,88.968323 
z"/>
<path fill="#D1DBCD" opacity="1.000000" stroke="none" 
	d="
M87.107300,74.286697 
	C87.625694,74.879524 87.800247,75.581863 87.965080,76.565094 
	C87.607254,76.918419 87.259155,76.990852 86.646942,77.092575 
	C86.509705,76.213310 86.636589,75.304764 87.107300,74.286697 
z"/>
<path fill="#A9B193" opacity="1.000000" stroke="none" 
	d="
M95.944420,127.787796 
	C95.614418,127.087990 95.536430,126.230545 95.680908,125.192932 
	C96.001060,125.885223 96.098747,126.757690 95.944420,127.787796 
z"/>
<path fill="#A9B193" opacity="1.000000" stroke="none" 
	d="
M93.789314,149.056427 
	C93.332314,149.123627 93.073097,149.086624 92.425964,148.990265 
	C92.482063,148.317459 92.926064,147.704010 93.679947,147.045105 
	C93.988914,147.650497 93.988007,148.301346 93.789314,149.056427 
z"/>
<path fill="#E4E8E0" opacity="1.000000" stroke="none" 
	d="
M52.206520,140.287415 
	C52.482445,139.738632 52.940224,139.396744 53.693951,139.026596 
	C53.456059,139.496994 52.922218,139.995651 52.206520,140.287415 
z"/>
<path fill="#E3EAD4" opacity="1.000000" stroke="none" 
	d="
M32.230267,144.273621 
	C33.081284,144.001617 34.142593,143.977234 35.594849,144.033905 
	C34.804050,144.250397 33.622303,144.385818 32.230267,144.273621 
z"/>
<path fill="#A9B193" opacity="1.000000" stroke="none" 
	d="
M95.248886,130.705627 
	C94.970741,130.748260 94.733292,130.614944 94.495850,130.481644 
	C94.598923,130.376495 94.701996,130.271347 95.030487,130.168121 
	C95.255898,130.170044 95.289581,130.529678 95.248886,130.705627 
z"/>
<path fill="#8DAA2C" opacity="1.000000" stroke="none" 
	d="
M114.724693,8.303584 
	C116.453941,7.841970 117.882690,7.571083 119.860687,7.196060 
	C119.203018,10.067491 118.605042,12.678304 118.084503,15.683121 
	C114.955345,19.583719 111.748756,23.090315 107.841087,26.778690 
	C104.734909,27.594172 102.329811,28.227871 99.924713,28.861572 
	C99.527672,28.795019 99.130638,28.728464 98.148788,28.433544 
	C96.008560,28.785992 94.453148,29.366808 92.897728,29.947624 
	C92.897728,29.947622 92.432350,29.921623 91.872307,29.976997 
	C88.775963,30.623123 86.239662,31.213877 83.632469,31.831093 
	C83.561577,31.857557 83.410797,31.849854 83.389969,31.500801 
	C83.590073,29.779099 83.811012,28.406450 84.031952,27.033802 
	C88.442383,19.551075 94.556458,14.537118 103.299583,12.686309 
	C107.131859,11.875065 110.723358,9.926463 114.724693,8.303584 
M86.464333,27.977036 
	C86.201866,28.123793 85.939400,28.270552 85.676933,28.417309 
	C86.144859,28.300486 86.612778,28.183662 87.368874,27.926414 
	C87.227127,27.927740 87.085373,27.929066 86.464333,27.977036 
M108.332054,17.035475 
	C102.073189,20.049652 94.733383,20.975698 89.511208,25.964180 
	C95.835297,23.977722 101.942406,21.607857 107.989220,19.093025 
	C108.537239,18.865110 108.697281,17.704311 108.332054,17.035475 
z"/>
<path fill="#889E3F" opacity="1.000000" stroke="none" 
	d="
M58.856674,78.940323 
	C58.136906,78.978958 57.417137,79.017593 56.103645,78.985847 
	C55.341850,78.952187 55.173782,78.988899 55.005714,79.025620 
	C49.958733,78.663490 44.911755,78.301361 39.197441,77.691086 
	C35.773994,76.249969 33.017876,75.056999 30.261759,73.864029 
	C30.032574,73.319473 29.803389,72.774910 29.300306,72.105728 
	C30.423183,71.738258 31.819958,71.495422 33.925613,71.418732 
	C39.382290,71.010170 44.130093,70.435463 48.864426,70.241707 
	C44.919277,71.923973 40.987595,73.225296 37.055916,74.526619 
	C40.433235,76.016846 43.810474,76.806168 47.208523,76.909218 
	C51.962704,77.053406 56.732403,76.686020 61.329899,76.797318 
	C60.395115,77.684868 59.625896,78.312592 58.856674,78.940323 
z"/>
<path fill="#BDB049" opacity="1.000000" stroke="none" 
	d="
M49.009552,33.456615 
	C51.117092,31.402302 53.224632,29.347988 55.798180,27.409222 
	C56.479176,27.780725 56.743320,27.966988 57.037197,28.411047 
	C57.002060,29.388163 56.986340,30.037783 56.949867,31.081165 
	C57.246891,36.498451 53.546215,36.408276 50.216099,36.508148 
	C50.509418,38.501637 50.766121,40.246269 50.989887,42.244247 
	C49.733994,41.699196 48.511040,40.900799 47.288086,40.102398 
	C47.271931,39.316624 47.255779,38.530853 47.457741,37.202858 
	C48.120422,35.592628 48.564987,34.524620 49.009552,33.456615 
z"/>
<path fill="#91821D" opacity="1.000000" stroke="none" 
	d="
M51.022820,41.990906 
	C50.766121,40.246269 50.509418,38.501637 50.216099,36.508148 
	C53.546215,36.408276 57.246891,36.498451 57.251984,31.223322 
	C58.348610,31.384365 59.122368,31.797014 59.931038,32.394943 
	C59.965946,32.580227 60.001659,32.955612 59.992989,33.227062 
	C59.990780,33.679455 59.997242,33.860401 60.001373,34.411339 
	C59.999676,35.521332 60.000313,36.261330 59.667152,37.041595 
	C59.327148,38.743073 59.320946,40.404289 59.109924,42.289764 
	C57.594284,43.316422 56.283455,44.118820 54.972630,44.921215 
	C54.199760,44.632576 53.426888,44.343937 52.314537,43.774681 
	C51.657642,42.993011 51.340233,42.491959 51.022820,41.990906 
z"/>
<path fill="#E5E8DE" opacity="1.000000" stroke="none" 
	d="
M58.881474,58.869678 
	C61.217613,52.372822 67.183090,52.932259 72.337555,52.032452 
	C76.595642,51.289120 80.894554,50.779663 85.725128,50.368324 
	C86.175117,52.012428 86.075356,53.454788 85.581612,54.904507 
	C83.124168,54.646297 81.060699,54.380726 78.539413,54.064339 
	C71.145523,53.409397 64.527275,53.963356 59.114758,59.115791 
	C59.036209,59.034504 58.881474,58.869678 58.881474,58.869678 
z"/>
<path fill="#99A184" opacity="1.000000" stroke="none" 
	d="
M85.975594,54.897148 
	C86.075356,53.454788 86.175117,52.012428 86.095291,50.279953 
	C85.906471,48.543903 85.897255,47.097969 86.282928,45.241570 
	C87.412476,44.966198 88.147110,45.101292 88.881752,45.236389 
	C89.633949,49.449169 91.129272,53.241413 94.824722,56.320187 
	C94.572769,57.533314 94.342430,58.202641 93.750427,58.912251 
	C92.904144,58.965004 92.419533,58.977474 91.696266,58.768425 
	C90.729645,56.564720 90.299728,53.981636 87.337784,56.503487 
	C86.883720,55.968037 86.429657,55.432590 85.975594,54.897148 
z"/>
<path fill="#B8B179" opacity="1.000000" stroke="none" 
	d="
M55.248093,45.112480 
	C56.283455,44.118820 57.594284,43.316422 59.372810,42.236046 
	C60.261646,41.636143 60.682781,41.314220 61.437359,41.038246 
	C62.513988,40.724220 63.257175,40.364246 64.251053,39.827190 
	C64.717438,39.083023 64.933128,38.515938 65.537865,38.016636 
	C66.452461,38.063137 66.978012,38.041859 67.808762,38.012611 
	C68.773727,37.623829 69.433502,37.243023 70.452751,36.944199 
	C71.307281,37.037552 71.802322,37.048916 72.418457,37.058537 
	C72.539543,37.056793 72.779579,37.024529 73.050018,37.257534 
	C74.237900,37.612087 75.155327,37.733635 76.087128,38.039032 
	C76.101486,38.222878 75.999306,38.577248 75.999306,38.577248 
	C70.365608,40.934052 64.761200,43.366268 59.070580,45.576500 
	C58.073902,45.963604 56.715111,45.418381 55.248093,45.112480 
z"/>
<path fill="#E5E8DE" opacity="1.000000" stroke="none" 
	d="
M88.916534,44.840641 
	C88.147110,45.101292 87.412476,44.966198 86.302155,44.807552 
	C84.691299,43.203377 83.456123,41.622753 82.014626,39.632553 
	C82.625168,38.824085 83.442024,38.425194 84.772064,37.775707 
	C83.613319,36.668617 82.751823,35.845524 81.987434,34.713619 
	C82.624146,33.538082 83.163750,32.671356 83.703362,31.804628 
	C86.239662,31.213877 88.775963,30.623123 91.664207,30.081909 
	C92.012688,30.546110 92.009224,30.960772 91.708488,31.814663 
	C90.607376,32.504120 89.803535,32.754349 88.999695,33.004578 
	C85.376282,32.937572 84.616188,34.424400 86.249359,37.628197 
	C87.354507,39.796181 88.064552,42.165581 88.916534,44.840641 
z"/>
<path fill="#E5E8DE" opacity="1.000000" stroke="none" 
	d="
M48.877892,69.860764 
	C44.130093,70.435463 39.382290,71.010170 34.305000,71.376892 
	C34.582184,69.488739 35.188862,67.808556 36.212608,64.973328 
	C37.625362,67.424278 38.292557,68.581772 39.043182,69.884018 
	C42.418404,69.238045 45.745491,68.601280 49.534897,67.987938 
	C49.997219,68.011360 50.118992,68.146622 49.971970,68.377121 
	C49.519112,69.044739 49.213276,69.481857 48.905388,69.902115 
	C48.903339,69.885254 48.877892,69.860764 48.877892,69.860764 
z"/>
<path fill="#77670C" opacity="1.000000" stroke="none" 
	d="
M76.010315,25.098026 
	C76.183800,25.062447 76.357277,25.026867 76.822571,25.398125 
	C77.717735,27.490482 78.321091,29.176001 79.012215,31.287680 
	C79.176376,31.992834 79.252762,32.271828 78.991203,32.587261 
	C77.985031,32.693756 77.316803,32.763817 76.463562,32.832729 
	C76.278534,32.831585 75.921242,32.927963 75.671982,32.956638 
	C75.256920,33.007553 75.091133,33.029793 74.639221,32.896198 
	C73.539902,32.485016 72.726707,32.229668 71.626495,31.947651 
	C70.954742,31.906973 70.570015,31.892963 69.988892,31.738785 
	C69.510643,32.056763 69.228798,32.514908 68.965012,32.980064 
	C68.983086,32.987076 68.971451,32.943962 68.669456,32.897209 
	C67.969818,32.757309 67.572174,32.664162 66.852112,32.415661 
	C64.990654,31.842115 63.451611,31.423929 62.250393,30.957197 
	C62.808365,30.853346 63.028503,30.798040 63.576492,30.773079 
	C64.591965,30.202671 65.279587,29.601923 66.250412,28.995247 
	C66.721474,28.970200 66.909340,28.951080 67.372879,29.065849 
	C68.409042,29.441269 69.169533,29.682800 70.363480,29.930422 
	C71.651917,29.806070 72.506897,29.675627 73.648209,29.631203 
	C74.388420,28.493670 74.842285,27.270111 75.451340,25.918858 
	C75.791710,25.589596 75.926300,25.358551 76.010315,25.098026 
z"/>
<path fill="#B8B179" opacity="1.000000" stroke="none" 
	d="
M83.692825,26.972519 
	C83.811012,28.406450 83.590073,29.779099 83.045547,31.651752 
	C81.789673,32.287483 80.857384,32.423210 79.937790,32.550976 
	C79.950485,32.543018 79.977554,32.530113 79.979889,32.085381 
	C79.956062,31.345316 79.929909,31.049982 79.913345,30.361723 
	C79.259918,28.309349 78.596909,26.649899 77.933891,24.990448 
	C78.168663,24.248503 78.403435,23.506557 78.895218,21.952421 
	C80.617241,23.867695 81.985466,25.389465 83.692825,26.972519 
z"/>
<path fill="#E5E8DE" opacity="1.000000" stroke="none" 
	d="
M49.934116,67.945786 
	C52.635048,64.909492 55.399082,61.938774 58.522293,58.918865 
	C58.881474,58.869678 59.036209,59.034504 58.916840,59.371498 
	C58.127556,60.752964 57.457642,61.797436 56.826870,62.902229 
	C56.866013,62.962543 56.842247,62.820709 56.567482,62.936810 
	C55.826519,63.679356 55.360325,64.305801 54.937847,64.956001 
	C54.981564,64.979752 54.927692,64.896095 54.636196,65.011581 
	C53.742424,65.924255 53.140148,66.721436 52.712410,67.761711 
	C52.767605,67.843102 52.648266,67.681404 52.222519,67.572357 
	C51.317074,67.798874 50.718033,67.972748 50.118992,68.146622 
	C50.118992,68.146622 49.997219,68.011360 49.934116,67.945786 
z"/>
<path fill="#ADAA52" opacity="1.000000" stroke="none" 
	d="
M50.989883,42.244247 
	C51.340233,42.491959 51.657642,42.993011 51.994194,43.805107 
	C50.280407,44.606220 48.547474,45.096294 46.814545,45.586369 
	C46.784626,43.944160 46.754711,42.301956 47.006439,40.381073 
	C48.511040,40.900799 49.733994,41.699196 50.989883,42.244247 
z"/>
<path fill="#B8B179" opacity="1.000000" stroke="none" 
	d="
M81.890327,35.022427 
	C82.751823,35.845524 83.613319,36.668617 84.772064,37.775707 
	C83.442024,38.425194 82.625168,38.824085 81.686279,39.459114 
	C80.437973,39.480743 79.311707,39.266232 78.114517,38.415596 
	C78.084892,37.545204 78.126183,37.310928 78.470062,36.998947 
	C79.204613,36.255970 79.636581,35.590702 80.372375,34.939617 
	C81.080902,34.976673 81.485619,34.999550 81.890327,35.022427 
z"/>
<path fill="#CEC146" opacity="1.000000" stroke="none" 
	d="
M77.710785,24.963232 
	C78.596909,26.649899 79.259918,28.309349 79.669464,30.394138 
	C79.416008,30.819479 78.924438,30.861521 78.924438,30.861519 
	C78.321091,29.176001 77.717735,27.490482 77.085678,25.434788 
	C77.056961,25.064611 77.487686,24.936018 77.710785,24.963232 
z"/>
<path fill="#9C8C1C" opacity="1.000000" stroke="none" 
	d="
M73.361862,29.545181 
	C72.506897,29.675627 71.651917,29.806070 70.389839,29.544800 
	C69.956787,28.119621 69.930840,27.086157 69.971741,25.844065 
	C70.038597,25.635437 70.078331,25.199085 70.078331,25.199085 
	C70.493729,25.140362 70.909134,25.081638 71.673218,25.350090 
	C72.300812,26.141699 72.579704,26.606133 72.882858,27.388556 
	C73.058693,28.319426 73.210274,28.932304 73.361862,29.545181 
z"/>
<path fill="#D8CA4F" opacity="1.000000" stroke="none" 
	d="
M73.648209,29.631205 
	C73.210274,28.932304 73.058693,28.319426 72.928116,27.061260 
	C72.969254,25.976822 72.989388,25.537670 73.009521,25.098515 
	C73.429085,25.040779 73.848640,24.983044 74.657303,25.247328 
	C75.129646,25.728416 75.212898,25.887486 75.296150,26.046555 
	C74.842285,27.270111 74.388420,28.493670 73.648209,29.631205 
z"/>
<path fill="#D8CA4F" opacity="1.000000" stroke="none" 
	d="
M69.904892,26.052692 
	C69.930840,27.086157 69.956787,28.119621 69.956375,29.538708 
	C69.169533,29.682800 68.409042,29.441269 67.334991,28.707253 
	C66.919197,27.256283 66.816971,26.297798 66.714745,25.339314 
	C66.924477,25.261745 67.134209,25.184179 67.859360,25.314926 
	C68.884819,25.699722 69.394859,25.876207 69.904892,26.052692 
z"/>
<path fill="#91821D" opacity="1.000000" stroke="none" 
	d="
M66.355438,25.282036 
	C66.816971,26.297798 66.919197,27.256283 67.059311,28.573364 
	C66.909340,28.951080 66.721474,28.970200 65.985374,28.877880 
	C64.940506,28.177000 64.443863,27.587561 63.859268,26.786486 
	C63.630260,26.296440 63.431931,26.067682 63.171509,25.730335 
	C63.166691,25.572092 63.074760,25.269094 63.074760,25.269094 
	C64.048553,25.254314 65.022346,25.239536 66.355438,25.282036 
z"/>
<path fill="#ADAA52" opacity="1.000000" stroke="none" 
	d="
M48.685966,33.416695 
	C48.564987,34.524620 48.120422,35.592628 47.408035,36.811096 
	C45.060219,34.918602 46.454006,34.059967 48.685966,33.416695 
z"/>
<path fill="#E5E8DE" opacity="1.000000" stroke="none" 
	d="
M44.879128,62.869545 
	C45.672665,62.943714 46.241837,63.243393 46.811005,63.543076 
	C46.391426,63.963875 45.971848,64.384674 45.552269,64.805473 
	C45.253101,64.235336 44.953930,63.665195 44.879128,62.869545 
z"/>
<path fill="#B8B179" opacity="1.000000" stroke="none" 
	d="
M57.770809,26.733822 
	C58.336414,26.216106 58.902016,25.698393 59.866066,25.374664 
	C60.441971,25.828739 60.678734,26.012396 60.976658,26.329136 
	C60.978527,26.538649 60.984024,26.960045 60.986084,26.969368 
	C60.988140,26.978691 60.978683,26.952171 60.574692,26.944790 
	C59.370739,26.869545 58.570774,26.801683 57.770809,26.733822 
z"/>
<path fill="#AA9633" opacity="1.000000" stroke="none" 
	d="
M57.467506,26.746958 
	C58.570774,26.801683 59.370739,26.869545 60.590622,27.187967 
	C61.010536,27.438528 61.026962,27.924925 60.655052,27.939442 
	C59.785454,27.977499 59.287758,28.001038 58.500839,28.036058 
	C57.826614,28.059542 57.441612,28.071547 57.056614,28.083551 
	C56.743320,27.966988 56.479176,27.780725 56.135872,27.316582 
	C56.393105,26.992296 56.778652,26.876196 57.467506,26.746958 
z"/>
<path fill="#91821D" opacity="1.000000" stroke="none" 
	d="
M78.167480,37.076656 
	C78.126183,37.310928 78.084892,37.545204 78.008766,38.135220 
	C77.534561,38.487869 77.095192,38.484772 76.327560,38.529461 
	C75.999306,38.577248 76.101486,38.222878 76.101860,37.771988 
	C76.602646,36.906910 77.103058,36.492729 77.741104,36.329987 
	C77.974976,36.746498 78.071228,36.911575 78.167480,37.076656 
z"/>
<path fill="#889160" opacity="1.000000" stroke="none" 
	d="
M60.974789,26.119623 
	C60.678734,26.012396 60.441971,25.828739 60.162441,25.365314 
	C60.823883,25.107697 61.587387,25.053415 62.712830,25.134113 
	C63.074760,25.269094 63.166691,25.572092 62.803444,25.775295 
	C61.951725,26.025537 61.463257,26.072580 60.974789,26.119623 
z"/>
<path fill="#BDB049" opacity="1.000000" stroke="none" 
	d="
M69.971741,25.844065 
	C69.394859,25.876207 68.884819,25.699722 68.194778,25.315657 
	C68.479004,25.065287 68.943245,25.022497 69.742905,25.089397 
	C70.078331,25.199085 70.038597,25.635437 69.971741,25.844065 
z"/>
<path fill="#BDB049" opacity="1.000000" stroke="none" 
	d="
M72.742554,25.051617 
	C72.989388,25.537670 72.969254,25.976822 72.903870,26.743271 
	C72.579704,26.606133 72.300812,26.141699 71.984474,25.401207 
	C72.123230,25.085001 72.299416,25.044857 72.742554,25.051617 
z"/>
<path fill="#9C8C1C" opacity="1.000000" stroke="none" 
	d="
M75.451340,25.918858 
	C75.212898,25.887486 75.129646,25.728416 74.969826,25.311222 
	C75.081299,25.013992 75.269348,24.974888 75.733856,25.016907 
	C75.926300,25.358551 75.791710,25.589596 75.451340,25.918858 
z"/>
<path fill="#7E913E" opacity="1.000000" stroke="none" 
	d="
M108.131287,51.994549 
	C117.413651,50.544998 125.803795,53.898430 134.643295,57.164108 
	C135.017975,57.478329 135.054214,57.940186 135.015533,57.981377 
	C134.976852,58.022564 134.899139,58.104622 134.585236,58.088997 
	C133.851303,58.065212 133.431274,58.057056 132.721207,57.905441 
	C131.617706,57.522118 130.804260,57.282257 129.628799,57.020432 
	C128.542267,56.964394 127.817741,56.930325 126.882065,56.597771 
	C124.801514,55.827717 122.932121,55.356148 120.763199,54.632668 
	C118.332039,54.226566 116.200417,54.072380 113.868912,53.698357 
	C113.103508,53.375183 112.537979,53.271851 111.612717,53.139603 
	C110.533722,53.090942 109.814468,53.071205 108.983444,52.834114 
	C108.680511,52.343163 108.433716,52.135757 108.131287,51.994549 
z"/>
<path fill="#72961C" opacity="1.000000" stroke="none" 
	d="
M94.112091,58.871967 
	C94.342430,58.202641 94.572769,57.533314 94.860085,56.601364 
	C95.410858,55.921650 95.904648,55.504562 96.827194,55.276962 
	C97.452782,55.714027 97.705620,55.871971 98.379707,55.949539 
	C99.475250,55.941803 100.205559,55.924816 101.253143,55.936356 
	C102.719299,55.953140 103.868187,55.941399 105.251091,55.934418 
	C105.485115,55.939182 105.953239,55.943134 106.163208,56.037838 
	C106.651649,56.279461 106.868523,56.489872 107.007332,57.068924 
	C106.990776,57.577805 106.990654,57.781532 106.558495,57.993767 
	C103.769821,58.002266 101.413200,58.002266 98.952042,58.002266 
	C100.459938,59.640381 101.641281,60.923756 102.459915,62.182373 
	C99.435493,61.062401 96.773796,59.967182 94.112091,58.871967 
z"/>
<path fill="#8FB028" opacity="1.000000" stroke="none" 
	d="
M105.953239,55.943138 
	C105.953239,55.943134 105.485115,55.939182 105.079948,55.652580 
	C103.187195,53.881699 101.805016,53.124729 100.935860,55.907829 
	C100.205559,55.924816 99.475250,55.941803 98.350967,55.644791 
	C97.938377,55.127148 97.919777,54.923512 97.901176,54.719875 
	C101.071388,53.812626 104.241608,52.905376 107.771553,51.996338 
	C108.433716,52.135757 108.680511,52.343163 108.750534,53.066643 
	C107.737335,54.325394 106.845291,55.134266 105.953239,55.943138 
z"/>
<path fill="#919F6A" opacity="1.000000" stroke="none" 
	d="
M143.921326,57.776993 
	C144.909332,57.535847 145.897324,57.294701 148.459793,56.669266 
	C146.456924,59.633560 145.271851,61.387486 143.660416,63.175797 
	C143.234039,63.210182 142.923325,62.941872 142.948715,62.553345 
	C142.979599,61.123909 142.985077,60.083004 143.216614,58.890854 
	C143.602219,58.418736 143.761780,58.097862 143.921326,57.776993 
z"/>
<path fill="#E5E8DE" opacity="1.000000" stroke="none" 
	d="
M100.143806,29.139967 
	C102.329811,28.227871 104.734909,27.594172 107.570648,26.979351 
	C105.455162,27.804939 102.909027,28.611652 100.143806,29.139967 
z"/>
<path fill="#EEEDEC" opacity="1.000000" stroke="none" 
	d="
M89.001305,33.387657 
	C89.803535,32.754349 90.607376,32.504120 91.704239,32.125816 
	C91.682068,33.587406 91.366882,35.177067 91.051697,36.766731 
	C90.368767,35.768066 89.685837,34.769402 89.001305,33.387657 
z"/>
<path fill="#919F6A" opacity="1.000000" stroke="none" 
	d="
M138.143097,68.746010 
	C136.251480,69.445992 134.502411,69.887283 132.500610,69.952728 
	C134.166824,68.394424 136.085785,67.211967 138.330811,66.029892 
	C139.090164,66.000938 139.523422,65.971626 140.079163,66.086685 
	C140.201614,66.231056 140.453125,66.514069 140.453125,66.514069 
	C139.730621,67.171822 139.008133,67.829567 138.143097,68.746010 
z"/>
<path fill="#E5E8DE" opacity="1.000000" stroke="none" 
	d="
M93.311783,29.979277 
	C94.453148,29.366808 96.008560,28.785992 97.846115,28.422895 
	C96.660789,29.097385 95.193314,29.554157 93.311783,29.979277 
z"/>
<path fill="#7E913E" opacity="1.000000" stroke="none" 
	d="
M143.501007,57.752068 
	C143.761780,58.097862 143.602219,58.418736 142.773529,58.883217 
	C139.737076,59.008961 137.369736,58.991093 134.982147,58.755413 
	C134.961914,58.537601 134.899139,58.104622 134.899139,58.104622 
	C134.899139,58.104622 134.976852,58.022564 135.345184,57.945568 
	C135.928650,57.815544 136.143799,57.762520 136.358963,57.709492 
	C138.599533,57.715378 140.840103,57.721264 143.501007,57.752068 
z"/>
<path fill="#919F6A" opacity="1.000000" stroke="none" 
	d="
M143.383545,63.350838 
	C142.695831,64.410423 141.858627,65.329346 140.737274,66.381172 
	C140.453125,66.514069 140.201614,66.231056 140.227524,65.820137 
	C141.143402,64.586769 142.033356,63.764320 142.923325,62.941872 
	C142.923325,62.941872 143.234039,63.210182 143.383545,63.350838 
z"/>
<path fill="#919F6A" opacity="1.000000" stroke="none" 
	d="
M136.190430,57.495560 
	C136.143799,57.762520 135.928650,57.815544 135.383850,57.904381 
	C135.054214,57.940186 135.017975,57.478329 135.004822,57.247063 
	C135.335083,57.104408 135.678482,57.193016 136.190430,57.495560 
z"/>
<path fill="#8AB512" opacity="1.000000" stroke="none" 
	d="
M97.678352,54.786385 
	C97.919777,54.923512 97.938377,55.127148 97.985725,55.635536 
	C97.705620,55.871971 97.452782,55.714027 97.149048,55.266228 
	C97.042160,55.066006 97.455528,54.852898 97.678352,54.786385 
z"/>
<path fill="#92A659" opacity="1.000000" stroke="none" 
	d="
M152.154984,122.453896 
	C151.712906,122.867714 151.214218,122.928452 150.127457,122.890686 
	C149.272659,122.594200 149.085953,122.337906 148.962585,121.726044 
	C148.623215,120.965302 148.300537,120.501823 147.983551,120.025253 
	C147.989258,120.012154 147.960770,120.011505 147.867493,119.800476 
	C147.598083,119.325455 147.363007,119.133759 146.923889,118.694855 
	C140.785110,109.085564 135.215561,99.480194 128.630722,90.630264 
	C124.973686,85.715248 119.622246,82.060951 114.983704,77.490517 
	C112.595146,76.101845 110.257378,75.061089 107.608185,74.018517 
	C106.882477,74.046707 106.468216,74.076714 105.937790,73.869217 
	C105.546303,73.418724 105.270973,73.205719 104.995644,72.992722 
	C104.741531,72.779114 104.487427,72.565506 104.273926,71.915382 
	C104.851532,71.070869 105.388527,70.662880 106.282578,70.329056 
	C109.184258,71.485420 111.872887,72.318771 114.248314,73.693359 
	C123.931587,79.296776 131.101471,87.563957 137.460205,96.535583 
	C141.763611,102.607323 145.632843,108.986786 149.696274,115.228607 
	C149.696274,115.228607 149.592484,115.308395 149.566895,115.371307 
	C150.393661,117.656418 151.246017,119.878616 152.154984,122.453896 
z"/>
<path fill="#EFF0EF" opacity="1.000000" stroke="none" 
	d="
M155.784180,124.444031 
	C157.272964,122.672035 159.005310,120.833801 160.783310,123.820717 
	C161.991974,125.851189 164.577454,128.272018 161.208603,130.712296 
	C158.452408,132.708817 156.405670,131.893845 155.091949,128.228012 
	C155.357986,126.505280 155.571075,125.474655 155.784180,124.444031 
z"/>
<path fill="#92A659" opacity="1.000000" stroke="none" 
	d="
M155.470886,124.342690 
	C155.571075,125.474655 155.357986,126.505280 155.092743,127.866592 
	C154.579437,128.194946 154.118271,128.192612 153.326538,128.087021 
	C153.029510,126.841217 153.063049,125.698662 153.191284,124.129822 
	C153.909851,123.882812 154.533737,124.062080 155.470886,124.342690 
z"/>
<path fill="#92A659" opacity="1.000000" stroke="none" 
	d="
M153.166122,123.543434 
	C152.923569,123.652802 152.607666,123.492615 152.203232,123.070648 
	C152.440720,122.963875 152.766754,123.118874 153.166122,123.543434 
z"/>
<path fill="#E8EEE5" opacity="1.000000" stroke="none" 
	d="
M59.246941,78.963806 
	C59.625896,78.312592 60.395115,77.684868 61.333511,76.784836 
	C61.502682,76.512535 61.522770,76.495270 61.641708,76.547699 
	C61.760647,76.600121 62.009449,76.524780 62.390076,76.476273 
	C67.785278,73.133934 72.900993,69.981659 77.778801,66.496422 
	C81.020874,64.179932 83.922974,61.387634 87.126328,59.197342 
	C87.515213,62.370495 87.755028,65.154625 87.956833,68.232285 
	C87.588188,69.003532 87.257545,69.481262 86.936386,69.901726 
	C86.945869,69.844467 86.843689,69.789391 86.843689,69.789391 
	C81.669067,70.663010 77.489761,73.180885 74.081757,77.976318 
	C70.143768,84.608521 66.445747,90.633751 62.465012,96.881577 
	C60.172291,101.840889 58.162281,106.577591 56.152275,111.314293 
	C56.073231,106.087326 56.480301,101.225288 59.711132,96.522232 
	C62.015553,93.167740 62.942558,88.684044 63.766266,84.560814 
	C64.299095,81.893639 63.102196,79.298141 59.246941,78.963806 
z"/>
<path fill="#90A44A" opacity="1.000000" stroke="none" 
	d="
M56.096367,111.642464 
	C58.162281,106.577591 60.172291,101.840889 62.531994,97.299026 
	C60.216633,104.256271 57.551579,111.018692 54.607773,117.986053 
	C51.889492,121.129997 49.449959,124.069008 47.010429,127.008018 
	C47.010426,127.008018 46.724392,126.755371 46.584621,126.622910 
	C49.643391,121.650513 52.841927,116.810570 56.096367,111.642464 
z"/>
<path fill="#E5E8DE" opacity="1.000000" stroke="none" 
	d="
M29.988319,74.053299 
	C33.017876,75.056999 35.773994,76.249969 38.782928,77.675858 
	C32.450966,80.935822 30.979233,80.356941 29.988319,74.053299 
z"/>
<path fill="#E8EEE5" opacity="1.000000" stroke="none" 
	d="
M55.086586,79.178619 
	C55.173782,78.988899 55.341850,78.952187 55.745029,79.021759 
	C55.709244,79.195908 55.438347,79.263763 55.086586,79.178619 
z"/>
<path fill="#EAEDE9" opacity="1.000000" stroke="none" 
	d="
M149.793396,114.805611 
	C145.632843,108.986786 141.763611,102.607323 137.460205,96.535583 
	C131.101471,87.563957 123.931587,79.296776 114.248314,73.693359 
	C111.872887,72.318771 109.184258,71.485420 105.958694,70.092865 
	C101.876137,69.118660 98.474510,68.454819 95.051468,67.419304 
	C94.531403,66.020142 94.032745,64.992653 93.434784,63.575943 
	C93.284164,62.654545 93.232849,62.122368 93.673523,61.686909 
	C97.326042,62.303490 100.486572,62.823357 103.785782,63.368145 
	C103.924461,63.393070 104.117889,63.598019 104.252014,63.939415 
	C106.165833,64.973633 107.945534,65.666458 109.883774,66.659225 
	C114.362724,68.643051 118.683121,70.326927 123.003525,72.010811 
	C123.467621,72.624962 123.876434,73.720535 124.404106,73.781143 
	C132.497101,74.710587 136.069275,80.176865 138.194412,87.200417 
	C139.392380,91.159721 140.864624,94.271896 146.185822,94.213364 
	C151.460983,94.155334 150.944809,99.800240 152.814865,103.018639 
	C154.120132,105.265030 153.642136,107.116348 151.450378,109.028458 
	C150.271027,110.057335 150.368912,112.550270 149.793396,114.805611 
z"/>
<path fill="#8AB512" opacity="1.000000" stroke="none" 
	d="
M134.585236,58.088997 
	C134.899139,58.104622 134.961914,58.537601 135.230103,59.030327 
	C141.042145,60.771900 141.119522,60.972744 138.004745,66.029518 
	C136.085785,67.211967 134.166824,68.394424 132.110901,69.902420 
	C131.973953,70.227974 131.552872,70.462708 130.920914,70.345078 
	C125.844353,69.681557 121.399757,69.135674 116.848740,68.251144 
	C116.135818,67.631737 115.529312,67.350983 114.958084,67.051102 
	C114.993378,67.031975 114.974640,67.110046 114.783539,66.821091 
	C113.703606,66.373146 112.814766,66.214149 111.958641,66.039330 
	C111.991348,66.023506 111.990837,66.096169 111.820297,65.824921 
	C111.046738,65.402740 110.443718,65.251801 109.838554,65.138451 
	C109.836411,65.176041 109.773048,65.216736 109.698044,64.865936 
	C107.369576,63.708004 105.116104,62.900867 102.871048,62.128571 
	C102.879471,62.163414 102.822639,62.207123 102.822632,62.207123 
	C101.641281,60.923756 100.459938,59.640381 98.952042,58.002266 
	C101.413200,58.002266 103.769821,58.002266 106.980743,58.003922 
	C114.964157,59.467228 122.093277,60.928879 129.222382,62.390530 
	C129.345718,61.671646 129.469055,60.952763 129.592392,60.233879 
	C122.069519,59.077179 114.546646,57.920479 107.023773,56.763775 
	C106.868523,56.489872 106.651649,56.279461 106.163208,56.037842 
	C106.845291,55.134266 107.737335,54.325394 108.862289,53.283997 
	C109.814468,53.071205 110.533722,53.090942 111.820557,53.341099 
	C112.948349,53.687073 113.508568,53.802631 114.068787,53.918198 
	C116.200417,54.072380 118.332039,54.226566 120.965530,54.928085 
	C123.342674,55.949028 125.217941,56.422642 127.093216,56.896255 
	C127.817741,56.930325 128.542267,56.964394 129.765869,57.281555 
	C131.180389,57.726063 132.095825,57.887482 133.011261,58.048904 
	C133.431274,58.057056 133.851303,58.065212 134.585236,58.088997 
z"/>
<path fill="#D1DEBC" opacity="1.000000" stroke="none" 
	d="
M116.955154,68.589798 
	C121.399757,69.135674 125.844353,69.681557 130.707748,70.457596 
	C128.699265,71.119530 126.271988,71.551300 123.424118,71.996941 
	C118.683121,70.326927 114.362724,68.643051 109.943283,66.573914 
	C109.844254,66.188652 109.973625,66.031082 110.310547,66.054596 
	C111.095261,66.084129 111.543053,66.090149 111.990837,66.096161 
	C111.990837,66.096169 111.991348,66.023506 112.160667,66.328072 
	C113.211540,66.791771 114.093086,66.950905 114.974640,67.110046 
	C114.974640,67.110046 114.993378,67.031975 115.024002,67.395531 
	C115.688133,68.035988 116.321648,68.312889 116.955154,68.589798 
z"/>
<path fill="#8CB908" opacity="1.000000" stroke="none" 
	d="
M46.948406,127.347328 
	C49.449959,124.069008 51.889492,121.129997 54.875282,118.250481 
	C55.930782,119.865768 56.440018,121.421555 57.174118,123.242180 
	C58.321518,122.961693 59.726063,122.635666 60.089817,121.836121 
	C62.831120,115.810669 65.028809,109.517586 68.052109,103.645767 
	C72.037506,95.905373 76.620926,88.472885 80.947243,80.908020 
	C79.917175,84.642296 78.717049,88.339569 77.894737,92.119049 
	C76.468948,98.672272 75.719543,105.402611 73.886070,111.830353 
	C70.937767,122.166504 65.062347,130.545410 55.348137,135.798904 
	C53.464050,136.817841 51.576542,137.830429 49.347130,138.917694 
	C47.007774,139.450272 45.027035,139.999146 43.011513,140.345749 
	C41.205265,140.656357 39.360722,140.744324 36.431431,141.042755 
	C40.463253,135.892136 43.674816,131.789383 46.948406,127.347328 
z"/>
<path fill="#8DAF27" opacity="1.000000" stroke="none" 
	d="
M56.949253,122.977348 
	C56.440018,121.421555 55.930782,119.865768 55.154037,118.045547 
	C57.551579,111.018692 60.216633,104.256271 62.814705,97.076416 
	C66.445747,90.633751 70.143768,84.608521 74.044350,78.305107 
	C76.696175,76.851250 79.145439,75.675575 81.798592,74.998970 
	C82.005089,75.675690 82.007698,75.853348 82.010315,76.030998 
	C82.010315,76.030998 81.994019,75.997375 81.711525,76.154152 
	C79.050949,79.663490 76.191864,82.776711 74.382759,86.412392 
	C68.368256,98.499527 62.731098,110.774437 56.949253,122.977348 
z"/>
<path fill="#6B970A" opacity="1.000000" stroke="none" 
	d="
M57.174118,123.242180 
	C62.731098,110.774437 68.368256,98.499527 74.382759,86.412392 
	C76.191864,82.776711 79.050949,79.663490 81.730209,76.154037 
	C81.716675,77.399185 81.401970,78.801231 81.017258,80.555649 
	C76.620926,88.472885 72.037506,95.905373 68.052109,103.645767 
	C65.028809,109.517586 62.831120,115.810669 60.089817,121.836121 
	C59.726063,122.635666 58.321518,122.961693 57.174118,123.242180 
z"/>
<path fill="#909A74" opacity="1.000000" stroke="none" 
	d="
M91.138069,73.931793 
	C90.259109,73.296852 89.380150,72.661903 88.146820,71.874435 
	C87.692825,71.464310 87.505272,71.344116 87.229774,71.361313 
	C87.165962,71.099541 87.102150,70.837776 86.941010,70.182693 
	C86.843689,69.789391 86.945869,69.844467 87.278992,69.850632 
	C88.710678,69.552101 89.809258,69.247414 91.178085,69.171738 
	C91.344917,70.911095 91.241493,72.421440 91.138069,73.931793 
z"/>
<path fill="#D1DBCD" opacity="1.000000" stroke="none" 
	d="
M87.287216,71.550766 
	C87.505272,71.344116 87.692825,71.464310 87.800430,71.902321 
	C87.808411,72.082741 87.677750,72.077820 87.614014,72.078194 
	C87.550285,72.078568 87.344666,71.740211 87.287216,71.550766 
z"/>
<path fill="#6B970A" opacity="1.000000" stroke="none" 
	d="
M82.206100,75.952423 
	C82.007698,75.853348 82.005089,75.675690 82.003220,75.231148 
	C82.136604,75.267456 82.269241,75.570648 82.206100,75.952423 
z"/>
<path fill="#84945F" opacity="1.000000" stroke="none" 
	d="
M91.136131,74.316711 
	C91.241493,72.421440 91.344917,70.911095 91.059807,68.866417 
	C90.339592,68.045441 90.007919,67.758797 89.811943,67.091156 
	C89.878006,64.748650 90.076904,62.721066 89.617859,60.855362 
	C89.409317,60.007755 87.897743,59.480755 86.977249,58.808319 
	C83.922974,61.387634 81.020874,64.179932 77.778801,66.496422 
	C72.900993,69.981659 67.785278,73.133934 62.402428,76.071640 
	C62.046558,75.186256 62.058964,74.656982 62.419460,74.042862 
	C71.163834,71.044540 76.405441,64.360085 82.137466,57.837868 
	C81.872581,57.124275 81.357674,56.535801 80.554749,55.897430 
	C79.843559,55.270077 79.420403,54.692616 78.997238,54.115154 
	C81.060699,54.380726 83.124168,54.646297 85.581612,54.904503 
	C86.429657,55.432590 86.883720,55.968037 87.337784,56.503487 
	C90.299728,53.981636 90.729645,56.564720 91.727280,59.026741 
	C92.391815,60.201118 92.786667,60.895653 93.181534,61.590191 
	C93.232849,62.122368 93.284164,62.654545 93.304176,63.831566 
	C93.872871,65.581261 94.472878,66.686127 95.072876,67.790985 
	C98.474510,68.454819 101.876137,69.118660 105.601646,70.018692 
	C105.388527,70.662880 104.851532,71.070869 104.171371,71.685226 
	C102.905327,71.609428 101.782440,71.327263 100.120865,70.769829 
	C98.706314,70.678802 97.830460,70.863052 96.954597,71.047302 
	C95.943375,72.089478 94.213425,73.037514 94.062172,74.192329 
	C93.681694,77.097221 94.013901,80.095459 94.073944,83.517883 
	C93.661156,83.979408 93.234825,83.979309 92.490578,83.973923 
	C91.826508,80.879639 91.480347,77.790634 91.136131,74.316711 
z"/>
<path fill="#8CAF2E" opacity="1.000000" stroke="none" 
	d="
M107.555023,81.298141 
	C107.048424,79.774811 106.562691,78.250580 106.049683,76.355576 
	C106.022400,75.984802 106.060593,75.955933 106.369507,76.109924 
	C107.784065,76.509583 108.889694,76.755241 109.997513,77.000603 
	C109.999695,77.000305 109.999352,77.004845 110.005096,77.352486 
	C113.665131,81.803543 117.319420,85.906967 120.570465,90.007454 
	C119.087746,90.001389 118.008270,89.998253 116.585938,89.996529 
	C115.784836,89.995560 115.326584,89.993172 114.868340,89.990791 
	C114.868340,89.990791 114.728500,89.790337 114.736603,89.374557 
	C114.423470,88.680832 114.102234,88.402901 113.780991,88.124969 
	C113.780991,88.124969 113.841240,88.238113 113.825310,87.906258 
	C113.146111,87.091385 112.482841,86.608368 111.819565,86.125359 
	C111.819565,86.125359 111.899017,86.034500 111.892975,85.765198 
	C111.452774,85.117111 111.018608,84.738327 110.584435,84.359543 
	C110.584435,84.359543 110.702927,84.244987 110.642288,83.997925 
	C110.008034,83.536674 109.434410,83.322487 108.860786,83.108292 
	C108.860786,83.108292 108.971657,83.026405 108.933624,82.756302 
	C108.469032,82.093742 108.042480,81.701294 107.615936,81.308846 
	C107.615936,81.308846 107.575890,81.297241 107.555023,81.298141 
z"/>
<path fill="#87A439" opacity="1.000000" stroke="none" 
	d="
M114.902039,90.302734 
	C115.326584,89.993172 115.784836,89.995560 116.606735,90.326424 
	C116.987251,91.094841 117.004112,91.534775 117.005066,92.265610 
	C116.975510,92.750259 116.961845,92.944000 116.948174,93.137741 
	C116.522034,92.795876 116.095886,92.454018 115.432129,91.975388 
	C115.108261,91.430634 115.022003,91.022652 114.902039,90.302734 
z"/>
<path fill="#87A439" opacity="1.000000" stroke="none" 
	d="
M111.897949,86.420914 
	C112.482841,86.608368 113.146111,87.091385 113.765488,87.929276 
	C113.139847,87.761597 112.558083,87.239029 111.897949,86.420914 
z"/>
<path fill="#87A439" opacity="1.000000" stroke="none" 
	d="
M110.593796,84.656509 
	C111.018608,84.738327 111.452774,85.117111 111.881561,85.824455 
	C111.451836,85.753166 111.027496,85.353317 110.593796,84.656509 
z"/>
<path fill="#87A439" opacity="1.000000" stroke="none" 
	d="
M108.990860,83.381317 
	C109.434410,83.322487 110.008034,83.536674 110.620575,84.077423 
	C110.146645,84.154099 109.633789,83.904221 108.990860,83.381317 
z"/>
<path fill="#87A439" opacity="1.000000" stroke="none" 
	d="
M107.620445,81.610336 
	C108.042480,81.701294 108.469032,82.093742 108.894005,82.812691 
	C108.469940,82.730064 108.047447,82.320946 107.620445,81.610336 
z"/>
<path fill="#87A439" opacity="1.000000" stroke="none" 
	d="
M113.840584,88.449005 
	C114.102234,88.402901 114.423470,88.680832 114.816345,89.281944 
	C114.558716,89.327759 114.229446,89.050400 113.840584,88.449005 
z"/>
<path fill="#8CAF2E" opacity="1.000000" stroke="none" 
	d="
M117.084579,93.444550 
	C116.961845,92.944000 116.975510,92.750259 117.334442,92.340164 
	C122.762062,100.090866 127.844406,108.057930 132.926758,116.024994 
	C132.723801,116.038177 132.520828,116.051369 132.014526,116.101685 
	C130.358826,114.507843 129.006500,112.876884 127.376709,111.083466 
	C123.806503,105.197792 120.513748,99.474571 117.084579,93.444550 
z"/>
<path fill="#92A659" opacity="1.000000" stroke="none" 
	d="
M97.004509,71.306992 
	C97.830460,70.863052 98.706314,70.678802 99.772438,70.731415 
	C99.246986,71.313965 98.531273,71.659645 97.502991,72.041550 
	C97.145088,71.907417 97.099754,71.737053 97.004509,71.306992 
z"/>
<path fill="#8CAF2E" opacity="1.000000" stroke="none" 
	d="
M104.974426,73.285263 
	C105.270973,73.205719 105.546303,73.418724 105.935425,74.176743 
	C106.053017,75.133141 106.056801,75.544540 106.060593,75.955933 
	C106.060593,75.955933 106.022400,75.984802 106.003464,75.999893 
	C105.640755,75.202591 105.296982,74.390190 104.974426,73.285263 
z"/>
<path fill="#8CB60A" opacity="1.000000" stroke="none" 
	d="
M133.217957,116.188553 
	C127.844406,108.057930 122.762062,100.090866 117.350342,92.049255 
	C117.004112,91.534775 116.987251,91.094841 116.949600,90.325012 
	C118.008270,89.998253 119.087746,90.001389 120.582390,90.007385 
	C120.997566,90.010239 120.988655,90.026497 120.999229,90.388809 
	C122.040436,91.828529 123.071068,92.905937 124.388275,94.152634 
	C128.601181,99.296555 132.527496,104.271179 136.453812,109.245811 
	C137.143631,108.640373 137.833435,108.034927 138.523239,107.429482 
	C133.735291,102.233475 128.947342,97.037468 124.124176,91.486969 
	C121.054047,87.430458 118.019112,83.728432 114.989609,79.662659 
	C115.008186,78.812088 115.021339,78.325264 115.034492,77.838432 
	C119.622246,82.060951 124.973686,85.715248 128.630722,90.630264 
	C135.215561,99.480194 140.785110,109.085564 146.998688,118.917282 
	C147.397003,119.735985 147.644394,119.920082 147.960770,120.011505 
	C147.960770,120.011505 147.989258,120.012154 148.007416,120.319496 
	C148.343491,121.092323 148.661377,121.557808 148.979279,122.023300 
	C149.085953,122.337906 149.272659,122.594200 149.751495,122.905289 
	C147.231949,127.098747 144.278793,122.244339 141.083954,123.338943 
	C140.697510,123.448990 140.702133,123.410736 140.625763,123.078590 
	C139.974319,122.570114 139.399261,122.393784 138.824203,122.217445 
	C138.824203,122.217445 139.006729,122.019806 138.842682,121.864639 
	C138.354889,121.622574 138.031128,121.535675 137.707382,121.448776 
	C137.707382,121.448784 137.669891,121.438225 137.650970,121.438751 
	C136.257767,119.743561 134.883469,118.047836 133.217957,116.188553 
z"/>
<path fill="#90A44A" opacity="1.000000" stroke="none" 
	d="
M138.972961,122.464897 
	C139.399261,122.393784 139.974319,122.570114 140.615540,123.063103 
	C140.161697,123.157288 139.641724,122.934814 138.972961,122.464897 
z"/>
<path fill="#90A44A" opacity="1.000000" stroke="none" 
	d="
M137.814758,121.672913 
	C138.031128,121.535675 138.354889,121.622574 138.756882,121.968674 
	C138.479218,122.259880 138.174896,122.149605 137.814758,121.672913 
z"/>
<path fill="#638805" opacity="1.000000" stroke="none" 
	d="
M108.684769,17.006105 
	C108.697281,17.704311 108.537239,18.865110 107.989220,19.093025 
	C101.942406,21.607857 95.835297,23.977722 89.511208,25.964180 
	C94.733383,20.975698 102.073189,20.049652 108.684769,17.006105 
z"/>
<path fill="#7A754B" opacity="1.000000" stroke="none" 
	d="
M81.987434,34.713619 
	C81.485619,34.999550 81.080902,34.976673 80.290848,34.547958 
	C79.912033,33.614391 79.918564,33.086662 79.925102,32.558929 
	C80.857384,32.423210 81.789673,32.287483 83.066376,32.000809 
	C83.410797,31.849854 83.561577,31.857557 83.632469,31.831093 
	C83.163750,32.671356 82.624146,33.538082 81.987434,34.713619 
z"/>
<path fill="#638805" opacity="1.000000" stroke="none" 
	d="
M87.080704,28.066837 
	C86.612778,28.183662 86.144859,28.300486 85.676933,28.417309 
	C85.939400,28.270552 86.201866,28.123793 86.736595,27.989483 
	C87.008858,28.001932 87.080704,28.066837 87.080704,28.066837 
z"/>
<path fill="#638805" opacity="1.000000" stroke="none" 
	d="
M86.976242,27.966162 
	C87.085373,27.929066 87.227127,27.927740 87.224792,27.996626 
	C87.080704,28.066837 87.008858,28.001932 86.976242,27.966162 
z"/>
<path fill="#8CB70F" opacity="1.000000" stroke="none" 
	d="
M81.887444,57.962990 
	C76.405441,64.360085 71.163834,71.044540 62.131725,74.233055 
	C61.504856,75.170494 61.513813,75.832886 61.522770,76.495270 
	C61.522770,76.495270 61.502682,76.512535 61.499069,76.525017 
	C56.732403,76.686020 51.962704,77.053406 47.208523,76.909218 
	C43.810474,76.806168 40.433235,76.016846 37.055916,74.526619 
	C40.987595,73.225296 44.919277,71.923973 48.864426,70.241707 
	C48.877892,69.860764 48.903339,69.885254 49.271580,69.939209 
	C50.602856,69.168678 51.565891,68.344193 52.528931,67.519707 
	C52.648266,67.681404 52.767605,67.843102 53.067173,67.803123 
	C53.807499,66.699661 54.367596,65.797882 54.927696,64.896095 
	C54.927692,64.896095 54.981564,64.979752 55.278534,64.936142 
	C55.997753,64.201927 56.420002,63.511318 56.842247,62.820709 
	C56.842247,62.820709 56.866013,62.962543 57.193268,62.922195 
	C61.966991,60.782715 65.213943,55.960377 70.968819,57.270744 
	C70.417496,58.513042 69.912834,59.422184 69.050301,60.976021 
	C73.813240,59.858101 77.850342,58.910545 81.887444,57.962990 
M67.366096,61.861515 
	C67.237617,61.565731 67.109131,61.269943 66.289963,61.060558 
	C62.838253,63.880241 59.386539,66.699921 55.934830,69.519600 
	C56.380909,70.013245 56.826988,70.506889 57.273067,71.000534 
	C60.525967,68.031700 63.778862,65.062859 67.366096,61.861515 
z"/>
<path fill="#CEC146" opacity="1.000000" stroke="none" 
	d="
M57.037197,28.411047 
	C57.441612,28.071547 57.826614,28.059542 58.701691,28.295135 
	C59.793579,28.694202 60.395386,28.845673 60.998596,28.998581 
	C61.000000,29.000017 61.002510,29.003565 60.945694,29.328941 
	C60.942692,30.090120 60.996506,30.525925 60.928032,31.226652 
	C60.502537,31.730938 60.199333,31.970301 59.896130,32.209663 
	C59.122368,31.797014 58.348610,31.384365 57.272736,30.829559 
	C56.986340,30.037783 57.002060,29.388163 57.037197,28.411047 
z"/>
<path fill="#9C8C1C" opacity="1.000000" stroke="none" 
	d="
M64.000366,40.004276 
	C63.257175,40.364246 62.513988,40.724220 61.411823,40.687675 
	C60.702217,39.194553 60.351582,38.097939 60.000950,37.001328 
	C60.000313,36.261330 59.999676,35.521332 60.375885,34.405823 
	C61.502041,34.022362 62.251350,34.014416 63.001869,33.996994 
	C63.003082,33.987518 63.022526,33.986012 63.010323,34.172989 
	C62.998119,34.359970 62.967403,34.733219 62.923897,35.142616 
	C63.253719,37.036102 63.627041,38.520191 64.000366,40.004276 
z"/>
<path fill="#AA9633" opacity="1.000000" stroke="none" 
	d="
M59.931038,32.394943 
	C60.199333,31.970301 60.502537,31.730938 61.143089,31.244709 
	C61.480442,30.997843 61.912563,31.005743 61.912563,31.005741 
	C63.451611,31.423929 64.990654,31.842115 66.640472,32.623383 
	C66.516251,33.295830 66.281273,33.605198 65.668289,33.936604 
	C64.534363,33.967766 63.778446,33.976891 63.022526,33.986012 
	C63.022526,33.986012 63.003082,33.987518 62.831604,33.700058 
	C61.773968,33.260265 60.887814,33.107941 60.001659,32.955612 
	C60.001659,32.955612 59.965946,32.580227 59.931038,32.394943 
z"/>
<path fill="#CEC146" opacity="1.000000" stroke="none" 
	d="
M59.667152,37.041595 
	C60.351582,38.097939 60.702217,39.194553 61.078384,40.641731 
	C60.682781,41.314220 60.261646,41.636143 59.577621,42.011784 
	C59.320946,40.404289 59.327148,38.743073 59.667152,37.041595 
z"/>
<path fill="#77670C" opacity="1.000000" stroke="none" 
	d="
M59.992989,33.227062 
	C60.887814,33.107941 61.773968,33.260265 62.830391,33.709534 
	C62.251350,34.014416 61.502041,34.022362 60.378220,34.035828 
	C59.997242,33.860401 59.990780,33.679455 59.992989,33.227062 
z"/>
<path fill="#889E3F" opacity="1.000000" stroke="none" 
	d="
M71.015480,56.937592 
	C65.213943,55.960377 61.966991,60.782715 57.154129,62.861881 
	C57.457642,61.797436 58.127556,60.752964 58.995388,59.452782 
	C64.527275,53.963356 71.145523,53.409397 78.539413,54.064339 
	C79.420403,54.692616 79.843559,55.270077 80.328346,56.171814 
	C77.265137,56.643257 74.140312,56.790424 71.015480,56.937592 
z"/>
<path fill="#D1DEBC" opacity="1.000000" stroke="none" 
	d="
M93.673523,61.686909 
	C92.786667,60.895653 92.391815,60.201118 91.965942,59.248260 
	C92.419533,58.977474 92.904144,58.965004 93.750427,58.912251 
	C96.773796,59.967182 99.435493,61.062401 102.459915,62.182373 
	C102.822639,62.207123 102.879471,62.163414 102.944817,62.367352 
	C103.222481,62.828598 103.434792,63.085907 103.647102,63.343220 
	C100.486572,62.823357 97.326042,62.303490 93.673523,61.686909 
z"/>
<path fill="#CEC146" opacity="1.000000" stroke="none" 
	d="
M66.046288,33.914562 
	C66.281273,33.605198 66.516251,33.295830 66.962883,32.778740 
	C67.572174,32.664162 67.969818,32.757309 68.774139,33.227196 
	C69.484962,34.690029 69.789116,35.776123 70.093269,36.862213 
	C69.433502,37.243023 68.773727,37.623829 67.723351,37.650368 
	C66.903923,36.168919 66.475105,35.041740 66.046288,33.914562 
z"/>
<path fill="#CEC146" opacity="1.000000" stroke="none" 
	d="
M71.913513,31.974323 
	C72.726707,32.229668 73.539902,32.485016 74.653587,33.129372 
	C74.954079,33.518375 75.061996,33.973625 75.055069,34.348045 
	C74.291946,35.489815 73.535767,36.257172 72.779579,37.024529 
	C72.779579,37.024529 72.539543,37.056793 72.366196,36.634418 
	C72.099731,34.799469 72.006622,33.386898 71.913513,31.974323 
z"/>
<path fill="#9C8C1C" opacity="1.000000" stroke="none" 
	d="
M71.626495,31.947653 
	C72.006622,33.386898 72.099731,34.799469 72.245110,36.636162 
	C71.802322,37.048916 71.307281,37.037552 70.452751,36.944199 
	C69.789116,35.776123 69.484962,34.690029 69.076126,33.273949 
	C68.971451,32.943962 68.983086,32.987076 69.218506,32.858444 
	C69.697708,32.446194 69.941498,32.162575 70.185287,31.878952 
	C70.570015,31.892963 70.954742,31.906973 71.626495,31.947653 
z"/>
<path fill="#91821D" opacity="1.000000" stroke="none" 
	d="
M65.668289,33.936604 
	C66.475105,35.041740 66.903923,36.168919 67.418152,37.658340 
	C66.978012,38.041859 66.452461,38.063137 65.483086,37.681908 
	C64.348648,36.430676 63.658024,35.581947 62.967403,34.733219 
	C62.967403,34.733219 62.998119,34.359970 63.010323,34.172989 
	C63.778446,33.976891 64.534363,33.967766 65.668289,33.936604 
z"/>
<path fill="#AA9633" opacity="1.000000" stroke="none" 
	d="
M73.050018,37.257534 
	C73.535767,36.257172 74.291946,35.489815 75.263283,34.235397 
	C75.735764,33.534145 75.883369,33.260689 75.921242,32.927963 
	C75.921242,32.927963 76.278534,32.831585 76.577049,33.158310 
	C77.118202,34.349541 77.360840,35.214043 77.603477,36.078548 
	C77.103058,36.492729 76.602646,36.906910 76.087494,37.588139 
	C75.155327,37.733635 74.237900,37.612087 73.050018,37.257534 
z"/>
<path fill="#D8CA4F" opacity="1.000000" stroke="none" 
	d="
M62.923897,35.142616 
	C63.658024,35.581947 64.348648,36.430676 65.094048,37.614128 
	C64.933128,38.515938 64.717438,39.083023 64.251053,39.827190 
	C63.627041,38.520191 63.253719,37.036102 62.923897,35.142616 
z"/>
<path fill="#889E3F" opacity="1.000000" stroke="none" 
	d="
M52.222523,67.572357 
	C51.565891,68.344193 50.602856,69.168678 49.273628,69.956070 
	C49.213276,69.481857 49.519112,69.044739 49.971970,68.377121 
	C50.718033,67.972748 51.317074,67.798874 52.222523,67.572357 
z"/>
<path fill="#CEC146" opacity="1.000000" stroke="none" 
	d="
M61.026962,27.924925 
	C61.026962,27.924925 61.010536,27.438528 60.994610,27.195351 
	C60.978683,26.952171 60.988140,26.978691 61.357040,26.980179 
	C62.466366,26.987152 63.206795,26.992636 63.947224,26.998119 
	C64.443863,27.587561 64.940506,28.177000 65.702179,28.883808 
	C65.279587,29.601923 64.591965,30.202671 63.397671,30.545395 
	C62.261501,29.859434 61.632008,29.431499 61.002510,29.003565 
	C61.002510,29.003565 61.000000,29.000017 61.046757,28.731663 
	C61.071331,28.283850 61.049145,28.104387 61.026962,27.924925 
z"/>
<path fill="#D8CA4F" opacity="1.000000" stroke="none" 
	d="
M77.741104,36.329987 
	C77.360840,35.214043 77.118202,34.349541 76.762070,33.159454 
	C77.316803,32.763817 77.985031,32.693756 79.151421,32.631096 
	C79.649590,32.638500 79.977554,32.530113 79.977554,32.530113 
	C79.977554,32.530113 79.950485,32.543018 79.937790,32.550972 
	C79.918564,33.086662 79.912033,33.614391 79.987022,34.533783 
	C79.636581,35.590702 79.204613,36.255970 78.470062,36.998947 
	C78.071228,36.911575 77.974976,36.746498 77.741104,36.329987 
z"/>
<path fill="#91821D" opacity="1.000000" stroke="none" 
	d="
M60.945694,29.328941 
	C61.632008,29.431499 62.261501,29.859434 63.069824,30.515053 
	C63.028503,30.798040 62.808365,30.853346 62.250393,30.957199 
	C61.912563,31.005743 61.480442,30.997843 61.265381,30.979786 
	C60.996506,30.525925 60.942692,30.090120 60.945694,29.328941 
z"/>
<path fill="#AA9633" opacity="1.000000" stroke="none" 
	d="
M69.988892,31.738785 
	C69.941498,32.162575 69.697708,32.446194 69.200432,32.851433 
	C69.228798,32.514908 69.510643,32.056763 69.988892,31.738785 
z"/>
<path fill="#7A754B" opacity="1.000000" stroke="none" 
	d="
M79.979889,32.085381 
	C79.977554,32.530113 79.649590,32.638500 79.489372,32.594666 
	C79.252762,32.271828 79.176376,31.992834 79.012207,31.287682 
	C78.924438,30.861521 79.416008,30.819479 79.659882,30.787064 
	C79.929909,31.049982 79.956062,31.345316 79.979889,32.085381 
z"/>
<path fill="#91821D" opacity="1.000000" stroke="none" 
	d="
M75.671982,32.956638 
	C75.883369,33.260689 75.735764,33.534145 75.270218,33.860977 
	C75.061996,33.973625 74.954079,33.518375 74.939713,33.285202 
	C75.091133,33.029793 75.256920,33.007553 75.671982,32.956638 
z"/>
<path fill="#889E3F" opacity="1.000000" stroke="none" 
	d="
M54.636200,65.011581 
	C54.367596,65.797882 53.807499,66.699661 52.892635,67.560028 
	C53.140148,66.721436 53.742424,65.924255 54.636200,65.011581 
z"/>
<path fill="#889E3F" opacity="1.000000" stroke="none" 
	d="
M56.567482,62.936810 
	C56.420002,63.511318 55.997753,64.201927 55.234818,64.912392 
	C55.360325,64.305801 55.826519,63.679356 56.567482,62.936810 
z"/>
<path fill="#BDB049" opacity="1.000000" stroke="none" 
	d="
M63.859268,26.786486 
	C63.206795,26.992636 62.466366,26.987152 61.354980,26.970856 
	C60.984024,26.960045 60.978527,26.538649 60.976658,26.329136 
	C61.463257,26.072580 61.951725,26.025537 62.808258,25.933538 
	C63.431931,26.067682 63.630260,26.296440 63.859268,26.786486 
z"/>
<path fill="#91821D" opacity="1.000000" stroke="none" 
	d="
M60.655052,27.939442 
	C61.049145,28.104387 61.071331,28.283850 61.045353,28.730227 
	C60.395386,28.845673 59.793579,28.694202 58.990921,28.283655 
	C59.287758,28.001038 59.785454,27.977499 60.655052,27.939442 
z"/>
<path fill="#8FB028" opacity="1.000000" stroke="none" 
	d="
M126.882065,56.597771 
	C125.217941,56.422642 123.342674,55.949028 121.265060,55.180000 
	C122.932121,55.356148 124.801514,55.827717 126.882065,56.597771 
z"/>
<path fill="#8FB028" opacity="1.000000" stroke="none" 
	d="
M132.721207,57.905441 
	C132.095825,57.887482 131.180389,57.726063 130.127884,57.303520 
	C130.804260,57.282257 131.617706,57.522118 132.721207,57.905441 
z"/>
<path fill="#8FB028" opacity="1.000000" stroke="none" 
	d="
M113.868912,53.698357 
	C113.508568,53.802631 112.948349,53.687073 112.180290,53.370018 
	C112.537979,53.271851 113.103508,53.375183 113.868912,53.698357 
z"/>
<path fill="#5C8A01" opacity="1.000000" stroke="none" 
	d="
M107.007332,57.068924 
	C114.546646,57.920479 122.069519,59.077179 129.592392,60.233879 
	C129.469055,60.952763 129.345718,61.671646 129.222382,62.390530 
	C122.093277,60.928879 114.964157,59.467228 107.412796,57.995422 
	C106.990654,57.781532 106.990776,57.577805 107.007332,57.068924 
z"/>
<path fill="#8AB512" opacity="1.000000" stroke="none" 
	d="
M101.253143,55.936356 
	C101.805016,53.124729 103.187195,53.881699 104.845924,55.647820 
	C103.868187,55.941399 102.719299,55.953140 101.253143,55.936356 
z"/>
<path fill="#8FB028" opacity="1.000000" stroke="none" 
	d="
M138.330811,66.029892 
	C141.119522,60.972744 141.042145,60.771900 135.250336,59.248138 
	C137.369736,58.991093 139.737076,59.008961 142.547485,59.034462 
	C142.985077,60.083004 142.979599,61.123909 142.948715,62.553345 
	C142.033356,63.764320 141.143402,64.586769 140.105072,65.675766 
	C139.523422,65.971626 139.090164,66.000938 138.330811,66.029892 
z"/>
<path fill="#90B321" opacity="1.000000" stroke="none" 
	d="
M114.983704,77.490517 
	C115.021339,78.325264 115.008186,78.812088 114.695992,79.511017 
	C112.931084,78.817032 111.465218,77.910942 109.999352,77.004845 
	C109.999352,77.004845 109.999695,77.000305 109.889954,76.715401 
	C109.160011,75.627106 108.539810,74.823715 107.919617,74.020325 
	C110.257378,75.061089 112.595146,76.101845 114.983704,77.490517 
z"/>
<path fill="#669109" opacity="1.000000" stroke="none" 
	d="
M107.608185,74.018509 
	C108.539810,74.823715 109.160011,75.627106 109.887772,76.715698 
	C108.889694,76.755241 107.784065,76.509583 106.369507,76.109924 
	C106.056801,75.544540 106.053017,75.133141 106.051590,74.414230 
	C106.468216,74.076714 106.882477,74.046707 107.608185,74.018509 
z"/>
<path fill="#90A44A" opacity="1.000000" stroke="none" 
	d="
M148.962585,121.726044 
	C148.661377,121.557808 148.343491,121.092323 148.001709,120.332596 
	C148.300537,120.501823 148.623215,120.965302 148.962585,121.726044 
z"/>
<path fill="#90A44A" opacity="1.000000" stroke="none" 
	d="
M147.867493,119.800476 
	C147.644394,119.920082 147.397003,119.735985 147.143799,119.236786 
	C147.363007,119.133759 147.598083,119.325455 147.867493,119.800476 
z"/>
<path fill="#D1DEBC" opacity="1.000000" stroke="none" 
	d="
M87.126328,59.197342 
	C87.897743,59.480755 89.409317,60.007755 89.617859,60.855362 
	C90.076904,62.721066 89.878006,64.748650 89.521751,67.130943 
	C88.728851,67.680733 88.361855,67.809746 87.994850,67.938759 
	C87.755028,65.154625 87.515213,62.370495 87.126328,59.197342 
z"/>
<path fill="#77670C" opacity="1.000000" stroke="none" 
	d="
M87.956833,68.232285 
	C88.361855,67.809746 88.728851,67.680733 89.386047,67.511932 
	C90.007919,67.758797 90.339592,68.045441 90.789551,68.637405 
	C89.809258,69.247414 88.710678,69.552101 87.269501,69.907890 
	C87.257545,69.481262 87.588188,69.003532 87.956833,68.232285 
z"/>
<path fill="#889E3F" opacity="1.000000" stroke="none" 
	d="
M61.641708,76.547699 
	C61.513813,75.832886 61.504856,75.170494 61.783638,74.317917 
	C62.058964,74.656982 62.046558,75.186256 62.021801,76.120148 
	C62.009449,76.524780 61.760647,76.600121 61.641708,76.547699 
z"/>
<path fill="#72961C" opacity="1.000000" stroke="none" 
	d="
M103.785782,63.368145 
	C103.434792,63.085907 103.222481,62.828598 102.936401,62.332508 
	C105.116104,62.900867 107.369576,63.708004 109.336731,64.802650 
	C107.406242,64.592773 105.762070,64.095398 104.117889,63.598019 
	C104.117889,63.598019 103.924461,63.393070 103.785782,63.368145 
z"/>
<path fill="#D1DEBC" opacity="1.000000" stroke="none" 
	d="
M104.252014,63.939415 
	C105.762070,64.095398 107.406242,64.592773 109.411736,65.153442 
	C109.773048,65.216736 109.836411,65.176041 109.833244,65.376251 
	C109.830078,65.576469 109.973625,66.031082 109.973625,66.031082 
	C109.973625,66.031082 109.844254,66.188652 109.784744,66.273972 
	C107.945534,65.666458 106.165833,64.973633 104.252014,63.939415 
z"/>
<path fill="#D1DEBC" opacity="1.000000" stroke="none" 
	d="
M95.051468,67.419304 
	C94.472878,66.686127 93.872871,65.581261 93.403481,64.220779 
	C94.032745,64.992653 94.531403,66.020142 95.051468,67.419304 
z"/>
<path fill="#72961C" opacity="1.000000" stroke="none" 
	d="
M114.783539,66.821091 
	C114.093086,66.950905 113.211540,66.791771 112.127960,66.343895 
	C112.814766,66.214149 113.703606,66.373146 114.783539,66.821091 
z"/>
<path fill="#72961C" opacity="1.000000" stroke="none" 
	d="
M116.848740,68.251144 
	C116.321648,68.312889 115.688133,68.035988 114.988708,67.414658 
	C115.529312,67.350983 116.135818,67.631737 116.848740,68.251144 
z"/>
<path fill="#72961C" opacity="1.000000" stroke="none" 
	d="
M110.310547,66.054596 
	C109.973625,66.031082 109.830078,65.576469 109.835388,65.338669 
	C110.443718,65.251801 111.046738,65.402740 111.820297,65.824921 
	C111.543053,66.090149 111.095261,66.084129 110.310547,66.054596 
z"/>
<path fill="#6B970A" opacity="1.000000" stroke="none" 
	d="
M70.968819,57.270744 
	C74.140312,56.790424 77.265137,56.643257 80.616371,56.221710 
	C81.357674,56.535801 81.872581,57.124275 82.137466,57.837868 
	C77.850342,58.910545 73.813240,59.858101 69.050301,60.976021 
	C69.912834,59.422184 70.417496,58.513042 70.968819,57.270744 
z"/>
<path fill="#669109" opacity="1.000000" stroke="none" 
	d="
M110.005096,77.352486 
	C111.465218,77.910942 112.931084,78.817032 114.690567,79.874756 
	C118.019112,83.728432 121.054047,87.430458 124.046768,91.558273 
	C124.004555,91.984070 123.844185,92.120422 123.594078,91.963249 
	C122.558861,91.212883 121.773758,90.619690 120.988655,90.026497 
	C120.988655,90.026497 120.997566,90.010239 120.985641,90.010315 
	C117.319420,85.906967 113.665131,81.803543 110.005096,77.352486 
z"/>
<path fill="#669109" opacity="1.000000" stroke="none" 
	d="
M124.081970,91.912766 
	C128.947342,97.037468 133.735291,102.233475 138.523239,107.429482 
	C137.833435,108.034927 137.143631,108.640373 136.453812,109.245811 
	C132.527496,104.271179 128.601181,99.296555 124.344818,93.841583 
	C123.957909,92.947632 123.901047,92.534027 123.844185,92.120422 
	C123.844185,92.120422 124.004555,91.984070 124.081970,91.912766 
z"/>
<path fill="#8CAF2E" opacity="1.000000" stroke="none" 
	d="
M123.594078,91.963249 
	C123.901047,92.534027 123.957909,92.947632 124.058235,93.672287 
	C123.071068,92.905937 122.040436,91.828529 120.999229,90.388809 
	C121.773758,90.619690 122.558861,91.212883 123.594078,91.963249 
z"/>
<path fill="#74A103" opacity="1.000000" stroke="none" 
	d="
M67.031761,62.094025 
	C63.778862,65.062859 60.525967,68.031700 57.273067,71.000534 
	C56.826988,70.506889 56.380909,70.013245 55.934830,69.519600 
	C59.386539,66.699921 62.838253,63.880241 66.646744,61.297527 
	C67.012932,61.721004 67.022346,61.907513 67.031761,62.094025 
z"/>
<path fill="#6B970A" opacity="1.000000" stroke="none" 
	d="
M67.198929,61.977768 
	C67.022346,61.907513 67.012932,61.721004 66.992088,61.254326 
	C67.109131,61.269943 67.237617,61.565731 67.198929,61.977768 
z"/>
</svg>