<svg version="1.1" id="Layer_1" xmlns="http://www.w3.org/2000/svg" xmlns:xlink="http://www.w3.org/1999/xlink" x="0px" y="0px"
	 width="100%" viewBox="0 0 500 500" enable-background="new 0 0 500 500" xml:space="preserve">
<path fill="#60C6D5" opacity="1.000000" stroke="none" 
	d="
M276.000000,501.000000 
	C184.000015,501.000000 92.500046,501.000000 1.000049,501.000000 
	C1.000033,334.333405 1.000033,167.666794 1.000016,1.000139 
	C167.666565,1.000092 334.333130,1.000092 500.999756,1.000046 
	C500.999847,167.666519 500.999847,334.333038 500.999939,500.999786 
	C426.166656,501.000000 351.333344,501.000000 276.000000,501.000000 
M369.943481,425.235687 
	C373.424591,424.604523 373.648346,426.706909 373.618500,429.356140 
	C373.531189,437.105560 373.587433,444.856598 373.587433,452.896851 
	C382.583435,452.896851 390.881561,452.785492 399.174042,452.952972 
	C402.382782,453.017792 401.837860,450.752838 402.974854,448.660797 
	C403.316986,446.607208 403.955566,444.553925 403.957855,442.499939 
	C404.013550,392.853546 404.001221,343.207062 404.001190,293.560608 
	C404.001129,216.092117 404.015045,138.623611 403.924255,61.155235 
	C403.921844,59.108097 402.780457,57.062298 401.406799,54.653904 
	C400.084717,54.555202 398.762604,54.370239 397.440521,54.370098 
	C302.303986,54.359886 207.167465,54.364376 112.030945,54.367657 
	C110.432755,54.367714 108.834564,54.367664 107.271591,54.367664 
	C107.271591,189.981232 107.271591,324.845123 107.271591,459.622131 
	C117.352859,459.622131 127.059525,459.622131 136.987274,459.622131 
	C136.987274,449.521240 136.944168,439.865936 137.031601,430.211853 
	C137.045456,428.681580 137.647644,427.156616 138.008362,426.246643 
	C138.133163,426.745331 138.257950,427.243988 138.382751,427.742676 
	C138.553406,427.723694 138.724060,427.704681 138.894699,427.685699 
	C138.928543,426.942719 138.962402,426.199738 139.833496,425.252197 
	C141.827469,425.332977 143.821457,425.413727 146.396790,426.175232 
	C148.499893,426.450165 150.602875,426.964203 152.706131,426.965424 
	C223.840683,427.007111 294.975250,427.000000 366.109833,427.000000 
	C367.665527,427.000000 369.221222,427.000000 371.816956,427.000000 
	C370.230652,426.105560 369.662628,425.785278 369.943481,425.235687 
M403.544373,451.506195 
	C403.544373,451.506195 403.490021,451.531708 403.544373,451.506195 
z"/>
<path fill="#020303" opacity="1.000000" stroke="none" 
	d="
M145.815430,425.494507 
	C143.821457,425.413727 141.827469,425.332977 139.141449,425.286133 
	C138.292206,425.423126 138.135010,425.526154 137.977829,425.629211 
	C137.647644,427.156616 137.045456,428.681580 137.031601,430.211853 
	C136.944168,439.865936 136.987274,449.521240 136.987274,459.622131 
	C127.059525,459.622131 117.352859,459.622131 107.271591,459.622131 
	C107.271591,324.845123 107.271591,189.981232 107.271591,54.367664 
	C108.834564,54.367664 110.432755,54.367714 112.030945,54.367657 
	C207.167465,54.364376 302.303986,54.359886 397.440521,54.370098 
	C398.762604,54.370239 400.084717,54.555202 401.744934,55.300598 
	C402.066895,186.132309 402.050262,316.317322 402.044678,446.502350 
	C402.044647,447.326935 402.197540,448.151520 402.279022,448.976105 
	C401.837860,450.752838 402.382782,453.017792 399.174042,452.952972 
	C390.881561,452.785492 382.583435,452.896851 373.587433,452.896851 
	C373.587433,444.856598 373.531189,437.105560 373.618500,429.356140 
	C373.648346,426.706909 373.424591,424.604523 369.053284,425.252014 
	C295.037537,425.256073 221.911987,425.242767 148.786453,425.242523 
	C147.796112,425.242523 146.805771,425.406860 145.815430,425.494507 
M136.101242,396.725220 
	C136.399460,397.479218 136.697678,398.233185 137.460220,399.272766 
	C137.634613,399.221710 137.808990,399.170624 138.845932,399.301666 
	C140.894821,399.236847 142.943710,399.172058 145.906418,399.340668 
	C219.766144,399.356842 293.625854,399.373840 367.485596,399.378601 
	C368.309448,399.378662 369.133331,399.219757 370.541168,399.347473 
	C371.569946,398.555634 372.598724,397.763794 373.801880,396.226288 
	C373.735046,395.468109 373.668213,394.709900 373.836731,393.048645 
	C373.836731,365.624023 373.836731,338.199432 373.836731,310.492218 
	C371.874756,310.365448 370.420135,310.189514 368.965454,310.189209 
	C292.853271,310.173828 216.741089,310.168976 140.628922,310.205139 
	C139.216751,310.205811 137.804810,310.712921 136.064407,311.496277 
	C136.121536,311.690948 136.178665,311.885651 136.153702,313.003967 
	C136.186722,339.657074 136.219727,366.310211 136.010101,393.716766 
	C136.080246,394.497467 136.150391,395.278137 136.101242,396.725220 
M220.913849,284.298950 
	C241.938126,284.215942 262.962402,284.132965 284.900238,284.283356 
	C314.466492,284.283356 344.032745,284.283356 373.619446,284.283356 
	C373.619446,252.617950 373.619446,221.582977 373.619446,190.333389 
	C344.861511,190.333389 316.425476,190.333389 287.078033,190.106995 
	C263.383057,190.178101 239.688110,190.249222 215.062424,190.176498 
	C188.812866,190.176498 162.563309,190.176498 136.330750,190.176498 
	C136.330750,221.899368 136.330750,252.957794 136.330750,284.044250 
	C164.430588,284.044250 192.219315,284.044250 220.913849,284.298950 
M180.500031,79.841980 
	C165.897141,79.841980 151.294235,79.841980 136.535217,79.841980 
	C136.535217,108.100578 136.535217,135.778503 136.535217,163.444702 
	C215.789886,163.444702 294.630798,163.444702 373.537598,163.444702 
	C373.537598,135.483673 373.537598,107.916702 373.537598,79.841942 
	C309.321594,79.841942 245.410812,79.841942 180.500031,79.841980 
z"/>
<path fill="#60CFE3" opacity="1.000000" stroke="none" 
	d="
M402.626953,448.818451 
	C402.197540,448.151520 402.044647,447.326935 402.044678,446.502350 
	C402.050262,316.317322 402.066895,186.132309 402.126648,55.481583 
	C402.780457,57.062298 403.921844,59.108097 403.924255,61.155235 
	C404.015045,138.623611 404.001129,216.092117 404.001190,293.560608 
	C404.001221,343.207062 404.013550,392.853546 403.957855,442.499939 
	C403.955566,444.553925 403.316986,446.607208 402.626953,448.818451 
z"/>
<path fill="#68D0DB" opacity="1.000000" stroke="none" 
	d="
M146.106110,425.834869 
	C146.805771,425.406860 147.796112,425.242523 148.786453,425.242523 
	C221.911987,425.242767 295.037537,425.256073 368.628845,425.366638 
	C369.662628,425.785278 370.230652,426.105560 371.816956,427.000000 
	C369.221222,427.000000 367.665527,427.000000 366.109833,427.000000 
	C294.975250,427.000000 223.840683,427.007111 152.706131,426.965424 
	C150.602875,426.964203 148.499893,426.450165 146.106110,425.834869 
z"/>
<path fill="#68D0DB" opacity="1.000000" stroke="none" 
	d="
M137.993103,425.937927 
	C138.135010,425.526154 138.292206,425.423126 138.722824,425.388428 
	C138.962402,426.199738 138.928543,426.942719 138.894699,427.685699 
	C138.724060,427.704681 138.553406,427.723694 138.382751,427.742676 
	C138.257950,427.243988 138.133163,426.745331 137.993103,425.937927 
z"/>
<path fill="#60CFE3" opacity="1.000000" stroke="none" 
	d="
M403.517212,451.518951 
	C403.490021,451.531708 403.544373,451.506195 403.517212,451.518951 
z"/>
<path fill="#60C6D5" opacity="1.000000" stroke="none" 
	d="
M136.252747,392.963318 
	C136.219727,366.310211 136.186722,339.657074 136.385696,312.545349 
	C136.617691,312.086700 136.987061,311.989349 137.456482,311.981567 
	C213.902405,311.973267 289.878967,312.010803 365.855255,311.880249 
	C370.546753,311.872192 372.186371,313.013763 372.133728,317.962891 
	C371.887482,341.119781 371.982483,364.280945 372.093109,387.439911 
	C372.103485,389.612885 373.075714,391.781219 373.601379,393.951721 
	C373.668213,394.709900 373.735046,395.468109 373.380859,396.603973 
	C371.968109,397.352875 370.976410,397.724091 369.517273,398.078857 
	C296.098022,398.050110 223.146179,398.030334 150.194351,398.070740 
	C148.460251,398.071716 146.726517,398.746674 144.992599,399.107269 
	C142.943710,399.172058 140.894821,399.236847 138.401825,398.943268 
	C137.937042,398.407623 137.916382,398.230377 137.876389,397.763245 
	C137.578873,396.983154 137.300690,396.492981 137.005341,395.679718 
	C136.743027,394.558838 136.497894,393.761078 136.252747,392.963318 
z"/>
<path fill="#5FC5D4" opacity="1.000000" stroke="none" 
	d="
M181.000031,79.841965 
	C245.410812,79.841942 309.321594,79.841942 373.537598,79.841942 
	C373.537598,107.916702 373.537598,135.483673 373.537598,163.444702 
	C294.630798,163.444702 215.789886,163.444702 136.535217,163.444702 
	C136.535217,135.778503 136.535217,108.100578 136.535217,79.841980 
	C151.294235,79.841980 165.897141,79.841980 181.000031,79.841965 
z"/>
<path fill="#B4DFE8" opacity="1.000000" stroke="none" 
	d="
M215.993149,190.320343 
	C239.688110,190.249222 263.383057,190.178101 287.641174,190.529434 
	C288.327332,191.255478 288.365723,191.654953 288.585510,191.849014 
	C303.209869,204.760803 310.488495,220.918091 308.874084,240.421021 
	C307.387665,258.377380 299.604095,273.071655 283.585693,283.029480 
	C262.036682,283.039673 240.962418,283.065094 219.551056,283.026550 
	C216.268478,280.550262 212.949005,278.473450 210.436600,275.672699 
	C190.088440,252.989136 189.275116,222.907944 208.245773,199.176346 
	C210.692368,196.115738 213.404190,193.267151 215.993149,190.320343 
M239.592606,254.013504 
	C249.740540,260.477966 260.949158,259.998169 269.087402,252.750916 
	C277.137695,245.582001 279.325165,234.108353 274.465332,224.542664 
	C270.097870,215.946091 261.359039,211.135162 251.441299,211.867386 
	C242.393570,212.535400 234.190750,218.777878 231.438431,227.544968 
	C228.216965,237.806458 230.876785,246.531281 239.592606,254.013504 
z"/>
<path fill="#FFFFFF" opacity="1.000000" stroke="none" 
	d="
M284.060425,283.044708 
	C299.604095,273.071655 307.387665,258.377380 308.874084,240.421021 
	C310.488495,220.918091 303.209869,204.760803 288.585510,191.849014 
	C288.365723,191.654953 288.327332,191.255478 288.096863,190.642639 
	C316.425476,190.333389 344.861511,190.333389 373.619446,190.333389 
	C373.619446,221.582977 373.619446,252.617950 373.619446,284.283356 
	C344.032745,284.283356 314.466492,284.283356 284.467651,283.915771 
	C284.043488,283.380371 284.051971,283.212524 284.060425,283.044708 
z"/>
<path fill="#FFFFFF" opacity="1.000000" stroke="none" 
	d="
M215.527786,190.248413 
	C213.404190,193.267151 210.692368,196.115738 208.245773,199.176346 
	C189.275116,222.907944 190.088440,252.989136 210.436600,275.672699 
	C212.949005,278.473450 216.268478,280.550262 219.579529,283.264832 
	C219.945099,283.567108 220.008026,284.044250 220.008026,284.044250 
	C192.219315,284.044250 164.430588,284.044250 136.330750,284.044250 
	C136.330750,252.957794 136.330750,221.899368 136.330750,190.176498 
	C162.563309,190.176498 188.812866,190.176498 215.527786,190.248413 
z"/>
<path fill="#58B9C8" opacity="1.000000" stroke="none" 
	d="
M373.719055,393.500183 
	C373.075714,391.781219 372.103485,389.612885 372.093109,387.439911 
	C371.982483,364.280945 371.887482,341.119781 372.133728,317.962891 
	C372.186371,313.013763 370.546753,311.872192 365.855255,311.880249 
	C289.878967,312.010803 213.902405,311.973267 137.388550,311.794067 
	C136.788376,311.338745 136.635559,311.128540 136.392761,310.983765 
	C137.804810,310.712921 139.216751,310.205811 140.628922,310.205139 
	C216.741089,310.168976 292.853271,310.173828 368.965454,310.189209 
	C370.420135,310.189514 371.874756,310.365448 373.836731,310.492218 
	C373.836731,338.199432 373.836731,365.624023 373.719055,393.500183 
z"/>
<path fill="#5CB8C4" opacity="1.000000" stroke="none" 
	d="
M145.449509,399.223969 
	C146.726517,398.746674 148.460251,398.071716 150.194351,398.070740 
	C223.146179,398.030334 296.098022,398.050110 369.512573,398.338257 
	C369.969238,398.787781 369.963226,398.961426 369.957184,399.135071 
	C369.133331,399.219757 368.309448,399.378662 367.485596,399.378601 
	C293.625854,399.373840 219.766144,399.356842 145.449509,399.223969 
z"/>
<path fill="#C6F0F6" opacity="1.000000" stroke="none" 
	d="
M220.460938,284.171600 
	C220.008026,284.044250 219.945099,283.567108 219.916626,283.328827 
	C240.962418,283.065094 262.036682,283.039673 283.585693,283.029480 
	C284.051971,283.212524 284.043488,283.380371 284.010864,283.799072 
	C262.962402,284.132965 241.938126,284.215942 220.460938,284.171600 
z"/>
<path fill="#58B9C8" opacity="1.000000" stroke="none" 
	d="
M370.249176,399.241272 
	C369.963226,398.961426 369.969238,398.787781 369.979950,398.354706 
	C370.976410,397.724091 371.968109,397.352875 373.293671,396.976807 
	C372.598724,397.763794 371.569946,398.555634 370.249176,399.241272 
z"/>
<path fill="#58B9C8" opacity="1.000000" stroke="none" 
	d="
M137.022522,396.002838 
	C137.300690,396.492981 137.578873,396.983154 137.694244,397.883087 
	C137.302582,398.485474 137.124069,398.716919 136.995895,398.987183 
	C136.697678,398.233185 136.399460,397.479218 136.362396,396.392303 
	C136.623535,396.059387 137.022522,396.002838 137.022522,396.002838 
z"/>
<path fill="#47959A" opacity="1.000000" stroke="none" 
	d="
M137.005341,395.679718 
	C137.022522,396.002838 136.623535,396.059387 136.422043,396.059113 
	C136.150391,395.278137 136.080246,394.497467 136.131424,393.340027 
	C136.497894,393.761078 136.743027,394.558838 137.005341,395.679718 
z"/>
<path fill="#47959A" opacity="1.000000" stroke="none" 
	d="
M136.228577,311.240021 
	C136.635559,311.128540 136.788376,311.338745 136.919128,311.801880 
	C136.987061,311.989349 136.617691,312.086700 136.426743,312.083527 
	C136.178665,311.885651 136.121536,311.690948 136.228577,311.240021 
z"/>
<path fill="#5CB8C4" opacity="1.000000" stroke="none" 
	d="
M137.228058,399.129974 
	C137.124069,398.716919 137.302582,398.485474 137.713562,398.173035 
	C137.916382,398.230377 137.937042,398.407623 137.970551,398.852234 
	C137.808990,399.170624 137.634613,399.221710 137.228058,399.129974 
z"/>
<path fill="#030404" opacity="1.000000" stroke="none" 
	d="
M239.304443,253.793427 
	C230.876785,246.531281 228.216965,237.806458 231.438431,227.544968 
	C234.190750,218.777878 242.393570,212.535400 251.441299,211.867386 
	C261.359039,211.135162 270.097870,215.946091 274.465332,224.542664 
	C279.325165,234.108353 277.137695,245.582001 269.087402,252.750916 
	C260.949158,259.998169 249.740540,260.477966 239.304443,253.793427 
z"/>
</svg>