<svg version="1.1" id="Layer_1" xmlns="http://www.w3.org/2000/svg" xmlns:xlink="http://www.w3.org/1999/xlink" x="0px" y="0px"
	 width="100%" viewBox="0 0 183 249" enable-background="new 0 0 183 249" xml:space="preserve">
<path fill="#01A1EA" opacity="1.000000" stroke="none" 
	d="
M184.000000,142.000000 
	C184.000000,177.902512 184.000000,213.805038 184.000000,250.000000 
	C166.313507,250.000000 148.625412,250.000000 130.371384,249.669006 
	C129.060013,247.367020 127.229156,245.001648 127.774834,243.499725 
	C129.344666,239.178894 131.874771,235.206955 134.223648,231.123505 
	C134.419708,231.149094 134.804428,231.240494 134.951355,231.548340 
	C139.557175,235.004547 142.326675,233.863617 144.342041,227.996124 
	C144.770172,227.657898 144.959671,227.414581 145.300293,226.930115 
	C145.746063,226.216782 145.994263,225.708405 146.416046,224.977219 
	C146.808029,224.236221 147.026398,223.718033 147.416321,222.975983 
	C147.805298,222.234528 148.022705,221.716934 148.406845,220.972565 
	C148.788727,220.228516 149.003876,219.711243 149.475113,218.943298 
	C151.826599,209.021149 154.910843,199.434250 155.747070,189.655106 
	C156.633087,179.293991 155.311768,168.751694 155.080246,158.285751 
	C154.683060,140.329849 154.190826,122.372597 154.113983,104.414307 
	C154.066376,93.287216 154.711929,82.157158 155.425171,70.999641 
	C157.022858,70.475197 158.228027,69.942154 159.463257,69.491455 
	C162.281311,68.463272 164.790207,69.153969 165.373184,72.134880 
	C166.646362,78.644814 170.269791,84.965355 167.102905,91.970215 
	C166.352097,93.630890 166.157074,95.987579 166.711807,97.698036 
	C167.758331,100.924889 169.535400,103.914810 171.007095,107.402740 
	C171.002777,108.867691 171.000183,109.933105 170.668839,111.114044 
	C170.165085,112.681541 169.518692,114.272141 169.897751,115.561188 
	C171.426010,120.758102 173.270813,125.861923 174.997574,131.331879 
	C174.994781,132.105820 174.993118,132.548035 174.657959,133.113403 
	C171.968933,135.780411 172.838348,137.892273 175.553635,139.143036 
	C178.238159,140.379623 181.174271,141.070007 184.000000,142.000000 
z"/>
<path fill="#0188D9" opacity="1.000000" stroke="none" 
	d="
M1.000000,213.000000 
	C1.000000,165.979111 1.000000,118.958214 1.410790,71.467545 
	C3.745712,70.307480 6.776992,70.137291 7.390515,68.831291 
	C9.390369,64.574234 11.062807,59.995243 11.835596,55.368801 
	C13.030481,48.215416 12.749150,48.083969 20.086220,48.407402 
	C20.796904,52.833111 21.433260,56.854511 22.007725,61.267029 
	C22.246002,63.433517 22.546175,65.208885 22.487602,66.967621 
	C19.755304,67.591957 17.348967,62.895756 14.765615,67.315727 
	C14.360815,70.086723 14.187052,72.536812 14.085607,75.394608 
	C14.438898,78.091644 14.878701,80.374809 14.967698,82.671562 
	C15.151532,87.415749 19.233070,92.672447 24.025875,94.501785 
	C23.725584,113.402496 23.529518,131.841492 22.991110,150.270508 
	C22.817274,156.220657 21.743671,162.144531 21.065413,168.048752 
	C21.049156,168.017090 21.116333,167.993576 20.866077,168.264496 
	C20.455416,169.492416 20.295010,170.449432 20.141758,171.798889 
	C19.558342,178.288544 18.967773,184.385727 18.283232,190.896362 
	C17.517252,192.810349 16.304363,194.299408 16.272278,195.813507 
	C16.166071,200.825226 15.466896,205.087799 9.257689,205.750381 
	C8.686214,205.811356 8.319713,207.063232 7.704967,207.580063 
	C5.505612,209.429077 3.240340,211.199722 1.000000,213.000000 
z"/>
<path fill="#0191DF" opacity="1.000000" stroke="none" 
	d="
M47.000000,250.000000 
	C33.979103,250.000000 20.958210,250.000000 7.539379,249.651627 
	C8.295621,248.230484 9.275002,246.631332 10.635398,246.179565 
	C15.522154,244.556808 18.260752,240.627945 18.624981,236.302002 
	C19.103968,230.613098 20.013557,225.448441 22.794083,220.369247 
	C24.897865,216.526276 26.283695,212.401260 30.993647,210.409668 
	C33.039383,205.929443 34.750111,201.654282 36.871460,197.593658 
	C37.635136,196.131836 39.322613,194.249451 40.696995,194.156082 
	C49.780384,193.538986 58.893326,193.356903 68.266159,193.256882 
	C70.321953,195.843582 71.888008,198.423187 73.947960,200.516846 
	C76.784920,203.400192 76.261070,206.056671 74.254257,208.964203 
	C72.958687,210.841278 71.213448,212.611511 70.578110,214.705276 
	C67.930626,223.430206 58.333515,228.485626 58.154686,238.471588 
	C58.145004,239.012253 57.507740,239.919464 57.032257,240.016342 
	C51.464947,241.150833 50.884460,247.234238 47.000000,250.000000 
z"/>
<path fill="#029BE5" opacity="1.000000" stroke="none" 
	d="
M134.027588,231.097931 
	C131.874771,235.206955 129.344666,239.178894 127.774834,243.499725 
	C127.229156,245.001648 129.060013,247.367020 129.902725,249.669006 
	C113.312439,250.000000 96.624878,250.000000 79.540253,249.656647 
	C82.472008,246.171066 84.866646,242.728943 84.255653,237.710281 
	C84.165642,236.970993 86.659851,235.175491 87.987717,235.145004 
	C91.881821,235.055588 93.688080,233.320709 94.367828,229.615753 
	C94.961922,226.377686 95.039978,222.224655 97.070480,220.241623 
	C101.263153,216.147079 99.777367,211.785248 99.586372,207.295914 
	C99.434883,203.735336 98.785057,200.062622 99.412125,196.632675 
	C100.420311,191.118027 100.321007,190.503235 94.915512,189.464584 
	C99.580505,189.092377 103.861633,188.723083 108.133347,188.811066 
	C118.782372,189.030426 122.012253,191.197586 125.457428,201.337830 
	C128.640533,210.706741 131.250870,220.270264 134.081787,230.084900 
	C134.042603,230.647110 134.035095,230.872513 134.027588,231.097931 
z"/>
<path fill="#0198E4" opacity="1.000000" stroke="none" 
	d="
M94.527374,189.675629 
	C100.321007,190.503235 100.420311,191.118027 99.412125,196.632675 
	C98.785057,200.062622 99.434883,203.735336 99.586372,207.295914 
	C99.777367,211.785248 101.263153,216.147079 97.070480,220.241623 
	C95.039978,222.224655 94.961922,226.377686 94.367828,229.615753 
	C93.688080,233.320709 91.881821,235.055588 87.987717,235.145004 
	C86.659851,235.175491 84.165642,236.970993 84.255653,237.710281 
	C84.866646,242.728943 82.472008,246.171066 79.071594,249.656647 
	C68.645775,250.000000 58.291546,250.000000 47.468658,250.000000 
	C50.884460,247.234238 51.464947,241.150833 57.032257,240.016342 
	C57.507740,239.919464 58.145004,239.012253 58.154686,238.471588 
	C58.333515,228.485626 67.930626,223.430206 70.578110,214.705276 
	C71.213448,212.611511 72.958687,210.841278 74.254257,208.964203 
	C76.261070,206.056671 76.784920,203.400192 73.947960,200.516846 
	C71.888008,198.423187 70.321953,195.843582 68.657791,193.125946 
	C77.362404,191.739365 85.944885,190.707489 94.527374,189.675629 
z"/>
<path fill="#0499E7" opacity="1.000000" stroke="none" 
	d="
M132.000000,1.000001 
	C145.354233,1.000000 158.708450,1.000000 172.367737,1.344469 
	C172.143326,4.707363 171.249725,7.717053 171.177048,10.746439 
	C171.087234,14.489915 171.679459,18.249752 171.784546,22.141981 
	C171.349854,22.491367 171.147797,22.734692 170.693192,23.088060 
	C169.939713,23.769529 169.479004,24.374357 169.014374,25.417988 
	C169.007568,27.903643 169.004700,29.950491 168.978271,32.395584 
	C168.297150,38.137661 167.496872,43.468899 167.023834,48.829010 
	C166.585983,53.790394 160.204178,64.007759 155.797211,65.708481 
	C156.038910,60.584126 156.463211,55.752922 156.915375,50.934067 
	C156.943253,50.946415 156.892151,50.979179 157.131409,50.741867 
	C157.557739,49.646034 157.744781,48.787521 157.953094,47.958084 
	C157.974335,47.987167 157.902725,47.979366 158.125763,47.766968 
	C158.491974,46.974014 158.635178,46.393459 158.800964,45.848297 
	C158.823547,45.883694 158.746552,45.917217 159.014511,45.684109 
	C159.496048,44.785370 159.709625,44.119740 159.860291,43.343395 
	C159.797363,43.232685 160.004608,43.084656 160.211609,42.878838 
	C160.605072,42.136208 160.791550,41.599388 160.962784,41.024227 
	C160.947540,40.985886 161.022858,40.952171 161.234344,40.763763 
	C161.612411,40.045372 161.779007,39.515388 161.961365,38.982300 
	C161.977127,38.979195 161.955719,38.955009 162.277435,38.753189 
	C162.707108,35.372292 162.815079,32.193218 162.957993,29.017628 
	C162.992950,29.021109 162.930634,29.053585 162.911911,28.764339 
	C162.594284,27.999802 162.295380,27.524511 161.968475,27.040539 
	C161.940475,27.031858 161.957001,26.975616 161.922577,26.687244 
	C161.544037,25.950634 161.199936,25.502398 160.895111,25.051510 
	C160.934418,25.048861 160.934479,25.127647 160.819901,24.908865 
	C160.516693,24.410349 160.271164,24.195713 159.978653,24.031439 
	C159.988571,24.016705 159.954300,24.024534 159.836426,23.819500 
	C159.520584,23.358778 159.272217,23.169056 158.983093,23.026257 
	C158.992737,23.007212 158.958923,23.033524 158.785828,22.821907 
	C158.292542,22.443386 157.972366,22.276482 157.329803,22.033735 
	C148.995239,17.954062 140.983047,13.950230 132.688797,9.732008 
	C130.751495,9.205199 129.096222,8.892780 128.195297,8.722735 
	C129.499207,6.076064 130.749603,3.538033 132.000000,1.000001 
z"/>
<path fill="#018DDC" opacity="1.000000" stroke="none" 
	d="
M30.820854,210.699493 
	C26.283695,212.401260 24.897865,216.526276 22.794083,220.369247 
	C20.013557,225.448441 19.103968,230.613098 18.624981,236.302002 
	C18.260752,240.627945 15.522154,244.556808 10.635398,246.179565 
	C9.275002,246.631332 8.295621,248.230484 7.070722,249.651627 
	C5.020579,250.000000 3.041159,250.000000 1.000000,250.000000 
	C1.000000,237.979156 1.000000,225.958237 1.000000,213.468658 
	C3.240340,211.199722 5.505612,209.429077 7.704967,207.580063 
	C8.319713,207.063232 8.686214,205.811356 9.257689,205.750381 
	C15.466896,205.087799 16.166071,200.825226 16.272278,195.813507 
	C16.304363,194.299408 17.517252,192.810349 18.458858,191.273254 
	C19.615652,195.030930 19.861927,199.147156 21.562820,202.532578 
	C23.417732,206.224533 24.899944,211.247696 30.820854,210.699493 
z"/>
<path fill="#0186DA" opacity="1.000000" stroke="none" 
	d="
M37.000000,1.000000 
	C46.020893,1.000000 55.041790,1.000000 64.531342,1.459386 
	C64.986008,4.402113 65.387138,6.978088 64.858589,9.346602 
	C64.107437,12.712669 63.537052,16.816717 61.310078,18.978357 
	C58.556416,21.651226 54.096878,22.496534 50.543186,24.440107 
	C48.196148,25.723742 46.146194,27.550592 43.502419,29.145397 
	C37.181210,28.798361 31.320807,28.440157 25.323957,28.115097 
	C25.187510,28.148243 24.968102,27.972958 24.992670,27.611897 
	C26.730143,25.135069 28.568699,23.107290 30.126329,20.882799 
	C32.429554,17.593512 35.154747,14.395993 36.523582,10.721102 
	C37.602856,7.823593 36.907280,4.264983 37.000000,1.000000 
z"/>
<path fill="#018BDE" opacity="1.000000" stroke="none" 
	d="
M43.963226,29.134232 
	C46.146194,27.550592 48.196148,25.723742 50.543186,24.440107 
	C54.096878,22.496534 58.556416,21.651226 61.310078,18.978357 
	C63.537052,16.816717 64.107437,12.712669 64.858589,9.346602 
	C65.387138,6.978088 64.986008,4.402113 65.000000,1.459386 
	C75.354225,1.000000 85.708458,1.000000 96.463867,1.344915 
	C94.769806,4.953824 93.299522,9.049632 90.392776,11.233505 
	C87.803833,13.178612 84.037582,13.280145 85.413109,17.988649 
	C85.532295,18.396666 84.584381,19.329052 83.947899,19.710037 
	C80.327347,21.877226 76.650803,23.950851 72.873489,26.150505 
	C72.753685,26.244715 72.501511,26.073603 72.097977,26.071184 
	C70.459328,26.376041 69.224220,26.683315 67.625587,27.166668 
	C61.248024,28.248125 55.233978,29.153503 48.840973,29.978708 
	C46.962421,29.643766 45.462822,29.388998 43.963226,29.134232 
z"/>
<path fill="#0182D5" opacity="1.000000" stroke="none" 
	d="
M36.532063,1.000000 
	C36.907280,4.264983 37.602856,7.823593 36.523582,10.721102 
	C35.154747,14.395993 32.429554,17.593512 30.126329,20.882799 
	C28.568699,23.107290 26.730143,25.135069 24.607784,27.636597 
	C22.332331,27.518234 20.480448,26.952131 18.597315,26.523220 
	C14.972545,25.697620 12.478132,26.396364 12.950279,31.247589 
	C8.901407,33.719654 4.950704,35.859829 1.000000,38.000000 
	C1.000000,35.629444 1.000000,33.258884 1.395271,30.399853 
	C2.527230,27.314043 3.741000,24.741764 3.879064,22.112988 
	C4.049176,18.874014 4.421985,16.219816 7.909040,15.039544 
	C14.632757,12.763750 17.668007,7.548494 19.000000,1.000000 
	C24.688040,1.000000 30.376081,1.000000 36.532063,1.000000 
z"/>
<path fill="#048FE0" opacity="1.000000" stroke="none" 
	d="
M72.993294,26.056295 
	C76.650803,23.950851 80.327347,21.877226 83.947899,19.710037 
	C84.584381,19.329052 85.532295,18.396666 85.413109,17.988649 
	C84.037582,13.280145 87.803833,13.178612 90.392776,11.233505 
	C93.299522,9.049632 94.769806,4.953824 96.932526,1.344915 
	C108.354225,1.000000 119.708458,1.000000 131.531342,1.000001 
	C130.749603,3.538033 129.499207,6.076064 128.195297,8.722735 
	C129.096222,8.892780 130.751495,9.205199 132.237854,9.773842 
	C126.462082,9.345786 121.460434,10.518323 116.438721,13.430432 
	C103.057068,21.190498 88.114525,24.034338 72.993294,26.056295 
z"/>
<path fill="#1DA2EC" opacity="1.000000" stroke="none" 
	d="
M184.000000,27.000000 
	C184.000000,53.354229 184.000000,79.708458 183.599152,106.530403 
	C178.887787,107.103134 176.827377,105.815430 179.577393,101.342850 
	C179.964294,100.713577 179.869019,99.787849 179.997894,98.550629 
	C179.668304,90.362381 178.260712,82.471565 179.320450,74.927330 
	C180.312637,67.864029 179.612396,61.367962 177.910751,54.328983 
	C176.364426,55.259159 174.938156,56.587402 173.296844,56.954727 
	C171.998001,57.245399 170.435196,56.356567 169.004807,55.664421 
	C169.346664,54.558620 169.673340,53.779915 170.320709,52.912411 
	C171.422226,51.545914 172.203033,50.268215 172.988007,48.743538 
	C172.992172,48.496563 173.001831,48.002640 173.290604,47.815262 
	C177.683823,41.359283 182.320770,35.230492 179.187500,26.869335 
	C179.629608,26.518059 179.835632,26.273426 180.340744,26.049709 
	C181.787186,26.403395 182.893585,26.701698 184.000000,27.000000 
z"/>
<path fill="#0285D4" opacity="1.000000" stroke="none" 
	d="
M1.000000,38.468658 
	C4.950704,35.859829 8.901407,33.719654 13.266010,31.411432 
	C15.790570,36.829952 17.901232,42.416523 20.011892,48.003090 
	C12.749150,48.083969 13.030481,48.215416 11.835596,55.368801 
	C11.062807,59.995243 9.390369,64.574234 7.390515,68.831291 
	C6.776992,70.137291 3.745712,70.307480 1.410790,70.998886 
	C1.000000,60.312439 1.000000,49.624878 1.000000,38.468658 
z"/>
<path fill="#13A3EC" opacity="1.000000" stroke="none" 
	d="
M179.996948,98.999344 
	C179.869019,99.787849 179.964294,100.713577 179.577393,101.342850 
	C176.827377,105.815430 178.887787,107.103134 183.599152,106.999062 
	C184.000000,117.020897 184.000000,127.041786 183.640381,137.514679 
	C181.520981,137.310745 179.761185,136.654831 177.930206,135.615204 
	C177.573090,133.154404 177.287155,131.077332 177.002197,128.750961 
	C177.003159,128.501678 177.003799,128.003098 177.351715,127.865822 
	C177.807739,124.813011 177.743408,121.878426 178.063095,118.986282 
	C178.582748,114.285172 176.715256,112.268265 171.797668,112.795967 
	C171.395660,112.061203 171.196609,111.529869 170.997559,110.998528 
	C171.000183,109.933105 171.002777,108.867691 171.289810,107.353119 
	C172.050095,106.603378 172.525970,106.302803 173.308380,105.813850 
	C174.199219,103.271309 175.097687,100.941994 175.286392,98.556534 
	C175.510040,95.729599 175.122086,92.854279 175.230591,90.271561 
	C176.973633,93.361908 178.485291,96.180626 179.996948,98.999344 
z"/>
<path fill="#007DD3" opacity="1.000000" stroke="none" 
	d="
M18.530293,1.000000 
	C17.668007,7.548494 14.632757,12.763750 7.909040,15.039544 
	C4.421985,16.219816 4.049176,18.874014 3.879064,22.112988 
	C3.741000,24.741764 2.527230,27.314043 1.395271,29.955688 
	C1.000000,20.424681 1.000000,10.849362 1.000000,1.000000 
	C6.683948,1.000000 12.372266,1.000000 18.530293,1.000000 
z"/>
<path fill="#33A1EB" opacity="1.000000" stroke="none" 
	d="
M184.000000,26.531334 
	C182.893585,26.701698 181.787186,26.403395 180.088104,25.827408 
	C177.994156,25.036236 176.492874,24.522749 174.985382,23.764057 
	C174.979156,23.518854 174.967316,23.028433 174.975464,22.574259 
	C175.322403,15.080056 175.661194,8.040029 176.000000,1.000000 
	C178.631851,1.000000 181.263718,1.000000 184.000000,1.000000 
	C184.000000,9.354003 184.000000,17.708336 184.000000,26.531334 
z"/>
<path fill="#24A1EC" opacity="1.000000" stroke="none" 
	d="
M175.625000,1.000000 
	C175.661194,8.040029 175.322403,15.080056 174.663528,22.520748 
	C173.554642,22.615114 172.765808,22.308817 171.976990,22.002520 
	C171.679459,18.249752 171.087234,14.489915 171.177048,10.746439 
	C171.249725,7.717053 172.143326,4.707363 172.836395,1.344469 
	C173.750000,1.000000 174.500000,1.000000 175.625000,1.000000 
z"/>
<path fill="#09A2EB" opacity="1.000000" stroke="none" 
	d="
M178.001404,135.998901 
	C179.761185,136.654831 181.520981,137.310745 183.640381,137.983337 
	C184.000000,139.066666 184.000000,140.133347 184.000000,141.600006 
	C181.174271,141.070007 178.238159,140.379623 175.553635,139.143036 
	C172.838348,137.892273 171.968933,135.780411 174.686508,133.468948 
	C176.032837,134.467178 177.017120,135.233032 178.001404,135.998901 
z"/>
<path fill="#09A2EB" opacity="1.000000" stroke="none" 
	d="
M173.001831,106.002228 
	C172.525970,106.302803 172.050095,106.603378 171.291519,106.953590 
	C169.535400,103.914810 167.758331,100.924889 166.711807,97.698036 
	C166.157074,95.987579 166.352097,93.630890 167.102905,91.970215 
	C170.269791,84.965355 166.646362,78.644814 165.373184,72.134880 
	C164.790207,69.153969 162.281311,68.463272 159.463257,69.491455 
	C158.228027,69.942154 157.022858,70.475197 155.428513,70.630737 
	C155.361923,68.860962 155.670868,67.431305 155.979797,66.001640 
	C160.204178,64.007759 166.585983,53.790394 167.023834,48.829010 
	C167.496872,43.468899 168.297150,38.137661 169.324921,32.506134 
	C173.075699,37.002548 173.883499,42.325630 173.001831,48.002640 
	C173.001831,48.002640 172.992172,48.496563 172.648224,48.818455 
	C171.536163,50.427299 170.768082,51.714252 170.000000,53.001205 
	C169.673340,53.779915 169.346664,54.558620 168.694794,55.718971 
	C167.579315,56.733624 166.789047,57.366634 165.715240,58.181984 
	C164.698944,59.525326 163.966202,60.686325 163.026215,62.175701 
	C164.323669,62.578732 164.935654,62.958267 165.520920,62.920780 
	C170.373215,62.609993 171.177246,64.663048 169.670380,68.976990 
	C169.030212,70.809761 169.583481,73.170403 169.958176,75.224792 
	C170.894241,80.357170 173.187103,85.365913 170.437637,90.684952 
	C169.943756,91.640373 170.563431,93.222672 170.795441,94.492439 
	C171.497543,98.335129 172.261795,102.166466 173.001831,106.002228 
z"/>
<path fill="#0F9ADE" opacity="1.000000" stroke="none" 
	d="
M155.797211,65.708481 
	C155.670868,67.431305 155.361923,68.860962 155.049652,70.659531 
	C154.711929,82.157158 154.066376,93.287216 154.113983,104.414307 
	C154.190826,122.372597 154.683060,140.329849 155.080246,158.285751 
	C155.311768,168.751694 156.633087,179.293991 155.747070,189.655106 
	C154.910843,199.434250 151.826599,209.021149 149.387711,218.871979 
	C149.044220,219.051361 148.869873,218.908203 148.894852,218.520905 
	C149.614990,215.912811 150.296600,213.687637 151.007507,211.471878 
	C156.171799,195.375992 154.381180,178.832123 154.179413,162.390076 
	C153.825912,133.584412 153.177475,104.777313 153.311157,75.973885 
	C153.349945,67.617805 155.633179,59.272148 156.887512,50.921719 
	C156.463211,55.752922 156.038910,60.584126 155.797211,65.708481 
z"/>
<path fill="#09A2EB" opacity="1.000000" stroke="none" 
	d="
M170.668823,111.114044 
	C171.196609,111.529869 171.395660,112.061203 172.000366,113.094635 
	C175.351761,115.123177 176.293060,117.495346 176.092712,120.799812 
	C175.948792,123.173775 176.669052,125.600121 177.003799,128.003098 
	C177.003799,128.003098 177.003159,128.501678 176.784744,128.933380 
	C176.043793,129.910095 175.521255,130.455109 174.998718,131.000122 
	C173.270813,125.861923 171.426010,120.758102 169.897751,115.561188 
	C169.518692,114.272141 170.165085,112.681541 170.668823,111.114044 
z"/>
<path fill="#0F9ADE" opacity="1.000000" stroke="none" 
	d="
M144.149918,228.127243 
	C142.326675,233.863617 139.557175,235.004547 135.021210,231.464691 
	C134.944122,231.073196 135.089005,230.914581 135.428558,231.025024 
	C139.843231,233.575211 141.611359,229.992538 144.025345,228.023224 
	C144.066589,228.058243 144.149918,228.127243 144.149918,228.127243 
z"/>
<path fill="#0CA1EC" opacity="1.000000" stroke="none" 
	d="
M174.997589,131.331879 
	C175.521255,130.455109 176.043793,129.910095 176.783783,129.182663 
	C177.287155,131.077332 177.573090,133.154404 177.930206,135.615204 
	C177.017120,135.233032 176.032837,134.467178 175.019989,133.345764 
	C174.993118,132.548035 174.994781,132.105820 174.997589,131.331879 
z"/>
<path fill="#0F9ADE" opacity="1.000000" stroke="none" 
	d="
M149.131622,219.122681 
	C149.003876,219.711243 148.788727,220.228516 148.336487,220.917572 
	C148.099380,221.089386 147.960220,220.977463 147.963867,220.679977 
	C148.268295,219.891068 148.569077,219.399628 148.869873,218.908203 
	C148.869873,218.908203 149.044220,219.051361 149.131622,219.122681 
z"/>
<path fill="#0F9ADE" opacity="1.000000" stroke="none" 
	d="
M148.169739,221.144379 
	C148.022705,221.716934 147.805298,222.234528 147.353577,222.926727 
	C147.119278,223.101349 146.997421,222.998367 147.010437,222.707581 
	C147.335709,221.937012 147.647964,221.457245 147.960220,220.977463 
	C147.960220,220.977463 148.099380,221.089386 148.169739,221.144379 
z"/>
<path fill="#0F9ADE" opacity="1.000000" stroke="none" 
	d="
M147.182022,223.150604 
	C147.026398,223.718033 146.808029,224.236221 146.350220,224.925125 
	C146.110764,225.095856 145.981293,224.988937 146.001190,224.700485 
	C146.346542,223.940811 146.671982,223.469589 146.997421,222.998367 
	C146.997421,222.998367 147.119278,223.101349 147.182022,223.150604 
z"/>
<path fill="#0F9ADE" opacity="1.000000" stroke="none" 
	d="
M146.176605,225.147949 
	C145.994263,225.708405 145.746063,226.216782 145.232086,226.857269 
	C144.966278,226.989380 144.821838,226.851608 144.871063,226.572906 
	C145.273941,225.859100 145.627625,225.424026 145.981293,224.988937 
	C145.981293,224.988937 146.110764,225.095856 146.176605,225.147949 
z"/>
<path fill="#0F9ADE" opacity="1.000000" stroke="none" 
	d="
M134.223648,231.123505 
	C134.035095,230.872513 134.042603,230.647110 134.315277,230.213181 
	C134.749969,230.307968 134.919479,230.611267 135.089005,230.914581 
	C135.089005,230.914581 134.944122,231.073196 134.874268,231.156845 
	C134.804428,231.240494 134.419708,231.149094 134.223648,231.123505 
z"/>
<path fill="#0F9ADE" opacity="1.000000" stroke="none" 
	d="
M145.034485,227.062225 
	C144.959671,227.414581 144.770172,227.657898 144.342041,227.996124 
	C144.149918,228.127243 144.066589,228.058243 144.076019,227.776978 
	C144.330917,227.281006 144.576370,227.066299 144.821838,226.851608 
	C144.821838,226.851608 144.966278,226.989380 145.034485,227.062225 
z"/>
<path fill="#030506" opacity="1.000000" stroke="none" 
	d="
M144.871063,226.572906 
	C144.576370,227.066299 144.330917,227.281006 144.034790,227.741974 
	C141.611359,229.992538 139.843231,233.575211 135.428558,231.025024 
	C134.919479,230.611267 134.749969,230.307968 134.346954,229.876373 
	C131.250870,220.270264 128.640533,210.706741 125.457428,201.337830 
	C122.012253,191.197586 118.782372,189.030426 108.133347,188.811066 
	C103.861633,188.723083 99.580505,189.092377 94.915512,189.464569 
	C85.944885,190.707489 77.362404,191.739365 68.388275,192.902161 
	C58.893326,193.356903 49.780384,193.538986 40.696995,194.156082 
	C39.322613,194.249451 37.635136,196.131836 36.871460,197.593658 
	C34.750111,201.654282 33.039383,205.929443 30.993647,210.409668 
	C24.899944,211.247696 23.417732,206.224533 21.562820,202.532578 
	C19.861927,199.147156 19.615652,195.030930 18.552830,190.859802 
	C18.967773,184.385727 19.558342,178.288544 20.358316,171.497498 
	C20.750593,169.866974 20.933462,168.930267 21.116333,167.993576 
	C21.116333,167.993576 21.049156,168.017090 21.310238,167.756866 
	C22.727631,159.786407 24.838354,152.079681 24.866552,144.365311 
	C24.962404,118.142334 24.355339,91.916069 23.886118,65.693405 
	C23.857199,64.077255 22.701214,62.481274 22.069618,60.875908 
	C21.433260,56.854511 20.796904,52.833111 20.086220,48.407402 
	C17.901232,42.416523 15.790570,36.829952 13.364180,31.079540 
	C12.478132,26.396364 14.972545,25.697620 18.597315,26.523220 
	C20.480448,26.952131 22.332331,27.518234 24.583216,27.997660 
	C24.968102,27.972958 25.187510,28.148243 25.630772,28.398376 
	C33.789333,29.118633 41.504631,29.588758 49.219933,30.058884 
	C55.233978,29.153503 61.248024,28.248125 68.016487,27.220446 
	C70.014442,26.756630 71.257973,26.415117 72.501511,26.073603 
	C72.501511,26.073603 72.753685,26.244715 72.873489,26.150505 
	C88.114525,24.034338 103.057068,21.190498 116.438721,13.430432 
	C121.460434,10.518323 126.462082,9.345786 132.519897,9.988230 
	C140.983047,13.950230 148.995239,17.954062 157.467468,22.284189 
	C158.271301,22.751499 158.615112,22.892511 158.958923,23.033524 
	C158.958923,23.033524 158.992737,23.007212 159.060623,23.263014 
	C159.322845,23.819540 159.598114,23.988113 159.954300,24.024534 
	C159.954300,24.024534 159.988571,24.016705 160.024445,24.298103 
	C160.351700,24.762218 160.643082,24.944935 160.934479,25.127649 
	C160.934479,25.127647 160.934418,25.048861 160.908478,25.348305 
	C161.240692,26.090370 161.598846,26.532993 161.957001,26.975616 
	C161.957001,26.975616 161.940475,27.031858 161.971252,27.336061 
	C162.311569,28.111372 162.621109,28.582478 162.930634,29.053585 
	C162.930634,29.053585 162.992950,29.021109 162.919739,29.449196 
	C162.549591,32.903194 162.252655,35.929100 161.955719,38.955009 
	C161.955719,38.955009 161.977127,38.979195 161.726120,39.151787 
	C161.324356,39.866974 161.173615,40.409573 161.022858,40.952171 
	C161.022858,40.952171 160.947540,40.985886 160.736282,41.211990 
	C160.351547,41.986950 160.178085,42.535801 160.004608,43.084656 
	C160.004608,43.084656 159.797363,43.232685 159.567001,43.558277 
	C159.139954,44.561653 158.943253,45.239437 158.746552,45.917217 
	C158.746552,45.917217 158.823547,45.883694 158.530365,46.016636 
	C158.125702,46.759506 158.014221,47.369438 157.902740,47.979370 
	C157.902725,47.979366 157.974335,47.987167 157.710358,48.194710 
	C157.261642,49.261227 157.076889,50.120205 156.892151,50.979179 
	C156.892151,50.979179 156.943253,50.946415 156.915375,50.934067 
	C155.633179,59.272148 153.349945,67.617805 153.311157,75.973885 
	C153.177475,104.777313 153.825912,133.584412 154.179413,162.390076 
	C154.381180,178.832123 156.171799,195.375992 151.007507,211.471878 
	C150.296600,213.687637 149.614990,215.912811 148.894852,218.520905 
	C148.569077,219.399628 148.268295,219.891068 147.963867,220.679977 
	C147.647964,221.457245 147.335709,221.937012 147.010437,222.707581 
	C146.671982,223.469589 146.346542,223.940811 146.001190,224.700485 
	C145.627625,225.424026 145.273941,225.859100 144.871063,226.572906 
M125.046928,30.948652 
	C125.046928,30.948652 124.844536,30.972599 124.595009,30.469563 
	C124.078552,30.292585 123.562096,30.115606 122.997116,29.988306 
	C122.997116,29.988306 123.039963,29.929848 122.483955,29.294615 
	C118.175018,29.499811 113.866081,29.705008 109.288452,29.763491 
	C109.288452,29.763491 109.048447,29.953539 108.243736,29.870518 
	C106.481621,30.221388 104.719498,30.572260 103.015121,30.924110 
	C103.015121,30.924110 102.963623,30.895235 102.099144,30.776424 
	C98.386772,31.490931 94.674408,32.205437 90.982086,32.875156 
	C90.982086,32.875156 90.935219,32.860626 90.081039,32.706619 
	C84.701973,33.771908 79.322899,34.837200 73.957832,35.818794 
	C73.957832,35.818794 73.874954,35.800556 73.053818,35.653301 
	C64.014427,37.495457 54.975033,39.337608 45.293953,41.082119 
	C44.486805,41.355270 43.679657,41.628418 42.144428,41.850922 
	C41.069145,42.276569 39.993858,42.702221 38.382690,43.551403 
	C38.521297,45.272697 38.659908,46.993996 38.698982,49.651829 
	C39.585522,60.250172 40.472065,70.848511 41.117889,82.258057 
	C41.385712,87.573860 41.653534,92.889656 41.766205,99.056282 
	C41.920792,101.350525 42.075378,103.644760 42.671173,106.540543 
	C45.972553,106.081894 49.273933,105.623245 53.031918,105.377548 
	C53.341759,105.268021 53.651600,105.158493 54.791622,105.162376 
	C59.177292,103.783310 63.562962,102.404251 68.545090,100.995857 
	C68.717194,100.895836 68.889297,100.795815 69.571083,100.794891 
	C69.988716,100.522614 70.406357,100.250336 70.969582,100.047241 
	C70.969582,100.047241 71.040794,99.902626 71.725487,99.956024 
	C73.149406,99.285072 74.573318,98.614120 76.691322,97.904999 
	C77.110298,97.717560 77.529274,97.530113 78.362587,97.475456 
	C78.686424,97.438217 78.904465,97.266556 79.747276,96.919548 
	C80.201744,96.749062 80.656204,96.578583 81.874184,96.511238 
	C87.522469,96.153664 93.170761,95.796089 99.495155,95.760170 
	C99.976524,95.890274 100.457901,96.020386 101.431305,96.653976 
	C102.278503,96.847137 103.125702,97.040306 104.421265,97.488152 
	C104.916885,97.612328 105.412514,97.736504 106.280991,98.363640 
	C106.843803,98.587593 107.406624,98.811539 108.002106,99.004547 
	C108.002106,99.004547 107.965828,99.026695 108.115952,99.516113 
	C108.414108,99.654907 108.712257,99.793701 109.004974,99.995110 
	C109.004974,99.995110 109.065269,99.977386 109.253700,100.553429 
	C109.817879,101.127426 110.382065,101.701416 110.937958,102.617683 
	C110.937958,102.617683 111.112465,102.912231 110.933395,103.582962 
	C110.934921,104.041908 110.936447,104.500862 110.994385,104.999908 
	C110.994385,104.999908 110.956543,104.942085 110.364594,105.289680 
	C107.340874,106.890144 104.483284,109.232491 101.262672,109.953644 
	C91.107925,112.227486 80.866653,114.253082 70.562233,115.674072 
	C63.094639,116.703865 55.473526,116.620422 47.548840,116.971565 
	C47.548840,116.971565 47.171860,116.982170 46.785797,116.378662 
	C45.062492,116.030067 43.062035,113.588165 41.719608,117.269608 
	C41.719608,117.269608 41.851154,117.500366 41.429268,118.285042 
	C40.267517,139.341644 39.110748,160.398514 37.937199,181.454468 
	C37.802685,183.867920 38.557755,185.402924 41.292171,185.024536 
	C53.255432,183.369095 65.215027,181.687149 77.720161,180.065430 
	C78.198822,179.845154 78.677483,179.624893 79.805504,179.402542 
	C80.208740,179.253265 80.611977,179.103989 81.712349,179.060013 
	C82.318283,178.752258 82.924217,178.444519 84.253624,178.152527 
	C87.439384,177.161514 90.625145,176.170486 94.653564,175.235504 
	C96.448364,174.847275 98.243172,174.459045 100.022316,174.118652 
	C100.022316,174.118652 100.054626,174.156326 100.835411,174.488663 
	C107.447807,174.150345 113.197960,175.601303 117.539238,181.248138 
	C119.187759,183.392395 121.718651,185.084305 124.180153,186.318909 
	C127.091301,187.779022 129.693909,187.437897 130.127228,183.238708 
	C130.713882,177.553207 131.467377,171.884933 132.861694,165.746414 
	C133.179047,161.781845 133.789368,157.815643 133.767044,153.852982 
	C133.601013,124.416107 133.338913,94.979607 133.019348,65.543945 
	C132.979935,61.913506 132.423721,58.288681 132.199310,53.829151 
	C131.157516,48.544796 130.115707,43.260441 129.014969,38.001728 
	C129.014969,38.001728 129.063736,37.961502 129.104706,37.273022 
	C128.768143,36.691525 128.431580,36.110027 128.132843,35.027103 
	C127.846603,34.638645 127.560371,34.250191 127.194717,33.296196 
	C126.810013,32.900890 126.425308,32.505589 126.055496,31.949240 
	C126.055496,31.949240 125.894981,31.929497 125.821571,31.503635 
	C125.643967,31.235662 125.395218,31.117939 125.046928,30.948652 
z"/>
<path fill="#3579A1" opacity="1.000000" stroke="none" 
	d="
M22.007725,61.267029 
	C22.701214,62.481274 23.857199,64.077255 23.886118,65.693405 
	C24.355339,91.916069 24.962404,118.142334 24.866552,144.365311 
	C24.838354,152.079681 22.727631,159.786407 21.326496,167.788528 
	C21.743671,162.144531 22.817274,156.220657 22.991110,150.270508 
	C23.529518,131.841492 23.725584,113.402496 24.049923,94.128494 
	C24.020794,92.546219 23.996283,91.802826 23.998835,90.594223 
	C23.650166,83.409187 23.274433,76.689362 22.923897,69.596870 
	C22.914843,68.477554 22.880594,67.730896 22.846346,66.984245 
	C22.546175,65.208885 22.246002,63.433517 22.007725,61.267029 
z"/>
<path fill="#1B8CDB" opacity="1.000000" stroke="none" 
	d="
M22.898701,69.969536 
	C23.274433,76.689362 23.650166,83.409187 23.646822,90.497787 
	C22.183910,88.835831 20.251324,86.831238 20.187777,84.769058 
	C20.042421,80.052376 17.633577,77.256210 14.013289,74.986893 
	C14.187052,72.536812 14.360815,70.086723 15.129519,67.335526 
	C18.115873,68.012779 20.507288,68.991158 22.898701,69.969536 
z"/>
<path fill="#0C8ADA" opacity="1.000000" stroke="none" 
	d="
M14.085608,75.394608 
	C17.633577,77.256210 20.042421,80.052376 20.187777,84.769058 
	C20.251324,86.831238 22.183910,88.835831 23.619761,90.962997 
	C23.996283,91.802826 24.020794,92.546219 24.021259,93.662903 
	C19.233070,92.672447 15.151532,87.415749 14.967698,82.671562 
	C14.878701,80.374809 14.438898,78.091644 14.085608,75.394608 
z"/>
<path fill="#0C8ADA" opacity="1.000000" stroke="none" 
	d="
M22.923897,69.596870 
	C20.507288,68.991158 18.115873,68.012779 15.360556,67.014603 
	C17.348967,62.895756 19.755304,67.591957 22.487602,66.967621 
	C22.880594,67.730896 22.914843,68.477554 22.923897,69.596870 
z"/>
<path fill="#3579A1" opacity="1.000000" stroke="none" 
	d="
M20.866077,168.264496 
	C20.933462,168.930267 20.750593,169.866974 20.351164,171.105057 
	C20.295010,170.449432 20.455416,169.492416 20.866077,168.264496 
z"/>
<path fill="#109FEA" opacity="1.000000" stroke="none" 
	d="
M173.290604,47.815262 
	C173.883499,42.325630 173.075699,37.002548 169.348511,32.107887 
	C169.004700,29.950491 169.007568,27.903643 169.307373,25.343504 
	C170.064850,24.223948 170.525406,23.617682 170.985962,23.011417 
	C171.147797,22.734692 171.349854,22.491367 171.784546,22.141981 
	C172.765808,22.308817 173.554642,22.615114 174.655396,22.974922 
	C174.967316,23.028433 174.979156,23.518854 175.056885,24.105625 
	C176.420532,25.465080 177.706436,26.237764 178.992340,27.010445 
	C182.320770,35.230492 177.683823,41.359283 173.290604,47.815262 
z"/>
<path fill="#0F9ADE" opacity="1.000000" stroke="none" 
	d="
M162.277435,38.753189 
	C162.252655,35.929100 162.549591,32.903194 162.884766,29.445715 
	C162.815079,32.193218 162.707108,35.372292 162.277435,38.753189 
z"/>
<path fill="#0F9ADE" opacity="1.000000" stroke="none" 
	d="
M170.693192,23.088058 
	C170.525406,23.617682 170.064850,24.223948 169.311295,24.904701 
	C169.479004,24.374357 169.939713,23.769529 170.693192,23.088058 
z"/>
<path fill="#0F9ADE" opacity="1.000000" stroke="none" 
	d="
M157.131409,50.741867 
	C157.076889,50.120205 157.261642,49.261227 157.689117,48.165627 
	C157.744781,48.787521 157.557739,49.646034 157.131409,50.741867 
z"/>
<path fill="#0F9ADE" opacity="1.000000" stroke="none" 
	d="
M161.922577,26.687244 
	C161.598846,26.532993 161.240692,26.090370 160.869171,25.350954 
	C161.199936,25.502398 161.544037,25.950634 161.922577,26.687244 
z"/>
<path fill="#0F9ADE" opacity="1.000000" stroke="none" 
	d="
M162.911911,28.764338 
	C162.621109,28.582478 162.311569,28.111372 161.999252,27.344742 
	C162.295380,27.524511 162.594284,27.999802 162.911911,28.764338 
z"/>
<path fill="#0F9ADE" opacity="1.000000" stroke="none" 
	d="
M159.014511,45.684109 
	C158.943253,45.239437 159.139954,44.561653 159.629913,43.668987 
	C159.709625,44.119740 159.496048,44.785370 159.014511,45.684109 
z"/>
<path fill="#0F9ADE" opacity="1.000000" stroke="none" 
	d="
M160.211609,42.878838 
	C160.178085,42.535801 160.351547,41.986950 160.751526,41.250332 
	C160.791550,41.599388 160.605072,42.136208 160.211609,42.878838 
z"/>
<path fill="#0F9ADE" opacity="1.000000" stroke="none" 
	d="
M158.125763,47.766972 
	C158.014221,47.369438 158.125702,46.759506 158.507782,45.981239 
	C158.635178,46.393459 158.491974,46.974014 158.125763,47.766972 
z"/>
<path fill="#0F9ADE" opacity="1.000000" stroke="none" 
	d="
M161.234344,40.763763 
	C161.173615,40.409573 161.324356,39.866974 161.710358,39.154888 
	C161.779007,39.515388 161.612411,40.045372 161.234344,40.763763 
z"/>
<path fill="#0F9ADE" opacity="1.000000" stroke="none" 
	d="
M158.785828,22.821907 
	C158.615112,22.892511 158.271301,22.751499 157.789825,22.360031 
	C157.972366,22.276482 158.292542,22.443386 158.785828,22.821907 
z"/>
<path fill="#0F9ADE" opacity="1.000000" stroke="none" 
	d="
M159.836426,23.819500 
	C159.598114,23.988113 159.322845,23.819540 159.050980,23.282059 
	C159.272217,23.169056 159.520584,23.358778 159.836426,23.819500 
z"/>
<path fill="#0F9ADE" opacity="1.000000" stroke="none" 
	d="
M160.819901,24.908867 
	C160.643082,24.944935 160.351700,24.762218 160.014526,24.312840 
	C160.271164,24.195713 160.516693,24.410349 160.819901,24.908867 
z"/>
<path fill="#317AA6" opacity="1.000000" stroke="none" 
	d="
M48.840973,29.978710 
	C41.504631,29.588758 33.789333,29.118633 25.767220,28.365231 
	C31.320807,28.440157 37.181210,28.798361 43.502419,29.145397 
	C45.462822,29.388998 46.962421,29.643766 48.840973,29.978710 
z"/>
<path fill="#048FE0" opacity="1.000000" stroke="none" 
	d="
M72.097977,26.071184 
	C71.257973,26.415117 70.014442,26.756630 68.380005,27.044369 
	C69.224220,26.683315 70.459328,26.376041 72.097977,26.071184 
z"/>
<path fill="#14A1EC" opacity="1.000000" stroke="none" 
	d="
M165.998779,57.999649 
	C166.789047,57.366634 167.579315,56.733624 168.679596,56.046062 
	C170.435196,56.356567 171.998001,57.245399 173.296844,56.954727 
	C174.938156,56.587402 176.364426,55.259159 177.910751,54.328983 
	C179.612396,61.367962 180.312637,67.864029 179.320450,74.927330 
	C178.260712,82.471565 179.668304,90.362381 179.997894,98.550629 
	C178.485291,96.180626 176.973633,93.361908 175.230545,89.805153 
	C174.413055,83.045998 173.743195,77.030952 173.306473,70.999023 
	C173.210709,69.676323 173.845825,68.257416 174.323761,66.948303 
	C174.829208,65.563904 176.317291,63.291515 176.047791,63.077179 
	C174.518860,61.861160 172.597672,61.133640 170.798676,60.263245 
	C169.206375,59.492859 167.599319,58.752995 165.998779,57.999649 
z"/>
<path fill="#24A1EC" opacity="1.000000" stroke="none" 
	d="
M179.187500,26.869335 
	C177.706436,26.237764 176.420532,25.465080 175.063110,24.350828 
	C176.492874,24.522749 177.994156,25.036236 179.748077,25.772024 
	C179.835632,26.273426 179.629608,26.518059 179.187500,26.869335 
z"/>
<path fill="#109FEA" opacity="1.000000" stroke="none" 
	d="
M170.320709,52.912411 
	C170.768082,51.714252 171.536163,50.427299 172.644043,49.065430 
	C172.203033,50.268215 171.422226,51.545914 170.320709,52.912411 
z"/>
<path fill="#0CA1EC" opacity="1.000000" stroke="none" 
	d="
M165.715240,58.181988 
	C167.599319,58.752995 169.206375,59.492859 170.798676,60.263245 
	C172.597672,61.133640 174.518860,61.861160 176.047791,63.077179 
	C176.317291,63.291515 174.829208,65.563904 174.323761,66.948303 
	C173.845825,68.257416 173.210709,69.676323 173.306473,70.999023 
	C173.743195,77.030952 174.413055,83.045998 174.999176,89.533524 
	C175.122086,92.854279 175.510040,95.729599 175.286392,98.556534 
	C175.097687,100.941994 174.199219,103.271309 173.308380,105.813850 
	C172.261795,102.166466 171.497543,98.335129 170.795441,94.492439 
	C170.563431,93.222672 169.943756,91.640373 170.437637,90.684952 
	C173.187103,85.365913 170.894241,80.357170 169.958176,75.224792 
	C169.583481,73.170403 169.030212,70.809761 169.670380,68.976990 
	C171.177246,64.663048 170.373215,62.609993 165.520920,62.920780 
	C164.935654,62.958267 164.323669,62.578732 163.026215,62.175701 
	C163.966202,60.686325 164.698944,59.525326 165.715240,58.181988 
z"/>
<path fill="#0CA1EC" opacity="1.000000" stroke="none" 
	d="
M177.351715,127.865822 
	C176.669052,125.600121 175.948792,123.173775 176.092712,120.799812 
	C176.293060,117.495346 175.351761,115.123177 172.203308,113.298050 
	C176.715256,112.268265 178.582748,114.285172 178.063095,118.986282 
	C177.743408,121.878426 177.807739,124.813011 177.351715,127.865822 
z"/>
<path fill="#028FDD" opacity="1.000000" stroke="none" 
	d="
M41.851154,117.500366 
	C41.851154,117.500366 41.719608,117.269608 42.223526,117.130074 
	C44.208912,116.987747 45.690388,116.984962 47.171860,116.982170 
	C47.171860,116.982170 47.548840,116.971565 48.089981,117.228195 
	C59.062443,117.272354 69.493759,117.059868 79.941963,117.320786 
	C80.344383,122.355095 79.284058,127.845795 81.471786,131.247726 
	C84.378639,135.767868 83.605560,140.034897 83.998062,144.502014 
	C84.418808,149.290588 84.338127,153.843460 78.840675,156.005585 
	C78.455376,156.157120 78.170372,156.745132 77.982765,157.190826 
	C74.788033,164.780441 74.848816,172.207077 79.156151,179.404633 
	C78.677483,179.624893 78.198822,179.845154 77.000076,179.998428 
	C74.473503,180.134567 72.665199,180.322830 70.860825,180.543335 
	C61.666187,181.666885 52.474949,182.818710 43.277187,183.915955 
	C40.436905,184.254776 38.883728,183.172318 39.045895,180.028793 
	C39.557949,170.102798 39.987858,160.172501 40.429539,150.242981 
	C40.914993,139.329285 41.378235,128.414612 41.851154,117.500366 
z"/>
<path fill="#029BE8" opacity="1.000000" stroke="none" 
	d="
M132.149307,166.209259 
	C131.467377,171.884933 130.713882,177.553207 130.127228,183.238708 
	C129.693909,187.437897 127.091301,187.779022 124.180153,186.318909 
	C121.718651,185.084305 119.187759,183.392395 117.539238,181.248138 
	C113.197960,175.601303 107.447807,174.150345 100.725021,174.070587 
	C106.957504,172.075745 107.557922,171.087296 108.069389,164.046829 
	C108.319000,160.610916 108.835297,157.070847 110.015388,153.866882 
	C110.889801,151.492874 114.167465,149.645691 114.284401,147.452377 
	C114.399925,145.285629 111.890717,142.978943 110.532791,140.733734 
	C116.999687,134.554794 117.001297,134.554794 116.998749,124.559776 
	C116.997948,121.394279 117.398384,118.158386 116.873123,115.081390 
	C116.239227,111.367981 116.593269,106.911583 112.011284,104.667366 
	C112.029449,103.883743 112.047424,103.436089 112.430351,102.897743 
	C113.508957,101.816902 114.653847,100.909103 114.861397,99.822304 
	C115.745193,95.194450 116.351570,90.513611 117.370819,85.998581 
	C119.177094,87.421196 120.671776,88.697350 122.166466,89.973503 
	C122.701675,89.377838 123.236893,88.782181 123.772102,88.186523 
	C120.774834,85.134277 117.777573,82.082031 114.903999,78.730728 
	C115.932755,77.253639 116.837822,76.075607 118.056229,74.951157 
	C121.027298,75.743629 123.685036,76.482513 126.342773,77.221405 
	C126.497063,76.564362 126.651352,75.907318 126.805641,75.250275 
	C124.181595,74.135223 121.557549,73.020180 118.957779,71.548737 
	C119.291229,69.792946 119.600403,68.393532 120.261414,66.991066 
	C121.527504,66.722870 122.441757,66.457726 123.356010,66.192581 
	C123.358887,65.855141 123.361763,65.517708 123.364639,65.180267 
	C122.096832,64.837997 120.829018,64.495735 119.418175,63.985092 
	C119.210236,63.519894 119.068024,63.266464 118.838272,62.690556 
	C118.428535,60.920044 118.029045,59.515396 118.041183,58.084045 
	C120.073303,57.729176 121.780151,57.609535 123.279411,56.988636 
	C124.080589,56.656837 124.523682,55.460384 125.128380,54.654156 
	C124.201698,54.343075 123.173164,53.609627 122.368317,53.803730 
	C120.326843,54.296062 118.385658,55.204243 116.344070,55.930855 
	C116.283829,55.915798 116.290871,55.791801 116.428970,55.260021 
	C116.633781,53.634853 116.700500,52.541470 116.984756,51.217026 
	C118.900063,48.977909 120.711563,47.048244 122.196739,44.893658 
	C122.483398,44.477779 121.492828,43.181499 121.021660,41.919243 
	C120.293076,37.707653 115.582878,34.548866 119.418076,30.019215 
	C120.893745,29.987572 121.966858,29.958710 123.039963,29.929848 
	C123.039963,29.929848 122.997116,29.988306 123.187233,30.179794 
	C123.866409,30.571722 124.355476,30.772160 124.844536,30.972599 
	C124.844536,30.972599 125.046928,30.948652 125.156143,31.217697 
	C125.432205,31.695486 125.642075,31.843071 125.894981,31.929497 
	C125.894981,31.929497 126.055496,31.949240 126.094521,32.311295 
	C126.513741,33.069477 126.893944,33.465607 127.274139,33.861732 
	C127.560371,34.250191 127.846603,34.638645 128.131409,35.621208 
	C128.441208,36.797379 128.752472,37.379444 129.063736,37.961502 
	C129.063736,37.961502 129.014969,38.001728 129.017242,38.413292 
	C129.936600,45.852329 130.853668,52.879799 131.806702,60.311867 
	C131.834137,61.797569 131.825623,62.878670 131.417603,63.969482 
	C129.197098,64.095482 127.376068,64.211777 125.555038,64.328064 
	C125.412155,64.737740 125.269264,65.147415 125.126381,65.557091 
	C126.114662,66.353889 127.102951,67.150688 128.438477,67.942001 
	C129.479187,67.931007 130.172638,67.925491 131.132690,67.943192 
	C131.577072,67.980682 131.754898,67.994965 131.970825,68.475937 
	C132.298370,79.744308 132.850113,90.546669 132.821976,101.347519 
	C132.765640,122.968536 132.391968,144.588730 132.149307,166.209259 
z"/>
<path fill="#0195E4" opacity="1.000000" stroke="none" 
	d="
M112.011101,105.003334 
	C116.593269,106.911583 116.239227,111.367981 116.873123,115.081390 
	C117.398384,118.158386 116.997948,121.394279 116.998749,124.559776 
	C117.001297,134.554794 116.999687,134.554794 110.532791,140.733734 
	C111.890717,142.978943 114.399925,145.285629 114.284401,147.452377 
	C114.167465,149.645691 110.889801,151.492874 110.015388,153.866882 
	C108.835297,157.070847 108.319000,160.610916 108.069389,164.046829 
	C107.557922,171.087296 106.957504,172.075745 100.334625,173.904419 
	C100.054626,174.156326 100.022316,174.118652 99.620216,174.086151 
	C97.415710,174.428925 95.613312,174.804184 93.810905,175.179459 
	C90.625145,176.170486 87.439384,177.161514 83.548141,178.150574 
	C82.233505,178.417313 81.624359,178.686005 81.015213,178.954697 
	C80.611977,179.103989 80.208740,179.253265 79.480827,179.403595 
	C74.848816,172.207077 74.788033,164.780441 77.982765,157.190826 
	C78.170372,156.745132 78.455376,156.157120 78.840675,156.005585 
	C84.338127,153.843460 84.418808,149.290588 83.998062,144.502014 
	C83.605560,140.034897 84.378639,135.767868 81.471786,131.247726 
	C79.284058,127.845795 80.344383,122.355095 80.271706,117.118164 
	C88.453178,114.530914 96.420082,112.935295 104.135605,110.532494 
	C106.737259,109.722267 108.701164,106.864212 110.956543,104.942085 
	C110.956543,104.942085 110.994385,104.999908 111.234055,105.001457 
	C111.652847,105.003113 111.831970,105.003220 112.011101,105.003334 
z"/>
<path fill="#0796DE" opacity="1.000000" stroke="none" 
	d="
M100.939270,96.150497 
	C100.457901,96.020386 99.976524,95.890274 98.866295,95.405426 
	C92.330269,93.001915 86.654724,93.875481 81.110672,96.408104 
	C80.656204,96.578583 80.201744,96.749062 79.273865,96.826599 
	C78.516388,96.936653 78.232315,97.139656 77.948242,97.342667 
	C77.529274,97.530113 77.110298,97.717560 76.099701,97.797478 
	C74.018974,98.427513 72.529884,99.165070 71.040794,99.902626 
	C71.040794,99.902626 70.969582,100.047241 70.649162,100.012741 
	C69.906296,100.217438 69.483849,100.456619 69.061401,100.695801 
	C68.889297,100.795815 68.717194,100.895836 67.850296,100.980133 
	C62.757481,102.325920 58.359459,103.687447 53.961437,105.048965 
	C53.651600,105.158493 53.341759,105.268021 52.350342,105.223206 
	C48.522495,105.358910 45.376228,105.648956 42.229961,105.939003 
	C42.075378,103.644760 41.920792,101.350525 41.900681,98.161873 
	C42.938675,93.482155 40.016865,88.694550 45.390915,85.987297 
	C47.661667,86.421341 49.578644,87.310280 51.396538,87.140182 
	C53.312870,86.960876 55.134594,85.770386 57.216736,84.985130 
	C57.435814,84.948586 57.878643,84.913582 58.228062,84.887268 
	C59.718430,83.917885 60.859379,82.974823 62.000107,82.015823 
	C61.999886,81.999893 62.031754,82.000946 62.383759,81.924377 
	C63.457199,80.183754 64.178635,78.519699 64.902863,76.546158 
	C64.936073,75.825142 64.966476,75.413628 65.321289,75.006325 
	C66.076866,74.987144 66.508018,74.963745 67.394684,74.951477 
	C71.659897,74.962608 75.469597,74.962608 79.657288,74.962608 
	C79.151588,75.790443 78.604446,76.397385 78.391830,77.104874 
	C78.105186,78.058723 78.076088,79.089989 77.936462,80.088028 
	C78.919327,79.866280 80.082947,79.904678 80.849693,79.371895 
	C82.810501,78.009422 84.594589,76.392616 86.704056,75.154297 
	C88.010788,76.917450 89.062813,78.403831 89.799995,80.085999 
	C84.532295,81.647575 81.842094,85.443886 79.416122,89.530289 
	C84.228210,87.678375 87.912376,84.595055 90.456100,79.666435 
	C94.486992,82.344200 98.611023,83.758263 103.456757,83.369751 
	C102.767982,85.431137 101.600433,86.991646 101.284218,88.708908 
	C100.838646,91.128563 101.023796,93.664360 100.939270,96.150497 
M43.037762,100.850494 
	C43.290714,102.129242 43.543667,103.407997 43.796619,104.686745 
	C44.541351,104.675743 45.286079,104.664749 46.030811,104.653755 
	C46.030811,102.878387 46.030811,101.103027 46.030811,99.327652 
	C45.053673,99.595245 44.076534,99.862839 43.037762,100.850494 
z"/>
<path fill="#0A97E0" opacity="1.000000" stroke="none" 
	d="
M116.767227,51.448082 
	C116.700500,52.541470 116.633781,53.634853 116.156212,55.054565 
	C111.997047,50.471436 106.569412,49.911221 101.111320,49.309601 
	C102.187187,44.734722 102.964828,40.560478 100.453766,36.010509 
	C96.333794,40.826443 98.910423,45.421230 98.642059,49.921818 
	C96.864571,50.369568 95.439392,50.710556 93.925598,50.749535 
	C92.935516,49.969933 92.034065,49.492332 91.132614,49.014736 
	C90.992775,49.285469 90.852943,49.556202 90.713104,49.826935 
	C91.473610,50.482574 92.234116,51.138210 92.788376,52.009415 
	C91.386894,53.068516 90.191666,53.912045 88.643311,54.895809 
	C87.225563,56.369164 86.160919,57.702286 84.706070,58.962894 
	C82.211700,58.583080 80.107544,58.275776 77.983276,57.603767 
	C73.864723,51.245361 68.076736,48.050964 61.074085,46.645832 
	C61.806496,45.602325 62.408039,44.376198 63.123562,44.305626 
	C68.590614,43.766388 71.546822,40.215389 73.874954,35.800556 
	C73.874954,35.800556 73.957832,35.818794 74.385887,35.889206 
	C80.187698,34.926624 85.561462,33.893627 90.935219,32.860626 
	C90.935219,32.860626 90.982086,32.875156 91.403732,32.922462 
	C95.538124,32.278259 99.250877,31.586746 102.963623,30.895233 
	C102.963623,30.895235 103.015121,30.924110 103.389542,30.948505 
	C105.525452,30.633116 107.286949,30.293327 109.048447,29.953541 
	C109.048447,29.953539 109.288452,29.763491 109.912453,29.863159 
	C113.362808,29.982550 116.189163,30.002272 119.015518,30.021994 
	C115.582878,34.548866 120.293076,37.707653 120.846298,42.194107 
	C118.519615,45.559551 116.298508,48.278011 114.077408,50.996471 
	C114.389282,51.294136 114.701149,51.591801 115.013023,51.889465 
	C115.597763,51.742336 116.182495,51.595207 116.767227,51.448082 
M86.066994,53.478760 
	C83.453461,51.126194 80.839928,48.773628 78.226395,46.421062 
	C77.658455,47.216164 77.090515,48.011265 76.522583,48.806370 
	C79.644165,50.559116 82.765747,52.311859 86.066994,53.478760 
M92.216278,47.475048 
	C93.090477,43.859802 91.097481,44.140865 89.229141,44.252548 
	C88.917747,44.691620 88.606361,45.130695 88.294968,45.569771 
	C89.425407,46.303726 90.555847,47.037682 92.216278,47.475048 
M108.135414,35.561146 
	C108.385933,36.391644 108.636459,37.222141 108.886978,38.052635 
	C109.189896,38.046577 109.492805,38.040520 109.795723,38.034462 
	C110.121895,36.636490 110.448059,35.238518 110.774231,33.840542 
	C110.164993,33.399788 109.555756,32.959034 108.946510,32.518280 
	C108.724434,33.325222 108.502357,34.132160 108.135414,35.561146 
M108.885170,45.617031 
	C108.728226,45.054390 108.571274,44.491745 108.414330,43.929100 
	C108.059227,44.097801 107.704117,44.266506 107.349014,44.435215 
	C107.692108,44.857944 108.035202,45.280678 108.885170,45.617031 
M109.220848,40.589836 
	C109.050606,40.831520 108.880363,41.073204 108.710129,41.314892 
	C108.961876,41.160408 109.213631,41.005920 109.220848,40.589836 
z"/>
<path fill="#539BDA" opacity="1.000000" stroke="none" 
	d="
M57.878643,84.913582 
	C57.878643,84.913582 57.435814,84.948586 56.779922,84.971443 
	C51.445919,83.769897 46.767803,82.545502 41.901108,81.318748 
	C41.712524,81.316391 41.358604,81.446854 41.358604,81.446854 
	C40.472065,70.848511 39.585522,60.250172 38.881317,48.989571 
	C39.063652,48.327309 39.251881,47.886440 39.429668,47.934116 
	C39.607456,47.981792 39.967159,48.060162 40.208092,48.284019 
	C41.296551,48.692574 42.144085,48.877266 43.317623,49.281097 
	C45.819500,49.604206 47.995369,49.708176 50.614403,49.821606 
	C52.836548,49.868999 54.615532,49.906937 56.306519,50.147278 
	C56.218517,50.349686 56.092274,50.767857 55.870117,51.039959 
	C49.981853,53.770943 47.194740,57.741657 49.002972,64.077530 
	C50.481525,69.258240 51.849854,74.481697 53.669304,79.541557 
	C53.939953,80.294235 56.524567,80.737762 57.856686,80.457962 
	C59.659245,80.079338 61.285885,78.863205 62.939621,78.346291 
	C62.604748,79.791122 62.318253,80.896034 62.031754,82.000946 
	C62.031754,82.000946 61.999886,81.999893 61.645203,82.017860 
	C60.153225,82.995079 59.015934,83.954330 57.878643,84.913582 
z"/>
<path fill="#0E96D9" opacity="1.000000" stroke="none" 
	d="
M56.394520,49.944870 
	C54.615532,49.906937 52.836548,49.868999 50.426804,49.502701 
	C47.535213,48.790295 45.274384,48.406250 42.795532,47.821133 
	C41.707397,47.766758 40.837280,47.913460 39.967159,48.060162 
	C39.967159,48.060162 39.607456,47.981792 39.375145,47.541206 
	C39.068077,45.776371 38.993324,44.452118 38.918575,43.127869 
	C39.993858,42.702221 41.069145,42.276569 42.834755,41.911789 
	C44.328598,41.708363 45.132122,41.444061 45.935642,41.179760 
	C54.975033,39.337608 64.014427,37.495457 73.464386,35.726929 
	C71.546822,40.215389 68.590614,43.766388 63.123562,44.305626 
	C62.408039,44.376198 61.806496,45.602325 60.920906,46.951603 
	C59.257938,48.388271 57.826229,49.166569 56.394520,49.944870 
z"/>
<path fill="#0195E4" opacity="1.000000" stroke="none" 
	d="
M117.059219,85.852119 
	C116.351570,90.513611 115.745193,95.194450 114.861397,99.822304 
	C114.653847,100.909103 113.508957,101.816902 112.191925,102.874619 
	C111.588539,102.942192 111.112465,102.912231 111.112465,102.912231 
	C111.112465,102.912231 110.937958,102.617683 110.926819,102.108856 
	C110.298874,101.059143 109.682068,100.518265 109.065269,99.977386 
	C109.065269,99.977386 109.004974,99.995110 108.911819,99.736084 
	C108.603134,99.196808 108.318855,99.046684 107.965828,99.026695 
	C107.965828,99.026695 108.002106,99.004547 107.962593,98.754150 
	C107.251434,98.289398 106.579781,98.075035 105.908134,97.860672 
	C105.412514,97.736504 104.916885,97.612328 104.200333,96.878265 
	C103.870506,91.827744 103.761604,87.387108 104.079437,82.975662 
	C107.696228,81.834778 110.886276,80.664711 114.032249,79.874062 
	C115.011848,82.119690 116.035530,83.985901 117.059219,85.852119 
z"/>
<path fill="#1D85BD" opacity="1.000000" stroke="none" 
	d="
M41.640213,117.892700 
	C41.378235,128.414612 40.914993,139.329285 40.429539,150.242981 
	C39.987858,160.172501 39.557949,170.102798 39.045895,180.028793 
	C38.883728,183.172318 40.436905,184.254776 43.277187,183.915955 
	C52.474949,182.818710 61.666187,181.666885 70.860825,180.543335 
	C72.665199,180.322830 74.473503,180.134567 76.727974,179.973129 
	C65.215027,181.687149 53.255432,183.369095 41.292171,185.024536 
	C38.557755,185.402924 37.802685,183.867920 37.937199,181.454468 
	C39.110748,160.398514 40.267517,139.341644 41.640213,117.892700 
z"/>
<path fill="#1D85BD" opacity="1.000000" stroke="none" 
	d="
M110.660568,105.115883 
	C108.701164,106.864212 106.737259,109.722267 104.135605,110.532494 
	C96.420082,112.935295 88.453178,114.530914 80.254822,116.644760 
	C69.493759,117.059868 59.062443,117.272354 48.275997,117.259117 
	C55.473526,116.620422 63.094639,116.703865 70.562233,115.674072 
	C80.866653,114.253082 91.107925,112.227486 101.262672,109.953644 
	C104.483284,109.232491 107.340874,106.890144 110.660568,105.115883 
z"/>
<path fill="#2D8DBB" opacity="1.000000" stroke="none" 
	d="
M132.505493,165.977844 
	C132.391968,144.588730 132.765640,122.968536 132.821976,101.347519 
	C132.850113,90.546669 132.298370,79.744308 131.982590,68.071053 
	C131.909882,66.119576 131.863495,65.039673 131.817108,63.959770 
	C131.825623,62.878670 131.834137,61.797569 131.844208,59.882065 
	C131.932816,57.585522 132.019913,56.123390 132.106995,54.661255 
	C132.423721,58.288681 132.979935,61.913506 133.019348,65.543945 
	C133.338913,94.979607 133.601013,124.416107 133.767044,153.852982 
	C133.789368,157.815643 133.179047,161.781845 132.505493,165.977844 
z"/>
<path fill="#BC9046" opacity="1.000000" stroke="none" 
	d="
M103.652710,82.946480 
	C103.761604,87.387108 103.870506,91.827744 103.976151,96.750916 
	C103.125702,97.040306 102.278503,96.847137 101.185287,96.402237 
	C101.023796,93.664360 100.838646,91.128563 101.284218,88.708908 
	C101.600433,86.991646 102.767982,85.431137 103.530891,83.310638 
	C103.506241,82.820610 103.652710,82.946480 103.652710,82.946480 
z"/>
<path fill="#0A97E0" opacity="1.000000" stroke="none" 
	d="
M132.153152,54.245201 
	C132.019913,56.123390 131.932816,57.585522 131.808228,59.477463 
	C130.853668,52.879799 129.936600,45.852329 129.046722,38.400475 
	C130.115707,43.260441 131.157516,48.544796 132.153152,54.245201 
z"/>
<path fill="#0D89CC" opacity="1.000000" stroke="none" 
	d="
M41.238247,81.852455 
	C41.358604,81.446854 41.712524,81.316391 41.902809,81.623871 
	C43.059917,83.279724 44.026745,84.628105 44.993568,85.976486 
	C40.016865,88.694550 42.938675,93.482155 41.978256,97.736465 
	C41.653534,92.889656 41.385712,87.573860 41.238247,81.852455 
z"/>
<path fill="#0D89CC" opacity="1.000000" stroke="none" 
	d="
M81.492432,96.459671 
	C86.654724,93.875481 92.330269,93.001915 98.528244,95.244598 
	C93.170761,95.796089 87.522469,96.153664 81.492432,96.459671 
z"/>
<path fill="#0E96D9" opacity="1.000000" stroke="none" 
	d="
M90.508133,32.783623 
	C85.561462,33.893627 80.187698,34.926624 74.378891,35.931057 
	C79.322899,34.837200 84.701973,33.771908 90.508133,32.783623 
z"/>
<path fill="#0D89CC" opacity="1.000000" stroke="none" 
	d="
M54.376530,105.105667 
	C58.359459,103.687447 62.757481,102.325920 67.552063,100.994797 
	C63.562962,102.404251 59.177292,103.783310 54.376530,105.105667 
z"/>
<path fill="#0E96D9" opacity="1.000000" stroke="none" 
	d="
M102.531387,30.835829 
	C99.250877,31.586746 95.538124,32.278259 91.393707,32.944859 
	C94.674408,32.205437 98.386772,31.490931 102.531387,30.835829 
z"/>
<path fill="#0E96D9" opacity="1.000000" stroke="none" 
	d="
M119.418076,30.019215 
	C116.189163,30.002272 113.362808,29.982550 110.046799,29.936516 
	C113.866081,29.705008 118.175018,29.499811 122.761963,29.612232 
	C121.966858,29.958710 120.893745,29.987572 119.418076,30.019215 
z"/>
<path fill="#0D89CC" opacity="1.000000" stroke="none" 
	d="
M42.450569,106.239777 
	C45.376228,105.648956 48.522495,105.358910 52.122040,105.116730 
	C49.273933,105.623245 45.972553,106.081894 42.450569,106.239777 
z"/>
<path fill="#1D85BD" opacity="1.000000" stroke="none" 
	d="
M46.978828,116.680420 
	C45.690388,116.984962 44.208912,116.987747 42.284233,117.011948 
	C43.062035,113.588165 45.062492,116.030067 46.978828,116.680420 
z"/>
<path fill="#0D89CC" opacity="1.000000" stroke="none" 
	d="
M71.383141,99.929321 
	C72.529884,99.165070 74.018974,98.427513 75.752655,97.816566 
	C74.573318,98.614120 73.149406,99.285072 71.383141,99.929321 
z"/>
<path fill="#029BE8" opacity="1.000000" stroke="none" 
	d="
M94.232239,175.207489 
	C95.613312,174.804184 97.415710,174.428925 99.628044,174.062225 
	C98.243172,174.459045 96.448364,174.847275 94.232239,175.207489 
z"/>
<path fill="#128DCE" opacity="1.000000" stroke="none" 
	d="
M38.650635,43.339638 
	C38.993324,44.452118 39.068077,45.776371 39.197357,47.493530 
	C39.251881,47.886440 39.063652,48.327309 38.931084,48.521301 
	C38.659908,46.993996 38.521297,45.272697 38.650635,43.339638 
z"/>
<path fill="#0E96D9" opacity="1.000000" stroke="none" 
	d="
M108.646088,29.912029 
	C107.286949,30.293327 105.525452,30.633116 103.360672,30.948017 
	C104.719498,30.572260 106.481621,30.221388 108.646088,29.912029 
z"/>
<path fill="#1D85BD" opacity="1.000000" stroke="none" 
	d="
M106.094559,98.112160 
	C106.579781,98.075035 107.251434,98.289398 107.946259,98.769623 
	C107.406624,98.811539 106.843803,98.587593 106.094559,98.112160 
z"/>
<path fill="#1D85BD" opacity="1.000000" stroke="none" 
	d="
M109.159485,100.265411 
	C109.682068,100.518265 110.298874,101.059143 110.930954,101.937714 
	C110.382065,101.701416 109.817879,101.127426 109.159485,100.265411 
z"/>
<path fill="#128DCE" opacity="1.000000" stroke="none" 
	d="
M45.614799,41.130939 
	C45.132122,41.444061 44.328598,41.708363 43.198792,41.937111 
	C43.679657,41.628418 44.486805,41.355270 45.614799,41.130939 
z"/>
<path fill="#028FDD" opacity="1.000000" stroke="none" 
	d="
M81.363785,179.007355 
	C81.624359,178.686005 82.233505,178.417313 83.186409,178.142700 
	C82.924217,178.444519 82.318283,178.752258 81.363785,179.007355 
z"/>
<path fill="#0A97E0" opacity="1.000000" stroke="none" 
	d="
M127.234428,33.578964 
	C126.893944,33.465607 126.513741,33.069477 126.087074,32.391815 
	C126.425308,32.505589 126.810013,32.900890 127.234428,33.578964 
z"/>
<path fill="#1D85BD" opacity="1.000000" stroke="none" 
	d="
M111.022934,103.247597 
	C111.112465,102.912231 111.588539,102.942192 111.826965,102.965317 
	C112.047424,103.436089 112.029449,103.883743 112.011284,104.667366 
	C111.831970,105.003220 111.652847,105.003113 111.205849,104.981407 
	C110.936447,104.500862 110.934921,104.041908 111.022934,103.247597 
z"/>
<path fill="#0D89CC" opacity="1.000000" stroke="none" 
	d="
M69.316238,100.745346 
	C69.483849,100.456619 69.906296,100.217438 70.576370,99.978149 
	C70.406357,100.250336 69.988716,100.522614 69.316238,100.745346 
z"/>
<path fill="#0A97E0" opacity="1.000000" stroke="none" 
	d="
M129.084229,37.617264 
	C128.752472,37.379444 128.441208,36.797379 128.112488,35.871925 
	C128.431580,36.110027 128.768143,36.691525 129.084229,37.617264 
z"/>
<path fill="#0D89CC" opacity="1.000000" stroke="none" 
	d="
M78.155411,97.409058 
	C78.232315,97.139656 78.516388,96.936653 78.908585,96.847046 
	C78.904465,97.266556 78.686424,97.438217 78.155411,97.409058 
z"/>
<path fill="#0A97E0" opacity="1.000000" stroke="none" 
	d="
M124.719772,30.721081 
	C124.355476,30.772160 123.866409,30.571722 123.211494,30.154955 
	C123.562096,30.115606 124.078552,30.292585 124.719772,30.721081 
z"/>
<path fill="#0A97E0" opacity="1.000000" stroke="none" 
	d="
M125.858276,31.716566 
	C125.642075,31.843071 125.432205,31.695486 125.170349,31.318604 
	C125.395218,31.117939 125.643967,31.235662 125.858276,31.716566 
z"/>
<path fill="#1D85BD" opacity="1.000000" stroke="none" 
	d="
M108.040894,99.271408 
	C108.318855,99.046684 108.603134,99.196808 108.914536,99.704788 
	C108.712257,99.793701 108.414108,99.654907 108.040894,99.271408 
z"/>
<path fill="#F9D306" opacity="1.000000" stroke="none" 
	d="
M104.079437,82.975662 
	C103.652710,82.946480 103.506241,82.820610 103.432098,82.879715 
	C98.611023,83.758263 94.486992,82.344200 90.403564,79.706635 
	C90.026085,79.982124 90.114830,79.890221 90.114830,79.890221 
	C89.062813,78.403831 88.010788,76.917450 86.616844,74.827957 
	C85.646545,70.292526 85.018158,66.360199 84.737930,62.591286 
	C86.910210,61.999168 89.659248,61.690315 90.300110,60.363323 
	C90.949936,59.017769 89.517105,56.666409 88.996429,54.755573 
	C90.191666,53.912045 91.386894,53.068516 93.025269,52.000961 
	C93.796410,51.645050 93.978348,51.403252 94.014221,51.051540 
	C95.439392,50.710556 96.864571,50.369568 98.979904,49.980019 
	C100.116821,49.851440 100.563576,49.771423 101.010338,49.691406 
	C106.569412,49.911221 111.997047,50.471436 116.018112,55.586346 
	C116.290871,55.791801 116.283829,55.915798 116.407562,56.177677 
	C116.897377,56.996620 117.263466,57.553684 117.629555,58.110748 
	C118.029045,59.515396 118.428535,60.920044 118.475204,62.717804 
	C116.448959,64.393059 114.775551,65.675209 113.102142,66.957359 
	C114.820374,68.599243 116.538597,70.241119 118.189331,72.261047 
	C117.995514,73.391930 117.869209,74.144753 117.742889,74.897583 
	C116.837822,76.075607 115.932755,77.253639 114.735512,78.717697 
	C114.175880,79.059105 114.053551,79.222748 114.076332,79.494644 
	C110.886276,80.664711 107.696228,81.834778 104.079437,82.975662 
z"/>
<path fill="#F4887C" opacity="1.000000" stroke="none" 
	d="
M118.256828,71.883003 
	C116.538597,70.241119 114.820374,68.599243 113.102142,66.957359 
	C114.775551,65.675209 116.448959,64.393059 118.485435,63.083664 
	C119.068024,63.266464 119.210236,63.519894 119.377785,64.345757 
	C119.623482,65.581245 119.766533,66.287682 119.909576,66.994125 
	C119.600403,68.393532 119.291229,69.792946 118.787750,71.563599 
	C118.593437,71.934853 118.256828,71.883003 118.256828,71.883003 
z"/>
<path fill="#CA9441" opacity="1.000000" stroke="none" 
	d="
M114.032249,79.874062 
	C114.053551,79.222748 114.175880,79.059105 114.611816,79.016762 
	C117.777573,82.082031 120.774834,85.134277 123.772102,88.186523 
	C123.236893,88.782181 122.701675,89.377838 122.166466,89.973503 
	C120.671776,88.697350 119.177094,87.421196 117.370811,85.998581 
	C116.035530,83.985901 115.011848,82.119690 114.032249,79.874062 
z"/>
<path fill="#CC943F" opacity="1.000000" stroke="none" 
	d="
M116.984764,51.217026 
	C116.182495,51.595207 115.597763,51.742336 115.013023,51.889465 
	C114.701149,51.591801 114.389282,51.294136 114.077408,50.996471 
	C116.298508,48.278011 118.519615,45.559551 120.916092,42.566223 
	C121.492828,43.181499 122.483398,44.477779 122.196739,44.893658 
	C120.711563,47.048244 118.900063,48.977909 116.984764,51.217026 
z"/>
<path fill="#0A97E0" opacity="1.000000" stroke="none" 
	d="
M118.189331,72.261047 
	C118.256828,71.883003 118.593437,71.934853 118.763474,71.919991 
	C121.557549,73.020180 124.181595,74.135223 126.805641,75.250275 
	C126.651352,75.907318 126.497063,76.564362 126.342773,77.221405 
	C123.685036,76.482513 121.027298,75.743629 118.056229,74.951157 
	C117.869209,74.144753 117.995514,73.391930 118.189331,72.261047 
z"/>
<path fill="#0A97E0" opacity="1.000000" stroke="none" 
	d="
M118.041183,58.084045 
	C117.263466,57.553684 116.897377,56.996620 116.467804,56.192734 
	C118.385658,55.204243 120.326843,54.296062 122.368317,53.803730 
	C123.173164,53.609627 124.201698,54.343075 125.128380,54.654156 
	C124.523682,55.460384 124.080589,56.656837 123.279411,56.988636 
	C121.780151,57.609535 120.073303,57.729176 118.041183,58.084045 
z"/>
<path fill="#0A97E0" opacity="1.000000" stroke="none" 
	d="
M131.417618,63.969482 
	C131.863495,65.039673 131.909882,66.119576 131.944489,67.604362 
	C131.754898,67.994965 131.577072,67.980682 131.075699,67.656013 
	C129.865173,67.546249 128.978195,67.746872 128.091232,67.947495 
	C127.102951,67.150688 126.114662,66.353889 125.126381,65.557091 
	C125.269264,65.147415 125.412155,64.737740 125.555038,64.328064 
	C127.376068,64.211777 129.197098,64.095482 131.417618,63.969482 
z"/>
<path fill="#0A97E0" opacity="1.000000" stroke="none" 
	d="
M120.261414,66.991066 
	C119.766533,66.287682 119.623482,65.581245 119.520821,64.514130 
	C120.829018,64.495735 122.096832,64.837997 123.364639,65.180267 
	C123.361763,65.517708 123.358887,65.855141 123.356010,66.192581 
	C122.441757,66.457726 121.527504,66.722870 120.261414,66.991066 
z"/>
<path fill="#2D8DBB" opacity="1.000000" stroke="none" 
	d="
M128.438477,67.942001 
	C128.978195,67.746872 129.865173,67.546249 130.809113,67.632797 
	C130.172638,67.925491 129.479187,67.931007 128.438477,67.942001 
z"/>
<path fill="#5EA3E0" opacity="1.000000" stroke="none" 
	d="
M62.987999,78.006378 
	C61.285885,78.863205 59.659245,80.079338 57.856686,80.457962 
	C56.524567,80.737762 53.939953,80.294235 53.669304,79.541557 
	C51.849854,74.481697 50.481525,69.258240 49.002972,64.077530 
	C47.194740,57.741657 49.981853,53.770943 56.175507,51.138927 
	C57.823418,51.895004 58.943783,52.824215 60.032219,54.084747 
	C59.979713,54.637005 59.959129,54.857944 59.582306,55.089882 
	C58.026901,56.451469 56.157009,57.674931 55.868305,59.198090 
	C55.681019,60.186199 57.801319,61.611687 58.887688,62.841202 
	C60.000412,61.513699 61.113136,60.186195 62.558651,59.039860 
	C63.265545,60.442013 63.843624,61.641308 63.976189,62.887978 
	C64.404579,66.916641 64.669167,70.962730 64.996880,75.002106 
	C64.966476,75.413628 64.936073,75.825142 64.663750,76.689667 
	C63.943890,77.430580 63.465946,77.718475 62.987999,78.006378 
z"/>
<path fill="#1A9ADD" opacity="1.000000" stroke="none" 
	d="
M84.389778,62.427868 
	C85.018158,66.360199 85.646545,70.292526 86.362137,74.551193 
	C84.594589,76.392616 82.810501,78.009422 80.849693,79.371895 
	C80.082947,79.904678 78.919327,79.866280 77.936462,80.088028 
	C78.076088,79.089989 78.105186,78.058723 78.391830,77.104874 
	C78.604446,76.397385 79.151588,75.790443 79.657288,74.962608 
	C75.469597,74.962608 71.659897,74.962608 67.410599,74.495842 
	C66.683792,69.336472 66.396576,64.643867 66.504860,59.962761 
	C70.601372,59.305664 74.302383,58.637066 78.003387,57.968468 
	C80.107544,58.275776 82.211700,58.583080 84.710907,59.267494 
	C84.867233,60.572361 84.628502,61.500114 84.389778,62.427868 
M80.840294,67.732040 
	C77.310333,68.209641 73.780373,68.687233 70.250412,69.164825 
	C70.378845,69.873703 70.507278,70.582581 70.635712,71.291466 
	C74.276230,70.641502 77.920067,70.007957 81.544266,69.277061 
	C81.678734,69.249954 81.621773,68.273575 80.840294,67.732040 
z"/>
<path fill="#379EE2" opacity="1.000000" stroke="none" 
	d="
M66.109352,59.951267 
	C66.396576,64.643867 66.683792,69.336472 66.955093,74.484711 
	C66.508018,74.963745 66.076866,74.987144 65.321289,75.006325 
	C64.669167,70.962730 64.404579,66.916641 63.976189,62.887978 
	C63.843624,61.641308 63.265545,60.442013 62.453262,58.740322 
	C61.322906,57.199371 60.630730,56.139130 59.938549,55.078888 
	C59.959129,54.857944 59.979713,54.637005 60.275009,53.952225 
	C62.402935,55.642681 64.256142,57.796974 66.109352,59.951267 
z"/>
<path fill="#D1943A" opacity="1.000000" stroke="none" 
	d="
M90.078629,79.941925 
	C87.912376,84.595055 84.228210,87.678375 79.416122,89.530289 
	C81.842094,85.443886 84.532295,81.647575 89.799995,80.085999 
	C90.114830,79.890221 90.026085,79.982124 90.078629,79.941925 
z"/>
<path fill="#1A9ADD" opacity="1.000000" stroke="none" 
	d="
M45.390915,85.987297 
	C44.026745,84.628105 43.059917,83.279724 42.091393,81.626221 
	C46.767803,82.545502 51.445919,83.769897 56.560844,85.007988 
	C55.134594,85.770386 53.312870,86.960876 51.396538,87.140182 
	C49.578644,87.310280 47.661667,86.421341 45.390915,85.987297 
z"/>
<path fill="#0D89CC" opacity="1.000000" stroke="none" 
	d="
M43.068581,100.490463 
	C44.076534,99.862839 45.053673,99.595245 46.030811,99.327652 
	C46.030811,101.103027 46.030811,102.878387 46.030811,104.653755 
	C45.286079,104.664749 44.541351,104.675743 43.796619,104.686745 
	C43.543667,103.407997 43.290714,102.129242 43.068581,100.490463 
z"/>
<path fill="#1A9ADD" opacity="1.000000" stroke="none" 
	d="
M62.939621,78.346298 
	C63.465946,77.718475 63.943890,77.430580 64.660950,76.999161 
	C64.178635,78.519699 63.457199,80.183754 62.383759,81.924377 
	C62.318253,80.896034 62.604748,79.791122 62.939621,78.346298 
z"/>
<path fill="#1A9ADD" opacity="1.000000" stroke="none" 
	d="
M58.228062,84.887268 
	C59.015934,83.954330 60.153225,82.995079 61.645420,82.033798 
	C60.859379,82.974823 59.718430,83.917885 58.228062,84.887268 
z"/>
<path fill="#0A9ADF" opacity="1.000000" stroke="none" 
	d="
M66.504860,59.962761 
	C64.256142,57.796974 62.402935,55.642681 60.306938,53.620911 
	C58.943783,52.824215 57.823418,51.895004 56.397659,50.866825 
	C56.092274,50.767857 56.218517,50.349686 56.306519,50.147278 
	C57.826229,49.166569 59.257938,48.388271 60.842834,47.304203 
	C68.076736,48.050964 73.864723,51.245361 77.983276,57.603767 
	C74.302383,58.637066 70.601372,59.305664 66.504860,59.962761 
z"/>
<path fill="#0E96D9" opacity="1.000000" stroke="none" 
	d="
M101.111320,49.309601 
	C100.563576,49.771423 100.116821,49.851440 99.332222,49.873253 
	C98.910423,45.421230 96.333794,40.826443 100.453766,36.010509 
	C102.964828,40.560478 102.187187,44.734722 101.111320,49.309601 
z"/>
<path fill="#F88979" opacity="1.000000" stroke="none" 
	d="
M84.737930,62.591286 
	C84.628502,61.500114 84.867233,60.572361 85.101120,59.340004 
	C86.160919,57.702286 87.225563,56.369164 88.643311,54.895809 
	C89.517105,56.666409 90.949936,59.017769 90.300110,60.363323 
	C89.659248,61.690315 86.910210,61.999168 84.737930,62.591286 
z"/>
<path fill="#CB943F" opacity="1.000000" stroke="none" 
	d="
M85.977158,53.771683 
	C82.765747,52.311859 79.644165,50.559116 76.522583,48.806370 
	C77.090515,48.011265 77.658455,47.216164 78.226395,46.421062 
	C80.839928,48.773628 83.453461,51.126194 85.977158,53.771683 
z"/>
<path fill="#0E96D9" opacity="1.000000" stroke="none" 
	d="
M91.951279,47.623344 
	C90.555847,47.037682 89.425407,46.303726 88.294968,45.569771 
	C88.606361,45.130695 88.917747,44.691620 89.229141,44.252548 
	C91.097481,44.140865 93.090477,43.859802 91.951279,47.623344 
z"/>
<path fill="#0E96D9" opacity="1.000000" stroke="none" 
	d="
M108.207848,35.250122 
	C108.502357,34.132160 108.724434,33.325222 108.946510,32.518280 
	C109.555756,32.959034 110.164993,33.399788 110.774231,33.840542 
	C110.448059,35.238518 110.121895,36.636490 109.795723,38.034462 
	C109.492805,38.040520 109.189896,38.046577 108.886978,38.052635 
	C108.636459,37.222141 108.385933,36.391644 108.207848,35.250122 
z"/>
<path fill="#0E96D9" opacity="1.000000" stroke="none" 
	d="
M93.925598,50.749535 
	C93.978348,51.403252 93.796410,51.645050 93.231506,51.785393 
	C92.234116,51.138210 91.473610,50.482574 90.713104,49.826935 
	C90.852943,49.556202 90.992775,49.285469 91.132614,49.014736 
	C92.034065,49.492332 92.935516,49.969933 93.925598,50.749535 
z"/>
<path fill="#0E96D9" opacity="1.000000" stroke="none" 
	d="
M108.631737,45.660221 
	C108.035202,45.280678 107.692108,44.857944 107.349014,44.435211 
	C107.704117,44.266506 108.059227,44.097801 108.414322,43.929100 
	C108.571274,44.491745 108.728226,45.054390 108.631737,45.660221 
z"/>
<path fill="#0E96D9" opacity="1.000000" stroke="none" 
	d="
M109.343109,40.720634 
	C109.213631,41.005920 108.961876,41.160408 108.710129,41.314888 
	C108.880363,41.073204 109.050606,40.831520 109.343109,40.720634 
z"/>
<path fill="#379EE2" opacity="1.000000" stroke="none" 
	d="
M43.013550,48.022205 
	C45.274384,48.406250 47.535213,48.790295 49.983643,49.493244 
	C47.995369,49.708176 45.819500,49.604206 43.321899,49.020821 
	C43.004627,48.368340 43.009090,48.195274 43.013550,48.022205 
z"/>
<path fill="#128DCE" opacity="1.000000" stroke="none" 
	d="
M42.795532,47.821133 
	C43.009090,48.195274 43.004627,48.368340 42.995895,48.801682 
	C42.144085,48.877266 41.296551,48.692574 40.208092,48.284019 
	C40.837280,47.913460 41.707397,47.766758 42.795532,47.821133 
z"/>
<path fill="#85BADC" opacity="1.000000" stroke="none" 
	d="
M59.582306,55.089882 
	C60.630730,56.139130 61.322906,57.199371 62.120472,58.559155 
	C61.113136,60.186195 60.000412,61.513699 58.887688,62.841202 
	C57.801319,61.611687 55.681019,60.186199 55.868305,59.198090 
	C56.157009,57.674931 58.026901,56.451469 59.582306,55.089882 
z"/>
<path fill="#C89543" opacity="1.000000" stroke="none" 
	d="
M81.247162,67.735809 
	C81.621773,68.273575 81.678734,69.249954 81.544266,69.277061 
	C77.920067,70.007957 74.276230,70.641502 70.635712,71.291466 
	C70.507278,70.582581 70.378845,69.873703 70.250412,69.164825 
	C73.780373,68.687233 77.310333,68.209641 81.247162,67.735809 
z"/>
</svg>