<svg version="1.1" id="Layer_1" xmlns="http://www.w3.org/2000/svg" xmlns:xlink="http://www.w3.org/1999/xlink" x="0px" y="0px"
	 width="100%" viewBox="0 0 255 441" enable-background="new 0 0 255 441" xml:space="preserve">
<path fill="#FEFEFE" opacity="1.000000" stroke="none" 
	d="
M256.000000,175.000000 
	C256.000000,264.301422 256.000000,353.102844 256.000000,441.952148 
	C171.062469,441.952148 86.124908,441.952148 1.093671,441.952148 
	C1.093671,295.115295 1.093671,148.230530 1.093671,1.172883 
	C85.999718,1.172883 170.999832,1.172883 256.000000,1.172883 
	C256.000000,58.874966 256.000000,116.687485 256.000000,175.000000 
M93.035324,272.569977 
	C93.351418,272.726105 93.667503,272.882202 94.000023,272.998871 
	C94.000023,272.998871 93.966026,273.024750 94.198074,273.659332 
	C94.790703,273.968903 95.383331,274.278503 96.347023,275.001587 
	C97.149086,275.354340 97.951157,275.707123 98.838219,276.860077 
	C98.855598,278.179565 98.872978,279.499084 98.206116,280.996063 
	C96.784592,283.353455 95.363075,285.710876 93.169365,287.900085 
	C91.430855,288.633240 89.284622,288.953735 88.038376,290.185089 
	C85.410980,292.781189 83.254898,295.854279 80.333679,299.083893 
	C79.862450,300.033875 79.391228,300.983856 79.000099,301.997040 
	C79.000099,301.997040 78.929810,301.922729 78.229141,302.013336 
	C75.344666,305.346588 74.603210,313.288788 76.976311,316.055664 
	C76.976311,316.055664 76.927933,316.087585 76.935890,316.801392 
	C77.909241,317.240295 78.882591,317.679230 79.955627,318.107391 
	C79.955627,318.107391 79.873917,318.165497 79.816948,318.838898 
	C80.733177,319.225098 81.649414,319.611298 82.993752,320.706177 
	C82.492516,322.944397 82.204124,325.256531 81.456909,327.409363 
	C74.439011,347.628937 67.342682,367.821259 59.942005,388.723083 
	C58.513065,389.883209 57.200077,391.247253 55.621769,392.144684 
	C54.118324,392.999542 52.337990,393.367462 50.012630,393.934448 
	C48.331966,394.937866 46.651302,395.941315 44.398201,397.038940 
	C44.275654,397.359772 44.153111,397.680603 43.989811,398.024078 
	C43.989811,398.024078 44.024757,398.054932 43.521381,398.562805 
	C37.156120,402.298737 36.301910,413.454193 42.098854,420.754028 
	C51.652424,428.502106 62.231312,431.181335 74.830292,427.158386 
	C76.392487,425.934570 77.954674,424.710754 80.056076,423.085815 
	C81.753075,418.843750 83.686661,414.678070 85.087929,410.340485 
	C86.889923,404.762390 83.958138,401.304138 78.931900,398.328186 
	C77.140373,396.162750 72.470085,395.516815 75.525116,390.487823 
	C82.703239,369.640106 89.815247,348.769073 97.155151,327.978485 
	C97.945511,325.739777 100.059616,323.968384 102.241608,322.066406 
	C102.915222,321.190277 104.008125,320.394928 104.194916,319.425049 
	C105.479454,312.755432 109.389679,309.940430 116.530762,311.013947 
	C116.530762,311.013947 116.996590,311.081360 116.991699,311.010712 
	C116.991699,311.010712 116.923210,311.028656 117.263741,311.647980 
	C119.366150,312.847839 121.547256,313.929504 123.557617,315.267670 
	C133.421494,321.833282 143.570160,327.567688 156.010864,327.818665 
	C156.940460,329.208130 157.870056,330.597595 158.874619,332.465759 
	C158.874619,332.465759 158.836441,332.948792 158.081406,332.977997 
	C152.397308,333.885040 150.386795,337.772949 149.999817,343.001984 
	C149.999817,343.001984 149.959396,342.983307 149.270157,343.098633 
	C148.851837,344.079376 148.433517,345.060150 148.007294,346.388611 
	C148.007294,346.388611 148.019409,346.736145 147.376984,347.078857 
	C143.862396,353.316650 140.009613,359.444733 140.796219,367.881134 
	C140.177444,371.683563 139.558670,375.485992 138.813980,380.062103 
	C137.597000,380.461700 135.645126,381.444519 133.598434,381.718079 
	C122.018272,383.265900 106.782158,397.772949 108.901329,412.841187 
	C110.162796,421.810791 120.169640,429.479401 128.991394,427.633240 
	C129.449539,427.537354 129.747498,426.675964 130.947266,426.130310 
	C140.843567,425.092285 154.407272,418.818115 153.878006,402.789429 
	C154.213013,401.855743 154.548019,400.922058 155.248886,399.415222 
	C157.646164,396.363861 160.042603,393.311829 162.440918,390.261292 
	C171.172729,379.154724 175.041595,366.356293 176.150467,352.423798 
	C176.611633,346.629547 174.573456,340.470825 178.939590,334.955872 
	C180.623428,330.749542 183.422989,326.597839 183.632629,322.319275 
	C183.795807,318.988831 181.627213,313.911285 178.929504,312.394653 
	C172.156708,308.586914 164.553879,306.197449 157.171158,303.554077 
	C152.595734,301.915833 147.889191,300.363068 143.109940,299.632172 
	C132.578583,298.021606 121.542427,299.877014 111.482117,294.920471 
	C110.418343,294.396362 109.141518,294.304688 107.986046,293.218994 
	C109.320709,288.167114 110.655373,283.115234 112.098045,278.054688 
	C112.098045,278.054688 112.160690,277.966278 112.844917,278.408478 
	C119.000252,280.975647 123.636894,276.636078 129.621887,275.069702 
	C130.228928,274.914459 131.097610,274.964020 131.403610,274.573120 
	C135.699844,269.084717 136.255798,257.912354 131.945679,252.419907 
	C125.460541,244.155746 116.590691,241.109421 106.265709,242.381897 
	C96.514801,243.583649 91.003815,249.587051 88.093918,258.610962 
	C86.917969,262.257721 87.049927,265.383484 89.997444,268.044739 
	C89.997444,268.044739 89.933250,268.018097 89.923645,268.635101 
	C90.243484,268.828644 90.563324,269.022217 90.880676,269.064484 
	C90.880676,269.064484 90.734825,269.104858 90.698761,269.745758 
	C91.123482,270.180084 91.548195,270.614410 92.000107,271.000305 
	C92.000107,271.000305 91.946327,271.014099 92.024529,271.569855 
	C92.341904,271.731415 92.659279,271.893005 92.998589,272.001007 
	C92.998589,272.001007 92.945488,272.024078 93.035324,272.569977 
M158.639038,150.112961 
	C161.453217,133.765259 164.184448,117.402641 167.118759,101.076530 
	C168.460938,93.608765 169.070068,85.917351 174.032333,79.460060 
	C174.883698,78.352173 174.119644,74.637070 172.865936,73.544373 
	C169.656601,70.747162 165.871826,68.524750 162.093735,66.486664 
	C157.107285,63.796741 152.530609,64.563370 147.015640,66.754745 
	C137.496521,70.537170 127.214577,72.399788 117.252693,75.067909 
	C116.899460,74.516441 116.546227,73.964966 116.192993,73.413498 
	C119.213158,64.120979 121.803513,54.659283 125.375725,45.584064 
	C128.870224,36.706268 128.942108,35.683689 120.581619,30.830507 
	C119.002487,29.913834 117.420578,28.821287 115.694221,28.380121 
	C112.922569,27.671831 110.029366,27.439255 107.187523,27.005651 
	C107.445381,29.513338 107.700478,32.021317 107.964432,34.528362 
	C107.999237,34.858952 108.076447,35.185318 108.138725,35.512741 
	C110.754318,49.263878 107.025238,62.239254 103.090096,75.142326 
	C102.755531,76.239334 100.779495,77.321114 99.424606,77.541801 
	C91.389030,78.850616 83.332848,80.096085 75.241890,80.982010 
	C68.582535,81.711182 61.865299,81.911804 54.926216,82.362755 
	C59.020508,89.968086 67.395073,93.428459 76.011688,91.705017 
	C83.557823,90.195694 91.141800,88.875519 99.505119,87.324127 
	C92.541237,105.915550 84.746178,122.753532 74.644501,138.478333 
	C64.506828,154.259171 52.461952,168.415695 38.248322,180.933792 
	C40.463284,181.020294 42.443981,180.864670 44.079788,180.031708 
	C61.971767,170.921143 76.129234,157.576721 85.810036,140.143356 
	C95.235939,123.169006 103.370674,105.479889 112.228241,88.184456 
	C113.164749,86.355820 114.918983,84.108032 116.686546,83.681305 
	C126.845329,81.228737 137.092239,79.102516 147.371902,77.204941 
	C152.842834,76.195038 154.916901,77.886681 154.920303,83.489258 
	C154.924530,90.463348 154.599884,97.473030 153.846695,104.405350 
	C151.807068,123.178398 148.005051,141.543442 140.112518,158.865494 
	C133.720566,172.894211 131.070053,173.894272 116.931747,167.530762 
	C114.404526,166.393280 111.780273,165.471390 109.200821,164.449966 
	C109.235619,166.397797 109.650970,167.499435 110.377335,168.328644 
	C116.645897,175.484726 122.740105,182.672470 125.276649,192.230698 
	C126.034821,195.087677 128.854202,195.962875 131.332825,194.075546 
	C135.395325,190.982178 139.715942,187.961777 142.943207,184.089966 
	C150.974884,174.454208 154.954010,162.757660 158.639038,150.112961 
z"/>
<path fill="#080808" opacity="1.000000" stroke="none" 
	d="
M158.461395,150.480621 
	C154.954010,162.757660 150.974884,174.454208 142.943207,184.089966 
	C139.715942,187.961777 135.395325,190.982178 131.332825,194.075546 
	C128.854202,195.962875 126.034821,195.087677 125.276649,192.230698 
	C122.740105,182.672470 116.645897,175.484726 110.377335,168.328644 
	C109.650970,167.499435 109.235619,166.397797 109.200821,164.449966 
	C111.780273,165.471390 114.404526,166.393280 116.931747,167.530762 
	C131.070053,173.894272 133.720566,172.894211 140.112518,158.865494 
	C148.005051,141.543442 151.807068,123.178398 153.846695,104.405350 
	C154.599884,97.473030 154.924530,90.463348 154.920303,83.489258 
	C154.916901,77.886681 152.842834,76.195038 147.371902,77.204941 
	C137.092239,79.102516 126.845329,81.228737 116.686546,83.681305 
	C114.918983,84.108032 113.164749,86.355820 112.228241,88.184456 
	C103.370674,105.479889 95.235939,123.169006 85.810036,140.143356 
	C76.129234,157.576721 61.971767,170.921143 44.079788,180.031708 
	C42.443981,180.864670 40.463284,181.020294 38.248322,180.933792 
	C52.461952,168.415695 64.506828,154.259171 74.644501,138.478333 
	C84.746178,122.753532 92.541237,105.915550 99.505119,87.324127 
	C91.141800,88.875519 83.557823,90.195694 76.011688,91.705017 
	C67.395073,93.428459 59.020508,89.968086 54.926216,82.362755 
	C61.865299,81.911804 68.582535,81.711182 75.241890,80.982010 
	C83.332848,80.096085 91.389030,78.850616 99.424606,77.541801 
	C100.779495,77.321114 102.755531,76.239334 103.090096,75.142326 
	C107.025238,62.239254 110.754318,49.263878 108.138725,35.512741 
	C108.076447,35.185318 107.999237,34.858952 107.964432,34.528362 
	C107.700478,32.021317 107.445381,29.513338 107.187523,27.005651 
	C110.029366,27.439255 112.922569,27.671831 115.694221,28.380121 
	C117.420578,28.821287 119.002487,29.913834 120.581619,30.830507 
	C128.942108,35.683689 128.870224,36.706268 125.375725,45.584064 
	C121.803513,54.659283 119.213158,64.120979 116.192993,73.413498 
	C116.546227,73.964966 116.899460,74.516441 117.252693,75.067909 
	C127.214577,72.399788 137.496521,70.537170 147.015640,66.754745 
	C152.530609,64.563370 157.107285,63.796741 162.093735,66.486664 
	C165.871826,68.524750 169.656601,70.747162 172.865936,73.544373 
	C174.119644,74.637070 174.883698,78.352173 174.032333,79.460060 
	C169.070068,85.917351 168.460938,93.608765 167.118759,101.076530 
	C164.184448,117.402641 161.453217,133.765259 158.461395,150.480621 
z"/>
<path fill="#FBC28D" opacity="1.000000" stroke="none" 
	d="
M130.120041,426.171021 
	C129.747498,426.675964 129.449539,427.537354 128.991394,427.633240 
	C120.169640,429.479401 110.162796,421.810791 108.901329,412.841187 
	C106.782158,397.772949 122.018272,383.265900 133.598434,381.718079 
	C135.645126,381.444519 137.597000,380.461700 138.813980,380.062103 
	C139.558670,375.485992 140.177444,371.683563 141.116806,367.224365 
	C142.376266,363.281464 143.206436,359.959229 144.284058,356.719269 
	C145.404633,353.350159 146.764297,350.060547 148.019409,346.736145 
	C148.019409,346.736145 148.007294,346.388611 148.301483,346.072449 
	C149.050247,344.831970 149.504822,343.907623 149.959396,342.983307 
	C149.959396,342.983307 149.999817,343.001984 150.294373,342.843414 
	C153.338104,339.439514 156.087280,336.194153 158.836441,332.948792 
	C158.836441,332.948792 158.874619,332.465759 158.889877,331.855896 
	C158.248764,329.792480 157.592407,328.338928 156.911682,326.540741 
	C155.302383,325.096954 153.857071,323.636139 152.108414,322.960968 
	C144.383148,319.978302 136.602280,317.130066 128.776184,314.422058 
	C124.898125,313.080139 120.878685,312.146820 116.923210,311.028656 
	C116.923210,311.028656 116.991699,311.010712 116.926338,310.875793 
	C116.599487,310.790771 116.337997,310.840729 116.076508,310.890656 
	C109.389679,309.940430 105.479454,312.755432 104.194916,319.425049 
	C104.008125,320.394928 102.915222,321.190277 101.459335,322.067383 
	C100.172195,321.393036 99.307785,320.762054 99.218147,320.035492 
	C98.333977,312.869263 94.130478,310.337585 87.723038,313.171783 
	C86.534996,313.697296 85.244919,313.992126 84.526672,314.223999 
	C84.526672,315.630035 84.526672,316.902649 84.061417,318.126434 
	C82.355408,318.106873 81.114662,318.136169 79.873917,318.165497 
	C79.873917,318.165497 79.955627,318.107391 79.905075,317.750916 
	C78.878990,316.958801 77.903465,316.523193 76.927933,316.087585 
	C76.927933,316.087585 76.976311,316.055664 76.977844,315.666870 
	C79.368515,311.696259 81.757652,308.114502 84.519417,303.974060 
	C82.354057,304.514404 80.405312,305.000702 78.294586,305.527435 
	C78.541702,304.125122 78.735756,303.023926 78.929810,301.922729 
	C78.929810,301.922729 79.000099,301.997040 79.328697,301.931946 
	C80.073341,300.821777 80.489380,299.776703 80.905426,298.731628 
	C83.254898,295.854279 85.410980,292.781189 88.038376,290.185089 
	C89.284622,288.953735 91.430855,288.633240 93.675659,288.316833 
	C98.775810,290.493225 103.369667,292.252838 107.963531,294.012421 
	C109.141518,294.304688 110.418343,294.396362 111.482117,294.920471 
	C121.542427,299.877014 132.578583,298.021606 143.109940,299.632172 
	C147.889191,300.363068 152.595734,301.915833 157.171158,303.554077 
	C164.553879,306.197449 172.156708,308.586914 178.929504,312.394653 
	C181.627213,313.911285 183.795807,318.988831 183.632629,322.319275 
	C183.422989,326.597839 180.623428,330.749542 178.255371,334.877502 
	C176.255569,334.018707 174.940002,333.238281 173.409714,332.330536 
	C172.887680,335.610382 172.535797,338.395203 171.992477,341.142151 
	C168.276108,359.932037 165.609451,379.080566 153.497284,395.009033 
	C152.666473,396.101593 152.525238,397.718506 152.063293,399.091553 
	C153.003220,399.390503 153.943115,399.689453 154.883026,399.988373 
	C154.548019,400.922058 154.213013,401.855743 153.219543,402.921387 
	C147.233673,408.068512 141.952957,413.134583 136.559784,418.077911 
	C133.733170,420.668793 130.709335,423.044495 127.656815,425.616608 
	C128.532394,425.813660 129.326218,425.992340 130.120041,426.171021 
M136.278809,401.938721 
	C136.034622,402.159760 135.846924,402.421356 135.282593,402.941559 
	C135.024841,403.145172 134.822159,403.393707 134.260803,403.974701 
	C134.318024,404.236572 134.375229,404.498474 134.432419,404.760315 
	C134.678375,404.559784 134.924347,404.359222 135.599594,403.931885 
	C135.879044,403.741699 136.070908,403.485840 136.605637,402.937683 
	C136.882401,402.742920 137.072250,402.484344 137.592499,401.924652 
	C137.856934,401.723328 138.038040,401.463837 138.610596,400.823883 
	C138.825058,400.301483 139.039536,399.779053 139.673447,399.018127 
	C139.921204,398.800018 140.104828,398.537140 140.653702,397.983215 
	C140.896042,397.743958 141.050293,397.457306 141.680511,396.752075 
	C142.177917,395.551910 142.675323,394.351746 143.767212,392.782440 
	C144.865295,390.418488 145.963394,388.054535 147.061478,385.690582 
	C146.507507,385.466858 145.953537,385.243134 145.399567,385.019440 
	C144.563202,387.649658 143.726837,390.279877 142.334198,393.246155 
	C141.815735,394.423218 141.297272,395.600281 140.340744,397.000580 
	C140.078888,397.219971 139.902344,397.494324 139.392426,398.065186 
	C139.135956,398.280914 138.967148,398.551361 138.412033,399.188843 
	C138.182434,399.698822 137.952835,400.208832 137.310364,400.963379 
	C137.055801,401.168274 136.854996,401.416656 136.278809,401.938721 
M131.454071,406.069855 
	C131.496033,406.311401 131.537994,406.552948 131.579956,406.794495 
	C131.820038,406.627563 132.060135,406.460663 132.690567,406.003815 
	C132.649948,405.751923 132.609314,405.500031 132.568680,405.248138 
	C132.328903,405.443451 132.089111,405.638794 131.454071,406.069855 
z"/>
<path fill="#932309" opacity="1.000000" stroke="none" 
	d="
M89.956215,268.100830 
	C87.049927,265.383484 86.917969,262.257721 88.093918,258.610962 
	C91.003815,249.587051 96.514801,243.583649 106.265709,242.381897 
	C116.590691,241.109421 125.460541,244.155746 131.945679,252.419907 
	C136.255798,257.912354 135.699844,269.084717 131.403610,274.573120 
	C131.097610,274.964020 130.228928,274.914459 129.227600,274.638672 
	C121.194122,260.775238 111.335693,257.136810 98.058388,258.096130 
	C90.232857,258.661499 88.940872,260.578888 89.956215,268.100830 
z"/>
<path fill="#D42D06" opacity="1.000000" stroke="none" 
	d="
M89.976830,268.072784 
	C88.940872,260.578888 90.232857,258.661499 98.058388,258.096130 
	C111.335693,257.136810 121.194122,260.775238 128.838623,274.549072 
	C123.636894,276.636078 119.000252,280.975647 112.458206,277.798431 
	C112.362152,272.449738 108.945763,269.888733 105.409531,269.509033 
	C103.584816,269.313141 101.318634,273.171631 99.268349,275.214661 
	C99.041321,275.440887 98.922325,275.775513 98.753220,276.059875 
	C97.951157,275.707123 97.149086,275.354340 96.075722,274.439789 
	C95.191620,273.593567 94.578819,273.309174 93.966026,273.024750 
	C93.966026,273.024750 94.000023,272.998871 93.927399,272.757629 
	C93.551674,272.352264 93.248581,272.188171 92.945488,272.024078 
	C92.945488,272.024078 92.998589,272.001007 92.925873,271.764465 
	C92.550880,271.356659 92.248604,271.185364 91.946327,271.014099 
	C91.946327,271.014099 92.000107,271.000305 91.992844,270.696320 
	C91.568672,269.963165 91.151749,269.534027 90.734825,269.104858 
	C90.734825,269.104858 90.880676,269.064484 90.836212,268.862610 
	C90.505585,268.446503 90.219421,268.232300 89.933258,268.018097 
	C89.933250,268.018097 89.997444,268.044739 89.976830,268.072784 
z"/>
<path fill="#F59F4F" opacity="1.000000" stroke="none" 
	d="
M155.065948,399.701782 
	C153.943115,399.689453 153.003220,399.390503 152.063293,399.091553 
	C152.525238,397.718506 152.666473,396.101593 153.497284,395.009033 
	C165.609451,379.080566 168.276108,359.932037 171.992477,341.142151 
	C172.535797,338.395203 172.887680,335.610382 173.409714,332.330536 
	C174.940002,333.238281 176.255569,334.018707 177.905060,334.925964 
	C174.573456,340.470825 176.611633,346.629547 176.150467,352.423798 
	C175.041595,366.356293 171.172729,379.154724 162.440918,390.261292 
	C160.042603,393.311829 157.646164,396.363861 155.065948,399.701782 
z"/>
<path fill="#793424" opacity="1.000000" stroke="none" 
	d="
M84.526672,318.175293 
	C84.526672,316.902649 84.526672,315.630035 84.526672,314.223999 
	C85.244919,313.992126 86.534996,313.697296 87.723038,313.171783 
	C94.130478,310.337585 98.333977,312.869263 99.218147,320.035492 
	C99.307785,320.762054 100.172195,321.393036 101.118370,322.024292 
	C100.059616,323.968384 97.945511,325.739777 97.155151,327.978485 
	C89.815247,348.769073 82.703239,369.640106 75.046097,390.739777 
	C74.396263,390.982574 74.225456,390.973389 74.093475,390.587708 
	C77.276741,380.474518 80.302444,370.697418 83.594978,361.011017 
	C87.935822,348.240570 92.515671,335.551514 96.931511,322.806274 
	C98.632561,317.896576 97.585556,315.515350 93.422447,314.260162 
	C89.791924,313.165588 87.427643,314.986938 85.982681,319.532867 
	C83.733475,326.608978 81.341515,333.641418 78.907845,340.656891 
	C74.587387,353.111328 70.266533,365.566864 65.776619,377.960602 
	C64.509636,381.457916 62.653748,384.741943 60.866997,388.107758 
	C60.666035,388.091736 60.269001,388.021454 60.269005,388.021454 
	C67.342682,367.821259 74.439011,347.628937 81.456909,327.409363 
	C82.204124,325.256531 82.492516,322.944397 83.153442,320.337402 
	C83.717651,319.370819 84.122154,318.773071 84.526672,318.175293 
z"/>
<path fill="#94260D" opacity="1.000000" stroke="none" 
	d="
M44.970638,396.944763 
	C46.651302,395.941315 48.331966,394.937866 50.799660,393.947205 
	C52.872337,393.757538 54.168770,393.607239 55.441902,393.344208 
	C64.079811,391.559357 72.290634,394.200775 76.301361,400.028625 
	C76.406540,400.662781 76.194672,401.246918 75.982811,401.831055 
	C73.800537,400.841858 71.618271,399.852661 69.996994,399.117767 
	C68.213295,400.510468 66.609245,401.762909 64.693527,402.904968 
	C58.228374,403.185303 52.074898,403.576050 45.851555,403.808655 
	C45.532085,403.750458 45.282482,403.850342 44.868858,404.193298 
	C43.783024,403.980591 42.861210,403.524841 41.984222,402.737305 
	C42.686947,401.935669 43.344841,401.465820 44.122940,401.205933 
	C44.597332,401.398590 44.951523,401.381348 45.305710,401.364105 
	C44.869011,401.244171 44.432312,401.124237 43.998802,400.635193 
	C44.009579,399.529022 44.017170,398.791962 44.024757,398.054932 
	C44.024757,398.054932 43.989811,398.024078 44.232048,397.902466 
	C44.749096,397.567078 44.914547,397.288391 44.970638,396.944763 
M47.860344,400.369995 
	C49.357845,399.973907 50.855350,399.577850 52.352852,399.181763 
	C52.172718,398.723297 51.992588,398.264801 51.812454,397.806335 
	C50.345505,398.530365 48.878555,399.254395 47.860344,400.369995 
z"/>
<path fill="#971E04" opacity="1.000000" stroke="none" 
	d="
M98.795715,276.459961 
	C98.922325,275.775513 99.041321,275.440887 99.268349,275.214661 
	C101.318634,273.171631 103.584816,269.313141 105.409531,269.509033 
	C108.945763,269.888733 112.362152,272.449738 112.116089,277.577332 
	C112.160690,277.966278 112.098045,278.054688 111.685799,278.096344 
	C109.479034,282.557892 107.684509,286.977783 105.900185,291.372559 
	C97.375404,289.216705 97.169846,288.900879 98.890366,280.818573 
	C98.872978,279.499084 98.855598,278.179565 98.795715,276.459961 
z"/>
<path fill="#F79F4D" opacity="1.000000" stroke="none" 
	d="
M130.533661,426.150665 
	C129.326218,425.992340 128.532394,425.813660 127.656815,425.616608 
	C130.709335,423.044495 133.733170,420.668793 136.559784,418.077911 
	C141.952957,413.134583 147.233673,408.068512 152.933990,403.048401 
	C154.407272,418.818115 140.843567,425.092285 130.533661,426.150665 
z"/>
<path fill="#EE9F51" opacity="1.000000" stroke="none" 
	d="
M117.093475,311.338318 
	C120.878685,312.146820 124.898125,313.080139 128.776184,314.422058 
	C136.602280,317.130066 144.383148,319.978302 152.108414,322.960968 
	C153.857071,323.636139 155.302383,325.096954 156.669922,326.591370 
	C156.452530,326.986633 155.985382,327.148010 155.985382,327.148010 
	C143.570160,327.567688 133.421494,321.833282 123.557617,315.267670 
	C121.547256,313.929504 119.366150,312.847839 117.093475,311.338318 
z"/>
<path fill="#95311A" opacity="1.000000" stroke="none" 
	d="
M65.005203,403.015350 
	C66.609245,401.762909 68.213295,400.510468 69.996994,399.117767 
	C71.618271,399.852661 73.800537,400.841858 75.982811,401.831055 
	C76.194672,401.246918 76.406540,400.662781 76.524628,399.757904 
	C77.346169,399.281921 78.261497,399.126648 79.176826,398.971375 
	C83.958138,401.304138 86.889923,404.762390 85.087929,410.340485 
	C83.686661,414.678070 81.753075,418.843750 79.637421,423.142853 
	C79.218765,423.199890 78.917068,422.916656 78.989777,422.571289 
	C79.807350,420.954529 80.593063,419.705109 81.290024,418.408020 
	C84.279800,412.843811 83.871941,411.303192 78.085220,408.545990 
	C73.816040,406.511810 69.371567,404.845551 65.005203,403.015350 
M68.813683,402.734833 
	C68.971260,402.620422 69.128845,402.506012 69.286430,402.391632 
	C69.067390,402.414886 68.848358,402.438141 68.813683,402.734833 
z"/>
<path fill="#773321" opacity="1.000000" stroke="none" 
	d="
M98.548241,280.907318 
	C97.169846,288.900879 97.375404,289.216705 105.900185,291.372559 
	C107.684509,286.977783 109.479034,282.557892 111.631790,278.100677 
	C110.655373,283.115234 109.320709,288.167114 107.974785,293.615723 
	C103.369667,292.252838 98.775810,290.493225 94.061752,288.400940 
	C95.363075,285.710876 96.784592,283.353455 98.548241,280.907318 
z"/>
<path fill="#662112" opacity="1.000000" stroke="none" 
	d="
M79.054367,398.649780 
	C78.261497,399.126648 77.346169,399.281921 76.207573,399.707886 
	C72.290634,394.200775 64.079811,391.559357 55.441902,393.344208 
	C54.168770,393.607239 52.872337,393.757538 51.133034,393.954712 
	C52.337990,393.367462 54.118324,392.999542 55.621769,392.144684 
	C57.200077,391.247253 58.513065,389.883209 60.105503,388.372253 
	C60.269001,388.021454 60.666035,388.091736 60.864326,388.483490 
	C63.427860,392.791260 70.412575,393.914307 74.054642,390.964172 
	C74.225456,390.973389 74.396263,390.982574 74.822998,391.010193 
	C72.470085,395.516815 77.140373,396.162750 79.054367,398.649780 
z"/>
<path fill="#963A26" opacity="1.000000" stroke="none" 
	d="
M74.149956,427.237305 
	C62.231312,431.181335 51.652424,428.502106 42.093491,420.334381 
	C42.088131,419.914734 42.305313,419.706665 42.615608,419.841980 
	C52.113190,427.460754 62.827965,427.915649 73.972649,426.838043 
	C74.041580,426.966553 74.149956,427.237305 74.149956,427.237305 
z"/>
<path fill="#EDBF90" opacity="1.000000" stroke="none" 
	d="
M78.579475,301.968018 
	C78.735756,303.023926 78.541702,304.125122 78.294586,305.527435 
	C80.405312,305.000702 82.354057,304.514404 84.519417,303.974060 
	C81.757652,308.114502 79.368515,311.696259 76.949203,315.662537 
	C74.603210,313.288788 75.344666,305.346588 78.579475,301.968018 
z"/>
<path fill="#963A26" opacity="1.000000" stroke="none" 
	d="
M44.002739,400.996002 
	C43.344841,401.465820 42.686947,401.935669 41.718887,402.992432 
	C38.720165,409.121185 40.036175,414.440430 42.305313,419.706665 
	C42.305313,419.706665 42.088131,419.914734 41.979317,420.018494 
	C36.301910,413.454193 37.156120,402.298737 43.773071,398.308868 
	C44.017170,398.791962 44.009579,399.529022 44.000969,400.633026 
	C43.999950,401.000000 44.002739,400.996002 44.002739,400.996002 
z"/>
<path fill="#B0987F" opacity="1.000000" stroke="none" 
	d="
M147.698212,346.907501 
	C146.764297,350.060547 145.404633,353.350159 144.284058,356.719269 
	C143.206436,359.959229 142.376266,363.281464 141.159119,366.836365 
	C140.009613,359.444733 143.862396,353.316650 147.698212,346.907501 
z"/>
<path fill="#F2F0EA" opacity="1.000000" stroke="none" 
	d="
M158.458923,332.963379 
	C156.087280,336.194153 153.338104,339.439514 150.284454,342.823486 
	C150.386795,337.772949 152.397308,333.885040 158.458923,332.963379 
z"/>
<path fill="#95311A" opacity="1.000000" stroke="none" 
	d="
M79.367813,423.343414 
	C77.954674,424.710754 76.392487,425.934570 74.490128,427.197845 
	C74.149956,427.237305 74.041580,426.966553 74.159973,426.588318 
	C75.824593,425.112244 77.370827,424.014465 78.917068,422.916656 
	C78.917068,422.916656 79.218765,423.199890 79.367813,423.343414 
z"/>
<path fill="#F2F0EA" opacity="1.000000" stroke="none" 
	d="
M155.998123,327.483337 
	C155.985382,327.148010 156.452530,326.986633 156.694275,326.936005 
	C157.592407,328.338928 158.248764,329.792480 158.852386,331.616547 
	C157.870056,330.597595 156.940460,329.208130 155.998123,327.483337 
z"/>
<path fill="#EDBF90" opacity="1.000000" stroke="none" 
	d="
M84.061409,318.126434 
	C84.122154,318.773071 83.717651,319.370819 82.939392,319.983032 
	C81.649414,319.611298 80.733177,319.225098 79.845428,318.502197 
	C81.114662,318.136169 82.355408,318.106873 84.061409,318.126434 
z"/>
<path fill="#EDBF90" opacity="1.000000" stroke="none" 
	d="
M76.931915,316.444489 
	C77.903465,316.523193 78.878990,316.958801 79.855232,317.756287 
	C78.882591,317.679230 77.909241,317.240295 76.931915,316.444489 
z"/>
<path fill="#F2F0EA" opacity="1.000000" stroke="none" 
	d="
M149.614777,343.040955 
	C149.504822,343.907623 149.050247,344.831970 148.305420,345.898621 
	C148.433517,345.060150 148.851837,344.079376 149.614777,343.040955 
z"/>
<path fill="#EDBF90" opacity="1.000000" stroke="none" 
	d="
M80.619553,298.907776 
	C80.489380,299.776703 80.073341,300.821777 79.288651,301.900330 
	C79.391228,300.983856 79.862450,300.033875 80.619553,298.907776 
z"/>
<path fill="#932309" opacity="1.000000" stroke="none" 
	d="
M94.082047,273.342041 
	C94.578819,273.309174 95.191620,273.593567 95.890190,274.233032 
	C95.383331,274.278503 94.790703,273.968903 94.082047,273.342041 
z"/>
<path fill="#932309" opacity="1.000000" stroke="none" 
	d="
M90.716797,269.425293 
	C91.151749,269.534027 91.568672,269.963165 91.979248,270.720520 
	C91.548195,270.614410 91.123482,270.180084 90.716797,269.425293 
z"/>
<path fill="#EE9F51" opacity="1.000000" stroke="none" 
	d="
M116.303635,310.952301 
	C116.337997,310.840729 116.599487,310.790771 116.928787,310.911102 
	C116.996590,311.081360 116.530762,311.013947 116.303635,310.952301 
z"/>
<path fill="#932309" opacity="1.000000" stroke="none" 
	d="
M89.928452,268.326599 
	C90.219421,268.232300 90.505585,268.446503 90.837463,268.938232 
	C90.563324,269.022217 90.243484,268.828644 89.928452,268.326599 
z"/>
<path fill="#932309" opacity="1.000000" stroke="none" 
	d="
M91.985428,271.291992 
	C92.248604,271.185364 92.550880,271.356659 92.914909,271.791260 
	C92.659279,271.893005 92.341904,271.731415 91.985428,271.291992 
z"/>
<path fill="#932309" opacity="1.000000" stroke="none" 
	d="
M92.990402,272.297028 
	C93.248581,272.188171 93.551674,272.352264 93.919174,272.777344 
	C93.667503,272.882202 93.351418,272.726105 92.990402,272.297028 
z"/>
<path fill="#963A26" opacity="1.000000" stroke="none" 
	d="
M44.684422,396.991852 
	C44.914547,397.288391 44.749096,397.567078 44.252426,397.891113 
	C44.153111,397.680603 44.275654,397.359772 44.684422,396.991852 
z"/>
<path fill="#AF7F52" opacity="1.000000" stroke="none" 
	d="
M142.890472,392.910095 
	C143.726837,390.279877 144.563202,387.649658 145.399567,385.019440 
	C145.953537,385.243134 146.507507,385.466858 147.061478,385.690582 
	C145.963394,388.054535 144.865295,390.418488 143.398346,392.905334 
	C143.029465,393.028198 142.890488,392.910095 142.890472,392.910095 
z"/>
<path fill="#AF7F52" opacity="1.000000" stroke="none" 
	d="
M140.778809,396.777344 
	C141.297272,395.600281 141.815735,394.423218 142.612335,393.078125 
	C142.890488,392.910095 143.029465,393.028198 143.101105,393.089905 
	C142.675323,394.351746 142.177917,395.551910 141.314270,396.850983 
	C140.948044,396.949890 140.778809,396.777344 140.778809,396.777344 
z"/>
<path fill="#AF7F52" opacity="1.000000" stroke="none" 
	d="
M139.253998,399.256653 
	C139.039536,399.779053 138.825058,400.301483 138.269775,400.877625 
	C137.928955,400.931335 137.723221,400.718811 137.723236,400.718811 
	C137.952835,400.208832 138.182434,399.698822 138.740784,399.127930 
	C139.069550,399.067047 139.253998,399.256653 139.253998,399.256653 
z"/>
<path fill="#AF7F52" opacity="1.000000" stroke="none" 
	d="
M141.032257,397.036560 
	C141.050293,397.457306 140.896042,397.743958 140.335419,398.003113 
	C140.017120,398.023041 139.811111,397.823578 139.811111,397.823578 
	C139.902344,397.494324 140.078888,397.219971 140.559784,396.888977 
	C140.778809,396.777344 140.948044,396.949890 141.032257,397.036560 
z"/>
<path fill="#AF7F52" opacity="1.000000" stroke="none" 
	d="
M132.300217,406.293732 
	C132.060135,406.460663 131.820038,406.627563 131.579956,406.794495 
	C131.537994,406.552948 131.496033,406.311401 131.763519,406.067749 
	C132.072952,406.065674 132.300217,406.293732 132.300217,406.293732 
z"/>
<path fill="#AF7F52" opacity="1.000000" stroke="none" 
	d="
M131.961151,405.949890 
	C132.089111,405.638794 132.328903,405.443451 132.568680,405.248138 
	C132.609314,405.500031 132.649948,405.751923 132.495392,406.148773 
	C132.300217,406.293732 132.072952,406.065674 131.961151,405.949890 
z"/>
<path fill="#AF7F52" opacity="1.000000" stroke="none" 
	d="
M135.170319,404.158691 
	C134.924347,404.359222 134.678375,404.559784 134.432434,404.760315 
	C134.375229,404.498474 134.318024,404.236572 134.593018,403.950012 
	C134.925232,403.925354 135.170334,404.158691 135.170319,404.158691 
z"/>
<path fill="#AF7F52" opacity="1.000000" stroke="none" 
	d="
M136.175171,403.164307 
	C136.070908,403.485840 135.879044,403.741699 135.384964,404.045288 
	C135.170334,404.158691 134.925232,403.925354 134.799896,403.806244 
	C134.822159,403.393707 135.024841,403.145172 135.615295,402.943909 
	C135.947983,402.946228 136.175171,403.164307 136.175171,403.164307 
z"/>
<path fill="#AF7F52" opacity="1.000000" stroke="none" 
	d="
M137.175201,402.161957 
	C137.072250,402.484344 136.882401,402.742920 136.390411,403.050995 
	C136.175171,403.164307 135.947983,402.946228 135.831848,402.834839 
	C135.846924,402.421356 136.034622,402.159760 136.609711,401.937469 
	C136.940628,401.936218 137.175201,402.161957 137.175201,402.161957 
z"/>
<path fill="#AF7F52" opacity="1.000000" stroke="none" 
	d="
M136.824310,401.822388 
	C136.854996,401.416656 137.055801,401.168274 137.516785,400.841095 
	C137.723221,400.718811 137.928955,400.931335 138.032379,401.038757 
	C138.038040,401.463837 137.856934,401.723328 137.383850,402.043304 
	C137.175201,402.161957 136.940628,401.936218 136.824310,401.822388 
z"/>
<path fill="#AF7F52" opacity="1.000000" stroke="none" 
	d="
M138.977783,398.971771 
	C138.967148,398.551361 139.135956,398.280914 139.601776,397.944397 
	C139.811111,397.823578 140.017120,398.023041 140.120728,398.126221 
	C140.104828,398.537140 139.921204,398.800018 139.463715,399.137390 
	C139.253998,399.256653 139.069550,399.067047 138.977783,398.971771 
z"/>
<path fill="#971E02" opacity="1.000000" stroke="none" 
	d="
M74.093475,390.587708 
	C70.412575,393.914307 63.427860,392.791260 61.065289,388.499512 
	C62.653748,384.741943 64.509636,381.457916 65.776619,377.960602 
	C70.266533,365.566864 74.587387,353.111328 78.907845,340.656891 
	C81.341515,333.641418 83.733475,326.608978 85.982681,319.532867 
	C87.427643,314.986938 89.791924,313.165588 93.422447,314.260162 
	C97.585556,315.515350 98.632561,317.896576 96.931511,322.806274 
	C92.515671,335.551514 87.935822,348.240570 83.594978,361.011017 
	C80.302444,370.697418 77.276741,380.474518 74.093475,390.587708 
z"/>
<path fill="#D72D03" opacity="1.000000" stroke="none" 
	d="
M78.989777,422.571289 
	C77.370827,424.014465 75.824593,425.112244 74.091034,426.459778 
	C62.827965,427.915649 52.113190,427.460754 42.615608,419.841980 
	C40.036175,414.440430 38.720165,409.121185 41.674057,403.324188 
	C42.861210,403.524841 43.783024,403.980591 45.090546,404.210571 
	C45.476254,403.984833 45.921421,403.966766 45.921421,403.966766 
	C52.074898,403.576050 58.228374,403.185303 64.693527,402.904968 
	C69.371567,404.845551 73.816040,406.511810 78.085220,408.545990 
	C83.871941,411.303192 84.279800,412.843811 81.290024,418.408020 
	C80.593063,419.705109 79.807350,420.954529 78.989777,422.571289 
z"/>
<path fill="#963A26" opacity="1.000000" stroke="none" 
	d="
M47.635979,400.174194 
	C48.878555,399.254395 50.345505,398.530365 51.812454,397.806335 
	C51.992588,398.264801 52.172718,398.723297 52.352852,399.181763 
	C50.855350,399.577850 49.357845,399.973907 47.635979,400.174194 
z"/>
<path fill="#963A26" opacity="1.000000" stroke="none" 
	d="
M43.997780,401.002136 
	C44.432312,401.124237 44.869011,401.244171 45.305710,401.364105 
	C44.951523,401.381348 44.597332,401.398590 44.122940,401.205933 
	C44.002739,400.996002 43.999950,401.000000 43.997780,401.002136 
z"/>
<path fill="#963A26" opacity="1.000000" stroke="none" 
	d="
M45.851555,403.808655 
	C45.921421,403.966766 45.476254,403.984833 45.254562,403.967529 
	C45.282482,403.850342 45.532085,403.750458 45.851555,403.808655 
z"/>
<path fill="#94260D" opacity="1.000000" stroke="none" 
	d="
M68.721497,402.598114 
	C68.848358,402.438141 69.067390,402.414886 69.286423,402.391632 
	C69.128845,402.506012 68.971260,402.620422 68.721497,402.598114 
z"/>
</svg>