<svg version="1.1" id="Layer_1" xmlns="http://www.w3.org/2000/svg" xmlns:xlink="http://www.w3.org/1999/xlink" x="0px" y="0px"
	 width="100%" viewBox="0 0 500 500" enable-background="new 0 0 500 500" xml:space="preserve">
<path fill="#F3865B" opacity="1.000000" stroke="none" 
	d="
M1.000000,464.000000 
	C1.000000,309.713013 1.000000,155.426010 1.000000,1.069503 
	C167.570267,1.069503 334.140564,1.069503 501.000000,1.069503 
	C501.000000,155.023956 501.000000,309.048096 500.533234,463.583984 
	C437.407074,464.095703 374.747681,464.095703 311.258087,464.095703 
	C320.723785,459.798645 329.533997,456.332001 337.811066,451.875183 
	C344.585602,448.227386 350.724762,443.399506 357.482758,439.031250 
	C362.540924,435.060913 367.261902,431.154083 372.314575,427.143036 
	C377.654846,421.997986 382.933533,417.195435 387.626892,411.876434 
	C412.419586,383.778839 426.714661,350.552917 434.604889,314.308716 
	C436.157593,307.176208 435.090851,306.186584 427.908783,306.133667 
	C426.579712,306.123871 425.251068,306.063080 423.972351,305.630890 
	C423.622437,304.074127 423.576965,302.362793 422.765228,301.838959 
	C417.197479,298.246033 411.469238,294.901825 405.267609,291.160797 
	C406.169556,288.972656 405.458740,287.297791 401.769684,285.979797 
	C399.525543,285.178040 396.264557,283.907959 395.453644,279.883759 
	C395.073883,277.999237 392.969666,276.356079 393.891754,273.700348 
	C394.040649,273.271423 392.270233,272.025604 391.246429,271.380615 
	C390.131287,270.678101 388.852325,270.235687 388.203400,269.936981 
	C389.333160,266.712799 390.205139,264.224182 391.077148,261.735565 
	C388.347748,261.192657 385.618408,260.649719 381.800537,259.890289 
	C381.057068,256.036621 377.703369,253.255646 373.406860,252.941422 
	C373.563416,250.143890 374.743683,246.112656 373.664154,245.371063 
	C369.154968,242.273483 363.966980,240.164047 359.027832,237.692368 
	C358.973450,237.933884 358.919067,238.175385 358.864685,238.416901 
	C357.449768,236.609146 356.034821,234.801407 354.309753,232.597443 
	C355.930420,224.513596 352.453186,220.729828 344.418518,223.034607 
	C338.990051,220.532120 333.896393,218.109451 328.755920,215.320648 
	C328.138794,213.703400 327.826813,211.616089 326.953400,211.346268 
	C323.222198,210.193588 319.325195,209.577530 315.099731,208.683426 
	C315.907440,201.328049 311.221710,204.370987 308.866425,204.953903 
	C306.260010,202.913605 304.359406,201.425842 302.521393,199.987061 
	C301.753723,198.339096 300.901794,196.510300 300.049866,194.681519 
	C297.328857,196.103729 294.607880,197.525925 291.632690,199.080963 
	C290.430145,198.176208 288.878082,196.532913 286.971893,195.705353 
	C284.983276,194.841995 281.504364,193.666794 280.673859,194.535950 
	C277.285950,198.081528 273.505035,196.649384 270.175232,195.813889 
	C261.590302,193.659760 261.576691,193.432602 257.162231,201.412811 
	C251.488602,201.495605 246.232407,201.417999 240.858139,200.963943 
	C240.038422,198.057648 240.723343,194.578522 236.374115,194.623749 
	C234.909271,194.638992 233.440460,194.006546 231.971802,193.999084 
	C230.573685,193.991974 229.176743,194.580490 227.773270,194.608749 
	C225.627991,194.651947 223.254990,194.979431 221.381180,194.208206 
	C218.531219,193.035263 216.196747,190.557541 213.324081,189.507263 
	C210.658737,188.532791 208.646927,189.765945 209.659531,193.200226 
	C209.977997,194.280334 210.412750,195.326141 210.654953,196.000000 
	C205.518219,198.937561 200.668213,201.711166 195.818192,204.484756 
	C195.824158,204.400406 195.830109,204.316040 195.836075,204.231674 
	C193.626038,205.146973 191.416000,206.062271 189.474182,206.866486 
	C187.174820,206.866486 184.061172,205.928680 182.682266,207.075928 
	C180.337418,209.026810 179.084488,212.290115 178.071030,213.895676 
	C174.303696,214.152298 171.003357,215.430466 169.432434,214.301727 
	C162.639389,209.420761 163.365768,215.227478 162.069916,219.006805 
	C158.701996,221.370285 155.523132,223.371384 152.577042,225.670715 
	C151.206055,226.740753 150.286743,228.389526 148.806274,229.836411 
	C146.315613,230.566162 144.173630,231.212082 142.050797,231.915833 
	C141.154495,232.212997 139.826706,232.393219 139.502106,233.034882 
	C137.622299,236.750732 135.983246,240.588409 134.175766,244.576767 
	C126.668266,242.157379 130.061356,249.071121 129.104523,251.057587 
	C125.905411,251.057587 123.423965,251.057587 120.942513,251.057587 
	C121.328468,253.933136 121.714417,256.808685 122.246864,260.775665 
	C119.389595,260.326508 116.175339,259.887939 112.989700,259.295502 
	C111.072853,258.938995 109.200577,258.342834 107.308273,257.854370 
	C107.275146,260.062836 106.988937,262.303711 107.266899,264.472290 
	C107.707733,267.911469 108.525726,271.302277 109.011909,273.821167 
	C105.298889,273.821167 102.682159,273.821167 100.065430,273.821167 
	C100.582397,276.829620 101.099373,279.838043 101.466896,281.976807 
	C98.205193,285.716888 94.970169,289.426361 91.432724,293.482635 
	C86.667892,292.612640 86.633240,295.778473 87.836853,299.241974 
	C85.819023,300.643646 84.152420,301.801361 82.430977,302.997131 
	C76.937515,300.058014 76.504890,300.174988 75.058868,305.312073 
	C71.551888,306.406067 66.824600,306.257477 65.584450,308.264038 
	C64.086319,310.688019 65.029709,315.057465 65.800438,318.379822 
	C73.721237,352.523621 87.730179,383.823120 110.619087,410.634613 
	C116.916061,418.010742 124.574959,424.224152 131.745010,431.295319 
	C136.537582,435.035431 141.194061,438.451324 146.018860,442.174835 
	C159.630173,449.837280 173.073196,457.192108 185.770645,464.139008 
	C185.428375,464.139008 183.840607,464.139191 182.252838,464.138947 
	C161.114380,464.135315 139.975922,464.143524 118.837479,464.125366 
	C79.558311,464.091675 40.279160,464.042633 1.000000,464.000000 
z"/>
<path fill="#FEE98E" opacity="1.000000" stroke="none" 
	d="
M1.000000,464.468658 
	C40.279160,464.042633 79.558311,464.091675 118.837479,464.125366 
	C139.975922,464.143524 161.114380,464.135315 182.252838,464.138947 
	C183.840607,464.139191 185.428375,464.139008 185.770645,464.139008 
	C173.073196,457.192108 159.630173,449.837280 146.219910,441.901306 
	C184.493073,413.285156 217.505157,380.333069 242.272568,339.439301 
	C241.642883,382.863251 241.013199,426.287170 240.379684,469.975891 
	C246.576660,469.975891 252.306061,469.975891 258.462585,469.975891 
	C257.630737,426.205170 256.803955,382.703217 255.977203,339.201263 
	C257.928741,340.298370 258.893372,341.743988 259.949585,343.119202 
	C268.159210,353.808441 275.919678,364.886078 284.701172,375.084015 
	C305.897949,399.699799 330.520569,420.559692 357.145569,439.094788 
	C350.724762,443.399506 344.585602,448.227386 337.811066,451.875183 
	C329.533997,456.332001 320.723785,459.798645 311.258087,464.095703 
	C374.747681,464.095703 437.407074,464.095703 500.533234,464.047852 
	C501.000000,476.323914 501.000000,488.647858 501.000000,500.954956 
	C334.333313,500.954956 167.666656,500.954956 1.000000,500.954956 
	C1.000000,488.919037 1.000000,476.928192 1.000000,464.468658 
z"/>
<path fill="#050404" opacity="1.000000" stroke="none" 
	d="
M357.482727,439.031250 
	C330.520569,420.559692 305.897949,399.699799 284.701172,375.084015 
	C275.919678,364.886078 268.159210,353.808441 259.949585,343.119202 
	C258.893372,341.743988 257.928741,340.298370 255.977203,339.201263 
	C256.803955,382.703217 257.630737,426.205170 258.462585,469.975891 
	C252.306061,469.975891 246.576660,469.975891 240.379684,469.975891 
	C241.013199,426.287170 241.642883,382.863251 242.272568,339.439301 
	C217.505157,380.333069 184.493073,413.285156 146.051605,441.593689 
	C141.194061,438.451324 136.537582,435.035431 131.999420,431.046753 
	C174.582336,401.876404 209.528656,366.237976 235.772781,320.785583 
	C201.088989,320.785583 167.731201,320.785583 134.162857,320.785583 
	C134.162857,315.893127 134.162857,311.420441 134.508331,306.893433 
	C135.311462,306.745300 135.769104,306.651520 136.655396,306.684875 
	C170.061066,306.820007 203.038116,306.834839 236.015137,306.809662 
	C237.265488,306.808716 238.515564,306.420929 239.990753,305.778931 
	C240.231522,272.612183 240.235260,239.879929 240.293503,207.147751 
	C240.296951,205.211563 240.738510,203.276154 240.976196,201.340393 
	C246.232407,201.417999 251.488602,201.495605 257.289673,201.850800 
	C257.834534,236.925034 257.834534,271.721710 257.834534,306.561798 
	C260.910645,306.561798 263.053833,306.561798 265.629242,306.686584 
	C289.342041,306.821198 312.622681,306.858795 335.903198,306.826691 
	C344.869354,306.814331 353.835327,306.643219 363.175507,306.617554 
	C364.056915,306.723206 364.564148,306.755798 365.162170,307.261627 
	C365.252960,312.026733 365.252960,316.318604 365.252960,321.202942 
	C330.742645,321.202942 296.595123,321.202942 261.371246,321.202942 
	C290.867584,365.362823 328.534790,399.307495 371.982910,427.247253 
	C367.261902,431.154083 362.540924,435.060913 357.482727,439.031250 
z"/>
<path fill="#FDE98F" opacity="1.000000" stroke="none" 
	d="
M134.162857,306.947754 
	C134.162857,311.420441 134.162857,315.893127 134.162857,320.785583 
	C167.731201,320.785583 201.088989,320.785583 235.772781,320.785583 
	C209.528656,366.237976 174.582336,401.876404 131.863342,430.722534 
	C124.574959,424.224152 116.916061,418.010742 110.619087,410.634613 
	C87.730179,383.823120 73.721237,352.523621 65.800438,318.379822 
	C65.029709,315.057465 64.086319,310.688019 65.584450,308.264038 
	C66.824600,306.257477 71.551888,306.406067 75.315262,305.517578 
	C77.245644,305.795990 78.591423,306.456177 79.944733,306.471985 
	C98.016830,306.683228 116.089973,306.804260 134.162857,306.947754 
z"/>
<path fill="#FDE88F" opacity="1.000000" stroke="none" 
	d="
M372.314575,427.143036 
	C328.534790,399.307495 290.867584,365.362823 261.371246,321.202942 
	C296.595123,321.202942 330.742645,321.202942 365.252960,321.202942 
	C365.252960,316.318604 365.252960,312.026733 365.400055,307.046387 
	C381.922241,306.283325 398.297333,306.212097 414.672394,306.131195 
	C417.755768,306.115936 420.838928,306.061951 423.922211,306.025818 
	C425.251068,306.063080 426.579712,306.123871 427.908783,306.133667 
	C435.090851,306.186584 436.157593,307.176208 434.604889,314.308716 
	C426.714661,350.552917 412.419586,383.778839 387.626892,411.876434 
	C382.933533,417.195435 377.654846,421.997986 372.314575,427.143036 
z"/>
<path fill="#FEFEFD" opacity="1.000000" stroke="none" 
	d="
M423.972351,305.630920 
	C420.838928,306.061951 417.755768,306.115936 414.672394,306.131195 
	C398.297333,306.212097 381.922241,306.283325 365.309265,306.573151 
	C364.564148,306.755798 364.056915,306.723206 362.848328,306.406067 
	C330.615936,306.081238 299.084839,306.036865 267.553772,306.024261 
	C266.768250,306.023956 265.982605,306.374756 265.197021,306.561798 
	C263.053833,306.561798 260.910645,306.561798 257.834534,306.561798 
	C257.834534,271.721710 257.834534,236.925034 257.707092,201.690369 
	C261.576691,193.432602 261.590302,193.659760 270.175232,195.813889 
	C273.505035,196.649384 277.285950,198.081528 280.673859,194.535950 
	C281.504364,193.666794 284.983276,194.841995 286.971893,195.705353 
	C288.878082,196.532913 290.430145,198.176208 291.632690,199.080963 
	C294.607880,197.525925 297.328857,196.103729 300.049866,194.681519 
	C300.901794,196.510300 301.753723,198.339096 302.521393,199.987061 
	C304.359406,201.425842 306.260010,202.913605 308.866425,204.953903 
	C311.221710,204.370987 315.907440,201.328049 315.099731,208.683426 
	C319.325195,209.577530 323.222198,210.193588 326.953400,211.346268 
	C327.826813,211.616089 328.138794,213.703400 328.513733,215.564804 
	C319.003845,233.584656 309.689331,250.994232 300.611176,267.962006 
	C302.026428,269.747620 303.160706,271.178772 304.295013,272.609924 
	C304.431763,272.203644 304.568512,271.797363 304.705261,271.391113 
	C306.219604,271.650940 307.766968,272.242218 309.240845,272.095490 
	C311.655273,271.855164 315.308838,271.938690 316.211090,270.493835 
	C325.975891,254.857269 335.305176,238.948730 344.753357,223.114441 
	C352.453186,220.729828 355.930420,224.513596 354.309753,232.597443 
	C356.034821,234.801407 357.449768,236.609146 358.864685,238.416901 
	C358.919067,238.175385 358.973450,237.933884 359.027832,237.692368 
	C363.966980,240.164047 369.154968,242.273483 373.664154,245.371063 
	C374.743683,246.112656 373.563416,250.143890 373.406860,252.941422 
	C377.703369,253.255646 381.057068,256.036621 381.800537,259.890289 
	C385.618408,260.649719 388.347748,261.192657 391.077148,261.735565 
	C390.205139,264.224182 389.333160,266.712799 388.203400,269.936981 
	C388.852325,270.235687 390.131287,270.678101 391.246429,271.380615 
	C392.270233,272.025604 394.040649,273.271423 393.891754,273.700348 
	C392.969666,276.356079 395.073883,277.999237 395.453644,279.883759 
	C396.264557,283.907959 399.525543,285.178040 401.769684,285.979797 
	C405.458740,287.297791 406.169556,288.972656 405.267609,291.160797 
	C411.469238,294.901825 417.197479,298.246033 422.765228,301.838959 
	C423.576965,302.362793 423.622437,304.074127 423.972351,305.630920 
z"/>
<path fill="#FEFEFD" opacity="1.000000" stroke="none" 
	d="
M134.508331,306.893433 
	C116.089973,306.804260 98.016830,306.683228 79.944733,306.471985 
	C78.591423,306.456177 77.245644,305.795990 75.639969,305.229858 
	C76.504890,300.174988 76.937515,300.058014 82.430977,302.997131 
	C84.152420,301.801361 85.819023,300.643646 87.836853,299.241974 
	C86.633240,295.778473 86.667892,292.612640 91.432724,293.482635 
	C94.970169,289.426361 98.205193,285.716888 101.466896,281.976807 
	C101.099373,279.838043 100.582397,276.829620 100.065430,273.821167 
	C102.682159,273.821167 105.298889,273.821167 109.011909,273.821167 
	C108.525726,271.302277 107.707733,267.911469 107.266899,264.472290 
	C106.988937,262.303711 107.275146,260.062836 107.308273,257.854370 
	C109.200577,258.342834 111.072853,258.938995 112.989700,259.295502 
	C116.175339,259.887939 119.389595,260.326508 122.246864,260.775665 
	C121.714417,256.808685 121.328468,253.933136 120.942513,251.057587 
	C123.423965,251.057587 125.905411,251.057587 129.104523,251.057587 
	C130.061356,249.071121 126.668266,242.157379 134.175766,244.576767 
	C135.983246,240.588409 137.622299,236.750732 139.502106,233.034882 
	C139.826706,232.393219 141.154495,232.212997 142.050797,231.915833 
	C144.173630,231.212082 146.315613,230.566162 149.096527,230.016113 
	C161.164093,245.076431 172.584991,260.017487 184.005875,274.958527 
	C184.183685,274.612000 184.361496,274.265472 184.539291,273.918945 
	C186.829102,274.702271 189.118912,275.485565 191.604874,276.335968 
	C194.016434,274.549164 196.792175,272.492493 199.920563,270.174561 
	C198.099442,267.508362 196.062958,264.322418 193.824875,261.285034 
	C183.365128,247.089767 172.849762,232.935455 162.354279,218.766510 
	C163.365768,215.227478 162.639389,209.420761 169.432434,214.301727 
	C171.003357,215.430466 174.303696,214.152298 178.071030,213.895676 
	C179.084488,212.290115 180.337418,209.026810 182.682266,207.075928 
	C184.061172,205.928680 187.174820,206.866486 189.474182,206.866486 
	C191.416000,206.062271 193.626038,205.146973 195.836075,204.231674 
	C195.830109,204.316040 195.824158,204.400406 195.818192,204.484756 
	C200.668213,201.711166 205.518219,198.937561 210.654953,196.000000 
	C210.412750,195.326141 209.977997,194.280334 209.659531,193.200226 
	C208.646927,189.765945 210.658737,188.532791 213.324081,189.507263 
	C216.196747,190.557541 218.531219,193.035263 221.381180,194.208206 
	C223.254990,194.979431 225.627991,194.651947 227.773270,194.608749 
	C229.176743,194.580490 230.573685,193.991974 231.971802,193.999084 
	C233.440460,194.006546 234.909271,194.638992 236.374115,194.623749 
	C240.723343,194.578522 240.038422,198.057648 240.858154,200.963943 
	C240.738510,203.276154 240.296951,205.211563 240.293503,207.147751 
	C240.235260,239.879929 240.231522,272.612183 239.550293,305.690857 
	C205.951645,306.024628 173.018417,306.005676 140.085205,306.023071 
	C138.798950,306.023743 137.512894,306.371643 136.226746,306.557739 
	C135.769104,306.651520 135.311462,306.745300 134.508331,306.893433 
z"/>
<path fill="#070606" opacity="1.000000" stroke="none" 
	d="
M162.069916,219.006805 
	C172.849762,232.935455 183.365128,247.089767 193.824875,261.285034 
	C196.062958,264.322418 198.099442,267.508362 199.920563,270.174561 
	C196.792175,272.492493 194.016434,274.549164 191.604874,276.335968 
	C189.118912,275.485565 186.829102,274.702271 184.539291,273.918945 
	C184.361496,274.265472 184.183685,274.612000 184.005875,274.958527 
	C172.584991,260.017487 161.164093,245.076431 149.452942,229.955658 
	C150.286743,228.389526 151.206055,226.740753 152.577042,225.670715 
	C155.523132,223.371384 158.701996,221.370285 162.069916,219.006805 
z"/>
<path fill="#070707" opacity="1.000000" stroke="none" 
	d="
M344.418518,223.034607 
	C335.305176,238.948730 325.975891,254.857269 316.211090,270.493835 
	C315.308838,271.938690 311.655273,271.855164 309.240845,272.095490 
	C307.766968,272.242218 306.219604,271.650940 304.705261,271.391113 
	C304.568512,271.797363 304.431763,272.203644 304.295013,272.609924 
	C303.160706,271.178772 302.026428,269.747620 300.611176,267.962006 
	C309.689331,250.994232 319.003845,233.584656 328.560577,215.930939 
	C333.896393,218.109451 338.990051,220.532120 344.418518,223.034607 
z"/>
<path fill="#FDE98F" opacity="1.000000" stroke="none" 
	d="
M136.655396,306.684875 
	C137.512894,306.371643 138.798950,306.023743 140.085205,306.023071 
	C173.018417,306.005676 205.951645,306.024628 239.325317,306.125305 
	C238.515564,306.420929 237.265488,306.808716 236.015137,306.809662 
	C203.038116,306.834839 170.061066,306.820007 136.655396,306.684875 
z"/>
<path fill="#FDE88F" opacity="1.000000" stroke="none" 
	d="
M265.629242,306.686584 
	C265.982605,306.374756 266.768250,306.023956 267.553772,306.024261 
	C299.084839,306.036865 330.615936,306.081238 362.474182,306.332977 
	C353.835327,306.643219 344.869354,306.814331 335.903198,306.826691 
	C312.622681,306.858795 289.342041,306.821198 265.629242,306.686584 
z"/>
</svg>