<svg version="1.1" id="Layer_1" xmlns="http://www.w3.org/2000/svg" xmlns:xlink="http://www.w3.org/1999/xlink" x="0px" y="0px"
	 width="100%" viewBox="0 0 386 441" enable-background="new 0 0 386 441" xml:space="preserve">
<path fill="#F7F7F2" opacity="1.000000" stroke="none" 
	d="
M387.000000,171.000000 
	C387.000000,261.666656 387.000000,351.833344 387.000000,442.000000 
	C258.333344,442.000000 129.666672,442.000000 1.000000,442.000000 
	C1.000000,295.000000 1.000000,148.000000 1.000000,1.000000 
	C129.666672,1.000000 258.333344,1.000000 387.000000,1.000000 
	C387.000000,57.500000 387.000000,114.000000 387.000000,171.000000 
M282.691559,141.636475 
	C282.509583,141.413528 282.302246,141.217407 282.014832,140.452347 
	C281.984894,140.255188 281.954987,140.058014 282.091888,139.118286 
	C281.382080,136.415802 280.672272,133.713318 280.017609,130.252502 
	C279.773773,126.215080 278.038055,124.751205 273.893463,126.105499 
	C268.421631,127.893509 262.777161,129.152023 257.299072,130.923187 
	C256.162170,131.290756 255.428772,132.906143 253.661163,133.944138 
	C249.858276,134.954620 246.055389,135.965103 241.807434,136.257568 
	C235.258331,137.924316 228.709244,139.591049 221.887299,141.989929 
	C221.835632,142.245193 221.783981,142.500473 221.732056,142.673950 
	C221.732056,142.673950 221.756226,142.699875 221.371841,142.869415 
	C221.371841,142.869415 221.044388,143.132584 220.475708,143.052917 
	C219.659164,143.373734 218.842621,143.694534 217.496674,143.994812 
	C217.331741,144.057922 217.166794,144.121033 216.439438,144.092148 
	C215.649399,144.457916 214.859360,144.823700 213.617813,144.968338 
	C213.452957,144.938354 213.288086,144.908356 212.712296,144.171524 
	C207.412537,145.226898 202.055862,146.057419 196.824081,147.381378 
	C183.209412,150.826736 169.649551,154.488663 155.253845,157.856995 
	C153.222397,157.702576 151.190964,157.548157 148.710526,157.359604 
	C150.275299,153.406525 151.940796,150.291702 152.731796,146.968719 
	C154.283142,140.451523 155.347473,133.818405 157.094345,126.655975 
	C159.719818,121.519470 162.345291,116.382957 164.905182,111.252678 
	C164.905182,111.252678 164.978119,111.248573 165.688156,111.197800 
	C166.902817,109.879372 167.967255,108.359528 169.379547,107.306061 
	C170.515472,106.458748 172.034348,105.897171 173.450882,105.703773 
	C175.958740,105.361389 179.921173,106.318665 180.744995,105.066948 
	C182.179077,102.888084 181.690277,99.443619 182.512909,96.027092 
	C190.690247,89.255821 195.373184,80.726639 195.836868,69.225624 
	C196.284332,64.769951 193.382477,62.708164 189.680710,60.453739 
	C188.708313,59.656097 187.735901,58.858456 186.627365,57.585369 
	C186.464951,57.254314 186.199493,57.080273 185.880676,57.100933 
	C185.880676,57.100933 185.863678,57.160957 185.836151,56.457382 
	C177.505005,43.396225 165.649170,36.243767 150.185364,34.895142 
	C146.996033,34.616997 145.152954,35.920063 144.917862,38.717190 
	C144.676697,41.586842 145.315964,44.530491 145.157455,47.937820 
	C141.757568,52.683620 138.357697,57.429424 134.189392,62.111362 
	C127.352821,63.008968 124.164162,67.632088 127.905029,71.773239 
	C130.157227,74.266426 129.644867,75.878609 128.512238,78.243446 
	C127.812401,79.704697 127.591850,81.395500 126.981300,83.705940 
	C126.933594,84.444756 126.885887,85.183578 126.375793,86.558640 
	C126.632317,90.308372 126.888840,94.058105 126.335602,97.858360 
	C116.691193,95.022881 107.615578,95.500641 99.442741,102.149521 
	C89.119827,110.547577 80.612549,120.510445 73.823257,131.904327 
	C70.796120,136.984512 69.433357,142.357834 73.295776,147.860260 
	C73.804565,148.585098 73.924057,150.407837 73.423042,150.890045 
	C68.073959,156.038406 66.985870,163.493423 63.166134,169.430878 
	C57.941883,177.551529 52.324268,185.430298 47.353664,193.700287 
	C40.179790,205.636017 33.435249,217.829773 26.323193,230.234924 
	C31.115343,233.648743 35.561470,236.816055 40.326206,240.495926 
	C40.854336,240.772766 41.382462,241.049591 42.266315,241.871399 
	C46.282074,244.793427 50.297829,247.715469 54.500946,250.773834 
	C62.847893,241.978622 70.954384,233.436783 79.293205,225.787308 
	C79.365982,226.444992 79.347420,227.129196 79.529274,227.755188 
	C80.006363,229.397476 80.570824,231.014389 81.100471,232.641403 
	C82.724014,231.991562 84.632744,231.683609 85.909752,230.618332 
	C88.320656,228.607193 90.619156,226.352509 92.524918,223.862671 
	C103.030457,210.137314 113.490486,196.374741 123.751755,182.466751 
	C125.942070,179.498032 127.648300,179.113602 131.168396,180.390152 
	C136.249039,182.232651 141.763733,182.878265 147.514938,184.615494 
	C148.076660,186.612946 148.315186,188.795837 149.316605,190.540955 
	C149.957230,191.657349 151.724762,192.127075 153.749847,193.070801 
	C158.164795,191.673050 162.579758,190.275284 167.790909,189.060349 
	C173.462326,187.595657 179.133759,186.130981 185.390915,184.844757 
	C185.932434,184.617508 186.473969,184.390244 187.434998,184.012131 
	C187.434998,184.012131 187.840164,183.826141 188.540421,183.863525 
	C189.384140,183.631714 190.227844,183.399902 191.475037,183.049271 
	C191.475037,183.049271 191.888672,182.972961 192.771805,183.087372 
	C196.164871,182.947495 199.695984,182.393555 201.921860,186.820786 
	C201.921005,187.549896 201.920166,188.279007 201.391556,189.640228 
	C201.576141,196.758942 201.760727,203.877670 201.973801,211.839584 
	C201.908722,213.522247 201.843658,215.204910 201.065399,217.152451 
	C200.792557,217.557236 200.354614,217.930573 200.270676,218.371323 
	C197.146729,234.775208 194.141037,251.202316 190.886932,267.580109 
	C190.243393,270.818970 188.661682,273.871399 187.081741,278.186676 
	C184.456924,274.590515 182.779282,271.966278 180.783829,269.611328 
	C168.351440,254.939133 157.032745,239.524231 147.973450,222.482834 
	C145.666916,218.144043 144.073105,212.810013 137.963623,211.685593 
	C132.602158,210.698837 127.325363,208.653824 121.966026,208.481720 
	C118.833893,208.381104 114.756523,210.306305 112.719131,212.696518 
	C111.242500,214.428864 111.156296,219.736130 112.643021,221.160751 
	C117.275978,225.600266 122.951996,228.951279 128.184906,232.839661 
	C128.184906,232.839661 128.280594,232.764618 128.211151,233.472321 
	C128.247070,233.634872 128.238693,233.827271 128.325211,233.955765 
	C143.236084,256.097748 158.117950,278.259491 173.110901,300.345825 
	C175.285477,303.549164 175.602859,306.028442 172.837997,309.192230 
	C170.532990,311.829834 169.105331,315.234131 167.140701,318.646362 
	C167.140701,318.646362 166.898697,318.936554 166.216690,318.985687 
	C162.921173,323.103882 159.625656,327.222076 155.966568,331.810822 
	C155.270493,332.515228 154.574417,333.219635 153.199951,333.964783 
	C149.109573,338.271423 145.019196,342.578064 140.536667,347.252045 
	C140.127640,347.599579 139.718628,347.947144 138.601578,348.190887 
	C136.718491,350.104309 134.835388,352.017761 132.630508,354.368134 
	C132.193008,354.683289 131.755508,354.998413 130.619080,355.161011 
	C129.385910,356.395691 128.152740,357.630341 126.629494,359.108795 
	C126.629494,359.108795 126.291786,359.280640 125.571030,359.184906 
	C119.506409,363.217896 113.404991,367.197174 107.398277,371.314667 
	C105.447861,372.651642 103.745247,374.350098 101.600319,376.096832 
	C101.600319,376.096832 101.225746,376.213226 100.466560,376.095490 
	C98.789444,376.791382 97.093468,377.445343 95.438385,378.190186 
	C86.996933,381.988983 78.601372,385.892242 70.117577,389.593475 
	C65.412430,391.646179 60.491989,393.214508 55.835003,395.362030 
	C54.659172,395.904236 54.121620,397.830658 53.290749,399.120972 
	C54.538349,399.723114 55.746532,400.441742 57.048744,400.882568 
	C57.796795,401.135742 58.701164,400.994141 59.528557,400.936096 
	C80.132286,399.490570 99.447685,393.113251 118.176544,384.959320 
	C134.329391,377.926910 149.264404,368.647736 163.055939,357.676300 
	C166.635651,354.828613 169.420227,350.981415 172.875305,347.215027 
	C173.112076,346.987366 173.382523,346.811493 174.397263,346.812408 
	C176.209320,344.810364 178.021393,342.808319 180.135880,340.361908 
	C180.430801,339.917328 180.725739,339.472778 181.689117,338.926544 
	C184.611618,335.884766 187.534119,332.842957 190.511871,329.743683 
	C191.346420,330.627991 191.727234,330.949188 192.008728,331.341644 
	C202.848663,346.454102 213.521362,361.689880 224.572845,376.645844 
	C230.866714,385.163330 237.530930,393.443054 244.545273,401.372589 
	C246.961304,404.103851 250.942566,405.450623 254.602493,407.721375 
	C254.602493,407.721375 255.024475,407.970154 255.024765,408.537964 
	C255.684784,408.634949 256.344818,408.731934 257.630371,408.939728 
	C258.044373,409.028564 258.458344,409.117371 258.997589,409.749847 
	C259.664734,409.748016 260.331879,409.746185 261.809875,409.909393 
	C265.185730,410.303986 268.561584,410.698578 272.200470,411.820862 
	C277.551208,412.941437 282.908783,414.212067 288.927338,410.983398 
	C290.950439,410.891144 292.973541,410.798859 295.306488,411.208099 
	C296.279907,410.957306 297.253296,410.706512 299.008331,410.253082 
	C300.340057,410.060760 301.671814,409.868439 303.257324,410.242157 
	C304.230469,409.930939 305.203613,409.619720 307.002289,409.176514 
	C308.667786,409.005280 310.333252,408.834045 312.291046,409.223755 
	C313.201111,408.826019 314.111145,408.428284 315.811371,407.870575 
	C318.206085,407.515320 320.600830,407.160095 323.293915,407.351807 
	C324.224396,406.944092 325.154907,406.536377 326.807831,405.972992 
	C327.539185,405.867920 328.270508,405.762878 329.204926,406.152283 
	C329.860016,405.865875 330.515137,405.579468 331.772278,405.128784 
	C332.179749,405.045044 332.587219,404.961273 333.301025,405.414001 
	C334.218994,404.968994 335.136963,404.524017 336.835968,403.967743 
	C339.737854,403.058197 342.639709,402.148651 346.203430,401.585541 
	C350.457153,399.106842 350.964142,396.939728 347.487244,394.312225 
	C345.289612,392.651489 342.690033,391.306702 340.063995,390.465759 
	C328.139069,386.646881 316.146729,383.037537 304.165192,379.397034 
	C300.408936,378.255676 296.610657,377.252563 292.437225,376.077759 
	C292.437225,376.077759 292.060883,375.917633 291.938477,375.237976 
	C284.205505,371.593872 276.472534,367.949768 268.377777,364.148956 
	C268.377777,364.148956 268.034576,363.954895 267.927490,363.288788 
	C258.924042,355.806610 249.886017,348.365540 240.930664,340.826202 
	C235.919296,336.607147 231.044998,332.225281 225.854675,327.623810 
	C225.854675,327.623810 225.639069,327.301392 225.796097,326.605011 
	C223.574310,324.371063 221.352539,322.137085 218.885330,319.592834 
	C218.885330,319.592834 218.651505,319.273712 218.647385,318.747345 
	C218.349182,318.618683 218.050995,318.489990 217.706818,318.298615 
	C217.706818,318.298615 217.658310,318.237823 217.796265,317.534241 
	C215.948853,315.012451 214.367889,312.226288 212.190460,310.032013 
	C209.065002,306.882416 208.874008,303.922211 210.319016,299.741913 
	C214.581619,287.410339 218.675537,274.988007 222.056824,262.392181 
	C226.687881,245.140854 229.151947,227.231476 238.938385,211.688675 
	C241.114868,208.232010 240.907013,204.570099 239.025131,200.804230 
	C235.209015,193.167709 230.559799,186.360596 222.361374,181.979553 
	C222.100983,181.780014 221.866318,181.553787 221.813919,180.446243 
	C222.851654,179.582825 223.791580,178.543549 224.950897,177.898727 
	C226.544724,177.012238 228.304626,176.424316 230.650528,175.621384 
	C231.310059,175.557190 231.969589,175.493011 233.471268,175.765808 
	C238.473495,174.771912 243.654984,174.306122 248.442917,172.680923 
	C260.745117,168.505051 273.068817,164.271759 284.994598,159.154144 
	C291.839111,156.217026 291.390900,150.317276 284.434753,145.749268 
	C284.266968,145.469208 284.067719,145.213684 283.857208,144.323807 
	C283.565155,143.584183 283.273102,142.844559 282.927094,142.063583 
	C282.927094,142.063583 282.869934,142.026855 282.691559,141.636475 
z"/>
<path fill="#ED242A" opacity="1.000000" stroke="none" 
	d="
M201.778580,216.887573 
	C201.843658,215.204910 201.908722,213.522247 202.209045,211.089706 
	C202.269302,203.229263 202.094299,196.118683 201.919312,189.008118 
	C201.920166,188.279007 201.921005,187.549896 201.988770,186.062561 
	C202.560699,182.117523 201.081696,180.810440 198.034363,180.785507 
	C198.069641,180.548340 198.097412,180.069580 198.071747,180.043365 
	C198.046097,180.017151 198.018280,180.085037 198.430954,180.104279 
	C216.600754,175.342468 234.374924,170.623337 252.103592,165.739044 
	C256.823181,164.438766 261.403351,162.632294 266.015564,161.054413 
	C265.983612,161.050568 266.036041,161.088455 266.270386,161.162109 
	C266.504730,161.235764 266.990356,161.165253 267.400269,161.146973 
	C272.566223,160.099472 277.322266,159.070236 281.981964,158.390167 
	C269.514740,163.139084 257.164154,167.597290 244.761230,171.904709 
	C240.788406,173.284454 236.677078,174.265411 232.629120,175.428833 
	C231.969589,175.493011 231.310059,175.557190 230.038239,175.455460 
	C225.734985,176.000778 222.044037,176.712036 217.087433,177.667175 
	C219.302460,179.428406 220.479919,180.364639 221.657379,181.300873 
	C221.866318,181.553787 222.100983,181.780014 222.619354,182.451721 
	C226.615601,187.151993 230.586441,191.200012 234.034470,195.652863 
	C238.542068,201.474075 239.595810,207.428314 235.620285,214.540741 
	C231.683777,221.583374 228.204926,229.204514 226.312714,237.005463 
	C221.028854,258.788818 216.448456,280.730133 207.841309,301.557770 
	C207.254196,302.978485 206.776398,305.295471 207.498154,306.258789 
	C210.631821,310.441376 214.229385,314.276428 217.658310,318.237823 
	C217.658310,318.237823 217.706818,318.298615 217.771072,318.567444 
	C218.019287,319.146515 218.291336,319.292328 218.651505,319.273712 
	C218.651505,319.273712 218.885330,319.592834 218.982300,320.095276 
	C221.265884,322.832245 223.452469,325.066833 225.639069,327.301392 
	C225.639069,327.301392 225.854675,327.623810 225.968597,328.115295 
	C236.844986,338.445312 247.510880,348.393219 258.437042,358.046478 
	C261.210999,360.497253 264.813049,362.010712 268.034576,363.954895 
	C268.034576,363.954895 268.377777,364.148956 268.651917,364.551178 
	C276.637665,368.608154 284.349274,372.262909 292.060883,375.917633 
	C292.060883,375.917633 292.437225,376.077759 292.749023,376.456848 
	C307.269714,381.852264 321.464478,386.909454 335.700378,391.847931 
	C338.319092,392.756348 341.221863,392.887726 343.785645,393.902802 
	C347.529510,395.385010 348.377441,397.974213 345.541595,401.239136 
	C342.639709,402.148651 339.737854,403.058197 336.111267,403.915771 
	C334.589264,404.201721 333.791992,404.539612 332.994690,404.877502 
	C332.587219,404.961273 332.179749,405.045044 331.194275,405.076477 
	C330.078156,405.235413 329.540009,405.446594 329.001862,405.657806 
	C328.270508,405.762878 327.539185,405.867920 326.119690,405.917236 
	C324.619568,406.175934 323.807556,406.490417 322.995544,406.804871 
	C320.600830,407.160095 318.206085,407.515320 315.098450,407.828613 
	C313.589935,408.078705 312.794342,408.370758 311.998749,408.662842 
	C310.333252,408.834045 308.667786,409.005280 306.268402,409.101074 
	C304.690857,409.242462 303.847198,409.459290 303.003540,409.676147 
	C301.671814,409.868439 300.340057,410.060760 298.309998,410.163055 
	C296.740021,410.284210 295.868317,410.495422 294.996643,410.706604 
	C292.973541,410.798859 290.950439,410.891144 288.041565,410.904297 
	C282.082977,410.914520 277.010223,411.003845 271.937439,411.093170 
	C268.561584,410.698578 265.185730,410.303986 261.229248,409.572388 
	C260.056519,409.225647 259.464417,409.215912 258.872345,409.206177 
	C258.458344,409.117371 258.044373,409.028564 257.178101,408.614380 
	C256.158691,408.182770 255.591583,408.076447 255.024475,407.970154 
	C255.024475,407.970154 254.602493,407.721375 254.289154,407.280579 
	C251.082382,404.404358 247.888184,402.241974 245.368942,399.466858 
	C241.945496,395.695679 239.107010,391.400085 235.889114,387.433716 
	C232.964111,383.828339 229.610519,380.548767 226.891022,376.802429 
	C215.691666,361.374390 204.711746,345.786865 193.461792,330.396362 
	C192.680222,329.327148 189.428177,328.509735 188.901657,329.066437 
	C186.003571,332.130646 183.596313,335.659058 181.020660,339.028198 
	C180.725739,339.472778 180.430801,339.917328 179.650223,340.629822 
	C177.338593,342.827667 175.512634,344.757568 173.686661,346.687469 
	C173.382523,346.811493 173.112076,346.987366 172.396576,347.487854 
	C159.221588,356.847290 147.020294,366.749146 133.712311,374.828064 
	C114.076180,386.748627 92.344543,393.794342 69.793892,398.077515 
	C65.433357,398.905731 60.884590,398.742981 56.422649,399.037323 
	C56.328503,398.511780 56.234356,397.986267 56.140213,397.460724 
	C57.562828,396.739746 58.948486,395.931366 60.413960,395.311798 
	C71.129303,390.781738 81.913925,386.410126 92.553703,381.710114 
	C95.649658,380.342499 98.346146,378.070587 101.225739,376.213226 
	C101.225746,376.213226 101.600319,376.096832 102.123306,376.008484 
	C110.528122,370.373657 118.409950,364.827148 126.291779,359.280640 
	C126.291786,359.280640 126.629494,359.108795 127.111046,359.008118 
	C128.834412,357.709503 130.076218,356.511536 131.318024,355.313538 
	C131.755508,354.998413 132.193008,354.683289 133.135376,354.158936 
	C135.530014,352.064728 137.419800,350.179718 139.309601,348.294678 
	C139.718628,347.947144 140.127640,347.599579 141.078186,347.085144 
	C145.705902,342.586823 149.792114,338.255402 153.878342,333.924011 
	C154.574417,333.219635 155.270493,332.515228 156.474335,331.496765 
	C160.287628,327.100647 163.593170,323.018616 166.898712,318.936554 
	C166.898697,318.936554 167.140701,318.646362 167.542358,318.390381 
	C170.833130,314.505737 173.975571,311.039124 176.462067,307.152863 
	C177.241898,305.934021 176.875031,303.185455 175.986938,301.814941 
	C162.783813,281.439575 149.475998,261.130676 135.991440,240.940613 
	C133.939865,237.868835 130.876160,235.473068 128.280594,232.764618 
	C128.280594,232.764618 128.184906,232.839661 128.142578,232.452728 
	C125.053566,229.788300 122.061905,227.432236 118.947411,225.251602 
	C114.173660,221.909256 112.182571,217.939117 114.023209,213.941223 
	C116.158157,209.304047 120.620094,209.841644 124.493095,210.455658 
	C128.893265,211.153275 133.313309,212.293991 137.435577,213.958221 
	C139.828156,214.924133 142.184570,216.937225 143.646347,219.095932 
	C153.333862,233.402008 162.593719,247.999527 172.378220,262.237274 
	C176.748993,268.597290 182.012466,274.343842 187.248322,280.836945 
	C188.427307,279.085327 189.339783,278.247803 189.618866,277.235626 
	C192.710678,266.021790 196.195496,254.883286 198.565308,243.514160 
	C200.382919,234.794250 200.760529,225.774155 201.778580,216.887573 
z"/>
<path fill="#5A5E64" opacity="1.000000" stroke="none" 
	d="
M40.007591,239.983368 
	C35.561470,236.816055 31.115343,233.648743 26.323193,230.234924 
	C33.435249,217.829773 40.179790,205.636017 47.353664,193.700287 
	C52.324268,185.430298 57.941883,177.551529 63.166134,169.430878 
	C66.985870,163.493423 68.073959,156.038406 73.423042,150.890045 
	C73.924057,150.407837 73.804565,148.585098 73.295776,147.860260 
	C69.433357,142.357834 70.796120,136.984512 73.823257,131.904327 
	C80.612549,120.510445 89.119827,110.547577 99.442741,102.149521 
	C107.615578,95.500641 116.691193,95.022881 127.019379,98.003044 
	C128.129684,99.317642 128.556198,100.487556 128.729370,101.919006 
	C124.326500,110.472900 120.176971,118.765259 115.949287,127.400497 
	C113.160988,133.469696 110.450851,139.196014 107.426254,144.776733 
	C105.717644,143.513519 104.323502,142.395935 102.944489,140.841644 
	C104.094963,133.755341 105.310776,127.118050 106.332565,120.451035 
	C106.863220,116.988625 108.424431,114.885536 111.999893,114.015724 
	C113.495209,113.651955 114.690964,112.056824 116.380280,110.951492 
	C117.127312,110.396881 117.952469,109.751015 117.841652,109.451851 
	C116.040344,104.588943 118.860786,103.022438 122.840012,102.136192 
	C123.482437,101.993111 124.031204,101.429581 125.040359,100.800323 
	C117.088234,99.293526 114.624748,102.316216 115.582794,110.982010 
	C111.191154,112.073387 106.224075,111.815926 105.046066,117.213684 
	C103.425789,124.637985 102.097702,132.126053 100.283569,139.500458 
	C96.897583,138.773849 94.037659,134.575699 90.580704,138.985291 
	C90.383575,138.981094 89.992432,138.930984 89.990105,138.557617 
	C90.213188,136.630768 90.438599,135.077301 90.664009,133.523849 
	C88.293365,135.794159 84.967369,137.932678 89.265259,141.250275 
	C93.382896,146.592880 97.269768,151.702072 100.897690,157.040894 
	C98.625793,159.796875 96.612846,162.323273 94.677322,164.752487 
	C99.655106,172.065186 105.595078,174.294510 113.306419,172.042572 
	C115.909767,172.781296 118.181175,173.339203 120.271530,174.211945 
	C115.466789,180.588028 111.406395,186.903366 105.896347,192.491852 
	C96.087013,202.440842 87.916702,214.005829 79.060883,224.894943 
	C70.954384,233.436783 62.847893,241.978622 54.500946,250.773834 
	C50.297829,247.715469 46.282074,244.793427 42.138653,241.230606 
	C48.223511,232.005890 54.522148,223.482559 60.617573,214.816284 
	C64.525513,209.260117 68.133850,203.493225 71.876495,197.820801 
	C71.469070,197.528122 71.061646,197.235428 70.654221,196.942734 
	C69.337067,198.502106 67.916550,199.986786 66.724434,201.636520 
	C64.297615,204.994919 62.006565,208.451080 59.637241,211.851410 
	C53.100178,221.233032 46.551609,230.606628 40.007591,239.983368 
M75.905533,152.702377 
	C75.815903,152.656372 75.726280,152.610352 75.636650,152.564346 
	C75.750168,152.715561 75.863678,152.866760 76.055557,153.707230 
	C79.806175,160.017776 86.109245,162.720596 91.986977,166.024582 
	C92.321350,165.565308 92.655724,165.106033 92.990097,164.646759 
	C87.333153,160.756348 81.676216,156.865952 75.905533,152.702377 
M84.777901,169.800644 
	C79.716759,167.691895 74.655617,165.583145 69.594475,163.474411 
	C69.373100,163.957031 69.151733,164.439651 68.930359,164.922272 
	C72.385986,166.492813 75.895134,167.957092 79.282425,169.663284 
	C82.789200,171.429657 86.594131,172.944107 89.518005,175.445984 
	C93.649910,178.981537 97.010681,183.404907 100.887604,187.261246 
	C101.851578,188.220093 103.531723,188.458954 104.859596,189.019012 
	C100.429909,184.226196 96.370979,179.642899 92.084801,175.282990 
	C90.127625,173.292145 87.722328,171.741867 84.777901,169.800644 
M79.011162,188.457611 
	C79.233185,187.478180 79.455215,186.498749 79.677246,185.519318 
	C79.224762,185.393265 78.772278,185.267212 78.319794,185.141174 
	C76.243614,188.442642 74.167435,191.744125 72.091263,195.045593 
	C72.551651,195.344391 73.012047,195.643188 73.472443,195.941986 
	C75.157188,193.623871 76.841934,191.305740 79.011162,188.457611 
M97.117233,121.747704 
	C96.158989,123.551521 95.200745,125.355339 94.242508,127.159157 
	C94.649452,127.346802 95.056404,127.534454 95.463356,127.722099 
	C96.944313,125.426109 98.425270,123.130119 99.906235,120.834137 
	C99.617943,120.616020 99.329659,120.397911 99.041374,120.179802 
	C98.521767,120.513763 98.002159,120.847717 97.117233,121.747704 
M92.090782,129.593750 
	C91.991005,130.246323 91.891228,130.898911 91.791451,131.551468 
	C92.218384,131.439484 93.018944,131.300461 93.013107,131.219803 
	C92.966774,130.579605 92.767136,129.950500 92.090782,129.593750 
z"/>
<path fill="#5A5D64" opacity="1.000000" stroke="none" 
	d="
M156.613358,127.233261 
	C155.347473,133.818405 154.283142,140.451523 152.731796,146.968719 
	C151.940796,150.291702 150.275299,153.406525 148.710526,157.359604 
	C151.190964,157.548157 153.222397,157.702576 155.423859,158.208435 
	C153.723312,159.318329 151.852753,160.076752 149.572495,160.878754 
	C141.183762,162.239288 141.230087,162.226334 143.292252,169.597153 
	C143.765976,171.290375 143.801620,173.106155 143.655670,174.877731 
	C139.388168,173.211960 135.503860,171.533981 131.667145,169.513153 
	C130.395584,166.868088 129.076416,164.565887 128.117020,162.165222 
	C132.524948,156.711044 136.639145,151.402985 140.565735,145.959595 
	C141.354294,144.866440 141.691315,143.275925 141.782150,141.885056 
	C142.005966,138.458755 141.807434,134.999908 142.136887,131.588745 
	C142.224991,130.676392 143.469696,129.364304 144.407654,129.128799 
	C150.306412,127.647758 151.389832,125.532257 148.441376,118.650154 
	C148.228912,121.019478 148.467484,122.573425 147.887634,123.709717 
	C147.230164,124.998070 145.821304,126.846283 144.770920,126.825729 
	C140.475586,126.741722 139.507950,129.046249 140.032104,132.524323 
	C140.847794,137.937027 138.155334,140.319885 133.470520,142.515167 
	C127.335938,145.389755 121.781776,149.503021 115.606300,153.074844 
	C113.622429,151.457382 112.010208,149.848572 110.754761,148.123657 
	C115.453278,144.204514 119.795036,140.401459 124.335892,136.462357 
	C124.709190,135.878738 124.883385,135.431152 125.025986,134.988739 
	C124.994392,134.993912 125.005554,135.056900 125.339066,134.980103 
	C132.589798,127.978813 139.507034,121.054314 146.783508,114.049339 
	C148.115738,113.994385 149.088745,114.019897 150.126358,114.385826 
	C152.331772,118.895248 154.472565,123.064255 156.613358,127.233261 
z"/>
<path fill="#E98B12" opacity="1.000000" stroke="none" 
	d="
M281.925079,139.860855 
	C281.954987,140.058014 281.984894,140.255188 282.037903,140.997101 
	C282.224457,141.880417 282.494141,142.042084 282.869934,142.026855 
	C282.869934,142.026855 282.927094,142.063583 282.942810,142.439575 
	C282.955017,143.527405 282.951508,144.239258 282.884644,145.189240 
	C282.821259,145.427383 282.700562,145.905243 282.344208,145.990631 
	C237.675385,158.372620 193.362930,170.669205 148.869614,182.644073 
	C148.255768,180.673431 147.822769,179.024506 147.760040,177.183899 
	C150.008118,176.336685 151.856064,175.573776 153.768204,175.041672 
	C185.265900,166.276657 216.762894,157.508896 248.280334,148.815292 
	C259.467407,145.729523 270.708588,142.839981 281.925079,139.860855 
z"/>
<path fill="#EB2C30" opacity="1.000000" stroke="none" 
	d="
M131.619553,169.856018 
	C135.503860,171.533981 139.388168,173.211960 143.930710,175.117783 
	C145.423691,178.241959 146.258469,181.138275 147.093231,184.034592 
	C141.763733,182.878265 136.249039,182.232651 131.168396,180.390152 
	C127.648300,179.113602 125.942070,179.498032 123.751755,182.466751 
	C113.490486,196.374741 103.030457,210.137314 92.524918,223.862671 
	C90.619156,226.352509 88.320656,228.607193 85.909752,230.618332 
	C84.632744,231.683609 82.724014,231.991562 81.100471,232.641403 
	C80.570824,231.014389 80.006363,229.397476 79.529274,227.755188 
	C79.347420,227.129196 79.365982,226.444992 79.177048,225.341125 
	C87.916702,214.005829 96.087013,202.440842 105.896347,192.491852 
	C111.406395,186.903366 115.466789,180.588028 120.576813,174.066849 
	C123.875969,172.604919 126.688797,171.602921 129.717255,170.533707 
	C130.495117,170.263000 131.057343,170.059509 131.619553,169.856018 
z"/>
<path fill="#F8BF18" opacity="1.000000" stroke="none" 
	d="
M282.008484,139.489563 
	C270.708588,142.839981 259.467407,145.729523 248.280334,148.815292 
	C216.762894,157.508896 185.265900,166.276657 153.768204,175.041672 
	C151.856064,175.573776 150.008118,176.336685 147.621033,176.889130 
	C146.789047,175.535477 146.466324,174.284882 146.503876,173.009888 
	C147.941071,172.358002 149.018021,171.730545 150.293716,170.967010 
	C150.756622,170.628571 150.937866,170.368423 151.051590,170.052277 
	C151.066971,170.054047 151.095657,170.075836 151.481873,170.010498 
	C156.559372,169.302612 161.250656,168.660049 166.144318,168.259949 
	C166.890991,167.666565 167.435303,166.830719 168.302948,165.961884 
	C169.420883,165.593201 170.215515,165.257523 171.299774,164.924377 
	C172.075104,164.658112 172.560760,164.389313 173.459244,164.092468 
	C178.722443,163.254745 183.929993,163.283005 187.039688,158.432327 
	C191.694519,160.466278 195.211990,159.480118 197.706833,155.934570 
	C200.791351,155.934570 203.388336,155.934570 205.906906,156.203003 
	C206.025986,156.873428 206.223480,157.275421 206.420975,157.677414 
	C206.929642,156.780014 207.438309,155.882614 208.172165,154.881958 
	C208.688599,154.597321 208.896729,154.346848 209.350220,154.025406 
	C210.116486,154.008820 210.554276,153.994125 211.362595,153.940292 
	C214.488434,152.271698 217.243759,150.642258 220.323593,149.031555 
	C221.080002,149.077469 221.511902,149.104645 222.002686,149.449646 
	C224.042542,149.519302 226.023529,149.271149 228.356079,148.984848 
	C233.134995,147.636368 237.562347,146.326019 242.375946,145.020538 
	C245.088318,144.042328 247.414459,143.059265 249.005844,142.386719 
	C250.524612,140.694977 251.692368,139.394211 253.023117,138.335571 
	C253.742584,139.360077 254.299088,140.142471 254.714981,141.096298 
	C255.093277,141.200195 255.612152,141.132645 256.440765,141.003754 
	C257.172729,140.296158 257.595001,139.649948 258.308685,139.128891 
	C259.395782,139.483078 260.191498,139.712097 261.316437,139.924622 
	C264.159241,139.584137 264.782410,138.130692 264.497253,135.882141 
	C266.875336,135.892563 268.813507,135.892563 271.199005,135.892563 
	C269.591583,130.076233 272.956268,128.718964 276.842346,128.135742 
	C277.976440,129.180786 278.969482,130.095795 279.962494,131.010818 
	C280.672272,133.713318 281.382080,136.415802 282.008484,139.489563 
z"/>
<path fill="#FEC89E" opacity="1.000000" stroke="none" 
	d="
M150.061737,114.045410 
	C149.088745,114.019897 148.115738,113.994385 146.536469,113.773682 
	C140.281021,109.604813 134.631882,105.631134 128.982727,101.657463 
	C128.556198,100.487556 128.129684,99.317642 127.424255,97.977783 
	C126.888840,94.058105 126.632317,90.308372 126.946182,86.407974 
	C134.187332,90.879379 140.438904,89.719986 145.312973,83.144974 
	C148.188965,85.272224 150.734665,87.434097 154.132019,83.948349 
	C155.057510,83.997627 155.586502,84.023376 156.103394,84.428802 
	C154.179794,88.378807 155.466965,90.862076 158.677353,92.833755 
	C160.177475,93.755066 161.508545,94.951698 162.605469,96.203506 
	C161.546768,98.659492 159.679306,101.301491 160.279297,103.136864 
	C161.610367,107.208572 160.291489,110.059044 157.651337,113.169289 
	C154.889191,113.590096 152.475464,113.817749 150.061737,114.045410 
M142.001892,96.689537 
	C141.469482,96.040367 140.937073,95.391197 140.404663,94.742020 
	C139.990128,95.381508 139.074799,96.252815 139.245422,96.621452 
	C140.108261,98.485596 140.854782,100.872986 142.408325,101.820267 
	C144.068649,102.832664 146.583755,102.443214 148.725754,102.665680 
	C148.728745,102.276390 148.731735,101.887093 148.734741,101.497803 
	C146.531433,100.141968 144.328140,98.786133 142.001892,96.689537 
z"/>
<path fill="#F3A8A6" opacity="1.000000" stroke="none" 
	d="
M201.421982,217.020020 
	C200.760529,225.774155 200.382919,234.794250 198.565308,243.514160 
	C196.195496,254.883286 192.710678,266.021790 189.618866,277.235626 
	C189.339783,278.247803 188.427307,279.085327 187.248322,280.836945 
	C182.012466,274.343842 176.748993,268.597290 172.378220,262.237274 
	C162.593719,247.999527 153.333862,233.402008 143.646347,219.095932 
	C142.184570,216.937225 139.828156,214.924133 137.435577,213.958221 
	C133.313309,212.293991 128.893265,211.153275 124.493095,210.455658 
	C120.620094,209.841644 116.158157,209.304047 114.023209,213.941223 
	C112.182571,217.939117 114.173660,221.909256 118.947411,225.251602 
	C122.061905,227.432236 125.053566,229.788300 128.161896,232.395081 
	C122.951996,228.951279 117.275978,225.600266 112.643021,221.160751 
	C111.156296,219.736130 111.242500,214.428864 112.719131,212.696518 
	C114.756523,210.306305 118.833893,208.381104 121.966026,208.481720 
	C127.325363,208.653824 132.602158,210.698837 137.963623,211.685593 
	C144.073105,212.810013 145.666916,218.144043 147.973450,222.482834 
	C157.032745,239.524231 168.351440,254.939133 180.783829,269.611328 
	C182.779282,271.966278 184.456924,274.590515 187.081741,278.186676 
	C188.661682,273.871399 190.243393,270.818970 190.886932,267.580109 
	C194.141037,251.202316 197.146729,234.775208 200.270676,218.371323 
	C200.354614,217.930573 200.792557,217.557236 201.421982,217.020020 
z"/>
<path fill="#F3A8A6" opacity="1.000000" stroke="none" 
	d="
M100.846146,376.154358 
	C98.346146,378.070587 95.649658,380.342499 92.553703,381.710114 
	C81.913925,386.410126 71.129303,390.781738 60.413960,395.311798 
	C58.948486,395.931366 57.562828,396.739746 56.140213,397.460724 
	C56.234356,397.986267 56.328503,398.511780 56.422649,399.037323 
	C60.884590,398.742981 65.433357,398.905731 69.793892,398.077515 
	C92.344543,393.794342 114.076180,386.748627 133.712311,374.828064 
	C147.020294,366.749146 159.221588,356.847290 172.243942,347.677002 
	C169.420227,350.981415 166.635651,354.828613 163.055939,357.676300 
	C149.264404,368.647736 134.329391,377.926910 118.176544,384.959320 
	C99.447685,393.113251 80.132286,399.490570 59.528557,400.936096 
	C58.701164,400.994141 57.796795,401.135742 57.048744,400.882568 
	C55.746532,400.441742 54.538349,399.723114 53.290752,399.120972 
	C54.121620,397.830658 54.659172,395.904236 55.835003,395.362030 
	C60.491989,393.214508 65.412430,391.646179 70.117577,389.593475 
	C78.601372,385.892242 86.996933,381.988983 95.438385,378.190186 
	C97.093468,377.445343 98.789444,376.791382 100.846146,376.154358 
z"/>
<path fill="#873927" opacity="1.000000" stroke="none" 
	d="
M166.994720,188.877533 
	C162.579758,190.275284 158.164795,191.673050 153.153351,192.715942 
	C148.896408,188.321304 153.273422,188.832474 155.070953,188.060043 
	C157.674149,186.941406 160.362778,186.021591 163.447327,185.016144 
	C167.451675,184.431900 171.103500,184.146744 174.582520,183.215836 
	C194.829224,177.798141 215.057693,172.309006 235.247391,166.682724 
	C248.922028,162.871994 262.513275,158.762833 276.164978,154.868301 
	C278.821655,154.110428 281.585114,153.726807 284.299316,153.170547 
	C284.434387,153.716003 284.569458,154.261459 284.704529,154.806915 
	C278.804077,156.539703 272.903656,158.272476 266.780273,160.123444 
	C266.383606,160.523895 266.209839,160.806183 266.036072,161.088470 
	C266.036041,161.088455 265.983612,161.050568 265.603027,161.035156 
	C264.395355,161.086243 263.532196,161.021805 262.746552,161.238449 
	C245.321762,166.043320 227.890259,170.825165 210.498718,175.748108 
	C206.268326,176.945572 202.174759,178.626434 198.018280,180.085037 
	C198.018280,180.085037 198.046097,180.017151 197.659317,180.015488 
	C194.831451,180.680573 192.390381,181.347305 189.553162,182.028046 
	C185.521591,182.963776 181.840805,183.739090 178.263123,184.847229 
	C174.456100,186.026413 170.746735,187.520782 166.994720,188.877533 
z"/>
<path fill="#663520" opacity="1.000000" stroke="none" 
	d="
M267.003204,160.005280 
	C272.903656,158.272476 278.804077,156.539703 284.704529,154.806915 
	C284.569458,154.261459 284.434387,153.716003 284.299316,153.170547 
	C281.585114,153.726807 278.821655,154.110428 276.164978,154.868301 
	C262.513275,158.762833 248.922028,162.871994 235.247391,166.682724 
	C215.057693,172.309006 194.829224,177.798141 174.582520,183.215836 
	C171.103500,184.146744 167.451675,184.431900 163.241211,184.923645 
	C162.339218,184.669678 162.138260,184.450150 162.374146,184.059235 
	C203.075607,172.759018 243.402771,161.572922 283.984558,150.316208 
	C283.422943,148.386871 283.061737,147.146057 282.700562,145.905243 
	C282.700562,145.905243 282.821259,145.427383 283.105713,145.235764 
	C283.390198,145.044144 283.837036,144.982697 283.837036,144.982697 
	C284.067719,145.213684 284.266968,145.469208 284.652588,146.302063 
	C285.741028,150.204865 289.484222,153.500641 284.710571,156.954453 
	C283.573151,157.326584 282.786255,157.694901 282.012573,158.034698 
	C282.025818,158.006165 282.078339,158.041000 282.078339,158.041000 
	C277.322266,159.070236 272.566223,160.099472 267.404297,160.856323 
	C267.000031,160.391083 267.001617,160.198181 267.003204,160.005280 
z"/>
<path fill="#F39A99" opacity="1.000000" stroke="none" 
	d="
M217.727295,317.886047 
	C214.229385,314.276428 210.631821,310.441376 207.498154,306.258789 
	C206.776398,305.295471 207.254196,302.978485 207.841309,301.557770 
	C216.448456,280.730133 221.028854,258.788818 226.312714,237.005463 
	C228.204926,229.204514 231.683777,221.583374 235.620285,214.540741 
	C239.595810,207.428314 238.542068,201.474075 234.034470,195.652863 
	C230.586441,191.200012 226.615601,187.151993 222.819046,182.593399 
	C230.559799,186.360596 235.209015,193.167709 239.025131,200.804230 
	C240.907013,204.570099 241.114868,208.232010 238.938385,211.688675 
	C229.151947,227.231476 226.687881,245.140854 222.056824,262.392181 
	C218.675537,274.988007 214.581619,287.410339 210.319016,299.741913 
	C208.874008,303.922211 209.065002,306.882416 212.190460,310.032013 
	C214.367889,312.226288 215.948853,315.012451 217.727295,317.886047 
z"/>
<path fill="#E73338" opacity="1.000000" stroke="none" 
	d="
M145.569916,47.441757 
	C145.315964,44.530491 144.676697,41.586842 144.917862,38.717190 
	C145.152954,35.920063 146.996033,34.616997 150.185364,34.895142 
	C165.649170,36.243767 177.505005,43.396225 185.539978,56.785255 
	C184.516403,56.734245 183.788971,56.355366 182.875305,55.698059 
	C179.790558,53.373215 176.892059,51.326794 173.759857,49.024685 
	C171.049637,47.144569 168.573151,45.520138 165.952240,43.575409 
	C161.257217,39.154613 157.136383,42.337288 152.679077,44.024246 
	C152.070084,44.109425 151.838089,44.324921 151.703079,44.675880 
	C151.670731,44.672062 151.605591,44.671524 151.275208,44.732109 
	C149.153183,45.675713 147.361557,46.558731 145.569916,47.441757 
z"/>
<path fill="#FCB295" opacity="1.000000" stroke="none" 
	d="
M127.156128,82.983246 
	C127.591850,81.395500 127.812401,79.704697 128.512238,78.243446 
	C129.644867,75.878609 130.157227,74.266426 127.905029,71.773239 
	C124.164162,67.632088 127.352821,63.008968 134.719727,62.401344 
	C136.008408,63.627117 136.766785,64.562904 137.520020,65.492371 
	C138.544998,64.540085 139.376617,63.767429 140.539276,63.043068 
	C141.906616,64.659210 142.942963,66.227058 143.649750,67.913940 
	C136.815659,74.595154 136.568298,75.877609 140.974503,80.556709 
	C139.761490,81.963089 138.583130,83.789787 137.341797,83.833611 
	C133.960800,83.952980 130.553192,83.318817 127.156128,82.983246 
z"/>
<path fill="#F06C6F" opacity="1.000000" stroke="none" 
	d="
M181.354889,338.977356 
	C183.596313,335.659058 186.003571,332.130646 188.901657,329.066437 
	C189.428177,328.509735 192.680222,329.327148 193.461792,330.396362 
	C204.711746,345.786865 215.691666,361.374390 226.891022,376.802429 
	C229.610519,380.548767 232.964111,383.828339 235.889114,387.433716 
	C239.107010,391.400085 241.945496,395.695679 245.368942,399.466858 
	C247.888184,402.241974 251.082382,404.404358 254.092316,407.134827 
	C250.942566,405.450623 246.961304,404.103851 244.545273,401.372589 
	C237.530930,393.443054 230.866714,385.163330 224.572845,376.645844 
	C213.521362,361.689880 202.848663,346.454102 192.008728,331.341644 
	C191.727234,330.949188 191.346420,330.627991 190.511871,329.743683 
	C187.534119,332.842957 184.611618,335.884766 181.354889,338.977356 
z"/>
<path fill="#F3A8A6" opacity="1.000000" stroke="none" 
	d="
M128.245880,233.118469 
	C130.876160,235.473068 133.939865,237.868835 135.991440,240.940613 
	C149.475998,261.130676 162.783813,281.439575 175.986938,301.814941 
	C176.875031,303.185455 177.241898,305.934021 176.462067,307.152863 
	C173.975571,311.039124 170.833130,314.505737 167.616562,318.216614 
	C169.105331,315.234131 170.532990,311.829834 172.837997,309.192230 
	C175.602859,306.028442 175.285477,303.549164 173.110901,300.345825 
	C158.117950,278.259491 143.236084,256.097748 128.325211,233.955765 
	C128.238693,233.827271 128.247070,233.634872 128.245880,233.118469 
z"/>
<path fill="#FCB295" opacity="1.000000" stroke="none" 
	d="
M182.007584,96.529709 
	C181.690277,99.443619 182.179077,102.888084 180.744995,105.066948 
	C179.921173,106.318665 175.958740,105.361389 173.450882,105.703773 
	C172.034348,105.897171 170.515472,106.458748 169.379547,107.306061 
	C167.967255,108.359528 166.902817,109.879372 165.356049,110.836594 
	C165.353027,106.386848 165.682129,102.298309 166.384094,98.195831 
	C169.238632,95.795959 171.720291,93.410027 174.541473,91.025085 
	C176.248169,91.664627 177.615372,92.303185 178.890335,93.271431 
	C179.867935,94.577316 180.937759,95.553513 182.007584,96.529709 
z"/>
<path fill="#282927" opacity="1.000000" stroke="none" 
	d="
M182.260254,96.278404 
	C180.937759,95.553513 179.867935,94.577316 179.177246,93.088783 
	C181.444901,88.377129 183.333389,84.177818 185.571457,79.973404 
	C187.248032,78.847275 188.691757,77.836311 189.875961,76.580612 
	C191.878021,74.457657 193.715881,72.179863 195.622772,69.967178 
	C195.373184,80.726639 190.690247,89.255821 182.260254,96.278404 
z"/>
<path fill="#72553A" opacity="1.000000" stroke="none" 
	d="
M149.982178,160.835190 
	C151.852753,160.076752 153.723312,159.318329 155.830841,158.312042 
	C169.649551,154.488663 183.209412,150.826736 196.824081,147.381378 
	C202.055862,146.057419 207.412537,145.226898 212.578094,144.685577 
	C210.304016,145.860718 208.164124,146.521805 205.736237,147.234589 
	C204.956039,147.607376 204.463852,147.928436 203.601715,148.201233 
	C200.821243,148.825409 198.410690,149.497833 195.643982,150.131775 
	C193.533035,150.764877 191.778259,151.436493 189.630890,152.107544 
	C183.792816,153.637833 178.347321,155.168671 172.540802,156.781357 
	C170.792572,157.276077 169.405365,157.688950 167.684052,158.082855 
	C166.905441,158.097214 166.460938,158.130569 165.730408,158.212860 
	C164.962814,158.588715 164.481216,158.915634 163.619339,159.199738 
	C160.495209,159.801437 157.751358,160.445938 154.720428,161.119354 
	C153.968964,161.490494 153.504578,161.832703 152.764069,162.182465 
	C152.002014,162.439880 151.516098,162.689774 150.753601,162.908279 
	C150.294525,162.843216 150.112030,162.809525 149.949188,162.453796 
	C149.973267,161.699554 149.977722,161.267380 149.982178,160.835190 
z"/>
<path fill="#F39A99" opacity="1.000000" stroke="none" 
	d="
M285.061066,156.950638 
	C289.484222,153.500641 285.741028,150.204865 284.831879,146.466751 
	C291.390900,150.317276 291.839111,156.217026 284.994598,159.154144 
	C273.068817,164.271759 260.745117,168.505051 248.442917,172.680923 
	C243.654984,174.306122 238.473495,174.771912 233.050201,175.597321 
	C236.677078,174.265411 240.788406,173.284454 244.761230,171.904709 
	C257.164154,167.597290 269.514740,163.139084 281.981964,158.390167 
	C282.078339,158.041000 282.025818,158.006165 282.355469,158.122253 
	C283.477081,157.809113 284.269073,157.379883 285.061066,156.950638 
z"/>
<path fill="#F39A99" opacity="1.000000" stroke="none" 
	d="
M345.872498,401.412354 
	C348.377441,397.974213 347.529510,395.385010 343.785645,393.902802 
	C341.221863,392.887726 338.319092,392.756348 335.700378,391.847931 
	C321.464478,386.909454 307.269714,381.852264 292.946198,376.511047 
	C296.610657,377.252563 300.408936,378.255676 304.165192,379.397034 
	C316.146729,383.037537 328.139069,386.646881 340.063995,390.465759 
	C342.690033,391.306702 345.289612,392.651489 347.487244,394.312225 
	C350.964142,396.939728 350.457153,399.106842 345.872498,401.412354 
z"/>
<path fill="#E58B14" opacity="1.000000" stroke="none" 
	d="
M206.024231,147.182892 
	C208.164124,146.521805 210.304016,145.860718 212.783554,145.039001 
	C213.288086,144.908356 213.452957,144.938354 214.051285,145.297058 
	C215.323776,145.145218 216.162811,144.664673 217.001846,144.184143 
	C217.166794,144.121033 217.331741,144.057922 218.037643,144.125366 
	C219.400543,143.881485 220.222458,143.507034 221.044388,143.132584 
	C221.044388,143.132584 221.371841,142.869415 221.532898,142.793304 
	C221.693970,142.717194 221.744461,142.726593 222.015106,142.868301 
	C223.858826,143.342285 225.431885,143.674561 227.153229,144.344849 
	C227.535843,146.129578 227.770172,147.576294 228.004517,149.022995 
	C226.023529,149.271149 224.042542,149.519302 222.020050,149.125977 
	C221.791611,147.908920 221.604675,147.333313 221.417755,146.757721 
	C220.944870,147.509430 220.471985,148.261139 219.999084,149.012833 
	C217.243759,150.642258 214.488434,152.271698 211.364136,153.596802 
	C210.873962,152.450211 210.752747,151.607956 210.631546,150.765686 
	C210.329407,150.740234 210.027252,150.714767 209.725113,150.689316 
	C209.490662,151.801987 209.256195,152.914642 209.021729,154.027313 
	C208.896729,154.346848 208.688599,154.597321 207.850342,154.886902 
	C206.873199,155.001053 206.443039,155.007004 206.007019,155.006989 
	C206.001160,155.000992 205.991379,154.987457 206.131851,154.683701 
	C206.189621,151.980927 206.106918,149.581909 206.024231,147.182892 
z"/>
<path fill="#141110" opacity="1.000000" stroke="none" 
	d="
M195.729828,69.596405 
	C193.715881,72.179863 191.878021,74.457657 189.875961,76.580612 
	C188.691757,77.836311 187.248032,78.847275 185.547119,79.579391 
	C185.053665,75.914276 184.934113,72.638069 184.881287,68.988152 
	C186.621094,66.080734 188.294144,63.547039 189.967209,61.013340 
	C193.382477,62.708164 196.284332,64.769951 195.729828,69.596405 
z"/>
<path fill="#1F1F1E" opacity="1.000000" stroke="none" 
	d="
M189.823959,60.733540 
	C188.294144,63.547039 186.621094,66.080734 184.438934,68.986649 
	C180.231827,69.086548 176.533798,68.814224 172.959808,68.190002 
	C176.409760,63.884232 179.735657,59.930355 183.061554,55.976482 
	C183.788971,56.355366 184.516403,56.734245 185.553741,57.137043 
	C185.863678,57.160957 185.880676,57.100933 185.878723,57.344269 
	C186.172363,57.745346 186.467926,57.903080 186.763504,58.060814 
	C187.735901,58.858456 188.708313,59.656097 189.823959,60.733540 
z"/>
<path fill="#454950" opacity="1.000000" stroke="none" 
	d="
M40.166901,240.239655 
	C46.551609,230.606628 53.100178,221.233032 59.637241,211.851410 
	C62.006565,208.451080 64.297615,204.994919 66.724434,201.636520 
	C67.916550,199.986786 69.337067,198.502106 70.654221,196.942734 
	C71.061646,197.235428 71.469070,197.528122 71.876495,197.820801 
	C68.133850,203.493225 64.525513,209.260117 60.617573,214.816284 
	C54.522148,223.482559 48.223511,232.005890 41.960793,240.958130 
	C41.382462,241.049591 40.854336,240.772766 40.166901,240.239655 
z"/>
<path fill="#282927" opacity="1.000000" stroke="none" 
	d="
M140.208252,62.994774 
	C139.376617,63.767429 138.544998,64.540085 137.520020,65.492371 
	C136.766785,64.562904 136.008408,63.627117 135.103943,62.433281 
	C138.357697,57.429424 141.757568,52.683620 145.363678,47.689789 
	C147.361557,46.558731 149.153183,45.675713 151.358444,45.096237 
	C148.872208,50.136757 145.972351,54.873734 142.864349,59.803539 
	C141.840210,60.995838 141.024231,61.995308 140.208252,62.994774 
z"/>
<path fill="#F39A99" opacity="1.000000" stroke="none" 
	d="
M267.981018,363.621826 
	C264.813049,362.010712 261.210999,360.497253 258.437042,358.046478 
	C247.510880,348.393219 236.844986,338.445312 226.095703,328.261780 
	C231.044998,332.225281 235.919296,336.607147 240.930664,340.826202 
	C249.886017,348.365540 258.924042,355.806610 267.981018,363.621826 
z"/>
<path fill="#E73338" opacity="1.000000" stroke="none" 
	d="
M150.126358,114.385826 
	C152.475464,113.817749 154.889191,113.590096 158.041763,113.196121 
	C160.843994,112.435349 162.907379,111.840904 164.970764,111.246460 
	C162.345291,116.382957 159.719818,121.519470 156.853851,126.944618 
	C154.472565,123.064255 152.331772,118.895248 150.126358,114.385826 
z"/>
<path fill="#7F5D3C" opacity="1.000000" stroke="none" 
	d="
M279.990051,130.631653 
	C278.969482,130.095795 277.976440,129.180786 276.842346,128.135742 
	C272.956268,128.718964 269.591583,130.076233 271.199005,135.892563 
	C268.813507,135.892563 266.875336,135.892563 264.462616,135.521820 
	C263.985687,134.432999 263.983246,133.714920 264.345032,132.912231 
	C265.894165,132.264633 267.079102,131.701645 268.264038,131.138657 
	C266.890503,130.979691 265.516937,130.820709 264.143402,130.661728 
	C264.099304,131.446838 264.055206,132.231964 263.620850,133.066589 
	C261.217468,133.310928 259.204315,133.505753 257.003418,133.470612 
	C256.221313,133.463913 255.626877,133.687195 254.984375,133.895203 
	C254.936325,133.879913 254.853653,133.937729 254.766663,133.903168 
	C254.679688,133.868607 254.509430,133.946457 254.509430,133.946442 
	C255.428772,132.906143 256.162170,131.290756 257.299072,130.923187 
	C262.777161,129.152023 268.421631,127.893509 273.893463,126.105499 
	C278.038055,124.751205 279.773773,126.215080 279.990051,130.631653 
z"/>
<path fill="#663C26" opacity="1.000000" stroke="none" 
	d="
M149.572479,160.878754 
	C149.977722,161.267380 149.973267,161.699554 149.554230,162.530151 
	C145.136932,163.043152 142.730560,164.287201 144.766647,168.884583 
	C145.354065,170.210938 145.691559,171.647995 146.143616,173.034302 
	C146.466324,174.284882 146.789047,175.535477 147.250763,177.080811 
	C147.822769,179.024506 148.255768,180.673431 148.886993,183.020874 
	C149.576202,186.192413 150.572037,187.557144 153.491028,186.491516 
	C156.242676,185.487000 159.157059,184.928207 161.999847,184.173355 
	C162.138260,184.450150 162.339218,184.669678 162.808868,184.924438 
	C160.362778,186.021591 157.674149,186.941406 155.070953,188.060043 
	C153.273422,188.832474 148.896408,188.321304 152.771973,192.623886 
	C151.724762,192.127075 149.957230,191.657349 149.316605,190.540955 
	C148.315186,188.795837 148.076660,186.612946 147.304077,184.325043 
	C146.258469,181.138275 145.423691,178.241959 144.313904,175.105591 
	C143.801620,173.106155 143.765976,171.290375 143.292252,169.597153 
	C141.230087,162.226334 141.183762,162.239288 149.572479,160.878754 
z"/>
<path fill="#DD8B1C" opacity="1.000000" stroke="none" 
	d="
M254.085297,133.945297 
	C254.509430,133.946457 254.679688,133.868607 254.811615,134.289886 
	C254.249069,135.838608 253.554611,136.966019 252.860138,138.093445 
	C251.692368,139.394211 250.524612,140.694977 249.005844,142.386719 
	C247.414459,143.059265 245.088318,144.042328 242.496185,144.721344 
	C242.154358,142.284393 242.078552,140.151443 242.055252,137.755402 
	C242.156006,137.320053 242.204254,137.147812 242.252502,136.975586 
	C246.055389,135.965103 249.858276,134.954620 254.085297,133.945297 
z"/>
<path fill="#FFBD99" opacity="1.000000" stroke="none" 
	d="
M127.068710,83.344597 
	C130.553192,83.318817 133.960800,83.952980 137.341797,83.833611 
	C138.583130,83.789787 139.761490,81.963089 141.282822,80.617676 
	C142.729980,81.195686 143.862915,82.105675 144.995834,83.015656 
	C140.438904,89.719986 134.187332,90.879379 127.177368,86.089844 
	C126.885887,85.183578 126.933594,84.444756 127.068710,83.344597 
z"/>
<path fill="#FFBD99" opacity="1.000000" stroke="none" 
	d="
M164.937973,111.249573 
	C162.907379,111.840904 160.843994,112.435349 158.390182,113.002960 
	C160.291489,110.059044 161.610367,107.208572 160.279297,103.136864 
	C159.679306,101.301491 161.546768,98.659492 162.900940,96.318649 
	C164.341858,96.905815 165.176544,97.557793 166.011230,98.209778 
	C165.682129,102.298309 165.353027,106.386848 165.001022,110.861977 
	C164.978119,111.248573 164.905182,111.252678 164.937973,111.249573 
z"/>
<path fill="#F3A8A6" opacity="1.000000" stroke="none" 
	d="
M125.931404,359.232788 
	C118.409950,364.827148 110.528122,370.373657 102.287796,375.901672 
	C103.745247,374.350098 105.447861,372.651642 107.398277,371.314667 
	C113.404991,367.197174 119.506409,363.217896 125.931404,359.232788 
z"/>
<path fill="#F39A99" opacity="1.000000" stroke="none" 
	d="
M291.999695,375.577820 
	C284.349274,372.262909 276.637665,368.608154 268.832825,364.629517 
	C276.472534,367.949768 284.205505,371.593872 291.999695,375.577820 
z"/>
<path fill="#72553A" opacity="1.000000" stroke="none" 
	d="
M242.029968,136.616577 
	C242.204254,137.147812 242.156006,137.320053 241.657349,137.766403 
	C240.147522,138.060867 239.088104,138.081207 237.780029,138.084305 
	C237.009888,138.662247 236.488403,139.257446 235.558655,139.858307 
	C232.771606,140.274597 230.392838,140.685196 227.597046,141.037140 
	C225.506744,141.071579 223.833450,141.164688 222.160141,141.257782 
	C228.709244,139.591049 235.258331,137.924316 242.029968,136.616577 
z"/>
<path fill="#F3A8A6" opacity="1.000000" stroke="none" 
	d="
M201.655426,189.324173 
	C202.094299,196.118683 202.269302,203.229263 202.194794,210.668106 
	C201.760727,203.877670 201.576141,196.758942 201.655426,189.324173 
z"/>
<path fill="#72553A" opacity="1.000000" stroke="none" 
	d="
M167.392822,188.968933 
	C170.746735,187.520782 174.456100,186.026413 178.263123,184.847229 
	C181.840805,183.739090 185.521591,182.963776 189.577789,182.232147 
	C189.998566,182.422287 190.044586,182.831009 189.735413,182.923920 
	C188.897537,183.286591 188.368851,183.556366 187.840164,183.826141 
	C187.840164,183.826141 187.434998,184.012131 186.931732,184.031403 
	C185.887360,184.255875 185.346268,184.461075 184.805176,184.666290 
	C179.133759,186.130981 173.462326,187.595657 167.392822,188.968933 
z"/>
<path fill="#F3A8A6" opacity="1.000000" stroke="none" 
	d="
M153.539154,333.944397 
	C149.792114,338.255402 145.705902,342.586823 141.274261,346.901428 
	C145.019196,342.578064 149.109573,338.271423 153.539154,333.944397 
z"/>
<path fill="#F3A8A6" opacity="1.000000" stroke="none" 
	d="
M166.557709,318.961121 
	C163.593170,323.018616 160.287628,327.100647 156.656128,331.261475 
	C159.625656,327.222076 162.921173,323.103882 166.557709,318.961121 
z"/>
<path fill="#F39A99" opacity="1.000000" stroke="none" 
	d="
M272.068970,411.457031 
	C277.010223,411.003845 282.082977,410.914520 287.611389,410.962219 
	C282.908783,414.212067 277.551208,412.941437 272.068970,411.457031 
z"/>
<path fill="#F39A99" opacity="1.000000" stroke="none" 
	d="
M221.735657,180.873566 
	C220.479919,180.364639 219.302460,179.428406 217.087433,177.667175 
	C222.044037,176.712036 225.734985,176.000778 229.709656,175.499008 
	C228.304626,176.424316 226.544724,177.012238 224.950897,177.898727 
	C223.791580,178.543549 222.851654,179.582825 221.735657,180.873566 
z"/>
<path fill="#F3A8A6" opacity="1.000000" stroke="none" 
	d="
M197.999084,181.022675 
	C201.081696,180.810440 202.560699,182.117523 201.931152,185.702072 
	C199.695984,182.393555 196.164871,182.947495 192.544434,182.734131 
	C194.211075,181.928131 196.105072,181.475403 197.999084,181.022675 
z"/>
<path fill="#F39A99" opacity="1.000000" stroke="none" 
	d="
M225.717590,326.953186 
	C223.452469,325.066833 221.265884,322.832245 219.105026,320.250397 
	C221.352539,322.137085 223.574310,324.371063 225.717590,326.953186 
z"/>
<path fill="#F3A8A6" opacity="1.000000" stroke="none" 
	d="
M138.955597,348.242798 
	C137.419800,350.179718 135.530014,352.064728 133.296265,353.940491 
	C134.835388,352.017761 136.718491,350.104309 138.955597,348.242798 
z"/>
<path fill="#F3A8A6" opacity="1.000000" stroke="none" 
	d="
M174.041962,346.749939 
	C175.512634,344.757568 177.338593,342.827667 179.499023,340.852020 
	C178.021393,342.808319 176.209320,344.810364 174.041962,346.749939 
z"/>
<path fill="#DD8B1C" opacity="1.000000" stroke="none" 
	d="
M222.023712,141.623856 
	C223.833450,141.164688 225.506744,141.071579 227.562195,141.345062 
	C227.631210,142.476685 227.318069,143.241760 227.004944,144.006821 
	C225.431885,143.674561 223.858826,143.342285 222.013245,142.857101 
	C221.740738,142.704193 221.732346,142.755737 221.732346,142.755737 
	C221.783981,142.500473 221.835632,142.245193 222.023712,141.623856 
z"/>
<path fill="#6B2D24" opacity="1.000000" stroke="none" 
	d="
M198.034363,180.785507 
	C196.105072,181.475403 194.211075,181.928131 192.102875,182.676910 
	C191.888672,182.972961 191.475037,183.049271 191.026260,182.994263 
	C190.399857,182.903152 190.222214,182.867081 190.044586,182.831009 
	C190.044586,182.831009 189.998566,182.422287 189.973938,182.218170 
	C192.390381,181.347305 194.831451,180.680573 197.684967,180.041702 
	C198.097412,180.069580 198.069641,180.548340 198.034363,180.785507 
z"/>
<path fill="#F3A8A6" opacity="1.000000" stroke="none" 
	d="
M130.968552,355.237305 
	C130.076218,356.511536 128.834412,357.709503 127.256088,358.886230 
	C128.152740,357.630341 129.385910,356.395691 130.968552,355.237305 
z"/>
<path fill="#DD8B1C" opacity="1.000000" stroke="none" 
	d="
M216.720642,144.138153 
	C216.162811,144.664673 215.323776,145.145218 214.277039,145.407623 
	C214.859360,144.823700 215.649399,144.457916 216.720642,144.138153 
z"/>
<path fill="#DD8B1C" opacity="1.000000" stroke="none" 
	d="
M220.760040,143.092743 
	C220.222458,143.507034 219.400543,143.881485 218.302338,144.135620 
	C218.842621,143.694534 219.659164,143.373734 220.760040,143.092743 
z"/>
<path fill="#F39A99" opacity="1.000000" stroke="none" 
	d="
M323.144714,407.078339 
	C323.807556,406.490417 324.619568,406.175934 325.758484,405.995056 
	C325.154907,406.536377 324.224396,406.944092 323.144714,407.078339 
z"/>
<path fill="#F39A99" opacity="1.000000" stroke="none" 
	d="
M333.147858,405.145752 
	C333.791992,404.539612 334.589264,404.201721 335.720734,403.971436 
	C335.136963,404.524017 334.218994,404.968994 333.147858,405.145752 
z"/>
<path fill="#F39A99" opacity="1.000000" stroke="none" 
	d="
M312.144897,408.943298 
	C312.794342,408.370758 313.589935,408.078705 314.703369,407.908600 
	C314.111145,408.428284 313.201111,408.826019 312.144897,408.943298 
z"/>
<path fill="#F39A99" opacity="1.000000" stroke="none" 
	d="
M303.130432,409.959167 
	C303.847198,409.459290 304.690857,409.242462 305.855652,409.167053 
	C305.203613,409.619720 304.230469,409.930939 303.130432,409.959167 
z"/>
<path fill="#F39A99" opacity="1.000000" stroke="none" 
	d="
M295.151550,410.957336 
	C295.868317,410.495422 296.740021,410.284210 297.919189,410.264404 
	C297.253296,410.706512 296.279907,410.957306 295.151550,410.957336 
z"/>
<path fill="#F39A99" opacity="1.000000" stroke="none" 
	d="
M329.103394,405.905029 
	C329.540009,405.446594 330.078156,405.235413 330.893250,405.158630 
	C330.515137,405.579468 329.860016,405.865875 329.103394,405.905029 
z"/>
<path fill="#F39A99" opacity="1.000000" stroke="none" 
	d="
M255.024628,408.254059 
	C255.591583,408.076447 256.158691,408.182770 256.865295,408.559021 
	C256.344818,408.731934 255.684784,408.634949 255.024628,408.254059 
z"/>
<path fill="#F39A99" opacity="1.000000" stroke="none" 
	d="
M258.934967,409.478027 
	C259.464417,409.215912 260.056519,409.225647 260.823792,409.489868 
	C260.331879,409.746185 259.664734,409.748016 258.934967,409.478027 
z"/>
<path fill="#F3A8A6" opacity="1.000000" stroke="none" 
	d="
M189.735413,182.923920 
	C190.222214,182.867081 190.399857,182.903152 190.824524,183.053665 
	C190.227844,183.399902 189.384140,183.631714 188.190292,183.844833 
	C188.368851,183.556366 188.897537,183.286591 189.735413,182.923920 
z"/>
<path fill="#F39A99" opacity="1.000000" stroke="none" 
	d="
M283.847107,144.653259 
	C283.837036,144.982697 283.390198,145.044144 283.169098,144.997620 
	C282.951508,144.239258 282.955017,143.527405 282.969788,142.460236 
	C283.273102,142.844559 283.565155,143.584183 283.847107,144.653259 
z"/>
<path fill="#F3A8A6" opacity="1.000000" stroke="none" 
	d="
M185.098053,184.755524 
	C185.346268,184.461075 185.887360,184.255875 186.721985,184.106827 
	C186.473969,184.390244 185.932434,184.617508 185.098053,184.755524 
z"/>
<path fill="#F39A99" opacity="1.000000" stroke="none" 
	d="
M218.649445,319.010529 
	C218.291336,319.292328 218.019287,319.146515 217.794067,318.598785 
	C218.050995,318.489990 218.349182,318.618683 218.649445,319.010529 
z"/>
<path fill="#E73338" opacity="1.000000" stroke="none" 
	d="
M186.695435,57.823093 
	C186.467926,57.903080 186.172363,57.745346 185.853882,57.325428 
	C186.199493,57.080273 186.464951,57.254314 186.695435,57.823093 
z"/>
<path fill="#F39A99" opacity="1.000000" stroke="none" 
	d="
M282.780762,141.831665 
	C282.494141,142.042084 282.224457,141.880417 282.065247,141.294983 
	C282.302246,141.217407 282.509583,141.413528 282.780762,141.831665 
z"/>
<path fill="#72553A" opacity="1.000000" stroke="none" 
	d="
M221.732208,142.714844 
	C221.732346,142.755737 221.740738,142.704193 221.742599,142.715393 
	C221.744461,142.726593 221.693970,142.717194 221.725098,142.708527 
	C221.756226,142.699875 221.732056,142.673950 221.732208,142.714844 
z"/>
<path fill="#6B2D24" opacity="1.000000" stroke="none" 
	d="
M198.430954,180.104279 
	C202.174759,178.626434 206.268326,176.945572 210.498718,175.748108 
	C227.890259,170.825165 245.321762,166.043320 262.746552,161.238449 
	C263.532196,161.021805 264.395355,161.086243 265.634949,161.039001 
	C261.403351,162.632294 256.823181,164.438766 252.103592,165.739044 
	C234.374924,170.623337 216.600754,175.342468 198.430954,180.104279 
z"/>
<path fill="#6B2D24" opacity="1.000000" stroke="none" 
	d="
M266.780273,160.123444 
	C267.001617,160.198181 267.000031,160.391083 266.994385,160.874603 
	C266.990356,161.165253 266.504730,161.235764 266.270386,161.162109 
	C266.209839,160.806183 266.383606,160.523895 266.780273,160.123444 
z"/>
<path fill="#F4F5F7" opacity="1.000000" stroke="none" 
	d="
M128.729370,101.919006 
	C134.631882,105.631134 140.281021,109.604813 146.177216,113.854156 
	C139.507034,121.054314 132.589798,127.978813 125.268478,134.600220 
	C126.646973,130.005249 128.253815,125.626495 130.309021,121.469383 
	C131.013138,120.045151 132.673782,118.630234 134.189117,118.168617 
	C137.201462,117.250977 137.265610,115.259102 136.430466,113.141571 
	C135.947876,111.917969 134.029282,110.046730 133.515320,110.263657 
	C131.497070,111.115494 128.533936,112.405045 128.173889,114.030815 
	C126.845261,120.030304 122.090134,125.690102 116.027443,127.057625 
	C120.176971,118.765259 124.326500,110.472900 128.729370,101.919006 
z"/>
<path fill="#74A5D6" opacity="1.000000" stroke="none" 
	d="
M115.949287,127.400497 
	C122.090134,125.690102 126.845261,120.030304 128.173889,114.030815 
	C128.533936,112.405045 131.497070,111.115494 133.515320,110.263657 
	C134.029282,110.046730 135.947876,111.917969 136.430466,113.141571 
	C137.265610,115.259102 137.201462,117.250977 134.189117,118.168617 
	C132.673782,118.630234 131.013138,120.045151 130.309021,121.469383 
	C128.253815,125.626495 126.646973,130.005249 124.934967,134.677017 
	C125.005554,135.056900 124.994392,134.993912 124.780258,135.070511 
	C124.423004,135.630875 124.279892,136.114639 124.136795,136.598404 
	C119.795036,140.401459 115.453278,144.204514 110.482513,148.036713 
	C109.149231,147.018005 108.444969,145.970169 107.740707,144.922333 
	C110.450851,139.196014 113.160988,133.469696 115.949287,127.400497 
z"/>
<path fill="#AE2231" opacity="1.000000" stroke="none" 
	d="
M129.501617,170.600922 
	C126.688797,171.602921 123.875969,172.604919 120.757858,173.752014 
	C118.181175,173.339203 115.909767,172.781296 113.342293,171.694336 
	C115.147804,165.551254 108.369949,166.095490 107.192993,162.773178 
	C107.758316,161.964050 108.306145,161.179962 108.930405,159.963226 
	C109.318939,157.501358 109.631042,155.472122 110.260208,153.632507 
	C118.282242,157.839569 124.930435,163.048935 129.501617,170.600922 
z"/>
<path fill="#F7C198" opacity="1.000000" stroke="none" 
	d="
M108.853958,160.395874 
	C108.306145,161.179962 107.758316,161.964050 107.192993,162.773178 
	C108.369949,166.095490 115.147804,165.551254 113.010353,171.513519 
	C105.595078,174.294510 99.655106,172.065186 94.677322,164.752487 
	C96.612846,162.323273 98.625793,159.796875 101.234467,157.114136 
	C102.937622,157.278839 104.045052,157.599884 105.336426,158.179993 
	C106.631569,159.091339 107.742760,159.743607 108.853958,160.395874 
z"/>
<path fill="#DDD5D8" opacity="1.000000" stroke="none" 
	d="
M129.717255,170.533691 
	C124.930435,163.048935 118.282242,157.839569 110.193810,153.598114 
	C109.810349,153.374115 109.684502,153.284988 109.591721,152.959183 
	C104.779945,145.997910 97.978134,142.220322 90.777840,138.989502 
	C94.037659,134.575699 96.897583,138.773849 100.418343,139.760925 
	C101.585770,140.497940 102.257561,140.888138 102.929352,141.278336 
	C104.323502,142.395935 105.717644,143.513519 107.426247,144.776733 
	C108.444969,145.970169 109.149231,147.018005 110.125740,148.152802 
	C112.010208,149.848572 113.622429,151.457382 115.859917,153.274475 
	C117.284630,153.788635 118.084068,154.094543 119.048935,154.674225 
	C122.061523,157.368515 124.908684,159.789032 127.764862,162.221924 
	C127.773888,162.234314 127.757256,162.263687 127.757256,162.263687 
	C129.076416,164.565887 130.395584,166.868088 131.667145,169.513153 
	C131.057343,170.059509 130.495117,170.263000 129.717255,170.533691 
z"/>
<path fill="#AE2231" opacity="1.000000" stroke="none" 
	d="
M90.580704,138.985291 
	C97.978134,142.220322 104.779945,145.997910 109.322754,153.259781 
	C107.815201,155.231094 106.483841,156.576004 105.152481,157.920929 
	C104.045052,157.599884 102.937622,157.278839 101.493416,156.884537 
	C97.269768,151.702072 93.382896,146.592880 89.311493,140.955688 
	C89.415451,139.928802 89.703941,139.429901 89.992432,138.930984 
	C89.992432,138.930984 90.383575,138.981094 90.580704,138.985291 
z"/>
<path fill="#454950" opacity="1.000000" stroke="none" 
	d="
M85.149086,169.896210 
	C87.722328,171.741867 90.127625,173.292145 92.084801,175.282990 
	C96.370979,179.642899 100.429909,184.226196 104.859596,189.019012 
	C103.531723,188.458954 101.851578,188.220093 100.887604,187.261246 
	C97.010681,183.404907 93.649910,178.981537 89.518005,175.445984 
	C86.594131,172.944107 82.789200,171.429657 79.282425,169.663284 
	C75.895134,167.957092 72.385986,166.492813 68.930359,164.922272 
	C69.151733,164.439651 69.373100,163.957031 69.594475,163.474411 
	C74.655617,165.583145 79.716759,167.691895 85.149086,169.896210 
z"/>
<path fill="#454950" opacity="1.000000" stroke="none" 
	d="
M102.944481,140.841644 
	C102.257561,140.888138 101.585770,140.497940 100.779205,139.847260 
	C102.097702,132.126053 103.425789,124.637985 105.046066,117.213684 
	C106.224075,111.815926 111.191154,112.073387 115.593697,110.992676 
	C116.000595,111.000542 116.022926,111.021545 116.022926,111.021545 
	C114.690964,112.056824 113.495209,113.651955 111.999893,114.015724 
	C108.424431,114.885536 106.863220,116.988625 106.332565,120.451035 
	C105.310776,127.118050 104.094963,133.755341 102.944481,140.841644 
z"/>
<path fill="#454950" opacity="1.000000" stroke="none" 
	d="
M76.019272,152.975540 
	C81.676216,156.865952 87.333153,160.756348 92.990097,164.646759 
	C92.655724,165.106033 92.321350,165.565308 91.986977,166.024582 
	C86.109245,162.720596 79.806175,160.017776 76.027939,153.353104 
	C76.000320,152.998978 76.019272,152.975540 76.019272,152.975540 
z"/>
<path fill="#454950" opacity="1.000000" stroke="none" 
	d="
M115.989693,110.989883 
	C114.624748,102.316216 117.088234,99.293526 125.040359,100.800323 
	C124.031204,101.429581 123.482437,101.993111 122.840012,102.136192 
	C118.860786,103.022438 116.040344,104.588943 117.841652,109.451851 
	C117.952469,109.751015 117.127312,110.396881 116.380280,110.951492 
	C116.022926,111.021545 116.000595,111.000542 115.989693,110.989883 
z"/>
<path fill="#454950" opacity="1.000000" stroke="none" 
	d="
M78.768921,188.722626 
	C76.841934,191.305740 75.157188,193.623871 73.472443,195.941986 
	C73.012047,195.643188 72.551651,195.344391 72.091263,195.045593 
	C74.167435,191.744125 76.243614,188.442642 78.319794,185.141174 
	C78.772278,185.267212 79.224762,185.393265 79.677246,185.519318 
	C79.455215,186.498749 79.233185,187.478180 78.768921,188.722626 
z"/>
<path fill="#454950" opacity="1.000000" stroke="none" 
	d="
M89.990112,138.557617 
	C89.703941,139.429901 89.415451,139.928802 89.080719,140.722290 
	C84.967369,137.932678 88.293365,135.794159 90.664009,133.523849 
	C90.438599,135.077301 90.213188,136.630768 89.990112,138.557617 
z"/>
<path fill="#454950" opacity="1.000000" stroke="none" 
	d="
M97.299889,121.464691 
	C98.002159,120.847717 98.521767,120.513763 99.041374,120.179802 
	C99.329659,120.397911 99.617943,120.616020 99.906235,120.834137 
	C98.425270,123.130119 96.944313,125.426109 95.463356,127.722099 
	C95.056404,127.534454 94.649452,127.346802 94.242508,127.159157 
	C95.200745,125.355339 96.158989,123.551521 97.299889,121.464691 
z"/>
<path fill="#454950" opacity="1.000000" stroke="none" 
	d="
M92.352676,129.455872 
	C92.767136,129.950500 92.966774,130.579605 93.013107,131.219803 
	C93.018944,131.300461 92.218384,131.439484 91.791451,131.551483 
	C91.891228,130.898911 91.991005,130.246323 92.352676,129.455872 
z"/>
<path fill="#454950" opacity="1.000000" stroke="none" 
	d="
M75.988754,153.008484 
	C75.863678,152.866760 75.750168,152.715561 75.636650,152.564346 
	C75.726280,152.610352 75.815903,152.656372 75.962402,152.838959 
	C76.019272,152.975540 76.000320,152.998978 75.988754,153.008484 
z"/>
<path fill="#454950" opacity="1.000000" stroke="none" 
	d="
M118.883514,154.400452 
	C118.084068,154.094543 117.284630,153.788635 116.231567,153.283112 
	C121.781776,149.503021 127.335938,145.389755 133.470520,142.515167 
	C138.155334,140.319885 140.847794,137.937027 140.032104,132.524323 
	C139.507950,129.046249 140.475586,126.741722 144.770920,126.825729 
	C145.821304,126.846283 147.230164,124.998070 147.887634,123.709717 
	C148.467484,122.573425 148.228912,121.019478 148.441376,118.650154 
	C151.389832,125.532257 150.306412,127.647758 144.407654,129.128799 
	C143.469696,129.364304 142.224991,130.676392 142.136887,131.588745 
	C141.807434,134.999908 142.005966,138.458755 141.782150,141.885056 
	C141.691315,143.275925 141.354294,144.866440 140.565735,145.959595 
	C136.639145,151.402985 132.524948,156.711044 128.117020,162.165222 
	C127.757256,162.263687 127.773888,162.234314 127.866592,161.859558 
	C131.877960,155.242599 135.796616,149.000381 140.360245,141.730804 
	C137.539291,142.833191 135.879868,143.198959 134.534744,144.057281 
	C129.263824,147.420624 124.092094,150.939423 118.883514,154.400452 
z"/>
<path fill="#F4F5F7" opacity="1.000000" stroke="none" 
	d="
M124.335892,136.462357 
	C124.279892,136.114639 124.423004,135.630875 124.811844,135.065338 
	C124.883385,135.431152 124.709190,135.878738 124.335892,136.462357 
z"/>
<path fill="#C86508" opacity="1.000000" stroke="none" 
	d="
M162.374146,184.059235 
	C159.157059,184.928207 156.242676,185.487000 153.491028,186.491516 
	C150.572037,187.557144 149.576202,186.192413 149.067841,183.342590 
	C193.362930,170.669205 237.675385,158.372620 282.344208,145.990631 
	C283.061737,147.146057 283.422943,148.386871 283.984558,150.316208 
	C243.402771,161.572922 203.075607,172.759018 162.374146,184.059235 
z"/>
<path fill="#E58B14" opacity="1.000000" stroke="none" 
	d="
M196.000153,150.170258 
	C198.410690,149.497833 200.821243,148.825409 203.563568,148.511353 
	C204.594025,150.908981 205.292694,152.948227 205.991364,154.987457 
	C205.991379,154.987457 206.001160,155.000992 205.999512,155.237305 
	C205.997879,155.473602 205.985321,155.934570 205.985321,155.934570 
	C203.388336,155.934570 200.791351,155.934570 197.706833,155.934570 
	C195.211990,159.480118 191.694519,160.466278 187.039688,158.432327 
	C183.929993,163.283005 178.722443,163.254745 173.424103,163.805786 
	C172.710892,163.271118 172.445602,162.995071 172.180328,162.719040 
	C171.790268,163.453308 171.400208,164.187576 171.010132,164.921844 
	C170.215515,165.257523 169.420883,165.593201 167.984177,166.010254 
	C166.875366,166.733582 166.408646,167.375534 165.941940,168.017487 
	C161.250656,168.660049 156.559372,169.302612 151.448959,169.669708 
	C151.029953,167.242706 151.030075,165.091187 151.030182,162.939667 
	C151.516098,162.689774 152.002014,162.439880 152.899506,162.465607 
	C153.444199,164.008041 153.577301,165.274872 153.710419,166.541687 
	C154.142776,166.531235 154.575134,166.520767 155.007492,166.510300 
	C155.007492,164.703690 155.007492,162.897064 155.007492,161.090454 
	C157.751358,160.445938 160.495209,159.801437 163.680634,159.484344 
	C164.455261,160.059052 164.788345,160.306320 165.121429,160.553589 
	C165.419754,159.757034 165.718094,158.960480 166.016418,158.163910 
	C166.460938,158.130569 166.905441,158.097214 167.864044,158.301208 
	C169.433975,159.201706 170.489838,159.864868 171.617355,160.573044 
	C172.090790,159.145325 172.496307,157.922424 172.901825,156.699509 
	C178.347321,155.168671 183.792816,153.637833 189.863922,152.346497 
	C192.326401,151.780746 194.163269,150.975494 196.000153,150.170258 
M165.402496,164.197891 
	C165.789490,164.202148 166.176483,164.206421 166.563461,164.210678 
	C166.565109,164.049973 166.577576,163.749588 166.566849,163.748764 
	C166.181702,163.718933 165.794357,163.717056 165.402496,164.197891 
z"/>
<path fill="#E98B12" opacity="1.000000" stroke="none" 
	d="
M227.153229,144.344849 
	C227.318069,143.241760 227.631210,142.476685 227.979187,141.403717 
	C230.392838,140.685196 232.771606,140.274597 235.611588,140.185974 
	C236.533081,140.794159 236.993378,141.080368 237.453674,141.366562 
	C237.645370,140.278229 237.837036,139.189896 238.028687,138.101547 
	C239.088104,138.081207 240.147522,138.060867 241.604843,138.029510 
	C242.078552,140.151443 242.154358,142.284393 242.109955,144.716507 
	C237.562347,146.326019 233.134995,147.636368 228.356079,148.984848 
	C227.770172,147.576294 227.535843,146.129578 227.153229,144.344849 
M231.691757,143.836792 
	C231.955872,144.060455 232.220001,144.284103 232.484116,144.507751 
	C232.612793,144.062454 232.741470,143.617172 232.870148,143.171890 
	C232.541138,143.244308 232.212143,143.316727 231.691757,143.836792 
z"/>
<path fill="#E58B14" opacity="1.000000" stroke="none" 
	d="
M253.023117,138.335571 
	C253.554611,136.966019 254.249069,135.838608 254.898590,134.324463 
	C254.853653,133.937729 254.936325,133.879913 255.220306,134.015091 
	C256.066559,134.000366 256.628845,133.850479 257.191132,133.700592 
	C259.204315,133.505753 261.217468,133.310928 263.617432,133.055222 
	C264.004242,132.994339 263.980804,132.996857 263.980804,132.996857 
	C263.983246,133.714920 263.985687,134.432999 264.022705,135.511383 
	C264.782410,138.130692 264.159241,139.584137 261.319885,139.603790 
	C260.954712,138.502289 260.915375,137.705124 260.847473,136.329346 
	C259.645447,137.465195 258.831360,138.234467 258.017273,139.003738 
	C257.595001,139.649948 257.172729,140.296158 256.121460,140.966888 
	C255.280136,140.969223 255.067856,140.947037 254.855576,140.924866 
	C254.299088,140.142471 253.742584,139.360077 253.023117,138.335571 
z"/>
<path fill="#DD8B1C" opacity="1.000000" stroke="none" 
	d="
M150.753601,162.908279 
	C151.030075,165.091187 151.029953,167.242706 151.062744,169.735031 
	C151.095657,170.075836 151.066971,170.054047 150.825714,170.157303 
	C150.300018,170.470932 150.136856,170.751770 150.094955,171.103088 
	C149.018021,171.730545 147.941071,172.358002 146.503876,173.009888 
	C145.691559,171.647995 145.354065,170.210938 144.766647,168.884583 
	C142.730560,164.287201 145.136932,163.043152 149.534607,162.852188 
	C150.112030,162.809525 150.294525,162.843216 150.753601,162.908279 
z"/>
<path fill="#DD8B1C" opacity="1.000000" stroke="none" 
	d="
M209.350220,154.025406 
	C209.256195,152.914642 209.490662,151.801987 209.725113,150.689316 
	C210.027252,150.714767 210.329407,150.740234 210.631546,150.765686 
	C210.752747,151.607956 210.873962,152.450211 210.993622,153.635956 
	C210.554276,153.994125 210.116486,154.008820 209.350220,154.025406 
z"/>
<path fill="#DD8B1C" opacity="1.000000" stroke="none" 
	d="
M258.308685,139.128891 
	C258.831360,138.234467 259.645447,137.465195 260.847473,136.329346 
	C260.915375,137.705124 260.954712,138.502289 260.990601,139.620285 
	C260.191498,139.712097 259.395782,139.483078 258.308685,139.128891 
z"/>
<path fill="#DD8B1C" opacity="1.000000" stroke="none" 
	d="
M205.906906,156.203003 
	C205.985321,155.934570 205.997879,155.473602 206.005386,155.243286 
	C206.443039,155.007004 206.873199,155.001053 207.625153,154.990143 
	C207.438309,155.882614 206.929642,156.780014 206.420975,157.677414 
	C206.223480,157.275421 206.025986,156.873428 205.906906,156.203003 
z"/>
<path fill="#DD8B1C" opacity="1.000000" stroke="none" 
	d="
M166.144318,168.259949 
	C166.408646,167.375534 166.875366,166.733582 167.660858,166.043274 
	C167.435303,166.830719 166.890991,167.666565 166.144318,168.259949 
z"/>
<path fill="#DD8B1C" opacity="1.000000" stroke="none" 
	d="
M171.299774,164.924377 
	C171.400208,164.187576 171.790268,163.453308 172.180328,162.719040 
	C172.445602,162.995071 172.710892,163.271118 173.011292,163.833832 
	C172.560760,164.389313 172.075104,164.658112 171.299774,164.924377 
z"/>
<path fill="#DD8B1C" opacity="1.000000" stroke="none" 
	d="
M220.323608,149.031555 
	C220.471985,148.261139 220.944870,147.509430 221.417755,146.757721 
	C221.604675,147.333313 221.791611,147.908920 221.961166,148.808167 
	C221.511902,149.104645 221.080002,149.077469 220.323608,149.031555 
z"/>
<path fill="#DD8B1C" opacity="1.000000" stroke="none" 
	d="
M254.714981,141.096298 
	C255.067856,140.947037 255.280136,140.969223 255.811722,141.028259 
	C255.612152,141.132645 255.093277,141.200195 254.714981,141.096298 
z"/>
<path fill="#E58B14" opacity="1.000000" stroke="none" 
	d="
M150.293716,170.967010 
	C150.136856,170.751770 150.300018,170.470932 150.810333,170.155548 
	C150.937866,170.368423 150.756622,170.628571 150.293716,170.967010 
z"/>
<path fill="#F6C39A" opacity="1.000000" stroke="none" 
	d="
M140.539276,63.043072 
	C141.024231,61.995308 141.840210,60.995838 143.323212,59.872108 
	C148.664459,59.204094 153.338699,58.660343 158.413864,58.231201 
	C159.740173,59.695969 160.665543,61.046124 162.010406,63.008339 
	C162.714386,63.044636 164.342575,63.128582 166.287598,63.374184 
	C168.475616,63.535839 170.346786,63.535839 171.811584,63.535839 
	C172.222076,65.542267 172.528931,67.042084 172.835770,68.541901 
	C176.533798,68.814224 180.231827,69.086548 184.372208,69.360367 
	C184.934113,72.638069 185.053665,75.914276 185.197571,79.584488 
	C183.333389,84.177818 181.444901,88.377129 179.269470,92.759094 
	C177.615372,92.303185 176.248169,91.664627 174.460022,90.676025 
	C170.030121,87.062744 166.209229,83.497543 161.856476,80.786247 
	C160.965836,80.231476 158.081055,82.878174 156.115479,84.049118 
	C155.586502,84.023376 155.057510,83.997627 154.235886,83.603096 
	C157.982101,77.645325 157.925735,77.101242 152.304337,73.193726 
	C149.589935,71.306915 146.758011,69.589195 143.979294,67.794907 
	C142.942963,66.227058 141.906616,64.659210 140.539276,63.043072 
M172.983276,82.577454 
	C173.799591,82.259811 175.279572,82.019371 175.326935,81.612282 
	C175.697189,78.429413 170.901978,75.556694 168.187164,76.719208 
	C169.581497,78.361176 171.104675,80.154877 172.983276,82.577454 
M157.906158,66.713882 
	C155.697357,64.513710 153.343964,63.186810 149.397339,64.822212 
	C152.640701,66.932526 154.888489,68.395065 157.136292,69.857605 
	C157.527573,69.033325 157.918869,68.209045 157.906158,66.713882 
z"/>
<path fill="#F9F6F4" opacity="1.000000" stroke="none" 
	d="
M143.649750,67.913940 
	C146.758011,69.589195 149.589935,71.306915 152.304337,73.193726 
	C157.925735,77.101242 157.982101,77.645325 153.839386,83.579567 
	C150.734665,87.434097 148.188965,85.272224 145.312973,83.144974 
	C143.862915,82.105675 142.729980,81.195686 141.288742,80.224731 
	C136.568298,75.877609 136.815659,74.595154 143.649750,67.913940 
M146.230743,77.169304 
	C147.737045,78.467804 149.243347,79.766304 152.006287,82.148079 
	C151.508286,79.412582 151.710037,77.180367 150.696579,75.945503 
	C149.784317,74.833931 147.476135,74.272697 145.898743,74.456505 
	C144.025925,74.674744 142.785934,76.008995 146.230743,77.169304 
z"/>
<path fill="#F9F6F4" opacity="1.000000" stroke="none" 
	d="
M156.103394,84.428810 
	C158.081055,82.878174 160.965836,80.231476 161.856476,80.786247 
	C166.209229,83.497543 170.030121,87.062744 174.120514,90.675034 
	C171.720291,93.410027 169.238632,95.795959 166.384094,98.195831 
	C165.176544,97.557793 164.341858,96.905815 163.211700,96.138687 
	C161.508545,94.951698 160.177475,93.755066 158.677353,92.833755 
	C155.466965,90.862076 154.179794,88.378807 156.103394,84.428810 
M165.389450,86.253517 
	C162.797897,84.518806 160.757950,85.203712 158.913666,86.723747 
	C161.705093,88.682457 163.905487,90.226456 167.019135,92.411278 
	C166.634705,90.368881 166.298660,88.583542 165.389450,86.253517 
z"/>
<path fill="#CB4E5D" opacity="1.000000" stroke="none" 
	d="
M142.063370,97.059914 
	C144.328140,98.786133 146.531433,100.141968 148.734741,101.497803 
	C148.731735,101.887093 148.728745,102.276390 148.725754,102.665680 
	C146.583755,102.443214 144.068649,102.832664 142.408325,101.820267 
	C140.854782,100.872986 140.108261,98.485596 139.245422,96.621452 
	C139.074799,96.252815 139.990128,95.381508 140.404663,94.742020 
	C140.937073,95.391197 141.469482,96.040367 142.063370,97.059914 
z"/>
<path fill="#ED242A" opacity="1.000000" stroke="none" 
	d="
M284.710571,156.954453 
	C284.269073,157.379883 283.477081,157.809113 282.342224,158.150787 
	C282.786255,157.694901 283.573151,157.326584 284.710571,156.954453 
z"/>
<path fill="#100D0D" opacity="1.000000" stroke="none" 
	d="
M158.012924,58.116592 
	C153.338699,58.660343 148.664459,59.204094 143.531372,59.679276 
	C145.972351,54.873734 148.872208,50.136757 151.688828,45.035652 
	C151.605591,44.671524 151.670731,44.672062 151.959778,44.696747 
	C152.474808,44.486046 152.700775,44.250656 152.926758,44.015270 
	C157.136383,42.337288 161.257217,39.154613 165.892487,43.928444 
	C165.363129,45.534412 164.702240,46.439892 164.143539,47.404556 
	C162.081696,50.964642 160.053665,54.544296 158.012924,58.116592 
z"/>
<path fill="#1F1F1E" opacity="1.000000" stroke="none" 
	d="
M158.413864,58.231201 
	C160.053665,54.544296 162.081696,50.964642 164.143539,47.404556 
	C164.702240,46.439892 165.363129,45.534412 166.036880,44.248734 
	C168.573151,45.520138 171.049637,47.144569 173.715057,49.355824 
	C171.259567,54.365940 168.615173,58.789234 165.970764,63.212524 
	C164.342575,63.128582 162.714386,63.044636 162.010406,63.008339 
	C160.665543,61.046124 159.740173,59.695969 158.413864,58.231201 
z"/>
<path fill="#141110" opacity="1.000000" stroke="none" 
	d="
M166.287598,63.374184 
	C168.615173,58.789234 171.259567,54.365940 173.948761,49.611507 
	C176.892059,51.326794 179.790558,53.373215 182.875305,55.698059 
	C179.735657,59.930355 176.409760,63.884232 172.959808,68.190002 
	C172.528931,67.042084 172.222076,65.542267 171.811584,63.535839 
	C170.346786,63.535839 168.475616,63.535839 166.287598,63.374184 
z"/>
<path fill="#282927" opacity="1.000000" stroke="none" 
	d="
M152.679077,44.024246 
	C152.700775,44.250656 152.474808,44.486046 151.992126,44.700569 
	C151.838089,44.324921 152.070084,44.109425 152.679077,44.024246 
z"/>
<path fill="#DD8B1C" opacity="1.000000" stroke="none" 
	d="
M206.131836,154.683701 
	C205.292694,152.948227 204.594025,150.908981 203.933517,148.559616 
	C204.463852,147.928436 204.956039,147.607376 205.736221,147.234589 
	C206.106918,149.581909 206.189621,151.980927 206.131836,154.683701 
z"/>
<path fill="#DD8B1C" opacity="1.000000" stroke="none" 
	d="
M172.540802,156.781357 
	C172.496307,157.922424 172.090790,159.145325 171.617355,160.573044 
	C170.489838,159.864868 169.433975,159.201706 168.198120,158.320175 
	C169.405365,157.688950 170.792572,157.276077 172.540802,156.781357 
z"/>
<path fill="#DD8B1C" opacity="1.000000" stroke="none" 
	d="
M195.643982,150.131775 
	C194.163269,150.975494 192.326401,151.780746 190.256500,152.347046 
	C191.778259,151.436493 193.533035,150.764877 195.643982,150.131775 
z"/>
<path fill="#DD8B1C" opacity="1.000000" stroke="none" 
	d="
M154.720428,161.119370 
	C155.007492,162.897064 155.007492,164.703690 155.007492,166.510300 
	C154.575134,166.520767 154.142776,166.531235 153.710419,166.541687 
	C153.577301,165.274872 153.444199,164.008041 153.175629,162.458069 
	C153.504578,161.832703 153.968964,161.490494 154.720428,161.119370 
z"/>
<path fill="#DD8B1C" opacity="1.000000" stroke="none" 
	d="
M165.730423,158.212860 
	C165.718094,158.960480 165.419754,159.757034 165.121429,160.553589 
	C164.788345,160.306320 164.455261,160.059052 164.060898,159.527161 
	C164.481216,158.915634 164.962814,158.588715 165.730423,158.212860 
z"/>
<path fill="#DD8B1C" opacity="1.000000" stroke="none" 
	d="
M264.007660,133.005707 
	C264.055206,132.231964 264.099304,131.446838 264.143402,130.661728 
	C265.516937,130.820709 266.890503,130.979691 268.264038,131.138657 
	C267.079102,131.701645 265.894165,132.264633 264.345032,132.912231 
	C263.980804,132.996857 264.004242,132.994339 264.007660,133.005707 
z"/>
<path fill="#DD8B1C" opacity="1.000000" stroke="none" 
	d="
M257.003418,133.470612 
	C256.628845,133.850479 256.066559,134.000366 255.268356,134.030380 
	C255.626877,133.687195 256.221313,133.463913 257.003418,133.470612 
z"/>
<path fill="#DD8B1C" opacity="1.000000" stroke="none" 
	d="
M237.780029,138.084305 
	C237.837036,139.189896 237.645370,140.278229 237.453674,141.366562 
	C236.993378,141.080368 236.533081,140.794159 236.019852,140.180298 
	C236.488403,139.257446 237.009888,138.662247 237.780029,138.084305 
z"/>
<path fill="#AD2434" opacity="1.000000" stroke="none" 
	d="
M105.336426,158.179993 
	C106.483841,156.576004 107.815201,155.231094 109.415527,153.585587 
	C109.684502,153.284988 109.810349,153.374115 109.876755,153.408508 
	C109.631042,155.472122 109.318939,157.501358 108.930389,159.963226 
	C107.742760,159.743607 106.631569,159.091339 105.336426,158.179993 
z"/>
<path fill="#575C63" opacity="1.000000" stroke="none" 
	d="
M119.048935,154.674240 
	C124.092094,150.939423 129.263824,147.420624 134.534744,144.057281 
	C135.879868,143.198959 137.539291,142.833191 140.360245,141.730804 
	C135.796616,149.000381 131.877960,155.242599 127.857567,161.847168 
	C124.908684,159.789032 122.061523,157.368515 119.048935,154.674240 
z"/>
<path fill="#DD8B1C" opacity="1.000000" stroke="none" 
	d="
M165.404907,163.954590 
	C165.794357,163.717056 166.181702,163.718933 166.566849,163.748764 
	C166.577576,163.749588 166.565109,164.049973 166.563477,164.210693 
	C166.176483,164.206421 165.789490,164.202148 165.404907,163.954590 
z"/>
<path fill="#DD8B1C" opacity="1.000000" stroke="none" 
	d="
M231.787445,143.612976 
	C232.212143,143.316727 232.541138,143.244308 232.870148,143.171875 
	C232.741470,143.617172 232.612793,144.062454 232.484116,144.507751 
	C232.220001,144.284103 231.955872,144.060455 231.787445,143.612976 
z"/>
<path fill="#282927" opacity="1.000000" stroke="none" 
	d="
M172.805573,82.263016 
	C171.104675,80.154877 169.581497,78.361176 168.187164,76.719208 
	C170.901978,75.556694 175.697189,78.429413 175.326935,81.612282 
	C175.279572,82.019371 173.799591,82.259811 172.805573,82.263016 
z"/>
<path fill="#282927" opacity="1.000000" stroke="none" 
	d="
M158.108154,67.049316 
	C157.918869,68.209045 157.527573,69.033325 157.136292,69.857605 
	C154.888489,68.395065 152.640701,66.932526 149.397339,64.822212 
	C153.343964,63.186810 155.697357,64.513710 158.108154,67.049316 
z"/>
<path fill="#454950" opacity="1.000000" stroke="none" 
	d="
M145.877380,77.264717 
	C142.785934,76.008995 144.025925,74.674744 145.898743,74.456505 
	C147.476135,74.272697 149.784317,74.833931 150.696579,75.945503 
	C151.710037,77.180367 151.508286,79.412582 152.006287,82.148079 
	C149.243347,79.766304 147.737045,78.467804 145.877380,77.264717 
z"/>
<path fill="#454950" opacity="1.000000" stroke="none" 
	d="
M165.676025,86.525864 
	C166.298660,88.583542 166.634705,90.368881 167.019135,92.411278 
	C163.905487,90.226456 161.705093,88.682457 158.913666,86.723747 
	C160.757950,85.203712 162.797897,84.518806 165.676025,86.525864 
z"/>
</svg>